<?xml version="1.0" standalone="no"?><!DOCTYPE svg PUBLIC "-//W3C//DTD SVG 1.1//EN" "http://www.w3.org/Graphics/SVG/1.1/DTD/svg11.dtd"><svg t="1643770836440" class="icon" viewBox="0 0 1024 1024" version="1.1" xmlns="http://www.w3.org/2000/svg" p-id="2711" xmlns:xlink="http://www.w3.org/1999/xlink" width="200" height="200"><defs><style type="text/css"></style></defs><path d="M309.4 262.5c-29.6 0-53.7-24.1-53.7-53.7s24.1-53.7 53.7-53.7 53.7 24.1 53.7 53.7-24.1 53.7-53.7 53.7z" fill="#1E62A1" p-id="2712"></path><path d="M309.4 167.7c22.7 0 41.1 18.4 41.1 41.1s-18.4 41.1-41.1 41.1-41.1-18.4-41.1-41.1 18.4-41.1 41.1-41.1m0-25.2c-36.6 0-66.3 29.8-66.3 66.3s29.8 66.3 66.3 66.3c36.6 0 66.3-29.8 66.3-66.3s-29.7-66.3-66.3-66.3z" fill="#282F63" p-id="2713"></path><path d="M675.8 262.5c-29.6 0-53.7-24.1-53.7-53.7s24.1-53.7 53.7-53.7 53.7 24.1 53.7 53.7-24.1 53.7-53.7 53.7z" fill="#1E62A1" p-id="2714"></path><path d="M675.8 167.7c22.7 0 41.1 18.4 41.1 41.1s-18.4 41.1-41.1 41.1c-22.7 0-41.1-18.4-41.1-41.1s18.4-41.1 41.1-41.1m0-25.2c-36.6 0-66.3 29.8-66.3 66.3s29.8 66.3 66.3 66.3c36.6 0 66.3-29.8 66.3-66.3s-29.7-66.3-66.3-66.3z" fill="#282F63" p-id="2715"></path><path d="M447.7 850c-71 0-128.8-57.8-128.8-128.8v-89.8c0-71 57.8-128.8 128.8-128.8h89.8c71 0 128.8 57.8 128.8 128.8v89.8c0 71-57.8 128.8-128.8 128.8h-89.8z" fill="#E5F1F9" p-id="2716"></path><path d="M537.5 515.2c64.2 0 116.2 52 116.2 116.2v89.8c0 64.2-52 116.2-116.2 116.2h-89.8c-64.2 0-116.2-52-116.2-116.2v-89.8c0-64.2 52-116.2 116.2-116.2h89.8m0-25.3h-89.8c-37.8 0-73.3 14.7-100 41.4-26.7 26.7-41.4 62.2-41.4 100v89.8c0 37.8 14.7 73.3 41.4 100 26.7 26.7 62.2 41.4 100 41.4h89.8c37.8 0 73.3-14.7 100-41.4 26.7-26.7 41.4-62.2 41.4-100v-89.8c0-37.8-14.7-73.3-41.4-100-26.7-26.7-62.2-41.4-100-41.4z" fill="#282F63" p-id="2717"></path><path d="M602.3 534.9c12.5 18.5 19.8 40.8 19.8 64.8v89.8c0 64.2-52 116.2-116.2 116.2h-89.8c-24 0-46.3-7.3-64.8-19.8 20.9 31 56.3 51.4 96.4 51.4h89.8c64.2 0 116.2-52 116.2-116.2v-89.8c0-40.1-20.4-75.5-51.4-96.4z" fill="#AAD4E9" p-id="2718"></path><path d="M552.6 635.2c38.5 0 73.3-15.6 98.5-40.9-11.2-52.4-57.8-91.8-113.6-91.8h-89.8c-51.8 0-95.7 34-110.7 80.9 25.5 31.6 64.5 51.8 108.2 51.8h107.4z" fill="#AAD4E9" p-id="2719"></path><path d="M252.2 750.9c-14.9 0-29.4-4.4-41.8-12.6-34.8-23.1-44.3-70.3-21.2-105.1L259.1 528c14.1-21.2 37.7-33.8 63.3-33.8 14.9 0 29.4 4.4 41.8 12.6 34.8 23.1 44.3 70.3 21.2 105.1l-69.9 105.2c-14.1 21.2-37.8 33.8-63.3 33.8z" fill="#E5F1F9" p-id="2720"></path><path d="M322.4 506.8c12 0 24.1 3.4 34.8 10.5 28.9 19.2 36.9 58.6 17.7 87.6L305 710.1c-12.1 18.3-32.3 28.2-52.8 28.2-12 0-24.1-3.4-34.8-10.5-28.9-19.2-36.9-58.6-17.7-87.6L269.6 535c12.2-18.3 32.3-28.2 52.8-28.2m0-25.2c-29.8 0-57.4 14.7-73.8 39.4l-69.9 105.2c-27 40.6-15.9 95.6 24.7 122.6 14.5 9.6 31.4 14.7 48.8 14.7 29.8 0 57.4-14.7 73.8-39.4l69.9-105.2c27-40.6 15.9-95.6-24.7-122.6-14.5-9.6-31.4-14.7-48.8-14.7z" fill="#282F63" p-id="2721"></path><path d="M357.2 517.3c-3.5-2.3-7.2-4.2-10.9-5.8 16.6 20.9 18.8 51.1 3.3 74.4l-69.9 105.2c-16.9 25.4-49.4 34.6-76.6 23.4 4 5 8.8 9.5 14.3 13.2 28.9 19.2 68.3 11.3 87.6-17.7l69.9-105.2c19.2-28.8 11.2-68.2-17.7-87.5z" fill="#AAD4E9" p-id="2722"></path><path d="M688.7 623.9c-32.6 0-61.5-20.7-71.9-51.5-13.4-39.6 7.9-82.7 47.5-96.1L784 435.7c7.8-2.6 15.9-4 24.2-4 32.6 0 61.5 20.7 71.9 51.5 6.5 19.1 5.1 39.7-3.9 57.9-9 18.2-24.5 31.8-43.6 38.3l-119.7 40.5c-7.8 2.6-15.9 4-24.2 4z" fill="#E5F1F9" p-id="2723"></path><path d="M808.1 444.4c26.4 0 51.1 16.6 60 42.9 11.1 32.9-6.7 69-39.6 80.1l-119.7 40.5c-6.7 2.3-13.4 3.3-20.1 3.3-26.4 0-51.1-16.6-60-42.9-11.1-32.9 6.7-69 39.6-80.1L788 447.7c6.7-2.2 13.5-3.3 20.1-3.3m0-25.3c-9.6 0-19.1 1.6-28.2 4.7l-119.7 40.5c-46.2 15.6-71.1 65.9-55.4 112.1 12.2 35.9 45.9 60.1 83.9 60.1 9.6 0 19.1-1.6 28.2-4.7l119.7-40.5c22.3-7.6 40.4-23.4 50.9-44.6 10.5-21.2 12.1-45.2 4.6-67.5-12.2-35.9-45.9-60.1-84-60.1z" fill="#282F63" p-id="2724"></path><path d="M868.1 487.3c-4-11.8-11.3-21.7-20.4-29 0.5 1.2 1 2.4 1.5 3.7 11.1 32.9-6.7 69-39.6 80.1l-119.7 40.5c-21.1 7.1-43.4 2.4-59.7-10.6 12.5 30.5 47 46.6 78.6 35.9l119.7-40.5c32.9-11.1 50.8-47.2 39.6-80.1z" fill="#AAD4E9" p-id="2725"></path><path d="M438.9 578.3c-83.6 0-151.6-68-151.6-151.6V319.3c0-83.6 68-151.6 151.6-151.6h107.4c83.6 0 151.6 68 151.6 151.6v107.4c0 83.6-68 151.6-151.6 151.6H438.9z" fill="#E5F1F9" p-id="2726"></path><path d="M546.3 180.4c76.8 0 139 62.2 139 139v107.4c0 76.8-62.2 139-139 139H438.9c-76.8 0-139-62.2-139-139V319.3c0-76.8 62.2-139 139-139h107.4m0-25.2H438.9c-22.2 0-43.7 4.3-63.9 12.9-19.6 8.3-37.1 20.1-52.2 35.2-15.1 15.1-26.9 32.6-35.2 52.2-8.6 20.3-12.9 41.8-12.9 63.9v107.4c0 22.2 4.3 43.7 12.9 63.9 8.3 19.6 20.1 37.1 35.2 52.2 15.1 15.1 32.6 26.9 52.2 35.2 20.3 8.6 41.8 12.9 63.9 12.9h107.4c22.2 0 43.7-4.3 63.9-12.9 19.6-8.3 37.1-20.1 52.2-35.2 15.1-15.1 26.9-32.6 35.2-52.2 8.6-20.3 12.9-41.8 12.9-63.9V319.3c0-22.2-4.3-43.7-12.9-63.9-8.3-19.6-20.1-37.1-35.2-52.2-15.1-15.1-32.6-26.9-52.2-35.2-20.2-8.6-41.7-12.9-63.9-12.9z" fill="#282F63" p-id="2727"></path><path d="M641.4 218.1c7.8 17.4 12.3 36.7 12.3 57v107.4c0 76.8-62.2 139-139 139H407.3c-36.8 0-70.3-14.3-95.1-37.7 21.8 48.3 70.3 81.9 126.7 81.9h107.4c76.8 0 139-62.2 139-139V319.3c0-39.9-16.9-75.9-43.9-101.2z" fill="#AAD4E9" p-id="2728"></path><path d="M413.6 287.8v31.5" fill="#E5F1F9" p-id="2729"></path><path d="M413.6 332c-7 0-12.6-5.7-12.6-12.6v-31.6c0-7 5.7-12.6 12.6-12.6s12.6 5.7 12.6 12.6v31.6c0.1 6.9-5.6 12.6-12.6 12.6z" fill="#282F63" p-id="2730"></path><path d="M577.9 287.8v31.5" fill="#E5F1F9" p-id="2731"></path><path d="M577.9 332c-7 0-12.6-5.7-12.6-12.6v-31.6c0-7 5.7-12.6 12.6-12.6s12.6 5.7 12.6 12.6v31.6c0 6.9-5.6 12.6-12.6 12.6z" fill="#282F63" p-id="2732"></path><path d="M492.6 553.1c-54 0-97.9-43.9-97.9-97.9s43.9-97.9 97.9-97.9 97.9 43.9 97.9 97.9-43.9 97.9-97.9 97.9z" fill="#FFFFFF" p-id="2733"></path><path d="M492.6 369.9c47.1 0 85.3 38.2 85.3 85.3s-38.2 85.3-85.3 85.3-85.3-38.2-85.3-85.3 38.2-85.3 85.3-85.3m0-25.3c-29.5 0-57.3 11.5-78.2 32.4-20.9 20.9-32.4 48.6-32.4 78.2s11.5 57.3 32.4 78.2c20.9 20.9 48.6 32.4 78.2 32.4 29.5 0 57.3-11.5 78.2-32.4 20.9-20.9 32.4-48.6 32.4-78.2s-11.5-57.3-32.4-78.2c-20.9-20.9-48.7-32.4-78.2-32.4z" fill="#282F63" p-id="2734"></path><path d="M492.6 449.1c-19.5 0-34.7-12.6-34.7-28.7s15.3-28.7 34.7-28.7 34.7 12.6 34.7 28.7-15.2 28.7-34.7 28.7z" fill="#1E62A1" p-id="2735"></path><path d="M492.6 404.3c12.2 0 22.1 7.2 22.1 16.1 0 8.9-9.9 16.1-22.1 16.1-12.2 0-22.1-7.2-22.1-16.1 0-8.9 9.9-16.1 22.1-16.1m0-25.2c-11.2 0-22 3.4-30.5 9.5-10.7 7.8-16.9 19.4-16.9 31.8s6.2 24 16.9 31.8c8.5 6.2 19.3 9.5 30.5 9.5s22-3.4 30.5-9.5c10.7-7.8 16.9-19.4 16.9-31.8s-6.2-24-16.9-31.8c-8.5-6.1-19.3-9.5-30.5-9.5z" fill="#282F63" p-id="2736"></path><path d="M344.4 951.7c-29.7 0-57.6-11.5-78.5-32.4L208.5 862c-20.9-20.9-32.4-48.8-32.4-78.5 0-29.7 11.5-57.6 32.4-78.5s48.8-32.4 78.5-32.4c29.7 0 57.6 11.5 78.5 32.4l57.3 57.3c20.9 20.9 32.4 48.8 32.4 78.5s-11.5 57.6-32.4 78.5c-20.8 20.9-48.7 32.4-78.4 32.4z" fill="#E5F1F9" p-id="2737"></path><path d="M287.1 685.1c25.2 0 50.5 9.6 69.6 28.7l57.3 57.3c38.3 38.3 38.3 100.9 0 139.2-19.1 19.1-44.4 28.7-69.6 28.7-25.2 0-50.5-9.6-69.6-28.7L217.4 853c-38.3-38.3-38.3-100.9 0-139.2 19.2-19.1 44.4-28.7 69.7-28.7m0-25.3c-33.1 0-64.2 12.8-87.5 36.1-23.3 23.3-36.1 54.4-36.1 87.5s12.8 64.2 36.1 87.5l57.3 57.3c23.3 23.3 54.4 36.1 87.5 36.1s64.2-12.8 87.5-36.1c23.3-23.3 36.1-54.4 36.1-87.5s-12.8-64.2-36.1-87.5l-57.3-57.3c-23.4-23.2-54.4-36.1-87.5-36.1z" fill="#282F63" p-id="2738"></path><path d="M414 771.1l-15.8-15.8c38.3 38.3 38.3 100.9 0 139.2-38.3 38.3-100.9 38.3-139.2 0l15.8 15.8c38.3 38.3 100.9 38.3 139.2 0 38.3-38.2 38.3-100.9 0-139.2zM356.7 713.8l16.2 16.3-16.2-16.3z" fill="#AAD4E9" p-id="2739"></path><path d="M330.8 891.7c-17.3 0-33.5-6.7-45.7-18.9l-30.2-30.2c-12.2-12.2-18.9-28.4-18.9-45.7s6.7-33.5 18.9-45.7c12.2-12.2 28.4-18.9 45.7-18.9s33.5 6.7 45.7 18.9l30.2 30.2c25.2 25.2 25.2 66.1 0 91.3-12.2 12.3-28.4 19-45.7 19z" fill="#FFDBA0" p-id="2740"></path><path d="M300.6 745.1c13.3 0 26.6 5.1 36.7 15.2l30.2 30.2c20.2 20.2 20.2 53.3 0 73.5-10.1 10.1-23.4 15.2-36.7 15.2-13.3 0-26.6-5.1-36.7-15.2l-30.2-30.2c-20.2-20.2-20.2-53.3 0-73.5 10.1-10.2 23.4-15.2 36.7-15.2m0-25.3c-20.7 0-40.1 8-54.6 22.6-30.1 30.1-30.1 79.1 0 109.2l30.2 30.2c14.5 14.5 33.9 22.6 54.6 22.6 20.7 0 40.1-8 54.6-22.6 14.5-14.5 22.6-33.9 22.6-54.6 0-20.7-8-40.1-22.6-54.6l-30.2-30.2c-14.6-14.6-33.9-22.6-54.6-22.6z" fill="#283163" p-id="2741"></path><path d="M640.8 951.7c-29.7 0-57.6-11.5-78.5-32.4-43.3-43.3-43.3-113.8 0-157.1l57.3-57.3c20.9-20.9 48.8-32.4 78.5-32.4 29.7 0 57.6 11.5 78.5 32.4 43.3 43.3 43.3 113.8 0 157.1l-57.3 57.3c-20.8 20.9-48.7 32.4-78.5 32.4z" fill="#E5F1F9" p-id="2742"></path><path d="M698.1 685.1c25.2 0 50.5 9.6 69.6 28.7 38.3 38.3 38.3 100.9 0 139.2l-57.3 57.3C691.3 929.4 666 939 640.8 939s-50.5-9.6-69.6-28.7c-38.3-38.3-38.3-100.9 0-139.2l57.3-57.3c19.2-19.1 44.4-28.7 69.6-28.7m0-25.3c-33.1 0-64.2 12.8-87.5 36.1l-57.3 57.3c-23.3 23.3-36.1 54.4-36.1 87.5s12.8 64.2 36.1 87.5c23.3 23.3 54.4 36.1 87.5 36.1s64.2-12.8 87.5-36.1l57.3-57.3c23.3-23.3 36.1-54.4 36.1-87.5s-12.8-64.2-36.1-87.5c-23.3-23.2-54.3-36.1-87.5-36.1z" fill="#282F63" p-id="2743"></path><path d="M767.8 713.8c-3.2-3.2-6.7-6.1-10.2-8.7 29.2 38.5 26.3 94-8.7 129l-57.3 57.3c-35.1 35.1-90.5 37.9-129 8.7 2.7 3.5 5.5 7 8.7 10.2 38.3 38.3 100.9 38.3 139.2 0l57.3-57.3c38.2-38.3 38.2-100.9 0-139.2z" fill="#AAD4E9" p-id="2744"></path><path d="M654.4 891.7c-17.3 0-33.5-6.7-45.7-18.9-25.2-25.2-25.2-66.1 0-91.3l30.2-30.2c12.2-12.2 28.4-18.9 45.7-18.9s33.5 6.7 45.7 18.9c25.2 25.2 25.2 66.1 0 91.3L700 872.9c-12.1 12.1-28.4 18.8-45.6 18.8z" fill="#FFDBA0" p-id="2745"></path><path d="M684.6 745.1c13.3 0 26.6 5.1 36.7 15.2 20.2 20.2 20.2 53.3 0 73.5L691.1 864c-10.1 10.1-23.4 15.2-36.7 15.2s-26.6-5.1-36.7-15.2c-20.2-20.2-20.2-53.3 0-73.5l30.2-30.2c10.1-10.2 23.4-15.2 36.7-15.2m0-25.3c-20.7 0-40.1 8-54.6 22.6l-30.2 30.2c-30.1 30.1-30.1 79.1 0 109.2 14.5 14.5 33.9 22.6 54.6 22.6 20.7 0 40.1-8 54.6-22.6l30.2-30.2c30.1-30.1 30.1-79.1 0-109.2-14.5-14.6-33.9-22.6-54.6-22.6z" fill="#283163" p-id="2746"></path><path d="M847.6 243.9c-4.4 0-7.9-3.5-7.9-7.9 0-7.3-5.3-13.8-12.5-14.5-8.2-0.8-15.2 5.7-15.2 13.8v0.7c0 4.4-3.5 7.9-7.9 7.9-7.3 0-13.8 5.3-14.5 12.5-0.8 8.2 5.7 15.2 13.8 15.2h0.7c4.4 0 7.9 3.5 7.9 7.9 0 7.3 5.3 13.8 12.5 14.5 8.2 0.8 15.2-5.7 15.2-13.8v-0.7c0-4.4 3.5-7.9 7.9-7.9h0.7c8 0 14.5-7 13.8-15.2-0.7-7.2-7.3-12.5-14.5-12.5z" fill="#9AD6E8" p-id="2747"></path><path d="M177.9 408.2c-4.4 0-7.9-3.5-7.9-7.9 0-7.3-5.3-13.8-12.5-14.5-8.2-0.8-15.2 5.7-15.2 13.8v0.7c0 4.4-3.5 7.9-7.9 7.9-7.3 0-13.8 5.3-14.5 12.5-0.8 8.2 5.7 15.2 13.8 15.2h0.7c4.4 0 7.9 3.5 7.9 7.9 0 7.3 5.3 13.8 12.5 14.5 8.2 0.8 15.2-5.7 15.2-13.8v-0.7c0-4.4 3.5-7.9 7.9-7.9h0.7c8 0 14.5-7 13.8-15.2-0.6-7.3-7.2-12.5-14.5-12.5z" fill="#9AD6E8" p-id="2748"></path><path d="M430.6 67c-4.4 0-7.9-3.5-7.9-7.9 0-7.3-5.3-13.8-12.5-14.5-8.2-0.8-15.2 5.7-15.2 13.8v0.7c0 4.4-3.5 7.9-7.9 7.9-7.3 0-13.8 5.3-14.5 12.5-0.8 8.2 5.7 15.2 13.8 15.2h0.7c4.4 0 7.9 3.5 7.9 7.9 0 7.3 5.3 13.8 12.5 14.5 8.2 0.8 15.2-5.7 15.2-13.8v-0.7c0-4.4 3.5-7.9 7.9-7.9h0.7c8 0 14.5-7 13.8-15.2-0.6-7.2-7.2-12.5-14.5-12.5z" fill="#9AD6E8" p-id="2749"></path><path d="M898.1 660.8c-4.4 0-7.9-3.5-7.9-7.9 0-7.3-5.3-13.8-12.5-14.5-8.2-0.8-15.2 5.7-15.2 13.8v0.7c0 4.4-3.5 7.9-7.9 7.9-7.3 0-13.8 5.3-14.5 12.5-0.8 8.2 5.7 15.2 13.8 15.2h0.7c4.4 0 7.9 3.5 7.9 7.9 0 7.3 5.3 13.8 12.5 14.5 8.2 0.8 15.2-5.7 15.2-13.8v-0.7c0-4.4 3.5-7.9 7.9-7.9h0.7c8 0 14.5-7 13.8-15.2-0.7-7.2-7.2-12.5-14.5-12.5z" fill="#9AD6E8" p-id="2750"></path></svg>