<?xml version="1.0" standalone="no"?><!DOCTYPE svg PUBLIC "-//W3C//DTD SVG 1.1//EN" "http://www.w3.org/Graphics/SVG/1.1/DTD/svg11.dtd"><svg t="1643770891550" class="icon" viewBox="0 0 1024 1024" version="1.1" xmlns="http://www.w3.org/2000/svg" p-id="3076" xmlns:xlink="http://www.w3.org/1999/xlink" width="200" height="200"><defs><style type="text/css"></style></defs><path d="M308.2 294.5c-5.5 0-10.4-3.4-12.3-8.5-1.9-5.1-0.5-10.9 3.6-14.5l199.8-176c2.5-2.2 5.6-3.3 8.7-3.3s6.2 1.1 8.7 3.3l199.8 176c4.1 3.6 5.5 9.4 3.6 14.5s-6.8 8.5-12.3 8.5H308.2z" fill="#EF765E" p-id="3077"></path><path d="M508 105.3l199.8 176H308.2l199.8-176m0-26.3c-6.2 0-12.4 2.2-17.4 6.6l-199.8 176c-8.2 7.2-11.1 18.8-7.2 29 3.9 10.2 13.7 17 24.6 17h399.7c10.9 0 20.7-6.8 24.6-17 3.9-10.2 1-21.8-7.2-29l-199.8-176c-5.1-4.4-11.3-6.6-17.5-6.6z" fill="#283163" p-id="3078"></path><path d="M508 105.3l140.7 174.6H309.8l-1.6 1.4h399.7z" fill="#E05A4C" p-id="3079"></path><path d="M287.4 695.6c-7.3 0-13.2-5.9-13.2-13.2V405c0-7.3 5.9-13.2 13.2-13.2h115.4c7.3 0 13.2 5.9 13.2 13.2v277.5c0 7.3-5.9 13.2-13.2 13.2H287.4z" fill="#FFDBA0" p-id="3080"></path><path d="M402.8 405v277.5H287.4V405h115.4m0-26.3H287.4c-14.5 0-26.3 11.8-26.3 26.3v277.5c0 14.5 11.8 26.3 26.3 26.3h115.4c14.5 0 26.3-11.8 26.3-26.3V405c0-14.5-11.8-26.3-26.3-26.3z" fill="#283163" p-id="3081"></path><path d="M613.2 695.6c-7.3 0-13.2-5.9-13.2-13.2V405c0-7.3 5.9-13.2 13.2-13.2h115.4c7.3 0 13.2 5.9 13.2 13.2v277.5c0 7.3-5.9 13.2-13.2 13.2H613.2z" fill="#FFDBA0" p-id="3082"></path><path d="M728.7 405v277.5H613.2V405h115.5m0-26.3H613.2c-14.5 0-26.3 11.8-26.3 26.3v277.5c0 14.5 11.8 26.3 26.3 26.3h115.4c14.5 0 26.3-11.8 26.3-26.3V405c0.1-14.5-11.7-26.3-26.2-26.3z" fill="#283163" p-id="3083"></path><path d="M369.9 405h32.9v277.5h-32.9zM695.8 405h32.9v277.5h-32.9z" fill="#FCC975" p-id="3084"></path><path d="M241.2 427.9c-7.3 0-13.2-5.9-13.2-13.2V306c0-7.3 5.9-13.2 13.2-13.2h533.7c7.3 0 13.2 5.9 13.2 13.2v108.8c0 7.3-5.9 13.2-13.2 13.2H241.2z" fill="#E5F1F9" p-id="3085"></path><path d="M774.9 306v108.8H241.2V306h533.7m0-26.3H241.2c-14.5 0-26.3 11.8-26.3 26.3v108.8c0 14.5 11.8 26.3 26.3 26.3h533.7c14.5 0 26.3-11.8 26.3-26.3V306c0-14.6-11.8-26.3-26.3-26.3z" fill="#283163" p-id="3086"></path><path d="M241.2 306h46v108.8h-46z" fill="#FFFFFF" p-id="3087"></path><path d="M728.8 306h46v108.8h-46z" fill="#AAD4E9" p-id="3088"></path><path d="M714.7 931c-6.9 0-12.6-5.3-13.1-12.2C693.9 817 608 737.3 505.9 737.3s-188 79.7-195.7 181.5c-0.5 6.9-6.2 12.2-13.1 12.2h-81.2c-7.3 0-13.2-5.9-13.2-13.2V645.4c0-7.3 5.9-13.2 13.2-13.2h584.2c7.3 0 13.2 5.9 13.2 13.2v272.5c0 7.3-5.9 13.2-13.2 13.2h-85.4z" fill="#1E62A1" p-id="3089"></path><path d="M800.1 645.4v272.5h-85.5c-8.1-108.3-98.4-193.7-208.8-193.7S305.2 809.6 297 917.9h-81.2V645.4h584.3m0-26.4H215.9c-14.5 0-26.3 11.8-26.3 26.3v272.5c0 14.5 11.8 26.3 26.3 26.3h81.2c13.8 0 25.2-10.6 26.2-24.3 7.1-95 87.3-169.4 182.5-169.4s175.4 74.4 182.5 169.4c1 13.7 12.5 24.3 26.2 24.3H800c14.5 0 26.3-11.8 26.3-26.3V645.4c0.1-14.6-11.6-26.4-26.2-26.4z" fill="#283163" p-id="3090"></path><path d="M215.9 645.4h39.5v272.5h-39.5z" fill="#3381BC" p-id="3091"></path><path d="M289.6 781.6m-17.3 0a17.3 17.3 0 1 0 34.6 0 17.3 17.3 0 1 0-34.6 0Z" fill="#283163" p-id="3092"></path><path d="M725.1 781.6m-17.3 0a17.3 17.3 0 1 0 34.6 0 17.3 17.3 0 1 0-34.6 0Z" fill="#283163" p-id="3093"></path><path d="M507.3 185m-17.3 0a17.3 17.3 0 1 0 34.6 0 17.3 17.3 0 1 0-34.6 0Z" fill="#283163" p-id="3094"></path><path d="M447.1 230m-17.3 0a17.3 17.3 0 1 0 34.6 0 17.3 17.3 0 1 0-34.6 0Z" fill="#283163" p-id="3095"></path><path d="M455.6 832.7c-4.5 0-8.2-3.7-8.2-8.2 0-7.6-5.5-14.4-13-15.1-8.5-0.8-15.8 6-15.8 14.3v0.8c0 4.5-3.7 8.2-8.2 8.2-7.6 0-14.4 5.5-15.1 13-0.8 8.5 6 15.8 14.3 15.8h0.8c4.5 0 8.2 3.7 8.2 8.2 0 7.6 5.5 14.4 13 15.1 8.5 0.8 15.8-6 15.8-14.3v-0.8c0-4.5 3.7-8.2 8.2-8.2h0.8c8.4 0 15.1-7.3 14.3-15.8-0.7-7.5-7.6-13-15.1-13zM876.5 517c-4.5 0-8.2-3.7-8.2-8.2 0-7.6-5.5-14.4-13-15.1-8.5-0.8-15.8 6-15.8 14.3v0.8c0 4.5-3.7 8.2-8.2 8.2-7.6 0-14.4 5.5-15.1 13-0.8 8.5 6 15.8 14.3 15.8h0.8c4.5 0 8.2 3.7 8.2 8.2 0 7.6 5.5 14.4 13 15.1 8.5 0.8 15.8-6 15.8-14.3v-0.8c0-4.5 3.7-8.2 8.2-8.2h0.8c8.4 0 15.1-7.3 14.3-15.8-0.7-7.5-7.5-13-15.1-13zM731.8 129c-4.5 0-8.2-3.7-8.2-8.2 0-7.6-5.5-14.4-13-15.1-8.5-0.8-15.8 6-15.8 14.3v0.8c0 4.5-3.7 8.2-8.2 8.2-7.6 0-14.4 5.5-15.1 13-0.8 8.5 6 15.8 14.3 15.8h0.8c4.5 0 8.2 3.7 8.2 8.2 0 7.6 5.5 14.4 13 15.1 8.5 0.8 15.8-6 15.8-14.3v-0.8c0-4.5 3.7-8.2 8.2-8.2h0.8c8.4 0 15.1-7.3 14.3-15.8-0.7-7.5-7.5-13-15.1-13zM271.4 188.2c-4.5 0-8.2-3.7-8.2-8.2 0-7.6-5.5-14.4-13-15.1-8.5-0.8-15.8 6-15.8 14.3v0.8c0 4.5-3.7 8.2-8.2 8.2-7.6 0-14.4 5.5-15.1 13-0.8 8.5 6 15.8 14.3 15.8h0.8c4.5 0 8.2 3.7 8.2 8.2 0 7.6 5.5 14.4 13 15.1 8.5 0.8 15.8-6 15.8-14.3v-0.8c0-4.5 3.7-8.2 8.2-8.2h0.8c8.4 0 15.1-7.3 14.3-15.8-0.7-7.5-7.5-13-15.1-13z" fill="#9AD6E8" p-id="3096"></path></svg>