<?xml version="1.0" standalone="no"?><!DOCTYPE svg PUBLIC "-//W3C//DTD SVG 1.1//EN" "http://www.w3.org/Graphics/SVG/1.1/DTD/svg11.dtd"><svg t="1643768585460" class="icon" viewBox="0 0 1024 1024" version="1.1" xmlns="http://www.w3.org/2000/svg" p-id="1839" xmlns:xlink="http://www.w3.org/1999/xlink" width="200" height="200"><defs><style type="text/css"></style></defs><path d="M962.5 285c-4.4 0-7.9-3.5-7.9-7.9 0-7.3-5.3-13.8-12.5-14.5-8.2-0.8-15.2 5.7-15.2 13.8v0.7c0 4.4-3.5 7.9-7.9 7.9-7.3 0-13.8 5.3-14.5 12.5-0.8 8.2 5.7 15.2 13.8 15.2h0.7c4.4 0 7.9 3.5 7.9 7.9 0 7.3 5.3 13.8 12.5 14.5 8.2 0.8 15.2-5.7 15.2-13.8v-0.7c0-4.4 3.5-7.9 7.9-7.9h0.7c8 0 14.5-7 13.8-15.2-0.7-7.3-7.2-12.5-14.5-12.5zM192.1 183.9c-4.4 0-7.9-3.5-7.9-7.9 0-7.3-5.3-13.8-12.5-14.5-8.2-0.8-15.2 5.7-15.2 13.8v0.7c0 4.4-3.5 7.9-7.9 7.9-7.3 0-13.8 5.3-14.5 12.5-0.8 8.2 5.7 15.2 13.8 15.2h0.7c4.4 0 7.9 3.5 7.9 7.9 0 7.3 5.3 13.8 12.5 14.5 8.2 0.8 15.2-5.7 15.2-13.8v-0.7c0-4.4 3.5-7.9 7.9-7.9h0.7c8 0 14.5-7 13.8-15.2-0.7-7.2-7.3-12.5-14.5-12.5z" fill="#9AD6E8" p-id="1840"></path><path d="M436 301.3c-7 0-12.6-5.7-12.6-12.6v-39.2c0-2.6-2.1-5-4.5-5-0.2 0-0.4 0-0.6 0.1-3.5 0.6-7 0.9-10.6 0.9-18.3 0-35.5-7.2-48.2-20.4-12.8-13.1-19.5-30.5-19-48.8 1-36 31.2-65.2 67.3-65.2h1.3c17 0.3 33.2 7 45.4 18.9 1.1 1 2.4 1.2 3.1 1.2s2-0.2 3.1-1.2c12.3-11.9 28.4-18.6 45.4-18.9h1.3c36 0 66.2 29.3 67.3 65.2 0.5 18.3-6.2 35.7-19 48.8-12.8 13.1-29.9 20.4-48.2 20.4-3.5 0-7.1-0.3-10.6-0.9-0.2 0-0.4-0.1-0.6-0.1-2.3 0-4.5 2.4-4.5 5v39.2c0 7-5.7 12.6-12.6 12.6H436z m70.7-129c-3.2 0-5.8 2.6-5.8 5.8 0 3.2 2.6 5.8 5.8 5.8 3.2 0 5.8-2.6 5.8-5.8 0-3.2-2.6-5.8-5.8-5.8z m-98.3 0c-3.2 0-5.8 2.6-5.8 5.8 0 3.2 2.6 5.8 5.8 5.8 3.2 0 5.8-2.6 5.8-5.8 0-3.2-2.6-5.8-5.8-5.8z" fill="#FFDBA0" p-id="1841"></path><path d="M507.3 123.5c29 0 53.8 23.9 54.6 53 0.9 30.9-23.9 56.2-54.6 56.2-2.9 0-5.8-0.2-8.6-0.7-0.9-0.1-1.8-0.2-2.6-0.2-9.3 0-17.1 8-17.1 17.7v39.2h-43v-39.2c0-9.7-7.8-17.7-17.1-17.7-0.9 0-1.8 0.1-2.6 0.2-2.8 0.5-5.6 0.7-8.6 0.7-30.7 0-55.5-25.3-54.6-56.2 0.8-29.1 25.6-53 54.6-53h1c14.3 0.3 27.3 6.1 36.9 15.4 3.3 3.2 7.6 4.8 11.9 4.8s8.6-1.6 11.9-4.8c9.6-9.3 22.5-15.1 36.9-15.4h1m-0.6 73c10.2 0 18.4-8.3 18.4-18.4 0-10.2-8.3-18.4-18.4-18.4-10.2 0-18.4 8.3-18.4 18.4 0 10.2 8.2 18.4 18.4 18.4m-98.3 0c10.2 0 18.4-8.3 18.4-18.4 0-10.2-8.3-18.4-18.4-18.4-10.2 0-18.4 8.3-18.4 18.4 0 10.2 8.2 18.4 18.4 18.4m98.9-98.3h-1.5c-17.7 0.3-34.6 6.5-48.3 17.5-13.7-11-30.6-17.1-48.3-17.5h-1.5c-42.8 0-78.6 34.8-79.9 77.5-0.6 21.8 7.4 42.4 22.5 58 15.2 15.6 35.5 24.2 57.3 24.2 1 0 2 0 3.1-0.1v30.8c0 14 11.3 25.3 25.3 25.3h43c14 0 25.3-11.3 25.3-25.3v-30.8c1 0 2 0.1 3.1 0.1 21.8 0 42.1-8.6 57.3-24.2 15.2-15.6 23.2-36.2 22.5-58-1.2-42.7-37.1-77.5-79.9-77.5z" fill="#282F63" p-id="1842"></path><path d="M381.1 225.8c4 2.2 8.4 3.9 12.9 5.1-3.3-3.4-7.9-5.4-12.9-5.1z" fill="#FFDBA0" p-id="1843"></path><path d="M506.3 123.5c-3.2 0.1-6.2 0.4-9.3 1 16.1 9.2 27.5 26.3 28 45.8 0.1 2 0 4-0.2 6 0.1 0.6 0.2 1.2 0.2 1.8 0 2.9-0.7 5.6-1.9 8-6.2 23.3-27.4 40.5-52.7 40.5-2.9 0-5.8-0.2-8.6-0.7-10.4-1.7-19.8 6.9-19.8 17.5v39.2h-6v6.1h43v-39.2c0-10.6 9.3-19.2 19.8-17.5 2.8 0.5 5.6 0.7 8.6 0.7 30.7 0 55.5-25.3 54.6-56.2-0.9-29.5-26.2-53.6-55.7-53z" fill="#FCC975" p-id="1844"></path><path d="M106.7 716.1c-7 0-12.6-5.7-12.6-12.6V362.9c0-44.5 36.2-80.7 80.7-80.7h564c29.6 0 58.6 10.1 81.8 28.5 23.2 18.4 39.7 44.3 46.5 73.1L942 700.6c0.9 3.8 0 7.7-2.4 10.7s-6 4.8-9.9 4.8h-823z" fill="#1E62A1" p-id="1845"></path><path d="M738.9 294.8c55.3 0 103.3 38 116 91.8l74.8 316.8h-823V362.9c0-37.6 30.5-68.1 68.1-68.1h564.1m0-25.3h-564c-51.5 0-93.4 41.9-93.4 93.4v340.5c0 14 11.3 25.3 25.3 25.3h823c7.7 0 15-3.5 19.8-9.6 4.8-6.1 6.6-14 4.8-21.5l-74.8-316.8c-7.4-31.5-25.5-60-51-80.1-25.4-20.1-57.3-31.2-89.7-31.2z" fill="#282F63" p-id="1846"></path><path d="M236.3 294.8h-61.4c-37.6 0-68.1 30.5-68.1 68.1v340.5h61.4V362.9c0-37.6 30.5-68.1 68.1-68.1z" fill="#3381BC" p-id="1847"></path><path d="M92.1 755.8c-24.2 0-43.8-19.7-43.8-43.8s19.7-43.8 43.8-43.8h834.8c24.2 0 43.8 19.7 43.8 43.8s-19.7 43.8-43.8 43.8H92.1z" fill="#E5F1F9" p-id="1848"></path><path d="M926.9 680.8c17.2 0 31.2 14 31.2 31.2s-14 31.2-31.2 31.2H92.1c-17.2 0-31.2-14-31.2-31.2s14-31.2 31.2-31.2h834.8m0-25.3H92.1c-31.1 0-56.5 25.3-56.5 56.5s25.3 56.5 56.5 56.5h834.8c31.1 0 56.5-25.3 56.5-56.5s-25.4-56.5-56.5-56.5z" fill="#282F63" p-id="1849"></path><path d="M116.2 712c0-17.2 14-31.2 31.2-31.2H92.1c-17.2 0-31.2 14-31.2 31.2s14 31.2 31.2 31.2h55.3c-17.2 0-31.2-14-31.2-31.2z" fill="#FFFFFF" p-id="1850"></path><path d="M926.9 680.8h-55.3c17.2 0 31.2 14 31.2 31.2s-14 31.2-31.2 31.2h55.3c17.2 0 31.2-14 31.2-31.2 0-17.3-14-31.2-31.2-31.2z" fill="#AAD4E9" p-id="1851"></path><path d="M200 882.8c-47.8 0-86.7-38.9-86.7-86.7s38.9-86.7 86.7-86.7 86.7 38.9 86.7 86.7-38.9 86.7-86.7 86.7z" fill="#1E62A1" p-id="1852"></path><path d="M200 722.1c40.9 0 74.1 33.2 74.1 74.1s-33.2 74.1-74.1 74.1-74-33.2-74-74.1 33.1-74.1 74-74.1m0-25.3c-54.8 0-99.3 44.6-99.3 99.3s44.6 99.3 99.3 99.3 99.3-44.6 99.3-99.3-44.5-99.3-99.3-99.3z" fill="#282F63" p-id="1853"></path><path d="M200 828.4c-17.8 0-32.3-14.5-32.3-32.3s14.5-32.3 32.3-32.3 32.3 14.5 32.3 32.3-14.5 32.3-32.3 32.3z" fill="#FFDBA0" p-id="1854"></path><path d="M200 776.5c10.8 0 19.6 8.8 19.6 19.6s-8.8 19.6-19.6 19.6-19.6-8.8-19.6-19.6 8.8-19.6 19.6-19.6m0-25.2c-24.8 0-44.9 20.1-44.9 44.9s20.1 44.9 44.9 44.9 44.9-20.1 44.9-44.9-20.1-44.9-44.9-44.9z" fill="#282F63" p-id="1855"></path><path d="M798.5 882.8c-47.8 0-86.7-38.9-86.7-86.7s38.9-86.7 86.7-86.7 86.7 38.9 86.7 86.7-38.9 86.7-86.7 86.7z" fill="#1E62A1" p-id="1856"></path><path d="M798.5 722.1c40.9 0 74.1 33.2 74.1 74.1s-33.2 74.1-74.1 74.1c-40.9 0-74.1-33.2-74.1-74.1s33.2-74.1 74.1-74.1m0-25.3c-54.8 0-99.3 44.6-99.3 99.3s44.6 99.3 99.3 99.3c54.8 0 99.3-44.6 99.3-99.3s-44.5-99.3-99.3-99.3z" fill="#282F63" p-id="1857"></path><path d="M798.5 828.4c-17.8 0-32.3-14.5-32.3-32.3s14.5-32.3 32.3-32.3c17.8 0 32.3 14.5 32.3 32.3s-14.5 32.3-32.3 32.3z" fill="#FFDBA0" p-id="1858"></path><path d="M798.5 776.5c10.8 0 19.6 8.8 19.6 19.6s-8.8 19.6-19.6 19.6-19.6-8.8-19.6-19.6 8.8-19.6 19.6-19.6m0-25.2c-24.8 0-44.9 20.1-44.9 44.9s20.1 44.9 44.9 44.9 44.9-20.1 44.9-44.9-20.1-44.9-44.9-44.9z" fill="#282F63" p-id="1859"></path><path d="M106.7 562.8c-7 0-12.6-5.7-12.6-12.6V391.3c0-7 5.7-12.6 12.6-12.6H260c7 0 12.6 5.7 12.6 12.6v158.9c0 7-5.7 12.6-12.6 12.6H106.7z" fill="#E5F1F9" p-id="1860"></path><path d="M260 391.3v158.9H106.7V391.3H260m0-25.3H106.7c-14 0-25.3 11.3-25.3 25.3v158.9c0 14 11.3 25.3 25.3 25.3H260c14 0 25.3-11.3 25.3-25.3V391.3c0-14-11.4-25.3-25.3-25.3z" fill="#282F63" p-id="1861"></path><path d="M204.7 391.3H260v158.9h-55.3z" fill="#AAD4E9" p-id="1862"></path><path d="M333.8 562.8c-7 0-12.6-5.7-12.6-12.6V391.3c0-7 5.7-12.6 12.6-12.6h238.4c7 0 12.6 5.7 12.6 12.6v158.9c0 7-5.7 12.6-12.6 12.6H333.8z" fill="#E5F1F9" p-id="1863"></path><path d="M572.2 391.3v158.9H333.8V391.3h238.4m0-25.3H333.8c-14 0-25.3 11.3-25.3 25.3v158.9c0 14 11.3 25.3 25.3 25.3h238.4c14 0 25.3-11.3 25.3-25.3V391.3c-0.1-14-11.4-25.3-25.3-25.3z" fill="#282F63" p-id="1864"></path><path d="M516.9 391.3h55.3v158.9h-55.3z" fill="#AAD4E9" p-id="1865"></path><path d="M651.6 562.8c-7 0-12.6-5.7-12.6-12.6V391.3c0-7 5.7-12.6 12.6-12.6H856c5.9 0 10.9 4 12.3 9.7l37.5 158.9c0.9 3.8 0 7.7-2.4 10.7s-6 4.8-9.9 4.8H651.6z" fill="#E5F1F9" p-id="1866"></path><path d="M856 391.3l37.5 158.9H651.6V391.3H856m0-25.3H651.6c-14 0-25.3 11.3-25.3 25.3v158.9c0 14 11.3 25.3 25.3 25.3h241.9c7.7 0 15-3.5 19.8-9.6 4.8-6.1 6.6-14 4.8-21.5l-37.5-158.9c-2.7-11.4-12.8-19.5-24.6-19.5z" fill="#282F63" p-id="1867"></path><path d="M856 391.3h-55.2l37.5 158.9h55.3z" fill="#AAD4E9" p-id="1868"></path></svg>