<?xml version="1.0" standalone="no"?><!DOCTYPE svg PUBLIC "-//W3C//DTD SVG 1.1//EN" "http://www.w3.org/Graphics/SVG/1.1/DTD/svg11.dtd"><svg t="1643770916563" class="icon" viewBox="0 0 1024 1024" version="1.1" xmlns="http://www.w3.org/2000/svg" p-id="3245" xmlns:xlink="http://www.w3.org/1999/xlink" width="200" height="200"><defs><style type="text/css"></style></defs><path d="M452 887.4c-7.3 0-13.3-5.9-13.3-13.3v-40.9H398v40.9c0 7.3-5.9 13.3-13.3 13.3h-71.5c-7.3 0-13.3-5.9-13.3-13.3v-40.9h-40.7v40.9c0 7.3-5.9 13.3-13.3 13.3h-80.6c-7.2 0-13-5.7-13.2-12.8l-9.4-303.9c-0.1-3.6 1.2-7.1 3.7-9.6 2.5-2.6 5.9-4 9.5-4h385.7c3.6 0 7 1.5 9.5 4.1 2.5 2.6 3.8 6.1 3.7 9.7l-10.9 303.9c-0.3 7.1-6.1 12.8-13.2 12.8H452z" fill="#E5F1F9" p-id="3246"></path><path d="M541.9 570.2L531 874.1h-79V820h-67.2v54.2h-71.5V820h-67.2v54.2h-80.6l-9.4-303.9h385.8m0-26.6H156.2c-7.2 0-14 2.9-19 8.1-5 5.1-7.7 12.1-7.5 19.3L139 875c0.4 14.3 12.2 25.7 26.5 25.7h80.6c14.6 0 26.5-11.9 26.5-26.5v-27.6h14.1v27.6c0 14.6 11.9 26.5 26.5 26.5h71.5c14.6 0 26.5-11.9 26.5-26.5v-27.6h14.1v27.6c0 14.6 11.9 26.5 26.5 26.5h79c14.3 0 26-11.3 26.5-25.6l10.9-303.5v-1.4c0.2-14.6-11.7-26.5-26.3-26.5z m0 53.1z" fill="#283163" p-id="3247"></path><path d="M351.7 820h33.1v54.2h-33.1zM541.9 570.2l-9.4 303.9h-46.3l9.3-303.9zM213 820h33.1v54.2H213z" fill="#AAD4E9" p-id="3248"></path><path d="M133.2 562.5c-19.6 0-35.5-15.9-35.5-35.5v-35c0-19.6 15.9-35.5 35.5-35.5h431.6c19.6 0 35.5 15.9 35.5 35.5v35c0 19.6-15.9 35.5-35.5 35.5H133.2z" fill="#1E62A1" p-id="3249"></path><path d="M564.8 469.7c12.3 0 22.3 10 22.3 22.3v35c0 12.3-10 22.3-22.3 22.3H133.2c-12.3 0-22.3-10-22.3-22.3v-35c0-12.3 10-22.3 22.3-22.3h431.6m0-26.5H133.2c-26.9 0-48.8 21.9-48.8 48.8v35c0 26.9 21.9 48.8 48.8 48.8h431.6c26.9 0 48.8-21.9 48.8-48.8v-35c0-26.9-21.9-48.8-48.8-48.8z" fill="#282F63" p-id="3250"></path><path d="M157.4 526.9v-35c0-12.3 10-22.3 22.3-22.3h-46.4c-12.3 0-22.3 10-22.3 22.3v35c0 12.3 10 22.3 22.3 22.3h46.4c-12.4 0-22.3-10-22.3-22.3z" fill="#3381BC" p-id="3251"></path><path d="M535.6 454.1c-7.3 0-13.3-5.9-13.3-13.3v-71.6c0-93.5-76.1-169.6-169.6-169.6h-7.3c-93.5 0-169.6 76.1-169.6 169.6v71.6c0 7.3-5.9 13.3-13.3 13.3h-36.7c-7.3 0-13.3-5.9-13.3-13.3V364c0-63.2 24.6-122.6 69.3-167.2 44.7-44.7 104.1-69.3 167.2-69.3s122.6 24.6 167.2 69.3c44.7 44.7 69.3 104.1 69.3 167.2v76.8c0 7.3-5.9 13.3-13.3 13.3h-36.6z" fill="#FFDBA0" p-id="3252"></path><path d="M349 140.9c123.3 0 223.2 99.9 223.2 223.2v76.8h-36.7v-71.6c0-101-81.9-182.9-182.9-182.9h-7.3c-101 0-182.9 81.9-182.9 182.9v71.6h-36.7v-76.8c0.1-123.3 100-223.2 223.3-223.2m0-26.5c-33.7 0-66.4 6.6-97.2 19.6-29.7 12.6-56.5 30.6-79.4 53.5-22.9 22.9-40.9 49.6-53.5 79.4-13 30.8-19.6 63.5-19.6 97.2v76.8c0 14.6 11.9 26.5 26.5 26.5h36.7c14.6 0 26.5-11.9 26.5-26.5v-71.6c0-86.2 70.1-156.3 156.3-156.3h7.3c86.2 0 156.3 70.1 156.3 156.3v71.6c0 14.6 11.9 26.5 26.5 26.5h36.7c14.6 0 26.5-11.9 26.5-26.5v-76.8c0-33.7-6.6-66.4-19.6-97.2-12.6-29.7-30.6-56.5-53.5-79.4-22.9-22.9-49.6-40.9-79.4-53.5-30.6-13-63.4-19.6-97.1-19.6z" fill="#282F63" p-id="3253"></path><path d="M703.6 887.4c-18 0-32.6-14.6-32.6-32.6v-53.1c0-17.7 5.4-34.6 15.5-49 8.1-11.5 18.7-20.7 31-27v-239c0-7.3 5.9-13.3 13.3-13.3h51.9c7.3 0 13.3 5.9 13.3 13.3v239c12.4 6.3 23 15.6 31 27 10.1 14.4 15.5 31.3 15.5 49v53.1c0 18-14.6 32.6-32.6 32.6H703.6z m92.9-50.5v-32c0-20.5-16.6-37.1-37.1-37.1h-5.3c-20.5 0-37.1 16.6-37.1 37.1v32h79.5z" fill="#E5F1F9" p-id="3254"></path><path d="M782.7 486.6v247.6c27.2 10.5 46.5 36.6 46.5 67.5v53.1c0 10.7-8.7 19.4-19.4 19.4H703.6c-10.7 0-19.4-8.7-19.4-19.4v-53.1c0-30.8 19.4-57 46.5-67.5V486.6h52m-73.6 363.6h95.2c3 0 5.4-2.4 5.4-5.4v-39.9c0-27.8-22.5-50.4-50.4-50.4H754c-27.8 0-50.4 22.5-50.4 50.4v39.9c0.1 2.9 2.5 5.4 5.5 5.4m73.6-390.1h-51.9c-14.6 0-26.5 11.9-26.5 26.5v231.3c-11.2 7-20.9 16.2-28.6 27.1-11.7 16.6-17.9 36.2-17.9 56.6v53.1c0 25.3 20.6 45.9 45.9 45.9h106.2c25.3 0 45.9-20.6 45.9-45.9v-53.1c0-20.4-6.2-40-17.9-56.6-7.7-10.9-17.4-20.1-28.6-27.1V486.6c-0.1-14.6-12-26.5-26.6-26.5z m-52.5 363.6v-18.8c0-13.2 10.7-23.9 23.9-23.9h5.3c13.2 0 23.9 10.7 23.9 23.9v18.8h-53.1z" fill="#283163" p-id="3255"></path><path d="M730.8 499.9c-6 0-11-3.9-12.7-9.3-46.8-12.7-79.8-54.9-79.8-104.3v-134c0-22.8 18.5-41.3 41.3-41.3h154.3c22.8 0 41.3 18.5 41.3 41.3v134c0 49.3-33 91.6-79.8 104.3-1.7 5.4-6.7 9.3-12.7 9.3h-51.9z" fill="#FFDBA0" p-id="3256"></path><path d="M833.9 224.2c15.5 0 28.1 12.6 28.1 28.1v134c0 47.1-34.3 85.9-79.2 93.5v6.9h-51.9v-6.9c-44.9-7.6-79.2-46.4-79.2-93.5v-134c0-15.5 12.6-28.1 28.1-28.1h154.1m0-26.5H679.6c-30.1 0-54.6 24.5-54.6 54.6v134c0 28.9 10.4 56.9 29.2 78.8 14.6 17 33.6 29.6 54.7 36.5 4.8 7 12.8 11.5 21.9 11.5h51.9c9.1 0 17.1-4.6 21.9-11.5 21.1-6.9 40.1-19.5 54.7-36.5 18.8-21.9 29.2-49.9 29.2-78.8v-134c-0.1-30.1-24.5-54.6-54.6-54.6z" fill="#282F63" p-id="3257"></path><path d="M684.7 386.3v-134c0-15.5 12.6-28.1 28.1-28.1h-33.1c-15.5 0-28.1 12.6-28.1 28.1v134c0 47.1 34.3 85.9 79.2 93.5v6.9h33.1v-6.9c-44.9-7.6-79.2-46.5-79.2-93.5z" fill="#FCC975" p-id="3258"></path><path d="M730.8 533c-7.3 0-13.3-5.9-13.3-13.3v-46.9c0-21.6 17.6-39.2 39.2-39.2s39.2 17.6 39.2 39.2v46.9c0 7.3-5.9 13.3-13.3 13.3h-51.8z" fill="#EF765E" p-id="3259"></path><path d="M756.7 446.8c14.3 0 26 11.6 26 26v46.9h-51.9v-46.9c0-14.3 11.6-26 25.9-26m0-26.5c-28.9 0-52.5 23.5-52.5 52.5v46.9c0 14.6 11.9 26.5 26.5 26.5h51.9c14.6 0 26.5-11.9 26.5-26.5v-46.9c0.1-28.9-23.4-52.5-52.4-52.5z" fill="#283163" p-id="3260"></path><path d="M338.1 339.6c-4.6 0-8.3-3.7-8.3-8.3 0-7.6-5.5-14.5-13.1-15.2-8.6-0.8-15.9 6-15.9 14.5v0.8c0 4.6-3.7 8.3-8.3 8.3-7.6 0-14.5 5.5-15.2 13.1-0.8 8.6 6 15.9 14.5 15.9h0.8c4.6 0 8.3 3.7 8.3 8.3 0 7.6 5.5 14.5 13.1 15.2 8.6 0.8 15.9-6 15.9-14.5v-0.8c0-4.6 3.7-8.3 8.3-8.3h0.8c8.4 0 15.3-7.3 14.5-15.9-0.9-7.5-7.8-13.1-15.4-13.1zM609.8 154.1c-4.6 0-8.3-3.7-8.3-8.3 0-7.6-5.5-14.5-13.1-15.2-8.6-0.8-15.9 6-15.9 14.5v0.8c0 4.6-3.7 8.3-8.3 8.3-7.6 0-14.5 5.5-15.2 13.1-0.8 8.6 6 15.9 14.5 15.9h0.8c4.6 0 8.3 3.7 8.3 8.3 0 7.6 5.5 14.5 13.1 15.2 8.6 0.8 15.9-6 15.9-14.5v-0.8c0-4.6 3.7-8.3 8.3-8.3h0.8c8.4 0 15.3-7.3 14.5-15.9-0.9-7.6-7.8-13.1-15.4-13.1zM921.3 531.8c-4.6 0-8.3-3.7-8.3-8.3 0-7.6-5.5-14.5-13.1-15.2-8.6-0.8-15.9 6-15.9 14.5v0.8c0 4.6-3.7 8.3-8.3 8.3-7.6 0-14.5 5.5-15.2 13.1-0.8 8.6 6 15.9 14.5 15.9h0.8c4.6 0 8.3 3.7 8.3 8.3 0 7.6 5.5 14.5 13.1 15.2 8.6 0.8 15.9-6 15.9-14.5v-0.8c0-4.6 3.7-8.3 8.3-8.3h0.8c8.4 0 15.3-7.3 14.5-15.9-0.9-7.6-7.8-13.1-15.4-13.1z" fill="#9AD6E8" p-id="3261"></path></svg>