<?xml version="1.0" standalone="no"?><!DOCTYPE svg PUBLIC "-//W3C//DTD SVG 1.1//EN" "http://www.w3.org/Graphics/SVG/1.1/DTD/svg11.dtd"><svg t="1643771036504" class="icon" viewBox="0 0 1024 1024" version="1.1" xmlns="http://www.w3.org/2000/svg" p-id="3781" xmlns:xlink="http://www.w3.org/1999/xlink" width="200" height="200"><defs><style type="text/css"></style></defs><path d="M268 323.9c-4.5 0-8.2-3.7-8.2-8.2 0-7.5-5.5-14.3-12.9-15-8.5-0.8-15.7 5.9-15.7 14.3v0.8c0 4.5-3.7 8.2-8.2 8.2-7.5 0-14.3 5.5-15 12.9-0.8 8.5 5.9 15.7 14.3 15.7h0.8c4.5 0 8.2 3.7 8.2 8.2 0 7.5 5.5 14.3 12.9 15 8.5 0.8 15.7-5.9 15.7-14.3v-0.8c0-4.5 3.7-8.2 8.2-8.2h0.8c8.3 0 15.1-7.2 14.3-15.7-0.9-7.4-7.7-12.9-15.2-12.9zM875.8 252c-4.5 0-8.2-3.7-8.2-8.2 0-7.5-5.5-14.3-12.9-15-8.5-0.8-15.7 5.9-15.7 14.3v0.8c0 4.5-3.7 8.2-8.2 8.2-7.5 0-14.3 5.5-15 12.9-0.8 8.5 5.9 15.7 14.3 15.7h0.8c4.5 0 8.2 3.7 8.2 8.2 0 7.5 5.5 14.3 12.9 15 8.5 0.8 15.7-5.9 15.7-14.3v-0.8c0-4.5 3.7-8.2 8.2-8.2h0.8c8.3 0 15.1-7.2 14.3-15.7-0.9-7.4-7.7-12.9-15.2-12.9zM647 127.9c-4.5 0-8.2-3.7-8.2-8.2 0-7.5-5.5-14.3-12.9-15-8.5-0.8-15.7 5.9-15.7 14.3v0.8c0 4.5-3.7 8.2-8.2 8.2-7.5 0-14.3 5.5-15 12.9-0.8 8.5 5.9 15.7 14.3 15.7h0.8c4.5 0 8.2 3.7 8.2 8.2 0 7.5 5.5 14.3 12.9 15 8.5 0.8 15.7-5.9 15.7-14.3v-0.8c0-4.5 3.7-8.2 8.2-8.2h0.8c8.3 0 15.1-7.2 14.3-15.7-0.9-7.5-7.6-12.9-15.2-12.9z" fill="#9AD6E8" p-id="3782"></path><path d="M182.2 903.3c-7.2 0-13.1-5.9-13.1-13.1V709.1c0-7.2 5.9-13.1 13.1-13.1h659.7c7.2 0 13.1 5.9 13.1 13.1v181.1c0 7.2-5.9 13.1-13.1 13.1H182.2z" fill="#FFDBA0" p-id="3783"></path><path d="M841.8 709.1v181.1H182.2V709.1h659.6m0-26.1H182.2c-14.4 0-26.1 11.7-26.1 26.1v181.1c0 14.4 11.7 26.1 26.1 26.1h659.7c14.4 0 26.1-11.7 26.1-26.1V709.1c0-14.4-11.7-26.1-26.2-26.1z" fill="#283163" p-id="3784"></path><path d="M182.2 722.2c-7.2 0-13.1-5.9-13.1-13.1V516.4c0-7.2 5.9-13.1 13.1-13.1h659.7c7.2 0 13.1 5.9 13.1 13.1v192.7c0 7.2-5.9 13.1-13.1 13.1H182.2z" fill="#FCC975" p-id="3785"></path><path d="M841.8 516.4v192.7H182.2V516.4h659.6m0-26.1H182.2c-14.4 0-26.1 11.7-26.1 26.1v192.7c0 14.4 11.7 26.1 26.1 26.1h659.7c14.4 0 26.1-11.7 26.1-26.1V516.4c0-14.4-11.7-26.1-26.2-26.1z" fill="#283163" p-id="3786"></path><path d="M182.2 800.6c-7.2 0-13.1-5.9-13.1-13.1V611.1c0-7.2 5.9-13.1 13.1-13.1h659.7c7.2 0 13.1 5.9 13.1 13.1v176.5c0 7.2-5.9 13.1-13.1 13.1H182.2z" fill="#E5F1F9" p-id="3787"></path><path d="M841.8 611.1v176.5H182.2V611.1h659.6m0-26.2H182.2c-14.4 0-26.1 11.7-26.1 26.1v176.5c0 14.4 11.7 26.1 26.1 26.1h659.7c14.4 0 26.1-11.7 26.1-26.1V611.1c0-14.4-11.7-26.2-26.2-26.2z" fill="#283163" p-id="3788"></path><path d="M809.2 611.1h32.7v176.5h-32.7z" fill="#AAD4E9" p-id="3789"></path><path d="M182.2 611.1h32.7v176.5h-32.7z" fill="#FFFFFF" p-id="3790"></path><path d="M154.6 545c-24.2 0-44-19.7-44-44 0-24.2 19.7-44 44-44h714.8c24.2 0 44 19.7 44 44 0 24.2-19.7 44-44 44H154.6z" fill="#1E62A1" p-id="3791"></path><path d="M869.4 470.1c17.1 0 30.9 13.8 30.9 30.9s-13.8 30.9-30.9 30.9H154.6c-17.1 0-30.9-13.8-30.9-30.9s13.8-30.9 30.9-30.9h714.8m0-26.2H154.6c-31.5 0-57 25.6-57 57s25.6 57 57 57h714.8c31.5 0 57-25.6 57-57s-25.5-57-57-57z" fill="#283163" p-id="3792"></path><path d="M162.9 501c0-17.1 13.8-30.9 30.9-30.9h-39.2c-17.1 0-30.9 13.8-30.9 30.9 0 17.1 13.8 30.9 30.9 30.9h39.2c-17.1 0-30.9-13.8-30.9-30.9z" fill="#3381BC" p-id="3793"></path><path d="M154.6 946.7c-24.2 0-44-19.7-44-44s19.7-44 44-44h714.8c24.2 0 44 19.7 44 44s-19.7 44-44 44H154.6z" fill="#1E62A1" p-id="3794"></path><path d="M869.4 871.9c17.1 0 30.9 13.8 30.9 30.9 0 17.1-13.8 30.9-30.9 30.9H154.6c-17.1 0-30.9-13.8-30.9-30.9 0-17.1 13.8-30.9 30.9-30.9h714.8m0-26.2H154.6c-31.5 0-57 25.6-57 57s25.6 57 57 57h714.8c31.5 0 57-25.6 57-57s-25.5-57-57-57z" fill="#283163" p-id="3795"></path><path d="M162.9 902.8c0-17.1 13.8-30.9 30.9-30.9h-39.2c-17.1 0-30.9 13.8-30.9 30.9 0 17.1 13.8 30.9 30.9 30.9h39.2c-17.1 0-30.9-13.9-30.9-30.9z" fill="#3381BC" p-id="3796"></path><path d="M831.3 807.2c-4.5 0-8.8-2.3-11.3-6.4l-98.3-165.5-93.6 157.6c-2.4 4-6.6 6.4-11.2 6.4s-8.9-2.4-11.2-6.4L512 635.2l-93.6 157.6c-2.4 4-6.6 6.4-11.2 6.4s-8.9-2.4-11.2-6.4l-93.6-157.6-98.3 165.5c-3.7 6.2-11.7 8.2-17.9 4.6-6.2-3.7-8.2-11.7-4.6-17.9L291 603c2.4-4 6.6-6.4 11.2-6.4s8.9 2.4 11.2 6.4L407 760.6 500.8 603c2.4-4 6.6-6.4 11.2-6.4s8.9 2.4 11.2 6.4l93.6 157.6L710.5 603c2.4-4 6.6-6.4 11.2-6.4s8.9 2.4 11.2 6.4l109.6 184.5c3.7 6.2 1.6 14.2-4.6 17.9-2 1.2-4.3 1.8-6.6 1.8z" fill="#283163" p-id="3797"></path><path d="M677.4 373.1c-5.2 0-10.3-1.5-14.6-4.3L291.4 131.3c-6.1-3.9-10.3-10-11.9-17.1s-0.3-14.4 3.7-20.5l2.5-3.9c5-7.9 13.6-12.5 22.9-12.5 5.2 0 10.3 1.5 14.6 4.3l371.3 237.5c12.6 8.1 16.3 24.9 8.3 37.6l-2.5 3.8c-5 7.9-13.6 12.6-22.9 12.6z" fill="#E5F1F9" p-id="3798"></path><path d="M308.5 90.4c2.6 0 5.2 0.7 7.6 2.2l371.3 237.5c6.6 4.2 8.5 12.9 4.3 19.5l-2.5 3.8c-2.7 4.2-7.3 6.5-11.9 6.5-2.6 0-5.2-0.7-7.6-2.2L298.4 120.3c-6.6-4.2-8.5-12.9-4.3-19.5l2.5-3.8c2.7-4.3 7.3-6.6 11.9-6.6m0-26.1c-13.8 0-26.5 6.9-33.9 18.6l-2.5 3.9c-5.8 9.1-7.7 19.8-5.4 30.3s8.6 19.5 17.6 25.3l371.3 237.5c6.5 4.2 14 6.3 21.7 6.3 13.8 0 26.5-6.9 33.9-18.6l2.5-3.8c5.8-9.1 7.7-19.8 5.4-30.3s-8.6-19.5-17.6-25.3L330.2 70.6c-6.5-4.1-14-6.3-21.7-6.3z" fill="#283163" p-id="3799"></path><path d="M673.3 398.9c-11.1 0-22-3.2-31.4-9.2-27.1-17.3-35-53.4-17.7-80.5 10.8-16.8 29.1-26.9 49.1-26.9 11.1 0 22 3.2 31.4 9.2 27.1 17.3 35 53.4 17.7 80.5-10.8 16.8-29.1 26.9-49.1 26.9z" fill="#FFDBA0" p-id="3800"></path><path d="M673.3 295.3c8.3 0 16.8 2.3 24.3 7.1 21 13.5 27.2 41.4 13.7 62.4-8.6 13.5-23.2 20.9-38.1 20.9-8.3 0-16.8-2.3-24.3-7.1-21-13.5-27.2-41.4-13.7-62.4 8.6-13.5 23.2-20.9 38.1-20.9m0-26.1v26.1-26.1c-24.5 0-47 12.3-60.2 32.9-10.3 16.1-13.7 35.1-9.6 53.8 4.1 18.6 15.2 34.5 31.2 44.8 11.5 7.4 24.8 11.2 38.4 11.2 24.5 0 47-12.3 60.2-32.9 21.2-33.1 11.5-77.4-21.7-98.6-11.4-7.3-24.6-11.2-38.3-11.2z" fill="#283163" p-id="3801"></path><path d="M698 302.7c9.4 14.4 10.2 33.6 0.3 49.1-13.5 21-41.4 27.2-62.4 13.7-0.1-0.1-0.2-0.2-0.4-0.3 3.4 5.2 7.9 9.8 13.4 13.3 21 13.5 49 7.3 62.4-13.7 13.5-20.8 7.5-48.5-13.3-62.1z" fill="#FCC975" p-id="3802"></path></svg>