<?xml version="1.0" standalone="no"?><!DOCTYPE svg PUBLIC "-//W3C//DTD SVG 1.1//EN" "http://www.w3.org/Graphics/SVG/1.1/DTD/svg11.dtd"><svg t="1643771046955" class="icon" viewBox="0 0 1024 1024" version="1.1" xmlns="http://www.w3.org/2000/svg" p-id="3951" xmlns:xlink="http://www.w3.org/1999/xlink" width="200" height="200"><defs><style type="text/css"></style></defs><path d="M279.9 246.8c-4.5 0-8.2-3.7-8.2-8.2 0-7.5-5.4-14.3-12.9-15-8.5-0.8-15.7 5.9-15.7 14.2v0.8c0 4.5-3.7 8.2-8.2 8.2-7.5 0-14.3 5.4-15 12.9-0.8 8.5 5.9 15.7 14.2 15.7h0.8c4.5 0 8.2 3.7 8.2 8.2 0 7.5 5.4 14.3 12.9 15 8.5 0.8 15.7-5.9 15.7-14.2v-0.8c0-4.5 3.7-8.2 8.2-8.2h0.8c8.3 0 15-7.2 14.2-15.7-0.8-7.5-7.5-12.9-15-12.9zM429.9 742.6c-4.5 0-8.2-3.7-8.2-8.2 0-7.5-5.4-14.3-12.9-15-8.5-0.8-15.7 5.9-15.7 14.2v0.8c0 4.5-3.7 8.2-8.2 8.2-7.5 0-14.3 5.4-15 12.9-0.8 8.5 5.9 15.7 14.2 15.7h0.8c4.5 0 8.2 3.7 8.2 8.2 0 7.5 5.4 14.3 12.9 15 8.5 0.8 15.7-5.9 15.7-14.2v-0.8c0-4.5 3.7-8.2 8.2-8.2h0.8c8.3 0 15-7.2 14.2-15.7-0.7-7.5-7.5-12.9-15-12.9zM201.6 625.2c-4.5 0-8.2-3.7-8.2-8.2 0-7.5-5.4-14.3-12.9-15-8.5-0.8-15.7 5.9-15.7 14.2v0.8c0 4.5-3.7 8.2-8.2 8.2-7.5 0-14.3 5.4-15 12.9-0.8 8.5 5.9 15.7 14.2 15.7h0.8c4.5 0 8.2 3.7 8.2 8.2 0 7.5 5.4 14.3 12.9 15 8.5 0.8 15.7-5.9 15.7-14.2v-0.8c0-4.5 3.7-8.2 8.2-8.2h0.8c8.3 0 15-7.2 14.2-15.7-0.7-7.5-7.5-12.9-15-12.9z" fill="#9AD6E8" p-id="3952"></path><path d="M671.4 361.6c-7.2 0-13-5.8-13-13v-59.2c0-7.2 5.8-13 13-13h45c7.2 0 13 5.8 13 13v59.2c0 7.2-5.8 13-13 13h-45z" fill="#FCC975" p-id="3953"></path><path d="M716.4 289.3v59.2h-45v-59.2h45m0-26h-45c-14.4 0-26.1 11.7-26.1 26.1v59.2c0 14.4 11.7 26.1 26.1 26.1h45c14.4 0 26.1-11.7 26.1-26.1v-59.2c0-14.5-11.6-26.1-26.1-26.1z" fill="#282F63" p-id="3954"></path><path d="M495.3 368.1c-7.2 0-13-5.8-13-13v-59.2c0-7.2 5.8-13 13-13h45c7.2 0 13 5.8 13 13V355c0 7.2-5.8 13-13 13h-45z" fill="#FCC975" p-id="3955"></path><path d="M540.3 295.9V355h-45v-59.2h45m0-26h-45c-14.4 0-26.1 11.7-26.1 26.1V355c0 14.4 11.7 26.1 26.1 26.1h45c14.4 0 26.1-11.7 26.1-26.1v-59.2c0-14.3-11.7-26-26.1-26zM811.9 496.5c-16 0-29.8-1.3-38.7-3-7.1-1.3-11.8-8.1-10.5-15.2 1.3-7.1 8.1-11.8 15.2-10.5 23.9 4.3 95.3 7.8 137.3-27.4 21.4-17.9 32.2-44 32.2-77.5 0-32.4-9.9-58.4-29.4-77.3-39.3-38-104.9-36.2-105.6-36.1h-45c-7.2 0-13-5.8-13-13s5.8-13 13-13h44.3c5.7-0.2 78-1.3 124.3 43.5 24.8 23.9 37.4 56.3 37.4 96 0 41.7-14 74.5-41.6 97.6-22.3 18.6-52.5 30.2-89.9 34.4-10.4 1-20.6 1.5-30 1.5z" fill="#282F63" p-id="3956"></path><path d="M124.4 468.2c-7.2 0-13-5.8-13-13v-35.7c0-7.2 5.8-13 13-13h205.2c7.2 0 13 5.8 13 13v35.7c0 7.2-5.8 13-13 13H124.4z" fill="#AAD4E9" p-id="3957"></path><path d="M329.6 419.4v35.7H124.4v-35.7h205.2m0-26.1H124.4c-14.4 0-26.1 11.7-26.1 26.1v35.7c0 14.4 11.7 26.1 26.1 26.1h205.2c14.4 0 26.1-11.7 26.1-26.1v-35.7c0-14.4-11.7-26.1-26.1-26.1z" fill="#282F63" p-id="3958"></path><path d="M99.8 507.4c-18.3 0-33.2-14.9-33.2-33.2v-73.8c0-18.3 14.9-33.2 33.2-33.2h4.5c18.3 0 33.2 14.9 33.2 33.2v73.8c0 18.3-14.9 33.2-33.2 33.2h-4.5z" fill="#E5F1F9" p-id="3959"></path><path d="M104.3 380.2c11.1 0 20.1 9 20.1 20.1v73.8c0 11.1-9 20.1-20.1 20.1h-4.5c-11.1 0-20.1-9-20.1-20.1v-73.8c0-11.1 9-20.1 20.1-20.1h4.5m0-26.1h-4.5c-25.5 0-46.2 20.7-46.2 46.2v73.8c0 25.5 20.7 46.2 46.2 46.2h4.5c25.5 0 46.2-20.7 46.2-46.2v-73.8c0-25.4-20.7-46.2-46.2-46.2zM701 722.4H552.7c-30.6 0-55.4-24.6-55.4-54.8v-98.1c0-7.2 5.8-13 13-13s13 5.8 13 13v98.1c0 15.8 13.2 28.7 29.4 28.7H701c7.2 0 13 5.8 13 13s-5.8 13.1-13 13.1z" fill="#282F63" p-id="3960"></path><path d="M575.4 691.6c-7.2 0-13-5.8-13-13v-52.2c0-7.2 5.8-13 13-13s13 5.8 13 13v52.2c0.1 7.2-5.7 13-13 13z" fill="#282F63" p-id="3961"></path><path d="M666.8 665.5h-91.3c-7.2 0-13-5.8-13-13s5.8-13 13-13h91.3c7.2 0 13 5.8 13 13s-5.8 13-13 13z" fill="#282F63" p-id="3962"></path><path d="M716.2 859c-16.6 0-30.7-11.7-33.6-27.9l-55.8-309c-3.2-17.7 8.1-34.8 25.8-38.9l129.7-28.7c0.9-0.2 1.9-0.3 2.8-0.3 5.9 0 11.3 4.1 12.7 10.1l75.6 321.5c4.1 16.9-5.9 34.5-22.6 39.9-0.3 0.1-0.5 0.2-0.8 0.2l-123.5 31.5c-3.4 1.1-6.8 1.6-10.3 1.6z" fill="#1E62A1" p-id="3963"></path><path d="M785 467.2l75.6 321.5c2.5 10.5-3.5 21.2-13.9 24.5l-123.8 31.6c-2.2 0.7-4.4 1.1-6.6 1.1-9.9 0-18.9-7-20.8-17.2l-55.8-309c-2-10.9 5-21.4 15.9-23.9L785 467.2m0-26.1c-1.9 0-3.8 0.2-5.7 0.6l-129.5 28.6c-0.1 0-0.2 0-0.3 0.1-24.5 5.7-40.1 29.4-35.7 54l55.8 309c4 22.4 23.6 38.6 46.5 38.6 4.7 0 9.3-0.7 13.7-2L853 838.5c0.5-0.1 1.1-0.3 1.6-0.5 11.2-3.7 20.6-11.3 26.4-21.5 5.9-10.3 7.6-22.3 4.8-33.9l-75.6-321.4c-2.6-12-13.3-20.1-25.2-20.1z" fill="#282F63" p-id="3964"></path><path d="M734.6 822.2l-55.8-309c-2-10.9 5-21.4 15.9-23.9l90.8-20.1-0.5-2-129.5 28.6c-10.9 2.5-17.9 13-15.9 23.9l55.8 309c2.3 12.5 15.2 20.1 27.4 16.1l25.7-6.6c-6.9-2.2-12.5-8.1-13.9-16z" fill="#3381BC" p-id="3965"></path><path d="M398 318.1c-35.2 0-63.9-28.7-63.9-63.9v-10.7c0-35.2 28.7-63.9 63.9-63.9h395.6c35.2 0 63.9 28.7 63.9 63.9v10.7c0 35.2-28.7 63.9-63.9 63.9H398z" fill="#FFDBA0" p-id="3966"></path><path d="M793.5 192.7c28.1 0 50.9 22.8 50.9 50.9v10.7c0 28.1-22.8 50.9-50.9 50.9H398c-28.1 0-50.9-22.8-50.9-50.9v-10.7c0-28.1 22.8-50.9 50.9-50.9h395.5m0-26.1H398c-42.4 0-76.9 34.5-76.9 76.9v10.7c0 42.4 34.5 76.9 76.9 76.9h395.6c42.4 0 76.9-34.5 76.9-76.9v-10.7c0-42.3-34.6-76.9-77-76.9z" fill="#282F63" p-id="3967"></path><path d="M814 197c2.8 6.3 4.3 13.2 4.3 20.4v10.7c0 28.1-22.8 50.9-50.9 50.9H371.9c-7.3 0-14.2-1.6-20.4-4.3 7.9 17.9 25.7 30.4 46.5 30.4h395.6c28.1 0 50.9-22.8 50.9-50.9v-10.7c-0.1-20.7-12.6-38.6-30.5-46.5z" fill="#FCC975" p-id="3968"></path><path d="M317.4 598.7c-33.7 0-61-27.4-61-61v-21.5c0-33.7 27.4-61 61-61h479c33.7 0 61 27.4 61 61v21.5c0 33.7-27.4 61-61 61h-479z" fill="#E5F1F9" p-id="3969"></path><path d="M796.4 468.2c26.5 0 48 21.5 48 48v21.5c0 26.5-21.5 48-48 48h-479c-26.5 0-48-21.5-48-48v-21.5c0-26.5 21.5-48 48-48h479m0-26.1h-479c-40.9 0-74.1 33.2-74.1 74.1v21.5c0 40.9 33.2 74.1 74.1 74.1h479c40.9 0 74.1-33.2 74.1-74.1v-21.5c0-40.9-33.3-74.1-74.1-74.1z" fill="#282F63" p-id="3970"></path><path d="M796.4 468.2h-45.7c26.5 0 48 21.5 48 48v21.5c0 26.5-21.5 48-48 48h45.7c26.5 0 48-21.5 48-48v-21.5c0-26.5-21.5-48-48-48z" fill="#AAD4E9" p-id="3971"></path><path d="M252.3 520.4c-37.6 0-68.3-30.6-68.3-68.3v-27.7c0-37.6 30.6-68.3 68.3-68.3h536.8c37.6 0 68.3 30.6 68.3 68.3v82.9c0 7.2-5.8 13-13 13H252.3z" fill="#E5F1F9" p-id="3972"></path><path d="M789.1 369.2c30.5 0 55.2 24.7 55.2 55.2v82.9h-592c-30.5 0-55.2-24.7-55.2-55.2v-27.7c0-30.5 24.7-55.2 55.2-55.2h536.8m0-26.1H252.3c-44.8 0-81.3 36.5-81.3 81.3v27.7c0 44.8 36.5 81.3 81.3 81.3h592.1c14.4 0 26.1-11.7 26.1-26.1v-82.9c0-44.8-36.5-81.3-81.4-81.3z" fill="#282F63" p-id="3973"></path><path d="M789.1 369.2h-45.7c30.5 0 55.2 24.7 55.2 55.2v82.9h45.7v-82.9c0.1-30.5-24.7-55.2-55.2-55.2z" fill="#AAD4E9" p-id="3974"></path><path d="M442.7 231.9h-40.6M442.7 245h-40.6c-7.2 0-13-5.8-13-13s5.8-13 13-13h40.6c7.2 0 13 5.8 13 13s-5.8 13-13 13z" fill="#FFFFFF" p-id="3975"></path><path d="M588.5 231.9h-97.2M588.5 245h-97.2c-7.2 0-13-5.8-13-13s5.8-13 13-13h97.2c7.2 0 13 5.8 13 13s-5.8 13-13 13z" fill="#FFFFFF" p-id="3976"></path><path d="M738.2 434.9h60" fill="#FFFFFF" p-id="3977"></path><path d="M798.2 447.9h-60c-7.2 0-13-5.8-13-13s5.8-13 13-13h60c7.2 0 13 5.8 13 13s-5.8 13-13 13z" fill="#283163" p-id="3978"></path><path d="M692.1 471.8h106.1" fill="#FFFFFF" p-id="3979"></path><path d="M798.2 484.8H692.1c-7.2 0-13-5.8-13-13s5.8-13 13-13h106.1c7.2 0 13 5.8 13 13s-5.8 13-13 13z" fill="#283163" p-id="3980"></path></svg>