<?xml version="1.0" standalone="no"?><!DOCTYPE svg PUBLIC "-//W3C//DTD SVG 1.1//EN" "http://www.w3.org/Graphics/SVG/1.1/DTD/svg11.dtd"><svg t="1643771065581" class="icon" viewBox="0 0 1024 1024" version="1.1" xmlns="http://www.w3.org/2000/svg" p-id="4129" xmlns:xlink="http://www.w3.org/1999/xlink" width="200" height="200"><defs><style type="text/css"></style></defs><path d="M285.2 475.8c-4.2 0-8.2-2-10.6-5.5s-3-7.8-1.6-11.8l52.6-148.2h-77.8c-4.6 0-8.8-2.4-11.1-6.3l-32-53.4c-1.9-3.1-2.3-6.9-1.3-10.4 1-3.5 3.5-6.4 6.8-8l134.7-64.8-13.5-53.8c-1.1-4.3 0.1-8.8 3.1-12 2.5-2.7 5.9-4.1 9.5-4.1 0.7 0 1.5 0.1 2.2 0.2 5.4 0.9 132.1 23.8 144.1 101.6 10.8 70 0.6 256.4 0.1 264.4-0.4 6.9-6.1 12.2-12.9 12.2H285.2z" fill="#FFDBA0" p-id="4130"></path><path d="M344 110.4s122.8 21.4 133.5 90.8c10.7 69.4 0 261.7 0 261.7H285.2L344 297.3h-96.1l-32-53.4L360 174.5l-16-64.1m0-25.9c-7.1 0-14 2.9-19 8.3-6 6.4-8.3 15.4-6.2 23.9l10.9 43.6-125.2 60.3c-6.6 3.2-11.5 8.9-13.6 15.9-2.1 7-1.1 14.5 2.6 20.8l32 53.4c4.7 7.8 13.1 12.6 22.2 12.6h59.4l-46.5 131c-2.8 7.9-1.6 16.7 3.3 23.6 4.9 6.9 12.8 11 21.2 11h192.2c13.8 0 25.1-10.7 25.9-24.5 0.4-8 10.7-195.8-0.3-267-3.4-21.9-14.7-41.6-33.6-58.8-13.6-12.3-31.2-23.2-52.4-32.5C382.4 91 349.6 85.2 348.2 85c-1.3-0.4-2.7-0.5-4.2-0.5z" fill="#282F63" p-id="4131"></path><path d="M477.5 201.2C466.8 131.8 344 110.4 344 110.4l2.2 8.9c37.2 11.8 91.9 36.6 98.9 81.9 10.7 69.4 0 261.7 0 261.7h32.4s10.7-192.3 0-261.7z" fill="#FCC975" p-id="4132"></path><path d="M362.3 215.4v25.9" fill="#FFFFFF" p-id="4133"></path><path d="M362.3 254.3c-7.2 0-13-5.8-13-13v-25.9c0-7.2 5.8-13 13-13s13 5.8 13 13v25.9c0 7.2-5.8 13-13 13z" fill="#283163" p-id="4134"></path><path d="M743.7 502.2c-1.6 0-3.2-0.3-4.7-0.9l-40-15.6c-6.7-2.6-10-10.1-7.4-16.8l43.2-110.6c5.2-13.3 17.8-21.9 32.1-21.9 4.3 0 8.5 0.8 12.5 2.4 8.6 3.3 15.3 9.8 19 18.2 3.7 8.4 3.9 17.8 0.5 26.3L755.8 494c-2 5.1-6.9 8.2-12.1 8.2z" fill="#FFDBA0" p-id="4135"></path><path d="M766.9 349.4c2.6 0 5.2 0.5 7.8 1.5 11 4.3 16.5 16.8 12.2 27.8l-43.2 110.6-40-15.6 43.2-110.6c3.3-8.5 11.4-13.7 20-13.7m0-25.9c-9.4 0-18.6 2.8-26.4 8-8.1 5.4-14.2 13-17.7 22.1l-43.2 110.6c-5.2 13.3 1.4 28.4 14.7 33.6l40 15.6c3 1.2 6.2 1.8 9.4 1.8 3.5 0 7.1-0.7 10.4-2.2 6.3-2.8 11.2-7.9 13.7-14.3L811 388.1c4.6-11.8 4.3-24.7-0.7-36.3-5.1-11.6-14.4-20.5-26.2-25.1-5.5-2.1-11.3-3.2-17.2-3.2z" fill="#282F63" p-id="4136"></path><path d="M774.7 350.9c-6-2.3-12.3-1.7-17.6 1 9.7 4.9 14.3 16.5 10.3 26.8l-40.6 104 16.9 6.6 43.2-110.6c4.3-11.1-1.1-23.5-12.2-27.8z" fill="#FCC975" p-id="4137"></path><path d="M274.9 801.8c-3.9 0-7.6-1.8-10.1-4.9l-25.9-32.4c-2.6-3.2-3.5-7.4-2.4-11.4l64.8-246.3c1.5-5.7 6.6-9.7 12.5-9.7h32.4c4 0 7.8 1.9 10.2 5 2.5 3.2 3.3 7.3 2.3 11.2L287.4 792c-1.2 4.8-5 8.4-9.8 9.5-0.9 0.3-1.8 0.3-2.7 0.3z" fill="#E5F1F9" p-id="4138"></path><path d="M346.1 510.2l-71.3 278.7-25.9-32.4 64.8-246.3h32.4m0-25.9h-32.4c-11.8 0-22.1 7.9-25.1 19.3l-64.8 246.3c-2.1 7.9-0.3 16.4 4.8 22.8l25.9 32.4c5 6.2 12.5 9.7 20.2 9.7 1.8 0 3.6-0.2 5.5-0.6 9.6-2.1 17.2-9.4 19.7-18.9l71.1-278c0.6-2.2 1-4.6 1-7.1 0.1-14.3-11.5-25.9-25.9-25.9z m0 51.9z" fill="#282F63" p-id="4139"></path><path d="M346.1 510.2h-32.4L264.6 697c9.6 6.9 19 14.2 28.3 21.3l53.2-208.1z" fill="#AAD4E9" p-id="4140"></path><path d="M767.4 801.8c-0.9 0-1.8-0.1-2.7-0.3-4.8-1-8.6-4.7-9.8-9.5l-71.3-278.7c-1-3.9-0.1-8 2.3-11.2 2.5-3.2 6.2-5 10.2-5h32.4c5.9 0 11 4 12.5 9.7l64.8 246.3c1 4 0.1 8.2-2.4 11.4L777.5 797c-2.5 3.1-6.3 4.8-10.1 4.8z" fill="#E5F1F9" p-id="4141"></path><path d="M728.5 510.2l64.8 246.3-25.9 32.4-71.3-278.7h32.4m0-25.9h-32.4c-8 0-15.6 3.7-20.5 10s-6.6 14.6-4.6 22.3l71.3 278.7c2.4 9.5 10 16.8 19.7 18.9 1.8 0.4 3.6 0.6 5.5 0.6 7.8 0 15.3-3.5 20.2-9.7l25.9-32.4c5.1-6.4 6.9-14.9 4.8-22.8l-64.8-246.3c-3.1-11.3-13.3-19.3-25.1-19.3z" fill="#282F63" p-id="4142"></path><path d="M728.5 510.2h-32.4l52.5 205.2c9.8-7 19.2-14.5 28-22.6l-48.1-182.6z" fill="#AAD4E9" p-id="4143"></path><path d="M514.6 892.6c-78 0-153.5-15.6-224.4-46.5-68.5-29.8-129.6-72.3-181.7-126.3-9.5-9.9-10.7-25.3-2.8-36.6l0.3-0.4c5.4-7.7 14.3-12.3 23.8-12.3 7.9 0 15.3 3.1 20.8 8.8 96.2 99.9 225.5 155 364.1 155 142.9 0 279.8-61 375.6-167.4 5.5-6.1 13.3-9.5 21.4-9.5 8.3 0 16.2 3.6 21.8 9.8l0.2 0.3c9.7 11 9.7 27.5-0.1 38.4-52.4 58.1-114.9 104-185.8 136.3-73.4 33.4-151.9 50.4-233.2 50.4z" fill="#1E62A1" p-id="4144"></path><path d="M911.7 670.3c4.4 0 8.9 1.8 12.1 5.4 0.1 0.1 0.1 0.2 0.2 0.2 5.3 6 5.4 15.2 0 21.2-100.8 112-246.8 182.5-409.3 182.5-155.9 0-296.6-64.8-396.8-168.8-5.3-5.5-5.9-14-1.5-20.2 0.1-0.1 0.1-0.2 0.2-0.3 3.2-4.5 8.2-6.9 13.2-6.9 4.1 0 8.3 1.6 11.4 4.9 94.3 98 226.7 158.9 373.4 158.9 153 0 290.4-66.3 385.3-171.7 3.2-3.5 7.5-5.2 11.8-5.2m0-25.9c-11.8 0-23.2 5-31.1 13.8-93.3 103.6-226.7 163.1-366 163.1-135 0-261-53.6-354.8-151-7.9-8.3-18.6-12.8-30.1-12.8-13.7 0-26.5 6.7-34.4 17.9l-0.1 0.2-0.1 0.2c-11.5 16.4-9.8 38.7 4 53.1 26.2 27.2 55.2 52 86.2 73.6 31.3 21.8 64.8 40.5 99.6 55.7 72.6 31.5 149.8 47.5 229.6 47.5 41.8 0 83.5-4.5 123.9-13.4 39.4-8.6 78-21.5 114.7-38.2 36-16.4 70.5-36.7 102.5-60.2 31.7-23.3 61.2-50 87.5-79.3 14.2-15.8 14.3-39.7 0.2-55.7l-0.1-0.2-0.1-0.1c-7.9-9.1-19.4-14.2-31.4-14.2z" fill="#282F63" p-id="4145"></path><path d="M170.4 716.1c-10-8.9-19.9-18.2-29.2-27.8-7-7.2-18.8-6.2-24.6 2-0.1 0.1-0.1 0.2-0.2 0.3-4.4 6.2-3.8 14.7 1.5 20.2 10.3 10.7 21.1 21 32.2 30.8 4-9.5 10.7-18.2 20.3-25.5z" fill="#3381BC" p-id="4146"></path><path d="M514.6 737c-47.6 0-94.2-8.3-138.5-24.5-42.8-15.7-82.4-38.5-117.6-67.7-3.9-3.3-5.6-8.6-4.2-13.5l40.5-144c1.6-5.6 6.7-9.5 12.5-9.5l424.6 4.9c5.8 0.1 10.8 4 12.4 9.6l36.5 134.2c1.3 4.8-0.3 10-4 13.2-35.7 30.8-76 54.8-119.8 71.4-45.6 17.2-93.4 25.9-142.4 25.9z" fill="#E5F1F9" p-id="4147"></path><path d="M307.3 490.8l424.5 4.9 36.5 134.2c-68.1 58.7-156.7 94.2-253.6 94.2-94.2 0-180.6-33.5-247.9-89.3l40.5-144m0-25.9c-11.6 0-21.8 7.7-25 18.9l-40.5 144c-2.8 9.9 0.5 20.4 8.4 27 36.4 30.2 77.3 53.7 121.4 69.9 45.7 16.8 93.8 25.3 143 25.3 50.5 0 99.9-9 146.8-26.8 45.2-17.2 86.9-42 123.7-73.7 7.6-6.5 10.7-16.8 8.1-26.4l-36.5-134.2c-3-11.2-13.1-19-24.7-19.1l-424.5-4.9h-0.2z" fill="#282F63" p-id="4148"></path><path d="M699.3 575l24 88.2c15.8-10.1 30.8-21.2 44.9-33.3l-36.5-134.2-424.5-4.9-22.4 79.5 414.5 4.7z" fill="#AAD4E9" p-id="4149"></path><path d="M223 536.2c-7.2 0-13-5.8-13-13v-32.4c0-7.2 5.8-13 13-13h583.2c7.2 0 13 5.8 13 13v32.4c0 7.2-5.8 13-13 13H223z" fill="#1E62A1" p-id="4150"></path><path d="M806.2 490.8v32.4H223v-32.4h583.2m0-25.9H223c-14.3 0-25.9 11.6-25.9 25.9v32.4c0 14.3 11.6 25.9 25.9 25.9h583.2c14.3 0 25.9-11.6 25.9-25.9v-32.4c0.1-14.3-11.5-25.9-25.9-25.9z" fill="#282F63" p-id="4151"></path><path d="M223 490.8v32.4h45.4v-32.4H223z" fill="#3381BC" p-id="4152"></path><path d="M907.9 368.1c-4.5 0-8.1-3.6-8.1-8.1 0-7.5-5.4-14.2-12.8-14.9-8.4-0.8-15.6 5.9-15.6 14.1v0.8c0 4.5-3.6 8.1-8.1 8.1-7.5 0-14.2 5.4-14.9 12.8-0.8 8.4 5.9 15.6 14.1 15.6h0.8c4.5 0 8.1 3.6 8.1 8.1 0 7.5 5.4 14.2 12.8 14.9 8.4 0.8 15.6-5.9 15.6-14.1v-0.8c0-4.5 3.6-8.1 8.1-8.1h0.8c8.3 0 14.9-7.1 14.1-15.6-0.7-7.4-7.4-12.8-14.9-12.8z" fill="#9AD6E8" p-id="4153"></path><path d="M622.8 180.1c-4.5 0-8.1-3.6-8.1-8.1 0-7.5-5.4-14.2-12.8-14.9-8.4-0.8-15.6 5.9-15.6 14.1v0.8c0 4.5-3.6 8.1-8.1 8.1-7.5 0-14.2 5.4-14.9 12.8-0.8 8.4 5.9 15.6 14.1 15.6h0.8c4.5 0 8.1 3.6 8.1 8.1 0 7.5 5.4 14.2 12.8 14.9 8.4 0.8 15.6-5.9 15.6-14.1v-0.8c0-4.5 3.6-8.1 8.1-8.1h0.8c8.3 0 14.9-7.1 14.1-15.6-0.7-7.4-7.5-12.8-14.9-12.8z" fill="#9AD6E8" p-id="4154"></path><path d="M175.7 368.1c-4.5 0-8.1-3.6-8.1-8.1 0-7.5-5.4-14.2-12.8-14.9-8.4-0.8-15.6 5.9-15.6 14.1v0.8c0 4.5-3.6 8.1-8.1 8.1-7.5 0-14.2 5.4-14.9 12.8-0.8 8.4 5.9 15.6 14.1 15.6h0.8c4.5 0 8.1 3.6 8.1 8.1 0 7.5 5.4 14.2 12.8 14.9 8.4 0.8 15.6-5.9 15.6-14.1v-0.8c0-4.5 3.6-8.1 8.1-8.1h0.8c8.3 0 14.9-7.1 14.1-15.6-0.8-7.4-7.5-12.8-14.9-12.8z" fill="#9AD6E8" p-id="4155"></path></svg>