<?xml version="1.0" standalone="no"?><!DOCTYPE svg PUBLIC "-//W3C//DTD SVG 1.1//EN" "http://www.w3.org/Graphics/SVG/1.1/DTD/svg11.dtd"><svg t="1643770792217" class="icon" viewBox="0 0 1024 1024" version="1.1" xmlns="http://www.w3.org/2000/svg" p-id="2367" xmlns:xlink="http://www.w3.org/1999/xlink" width="200" height="200"><defs><style type="text/css"></style></defs><path d="M869.6 844.7c-5.2 0-10.4-1.2-15.1-3.4-25-11.8-46.6-32.3-62.7-59.1-16.7-27.9-27.3-62-31.6-101.4-7.9-72.5-113.5-79.6-114.5-79.7-4.6-0.3-8.7-2.9-10.8-6.9-2.2-4-2.1-8.9 0.2-12.9l17.4-30c1.2-5.4 5.9-10.4 13.3-10.4h0.5c1.5 0 2.9 0.3 4.3 0.8 30.9 5.2 58.3 14 81.2 26.1 45.8 24.1 70.8 60.3 72.3 104.8 2 62.5 43.8 93.5 66.2 110.2 8.8 6.6 13.9 16.6 14 27.6 0 10.9-5 20.9-13.8 27.5-6 4.3-13.4 6.8-20.9 6.8z" fill="#FFDBA0" p-id="2368"></path><path d="M665.8 554.1h0.3l-0.1 0.2c-0.8-0.1-0.9-0.2-0.2-0.2m0.1 0.2c10.1 1.9 141.7 19.3 144.9 118.7 2.2 66.6 45.4 100.9 71.5 120.4 11.4 8.5 11.5 25.3 0.2 33.9-3.8 2.9-8.4 4.3-13 4.3-3.2 0-6.4-0.7-9.4-2.1-44.7-21.2-78.4-72.7-86.8-150C764.1 595 646.4 588 646.4 588l19.5-33.7m-0.1-26.6c-12 0-22.2 7.6-25.6 18.4l-16.5 28.5c-4.6 7.9-4.8 17.7-0.4 25.8 4.4 8.1 12.5 13.3 21.7 13.8 2.1 0.1 95.6 7.2 102.2 68 4.5 41.3 15.7 77.2 33.4 106.8 17.4 29.1 41 51.3 68.4 64.3 6.4 3.1 13.6 4.7 20.7 4.7 10.3 0 20.6-3.4 28.8-9.6 12.1-9.1 19.1-23 19.1-38.1 0-15.1-7.1-29-19.3-38.1-20.6-15.3-59.1-43.9-60.9-100-1.6-49.4-29-89.5-79.3-116-24-12.6-52.3-21.8-84.2-27.2-2.3-0.7-4.8-1.1-7.3-1.1-0.4-0.2-0.6-0.2-0.8-0.2z" fill="#282F63" p-id="2369"></path><path d="M665.9 554.3l0.1-0.2c-0.9 0-0.8 0-0.1 0.2z" fill="#FFDBA0" p-id="2370"></path><path d="M756.2 585.6c-38.8-24-84.9-30.2-90.3-31.3l-19.5 33.6s75.2 4.5 110 49.5c3-16.3 2-34.1-0.2-51.8z" fill="#FCC975" p-id="2371"></path><path d="M683.4 610.4c-0.7 0-1.4-0.1-2-0.2l-508.5-79.7c-6.4-1-11.2-6.5-11.2-13V100.9c0-7.3 5.9-13.2 13.2-13.2h410.5c6.3 0 11.7 4.5 13 10.6l98 496.3c0.8 4.2-0.4 8.6-3.4 11.7-2.6 2.7-6.1 4.1-9.6 4.1z" fill="#E5F1F9" p-id="2372"></path><path d="M585.3 100.9l98 496.3-508.5-79.6V100.9h410.5m0-26.4H174.8c-14.6 0-26.4 11.8-26.4 26.4v416.6c0 13 9.5 24.1 22.3 26.1l508.5 79.6c1.4 0.2 2.7 0.3 4.1 0.3 7.1 0 14-2.9 19-8.1 6-6.2 8.5-15 6.9-23.4l-98-496.3c-2.4-12.3-13.2-21.2-25.9-21.2z" fill="#282F63" p-id="2373"></path><path d="M585.3 100.9h-43.6L630.6 551l-455.8-71.4v38l508.6 79.6z" fill="#AAD4E9" p-id="2374"></path><path d="M168.7 517.6l416.6-416.7" fill="#E5F1F9" p-id="2375"></path><path d="M168.7 530.8c-3.4 0-6.8-1.3-9.3-3.9-5.2-5.2-5.2-13.5 0-18.7L576 91.6c5.2-5.2 13.5-5.2 18.7 0s5.2 13.5 0 18.7L178 526.9c-2.5 2.6-5.9 3.9-9.3 3.9z" fill="#282F63" p-id="2376"></path><path d="M174.8 100.9l508.6 496.3" fill="#E5F1F9" p-id="2377"></path><path d="M683.4 610.4c-3.3 0-6.7-1.2-9.2-3.8L165.6 110.4c-5.2-5.1-5.3-13.5-0.2-18.7 5.1-5.2 13.5-5.3 18.7-0.2l508.5 496.3c5.2 5.1 5.3 13.5 0.2 18.7-2.6 2.6-6 3.9-9.4 3.9z" fill="#282F63" p-id="2378"></path><path d="M352.5 953.5c-2.1 0-4.2-0.5-6.2-1.6-6.4-3.4-8.9-11.4-5.4-17.9 19.3-36.2 28.1-89.3 24.3-143-22.4 12-48.2 21.1-77.3 27.3-104.3 22.3-143-19.4-156.8-46.3-12.1-23.5-14.4-53.2-6.6-83.7 7.4-29.1 23.2-55.7 44.3-74.8 18.1-16.4 39.2-26.3 61.2-28.8 24.9-2.8 50 3.8 74.6 19.6 39.4 25.3 68.5 76.2 81.2 141 18.8-15.9 33.5-35.2 43.9-57.7 34.3-74.4 16.8-172.8-4-242.3-22.8-76.3-54.3-135-54.6-135.6-3.5-6.4-1.1-14.4 5.3-17.9 6.4-3.5 14.4-1.1 17.9 5.3 1.3 2.5 33.1 61.7 56.7 140.6 13.9 46.6 22 90.3 24.1 130 2.6 50.4-4.6 94.5-21.4 130.9-14.3 31-35.5 56.6-63.3 76.6 7 63.7-2.5 126.8-26.1 171-2.5 4.8-7.1 7.3-11.8 7.3zM240.9 610.6c-24.6 0-43.3 12.5-54.4 22.5-17.1 15.5-30.3 38-36.4 61.8-6.2 24.2-4.6 47.3 4.6 65.1 12.9 25.2 40.3 38.2 79 38.2 14.7 0 31-1.9 48.8-5.7 30.7-6.6 57.2-16.6 79.5-30.1-10-63.5-36-112.9-71.7-135.8-18.3-11.6-34.9-16-49.4-16z" fill="#282F63" p-id="2379"></path><path d="M582.1 695.5c-4.6 0-8.3-3.7-8.3-8.3 0-7.6-5.5-14.5-13.1-15.2-8.6-0.8-15.8 6-15.8 14.4v0.8c0 4.6-3.7 8.3-8.3 8.3-7.6 0-14.5 5.5-15.2 13.1-0.8 8.6 6 15.8 14.4 15.8h0.8c4.6 0 8.3 3.7 8.3 8.3 0 7.6 5.5 14.5 13.1 15.2 8.6 0.8 15.8-6 15.8-14.4v-0.8c0-4.6 3.7-8.3 8.3-8.3h0.8c8.4 0 15.2-7.3 14.4-15.8-0.7-7.6-7.6-13.1-15.2-13.1z" fill="#9AD6E8" p-id="2380"></path><path d="M766.9 246.6c-4.6 0-8.3-3.7-8.3-8.3 0-7.6-5.5-14.5-13.1-15.2-8.6-0.8-15.8 6-15.8 14.4v0.8c0 4.6-3.7 8.3-8.3 8.3-7.6 0-14.5 5.5-15.2 13.1-0.8 8.6 6 15.8 14.4 15.8h0.8c4.6 0 8.3 3.7 8.3 8.3 0 7.6 5.5 14.5 13.1 15.2 8.6 0.8 15.8-6 15.8-14.4v-0.8c0-4.6 3.7-8.3 8.3-8.3h0.8c8.4 0 15.2-7.3 14.4-15.8-0.7-7.6-7.6-13.1-15.2-13.1z" fill="#9AD6E8" p-id="2381"></path><path d="M912.2 523.8c-4.6 0-8.3-3.7-8.3-8.3 0-7.6-5.5-14.5-13.1-15.2-8.6-0.8-15.8 6-15.8 14.4v0.8c0 4.6-3.7 8.3-8.3 8.3-7.6 0-14.5 5.5-15.2 13.1-0.8 8.6 6 15.8 14.4 15.8h0.8c4.6 0 8.3 3.7 8.3 8.3 0 7.6 5.5 14.5 13.1 15.2 8.6 0.8 15.8-6 15.8-14.4v-0.8c0-4.6 3.7-8.3 8.3-8.3h0.8c8.4 0 15.2-7.3 14.4-15.8-0.8-7.6-7.6-13.1-15.2-13.1z" fill="#9AD6E8" p-id="2382"></path></svg>