<?xml version="1.0" standalone="no"?><!DOCTYPE svg PUBLIC "-//W3C//DTD SVG 1.1//EN" "http://www.w3.org/Graphics/SVG/1.1/DTD/svg11.dtd"><svg t="1643770812138" class="icon" viewBox="0 0 1024 1024" version="1.1" xmlns="http://www.w3.org/2000/svg" p-id="2531" xmlns:xlink="http://www.w3.org/1999/xlink" width="200" height="200"><defs><style type="text/css"></style></defs><path d="M122.5 845.9c-7.2 0-13.1-5.9-13.1-13.1V294.6c0-7.2 5.9-13.1 13.1-13.1h780.9c7.2 0 13.1 5.9 13.1 13.1v538.1c0 7.2-5.9 13.1-13.1 13.1H122.5z" fill="#E5F1F9" p-id="2532"></path><path d="M903.5 294.6v538.1h-781V294.6h781m0-26.2h-781c-14.5 0-26.2 11.8-26.2 26.2v538.1c0 14.5 11.8 26.2 26.2 26.2h780.9c14.5 0 26.2-11.8 26.2-26.2V294.6c0.1-14.5-11.7-26.2-26.1-26.2z" fill="#283163" p-id="2533"></path><path d="M155.4 327.4h748.1v-32.8h-781v538.1h32.9z" fill="#FFFFFF" p-id="2534"></path><path d="M202.8 839.3c-7.2 0-13.1-5.9-13.1-13.1V517.7c0-7.2 5.9-13.1 13.1-13.1h623.4c7.2 0 13.1 5.9 13.1 13.1v308.4c0 7.2-5.9 13.1-13.1 13.1H202.8z" fill="#FFFFFF" p-id="2535"></path><path d="M826.3 517.7v308.4H202.8V517.7h623.5m0-26.2H202.8c-14.5 0-26.2 11.8-26.2 26.2v308.4c0 14.5 11.8 26.2 26.2 26.2h623.4c14.5 0 26.2-11.8 26.2-26.2V517.7c0.1-14.5-11.7-26.2-26.1-26.2z" fill="#283163" p-id="2536"></path><path d="M297.2 668.7v157.5" fill="#FFFFFF" p-id="2537"></path><path d="M297.2 839.3c-7.2 0-13.1-5.9-13.1-13.1V668.7c0-7.2 5.9-13.1 13.1-13.1s13.1 5.9 13.1 13.1v157.5c0 7.2-5.9 13.1-13.1 13.1z" fill="#283163" p-id="2538"></path><path d="M442.1 668.7v157.5" fill="#FFFFFF" p-id="2539"></path><path d="M442.1 839.3c-7.2 0-13.1-5.9-13.1-13.1V668.7c0-7.2 5.9-13.1 13.1-13.1s13.1 5.9 13.1 13.1v157.5c0 7.2-5.9 13.1-13.1 13.1z" fill="#283163" p-id="2540"></path><path d="M587 668.7v157.5" fill="#FFFFFF" p-id="2541"></path><path d="M587 839.3c-7.2 0-13.1-5.9-13.1-13.1V668.7c0-7.2 5.9-13.1 13.1-13.1s13.1 5.9 13.1 13.1v157.5c0 7.2-5.8 13.1-13.1 13.1z" fill="#283163" p-id="2542"></path><path d="M731.9 668.7v157.5" fill="#FFFFFF" p-id="2543"></path><path d="M731.9 839.3c-7.2 0-13.1-5.9-13.1-13.1V668.7c0-7.2 5.9-13.1 13.1-13.1s13.1 5.9 13.1 13.1v157.5c0 7.2-5.8 13.1-13.1 13.1z" fill="#283163" p-id="2544"></path><path d="M276 714.6c-14.2 0-25.7-11.5-25.7-25.7V517.7c0-7.2 5.9-13.1 13.1-13.1h67.5c7.2 0 13.1 5.9 13.1 13.1v171.2c0 14.2-11.5 25.7-25.7 25.7H276z" fill="#1E62A1" p-id="2545"></path><path d="M330.9 517.7v171.2c0 7-5.6 12.6-12.6 12.6H276c-7 0-12.6-5.6-12.6-12.6V517.7h67.5m0-26.2h-67.5c-14.5 0-26.2 11.8-26.2 26.2v171.2c0 21.4 17.4 38.8 38.8 38.8h42.3c21.4 0 38.8-17.4 38.8-38.8V517.7c0.1-14.5-11.7-26.2-26.2-26.2z" fill="#283163" p-id="2546"></path><path d="M420.9 714.6c-14.2 0-25.7-11.5-25.7-25.7V517.7c0-7.2 5.9-13.1 13.1-13.1h67.5c7.2 0 13.1 5.9 13.1 13.1v171.2c0 14.2-11.5 25.7-25.7 25.7h-42.3z" fill="#1E62A1" p-id="2547"></path><path d="M475.8 517.7v171.2c0 7-5.6 12.6-12.6 12.6h-42.3c-7 0-12.6-5.6-12.6-12.6V517.7h67.5m0-26.2h-67.5c-14.5 0-26.2 11.8-26.2 26.2v171.2c0 21.4 17.4 38.8 38.8 38.8h42.3c21.4 0 38.8-17.4 38.8-38.8V517.7c0.1-14.5-11.7-26.2-26.2-26.2z" fill="#283163" p-id="2548"></path><path d="M565.9 714.6c-14.2 0-25.7-11.5-25.7-25.7V517.7c0-7.2 5.9-13.1 13.1-13.1h67.5c7.2 0 13.1 5.9 13.1 13.1v171.2c0 14.2-11.5 25.7-25.7 25.7h-42.3z" fill="#1E62A1" p-id="2549"></path><path d="M620.7 517.7v171.2c0 7-5.6 12.6-12.6 12.6h-42.3c-7 0-12.6-5.6-12.6-12.6V517.7h67.5m0-26.2h-67.5c-14.5 0-26.2 11.8-26.2 26.2v171.2c0 21.4 17.4 38.8 38.8 38.8h42.3c21.4 0 38.8-17.4 38.8-38.8V517.7c0.1-14.5-11.7-26.2-26.2-26.2z" fill="#283163" p-id="2550"></path><path d="M710.8 714.6c-14.2 0-25.7-11.5-25.7-25.7V517.7c0-7.2 5.9-13.1 13.1-13.1h67.5c7.2 0 13.1 5.9 13.1 13.1v171.2c0 14.2-11.5 25.7-25.7 25.7h-42.3z" fill="#1E62A1" p-id="2551"></path><path d="M765.6 517.7v171.2c0 7-5.6 12.6-12.6 12.6h-42.3c-7 0-12.6-5.6-12.6-12.6V517.7h67.5m0-26.2h-67.5c-14.5 0-26.2 11.8-26.2 26.2v171.2c0 21.4 17.4 38.8 38.8 38.8H753c21.4 0 38.8-17.4 38.8-38.8V517.7c0.1-14.5-11.7-26.2-26.2-26.2z" fill="#283163" p-id="2552"></path><path d="M283.1 688.9V517.7h-19.7v171.2c0 7 5.6 12.6 12.6 12.6h19.7c-6.9 0-12.6-5.6-12.6-12.6zM428 688.9V517.7h-19.7v171.2c0 7 5.6 12.6 12.6 12.6h19.7c-6.9 0-12.6-5.6-12.6-12.6zM573 688.9V517.7h-19.7v171.2c0 7 5.6 12.6 12.6 12.6h19.7c-7 0-12.6-5.6-12.6-12.6zM717.9 688.9V517.7h-19.7v171.2c0 7 5.6 12.6 12.6 12.6h19.7c-7 0-12.6-5.6-12.6-12.6z" fill="#3381BC" p-id="2553"></path><path d="M201.3 438.3c-6.9 0-12.5-5.6-12.5-12.5v-59.1c0-6.9 5.6-12.5 12.5-12.5h269.1c6.9 0 12.5 5.6 12.5 12.5v59.1c0 6.9-5.6 12.5-12.5 12.5H201.3z" fill="#FFDBA0" p-id="2554"></path><path d="M470.3 366.8v59.1h-269v-59.1h269m0-24.9h-269c-13.8 0-24.9 11.1-24.9 24.9v59.1c0 13.8 11.1 24.9 24.9 24.9h269.1c13.8 0 24.9-11.1 24.9-24.9v-59.1c-0.1-13.7-11.2-24.9-25-24.9z" fill="#283163" p-id="2555"></path><path d="M437.5 366.8h32.8v59.1h-32.8z" fill="#FCC975" p-id="2556"></path><path d="M663.9 438.3c-23.1 0-42-18.8-42-42s18.8-42 42-42 42 18.8 42 42-18.8 42-42 42z" fill="#EF765E" p-id="2557"></path><path d="M663.9 366.8c16.3 0 29.5 13.2 29.5 29.5s-13.2 29.5-29.5 29.5-29.5-13.2-29.5-29.5 13.2-29.5 29.5-29.5m0-24.9c-30 0-54.4 24.4-54.4 54.4s24.4 54.4 54.4 54.4 54.4-24.4 54.4-54.4-24.4-54.4-54.4-54.4z" fill="#283163" p-id="2558"></path><path d="M795.2 438.3c-23.1 0-42-18.8-42-42s18.8-42 42-42 42 18.8 42 42-18.9 42-42 42z" fill="#EF765E" p-id="2559"></path><path d="M795.2 366.8c16.3 0 29.5 13.2 29.5 29.5s-13.2 29.5-29.5 29.5-29.5-13.2-29.5-29.5 13.2-29.5 29.5-29.5m0-24.9c-30 0-54.4 24.4-54.4 54.4s24.4 54.4 54.4 54.4 54.4-24.4 54.4-54.4-24.4-54.4-54.4-54.4z" fill="#283163" p-id="2560"></path><path d="M232.1 170.3c-4.5 0-8.2-3.7-8.2-8.2 0-7.6-5.5-14.4-13-15.1-8.5-0.8-15.8 5.9-15.8 14.3v0.8c0 4.5-3.7 8.2-8.2 8.2-7.6 0-14.4 5.5-15.1 13-0.8 8.5 5.9 15.8 14.3 15.8h0.8c4.5 0 8.2 3.7 8.2 8.2 0 7.6 5.5 14.4 13 15.1 8.5 0.8 15.8-5.9 15.8-14.3v-0.8c0-4.5 3.7-8.2 8.2-8.2h0.8c8.4 0 15.1-7.2 14.3-15.8-0.7-7.5-7.6-13-15.1-13z" fill="#9AD6E8" p-id="2561"></path><path d="M855.5 170.3c-4.5 0-8.2-3.7-8.2-8.2 0-7.6-5.5-14.4-13-15.1-8.5-0.8-15.8 5.9-15.8 14.3v0.8c0 4.5-3.7 8.2-8.2 8.2-7.6 0-14.4 5.5-15.1 13-0.8 8.5 5.9 15.8 14.3 15.8h0.8c4.5 0 8.2 3.7 8.2 8.2 0 7.6 5.5 14.4 13 15.1 8.5 0.8 15.8-5.9 15.8-14.3v-0.8c0-4.5 3.7-8.2 8.2-8.2h0.8c8.4 0 15.1-7.2 14.3-15.8-0.7-7.5-7.6-13-15.1-13z" fill="#9AD6E8" p-id="2562"></path></svg>