<?xml version="1.0" standalone="no"?><!DOCTYPE svg PUBLIC "-//W3C//DTD SVG 1.1//EN" "http://www.w3.org/Graphics/SVG/1.1/DTD/svg11.dtd"><svg t="1643768665652" class="icon" viewBox="0 0 1024 1024" version="1.1" xmlns="http://www.w3.org/2000/svg" p-id="2017" xmlns:xlink="http://www.w3.org/1999/xlink" width="200" height="200"><defs><style type="text/css"></style></defs><path d="M507 937.7c-18.1 0-32.9-14.7-32.9-32.9V556.3c0-18.1 14.7-32.9 32.9-32.9s32.9 14.7 32.9 32.9v348.5c0 18.2-14.8 32.9-32.9 32.9z" fill="#1E62A1" p-id="2018"></path><path d="M507 536.6c10.9 0 19.7 8.8 19.7 19.7v348.5c0 10.9-8.8 19.7-19.7 19.7s-19.7-8.8-19.7-19.7V556.3c-0.1-10.9 8.8-19.7 19.7-19.7m0-26.3c-25.4 0-46 20.6-46 46v348.5c0 25.4 20.6 46 46 46s46-20.6 46-46V556.3c0-25.3-20.6-46-46-46z" fill="#282F63" p-id="2019"></path><path d="M214 698c-5.3 0-10.1-3.2-12.1-8.1-2-4.9-0.9-10.6 2.9-14.3l292.9-292.9c2.5-2.5 5.8-3.9 9.3-3.9s6.8 1.4 9.3 3.9l134.8 134.8c5.1 5.1 5.1 13.5 0 18.6L523.8 663.4c-22.4 22.4-52.1 34.7-83.7 34.7H214z" fill="#E5F1F9" p-id="2020"></path><path d="M507 391.9l134.8 134.8-127.3 127.4c-19.7 19.7-46.5 30.8-74.4 30.8H214l293-293m0-26.3c-6.7 0-13.5 2.6-18.6 7.7l-293 293c-7.5 7.5-9.8 18.8-5.7 28.7 4.1 9.8 13.7 16.2 24.3 16.2h226.1c17.4 0 34.3-3.4 50.3-10s30.4-16.2 42.7-28.5l127.3-127.3c10.3-10.3 10.3-26.9 0-37.2L525.6 373.3c-5.2-5.1-11.9-7.7-18.6-7.7z" fill="#282F63" p-id="2021"></path><path d="M531.5 416.4L507 391.9l-293 293h49z" fill="#FFFFFF" p-id="2022"></path><path d="M799.9 698c-3.4 0-6.8-1.3-9.3-3.9L497.7 401.2c-5.1-5.1-5.1-13.5 0-18.6l134.8-134.8c2.6-2.6 5.9-3.9 9.3-3.9s6.7 1.3 9.3 3.9l127.3 127.3c22.4 22.4 34.7 52.1 34.7 83.7v226.1c0 5.3-3.2 10.1-8.1 12.2-1.7 0.6-3.4 0.9-5.1 0.9z" fill="#E5F1F9" p-id="2023"></path><path d="M641.8 257.1l127.3 127.3c19.7 19.7 30.8 46.5 30.8 74.4v226.1L507 391.9l134.8-134.8m0-26.3c-6.7 0-13.5 2.6-18.6 7.7L488.4 373.3c-4.9 4.9-7.7 11.6-7.7 18.6 0 7 2.8 13.7 7.7 18.6l292.9 292.9c5 5 11.8 7.7 18.6 7.7 3.4 0 6.8-0.7 10.1-2 9.8-4.1 16.2-13.7 16.2-24.3v-226c0-17.4-3.4-34.3-10-50.3s-16.2-30.4-28.5-42.7L660.4 238.5c-5.1-5.1-11.9-7.7-18.6-7.7z" fill="#282F63" p-id="2024"></path><path d="M599.8 484.7c6.4-4.2 12.5-9.1 18.2-14.7 44.9-44.9 44.9-117.8 0-162.7-4.5-4.5-9.3-8.4-14.3-12L507 391.9l92.8 92.8z" fill="#AAD4E9" p-id="2025"></path><path d="M507 405.1c-3.5 0-6.8-1.4-9.3-3.9L362.8 266.4c-2.5-2.5-3.9-5.8-3.9-9.3s1.4-6.8 3.9-9.3l127.3-127.3c22.4-22.4 52.1-34.7 83.7-34.7h226.1c5.3 0 10.1 3.2 12.2 8.1 2 4.9 0.9 10.6-2.9 14.3l-292.9 293c-2.5 2.5-5.8 3.9-9.3 3.9z" fill="#E5F1F9" p-id="2026"></path><path d="M799.9 99L507 391.9 372.1 257.1l127.3-127.3c19.7-19.7 46.5-30.8 74.4-30.8h226.1m0-26.3H573.8c-17.4 0-34.3 3.4-50.3 10s-30.4 16.2-42.7 28.5L353.5 238.5c-10.3 10.3-10.3 26.9 0 37.2l134.8 134.8c4.9 4.9 11.6 7.7 18.6 7.7 7 0 13.7-2.8 18.6-7.7l292.9-292.9c7.5-7.5 9.8-18.8 5.7-28.7-4-9.8-13.6-16.2-24.2-16.2z m0 52.6z" fill="#282F63" p-id="2027"></path><path d="M411.6 280.4l127.3-127.3c19.7-19.7 46.5-30.8 74.4-30.8h163.3L799.9 99H573.8c-27.9 0-54.7 11.1-74.4 30.8L372.1 257.1 507 391.9l8.1-8.1-103.5-103.4z" fill="#FFFFFF" p-id="2028"></path><path d="M352.4 520.2c-3.4 0-6.7-1.3-9.3-3.9L235.6 408.8c-22.4-22.4-34.7-52.1-34.7-83.7V99c0-5.3 3.2-10.1 8.1-12.2 1.6-0.7 3.3-1 5-1 3.4 0 6.8 1.3 9.3 3.9l273.2 273.2c2.5 2.5 3.9 5.8 3.9 9.3s-1.4 6.8-3.9 9.3L361.7 516.4c-2.6 2.5-5.9 3.8-9.3 3.8z" fill="#E5F1F9" p-id="2029"></path><path d="M214 99l273.2 273.2-134.8 134.9-107.5-107.6C225.1 379.8 214 353 214 325.1V99m0-26.3c-3.4 0-6.8 0.7-10.1 2-9.8 4.1-16.2 13.7-16.2 24.3v226.1c0 17.4 3.4 34.3 10 50.3s16.2 30.4 28.5 42.7l107.5 107.5c4.9 4.9 11.6 7.7 18.6 7.7s13.7-2.8 18.6-7.7l134.8-134.8c10.3-10.3 10.3-26.9 0-37.2L232.6 80.4c-5-5-11.7-7.7-18.6-7.7z" fill="#282F63" p-id="2030"></path><path d="M281.3 399.5c-19.7-19.7-30.8-46.5-30.8-74.4V135.5L214 99v226.1c0 27.9 11.1 54.7 30.8 74.4L352.3 507l18.2-18.2-89.2-89.3z" fill="#FFFFFF" p-id="2031"></path><path d="M507 495.8c-29 0-56.2-11.3-76.7-31.8-42.3-42.3-42.3-111.1 0-153.4 20.5-20.5 47.7-31.8 76.7-31.8s56.2 11.3 76.7 31.8c42.3 42.3 42.3 111.1 0 153.4-20.5 20.5-47.7 31.8-76.7 31.8z" fill="#FFDBA0" p-id="2032"></path><path d="M507 291.9c24.4 0 48.8 9.3 67.4 27.9 37.2 37.2 37.2 97.6 0 134.8-18.6 18.6-43 27.9-67.4 27.9-24.4 0-48.8-9.3-67.4-27.9-37.2-37.2-37.2-97.6 0-134.8 18.6-18.5 43-27.9 67.4-27.9m0-26.3c-32.5 0-63 12.7-86 35.6-23 23-35.6 53.5-35.6 86s12.7 63 35.6 86c23 23 53.5 35.6 86 35.6s63-12.7 86-35.6c23-23 35.6-53.5 35.6-86s-12.7-63-35.6-86c-23-22.9-53.5-35.6-86-35.6z" fill="#282F63" p-id="2033"></path><path d="M507 431.4c-11.8 0-22.9-4.6-31.2-12.9-17.2-17.2-17.2-45.2 0-62.4 8.3-8.3 19.4-12.9 31.2-12.9s22.9 4.6 31.2 12.9 12.9 19.4 12.9 31.2-4.6 22.9-12.9 31.2c-8.4 8.3-19.4 12.9-31.2 12.9z" fill="#EF765E" p-id="2034"></path><path d="M507 356.3c7.9 0 15.8 3 21.9 9.1 12.1 12.1 12.1 31.7 0 43.8-6 6-14 9.1-21.9 9.1-7.9 0-15.8-3-21.9-9.1-12.1-12.1-12.1-31.7 0-43.8 6-6 14-9.1 21.9-9.1m0-26.3c-15.3 0-29.7 6-40.5 16.8-22.3 22.3-22.3 58.6 0 81 10.8 10.8 25.2 16.8 40.5 16.8s29.7-6 40.5-16.8c22.3-22.3 22.3-58.6 0-81C536.6 336 522.3 330 507 330z" fill="#282F63" p-id="2035"></path><path d="M373.4 83.3c-4.5 0-8.2-3.7-8.2-8.2 0-7.6-5.5-14.4-13-15.1-8.5-0.8-15.8 6-15.8 14.3v0.8c0 4.5-3.7 8.2-8.2 8.2-7.6 0-14.4 5.5-15.1 13-0.8 8.5 6 15.8 14.3 15.8h0.8c4.5 0 8.2 3.7 8.2 8.2 0 7.6 5.5 14.4 13 15.1 8.5 0.8 15.8-6 15.8-14.3v-0.8c0-4.5 3.7-8.2 8.2-8.2h0.8c8.4 0 15.1-7.2 14.3-15.8-0.7-7.5-7.5-13-15.1-13zM662.8 668.5c-4.5 0-8.2-3.7-8.2-8.2 0-7.6-5.5-14.4-13-15.1-8.5-0.8-15.8 6-15.8 14.3v0.8c0 4.5-3.7 8.2-8.2 8.2-7.6 0-14.4 5.5-15.1 13-0.8 8.5 6 15.8 14.3 15.8h0.8c4.5 0 8.2 3.7 8.2 8.2 0 7.6 5.5 14.4 13 15.1 8.5 0.8 15.8-6 15.8-14.3v-0.8c0-4.5 3.7-8.2 8.2-8.2h0.8c8.4 0 15.1-7.2 14.3-15.8-0.7-7.5-7.6-13-15.1-13zM800.8 247.7c-4.5 0-8.2-3.7-8.2-8.2 0-7.6-5.5-14.4-13-15.1-8.5-0.8-15.8 6-15.8 14.3v0.8c0 4.5-3.7 8.2-8.2 8.2-7.6 0-14.4 5.5-15.1 13-0.8 8.5 6 15.8 14.3 15.8h0.8c4.5 0 8.2 3.7 8.2 8.2 0 7.6 5.5 14.4 13 15.1 8.5 0.8 15.8-6 15.8-14.3v-0.8c0-4.5 3.7-8.2 8.2-8.2h0.8c8.4 0 15.1-7.2 14.3-15.8-0.6-7.5-7.5-13-15.1-13z" fill="#9AD6E8" p-id="2036"></path></svg>