<?xml version="1.0" standalone="no"?><!DOCTYPE svg PUBLIC "-//W3C//DTD SVG 1.1//EN" "http://www.w3.org/Graphics/SVG/1.1/DTD/svg11.dtd"><svg t="1643770998132" class="icon" viewBox="0 0 1024 1024" version="1.1" xmlns="http://www.w3.org/2000/svg" p-id="3410" xmlns:xlink="http://www.w3.org/1999/xlink" width="200" height="200"><defs><style type="text/css"></style></defs><path d="M177.7 685.2c-7.4 0-13.5-6-13.5-13.5V177.3c0-7.4 6-13.5 13.5-13.5h327.5c7.4 0 13.5 6 13.5 13.5v218.4H626c64 0 124.3 21.7 169.7 61.1 46 39.9 71.3 93.1 71.3 149.8v65.2c0 7.4-6 13.5-13.5 13.5H177.7z" fill="#E5F1F9" p-id="3411"></path><path d="M505.2 177.3v231.9H626c125.7 0 227.6 88.4 227.6 197.4v65.2H177.7V177.3h327.5m0-26.9H177.7c-14.9 0-26.9 12-26.9 26.9v494.5c0 14.9 12 26.9 26.9 26.9h676c14.9 0 26.9-12 26.9-26.9v-65.2c0-30.8-6.9-60.6-20.6-88.6-13.1-26.8-31.7-50.8-55.3-71.3-23.4-20.3-50.5-36.2-80.7-47.2-31-11.4-64-17.2-97.9-17.2h-93.9v-205c-0.1-14.9-12.1-26.9-27-26.9z" fill="#282F63" p-id="3412"></path><path d="M177.7 177.3h40.4v494.5h-40.4z" fill="#FFFFFF" p-id="3413"></path><path d="M458.1 177.3h47.1v231.9h-47.1zM626 409.1h-47.1c125.7 0 227.6 88.4 227.6 197.4v65.2h47.1v-65.2c0-109-101.9-197.4-227.6-197.4z" fill="#AAD4E9" p-id="3414"></path><path d="M162.6 692.3c-14.9 0-27-12.1-27-27v-44.1c0-14.9 12.1-27 27-27h703.9c14.9 0 27 12.1 27 27v44.1c0 14.9-12.1 27-27 27H162.6z" fill="#FFFFFF" p-id="3415"></path><path d="M866.5 607.7c7.5 0 13.6 6.1 13.6 13.6v44.1c0 7.5-6.1 13.6-13.6 13.6H162.6c-7.5 0-13.6-6.1-13.6-13.6v-44.1c0-7.5 6.1-13.6 13.6-13.6h703.9m0-26.9H162.6c-22.3 0-40.5 18.2-40.5 40.5v44.1c0 22.3 18.2 40.5 40.5 40.5h703.9c22.3 0 40.5-18.2 40.5-40.5v-44.1c0-22.4-18.1-40.5-40.5-40.5z" fill="#283163" p-id="3416"></path><path d="M798.7 848c-50.9 0-92.3-41.4-92.3-92.3s41.4-92.3 92.3-92.3 92.3 41.4 92.3 92.3-41.4 92.3-92.3 92.3z" fill="#1E62A1" p-id="3417"></path><path d="M798.7 676.8c43.6 0 78.9 35.3 78.9 78.9s-35.3 78.9-78.9 78.9-78.9-35.3-78.9-78.9 35.3-78.9 78.9-78.9m0-26.9c-58.3 0-105.8 47.4-105.8 105.8s47.4 105.8 105.8 105.8S904.4 814 904.4 755.7 857 649.9 798.7 649.9z" fill="#282F63" p-id="3418"></path><path d="M798.7 790.1c-19 0-34.4-15.4-34.4-34.4s15.4-34.4 34.4-34.4c18.9 0 34.4 15.4 34.4 34.4-0.1 19-15.5 34.4-34.4 34.4z" fill="#FFDBA0" p-id="3419"></path><path d="M798.7 734.8c11.6 0 20.9 9.4 20.9 20.9 0 11.6-9.4 20.9-20.9 20.9-11.6 0-20.9-9.4-20.9-20.9 0-11.5 9.3-20.9 20.9-20.9m0-26.9c-26.4 0-47.8 21.5-47.8 47.8s21.5 47.8 47.8 47.8 47.8-21.5 47.8-47.8-21.5-47.8-47.8-47.8z" fill="#282F63" p-id="3420"></path><path d="M605.1 848c-50.9 0-92.3-41.4-92.3-92.3s41.4-92.3 92.3-92.3 92.3 41.4 92.3 92.3S656 848 605.1 848z" fill="#1E62A1" p-id="3421"></path><path d="M605.1 676.8c43.6 0 78.9 35.3 78.9 78.9s-35.3 78.9-78.9 78.9-78.9-35.3-78.9-78.9 35.4-78.9 78.9-78.9m0-26.9c-58.3 0-105.8 47.4-105.8 105.8s47.4 105.8 105.8 105.8S710.9 814 710.9 755.7s-47.5-105.8-105.8-105.8z" fill="#282F63" p-id="3422"></path><path d="M605.1 790.1c-19 0-34.4-15.4-34.4-34.4s15.4-34.4 34.4-34.4 34.4 15.4 34.4 34.4-15.4 34.4-34.4 34.4z" fill="#FFDBA0" p-id="3423"></path><path d="M605.1 734.8c11.6 0 20.9 9.4 20.9 20.9 0 11.6-9.4 20.9-20.9 20.9-11.6 0-20.9-9.4-20.9-20.9 0-11.5 9.4-20.9 20.9-20.9m0-26.9c-26.4 0-47.8 21.5-47.8 47.8s21.5 47.8 47.8 47.8 47.8-21.5 47.8-47.8-21.4-47.8-47.8-47.8z" fill="#282F63" p-id="3424"></path><path d="M218 848c-50.9 0-92.3-41.4-92.3-92.3s41.4-92.3 92.3-92.3 92.3 41.4 92.3 92.3S268.9 848 218 848z" fill="#1E62A1" p-id="3425"></path><path d="M218 676.8c43.6 0 78.9 35.3 78.9 78.9s-35.3 78.9-78.9 78.9c-43.6 0-78.9-35.3-78.9-78.9s35.4-78.9 78.9-78.9m0-26.9c-58.3 0-105.8 47.4-105.8 105.8S159.7 861.5 218 861.5 323.8 814 323.8 755.7 276.4 649.9 218 649.9z" fill="#282F63" p-id="3426"></path><path d="M218 790.1c-18.9 0-34.4-15.4-34.4-34.4s15.4-34.4 34.4-34.4 34.4 15.4 34.4 34.4-15.4 34.4-34.4 34.4z" fill="#FFDBA0" p-id="3427"></path><path d="M218 734.8c11.6 0 20.9 9.4 20.9 20.9 0 11.6-9.4 20.9-20.9 20.9s-20.9-9.4-20.9-20.9c0-11.5 9.4-20.9 20.9-20.9m0-26.9c-26.4 0-47.8 21.5-47.8 47.8s21.5 47.8 47.8 47.8 47.8-21.5 47.8-47.8-21.4-47.8-47.8-47.8z" fill="#282F63" p-id="3428"></path><path d="M411.6 848c-50.9 0-92.3-41.4-92.3-92.3s41.4-92.3 92.3-92.3 92.3 41.4 92.3 92.3-41.4 92.3-92.3 92.3z" fill="#1E62A1" p-id="3429"></path><path d="M411.6 676.8c43.6 0 78.9 35.3 78.9 78.9s-35.3 78.9-78.9 78.9-78.9-35.3-78.9-78.9 35.3-78.9 78.9-78.9m0-26.9c-58.3 0-105.8 47.4-105.8 105.8s47.4 105.8 105.8 105.8S517.3 814 517.3 755.7s-47.4-105.8-105.7-105.8z" fill="#282F63" p-id="3430"></path><path d="M411.6 790.1c-19 0-34.4-15.4-34.4-34.4s15.4-34.4 34.4-34.4c18.9 0 34.4 15.4 34.4 34.4-0.1 19-15.5 34.4-34.4 34.4z" fill="#FFDBA0" p-id="3431"></path><path d="M411.6 734.8c11.6 0 20.9 9.4 20.9 20.9 0 11.6-9.4 20.9-20.9 20.9s-20.9-9.4-20.9-20.9c0-11.5 9.3-20.9 20.9-20.9m0-26.9c-26.4 0-47.8 21.5-47.8 47.8s21.5 47.8 47.8 47.8 47.8-21.5 47.8-47.8-21.5-47.8-47.8-47.8z" fill="#282F63" p-id="3432"></path><path d="M406.8 290.3c-20.4 0-37-16.6-37-37s16.6-37 37-37h123.1c20.4 0 37 16.6 37 37s-16.6 37-37 37H406.8z" fill="#FFDBA0" p-id="3433"></path><path d="M529.8 229.7c13 0 23.6 10.6 23.6 23.6 0 13-10.6 23.6-23.6 23.6h-123c-13 0-23.6-10.6-23.6-23.6 0-13 10.6-23.6 23.6-23.6h123m0-26.9h-123c-27.8 0-50.5 22.6-50.5 50.5s22.6 50.5 50.5 50.5h123.1c27.8 0 50.5-22.6 50.5-50.5s-22.7-50.5-50.6-50.5z" fill="#282F63" p-id="3434"></path><path d="M529.8 229.7h-26.9c13 0 23.6 10.6 23.6 23.6 0 13-10.6 23.6-23.6 23.6h26.9c13 0 23.6-10.6 23.6-23.6 0-13-10.5-23.6-23.6-23.6z" fill="#FCC975" p-id="3435"></path><path d="M406.8 402.6c-20.4 0-37-16.6-37-37s16.6-37 37-37h123.1c20.4 0 37 16.6 37 37s-16.6 37-37 37H406.8z" fill="#FFDBA0" p-id="3436"></path><path d="M529.8 342c13 0 23.6 10.6 23.6 23.6s-10.6 23.6-23.6 23.6h-123c-13 0-23.6-10.6-23.6-23.6s10.6-23.6 23.6-23.6h123m0-27h-123c-27.8 0-50.5 22.6-50.5 50.5s22.6 50.5 50.5 50.5h123.1c27.8 0 50.5-22.6 50.5-50.5S557.7 315 529.8 315z" fill="#282F63" p-id="3437"></path><path d="M529.8 342h-26.9c13 0 23.6 10.6 23.6 23.6s-10.6 23.6-23.6 23.6h26.9c13 0 23.6-10.6 23.6-23.6S542.9 342 529.8 342z" fill="#FCC975" p-id="3438"></path><path d="M875.4 359.2c-4.6 0-8.4-3.8-8.4-8.4 0-7.7-5.6-14.7-13.3-15.5-8.7-0.8-16.1 6.1-16.1 14.7v0.8c0 4.6-3.8 8.4-8.4 8.4-7.7 0-14.7 5.6-15.5 13.3-0.8 8.7 6.1 16.1 14.7 16.1h0.8c4.6 0 8.4 3.8 8.4 8.4 0 7.7 5.6 14.7 13.3 15.5 8.7 0.8 16.1-6.1 16.1-14.7v-0.8c0-4.6 3.8-8.4 8.4-8.4h0.8c8.6 0 15.5-7.4 14.7-16.1-0.8-7.6-7.8-13.3-15.5-13.3z" fill="#9AD6E8" p-id="3439"></path><path d="M693.8 191.1c-4.6 0-8.4-3.8-8.4-8.4 0-7.7-5.6-14.7-13.3-15.5-8.7-0.8-16.1 6.1-16.1 14.7v0.8c0 4.6-3.8 8.4-8.4 8.4-7.7 0-14.7 5.6-15.5 13.3-0.8 8.7 6.1 16.1 14.7 16.1h0.8c4.6 0 8.4 3.8 8.4 8.4 0 7.7 5.6 14.7 13.3 15.5 8.7 0.8 16.1-6.1 16.1-14.7v-0.7c0-4.6 3.8-8.4 8.4-8.4h0.8c8.6 0 15.5-7.4 14.7-16.1-0.8-7.8-7.8-13.4-15.5-13.4z" fill="#9AD6E8" p-id="3440"></path><path d="M541.2 607.7c-7.4 0-13.5-6.1-13.5-13.5 0-1.9 0.3-19.1 10.1-36.8 9.4-17 29.3-37.2 70.6-37.2h235.4c7.4 0 13.5 6 13.5 13.5s-6 13.5-13.5 13.5H608.4c-22.3 0-38 7.6-46.6 22.6-6.9 11.9-7.2 24.5-7.2 24.6 0 7.3-6 13.3-13.4 13.3z" fill="#282F63" p-id="3441"></path></svg>