<svg xmlns:xlink="http://www.w3.org/1999/xlink" xmlns="http://www.w3.org/2000/svg" version="1.1" viewBox="0 0 219 196" height="196px" width="219px">
    
    <title>hudie</title>
    <desc>Created with Sketch.</desc>
    <defs></defs>
    <g fill-rule="evenodd" fill="none" stroke-width="1" stroke="none" id="Page-1">
        <g fill-rule="nonzero" id="hudie">
            <path fill="#3F3F3F" id="Shape" d="M77.579,4.834 C77.578,4.834 77.579,4.834 77.576,4.834 C77.873,4.967 107.275,18.575 107.275,49.498 C107.275,49.535 107.275,49.571 107.278,49.609 C107.347,51.043 108.481,51.827 109.54,51.793 C110.732,51.755 111.676,50.735 111.659,49.54 C111.611,46.197 111.995,16.572 140.293,5.759 C141.423,5.326 141.986,4.061 141.559,2.93 C141.126,1.801 139.862,1.235 138.731,1.665 C107.652,13.542 107.227,45.948 107.282,49.604 C107.264,48.409 108.211,47.452 109.403,47.415 C110.594,47.378 111.597,48.29 111.661,49.481 C111.657,15.696 79.696,0.981 79.373,0.837 C78.269,0.342 76.974,0.837 76.479,1.939 C75.981,3.044 76.476,4.34 77.579,4.834 Z"></path>
            <path fill="#FFA1A1" id="Shape" d="M99.005,93.676 C99.005,93.676 51.458,111.719 32.808,133.634 C21.62,146.78 23.433,174.127 33.681,184.371 C77.691,228.381 114.749,123.2 114.749,123.2 L99.005,93.676 Z"></path>
            <g fill="#FFFFFF" transform="translate(37.000000, 93.000000)" opacity="0.42" id="Group">
                <g id="Shape">
                    <path d="M62.199,0.966 C62.199,0.966 22.29,16.111 6.639,34.503 C-2.754,45.538 -1.231,68.489 7.37,77.09 C8.83,78.55 10.281,79.796 11.722,80.876 C12.161,80.483 12.737,80.237 13.374,80.237 C14.545,80.237 15.518,81.043 15.795,82.123 C16.688,81.052 18.035,80.364 19.543,80.364 C21.605,80.364 23.36,81.643 24.076,83.45 C24.624,82.753 25.466,82.298 26.423,82.298 C27.445,82.298 28.347,82.812 28.889,83.591 C29.329,83.198 29.975,82.946 30.699,82.946 C32.031,82.946 33.11,83.783 33.116,84.813 C57.691,76.037 75.417,25.745 75.417,25.745 L62.199,0.966 Z"></path>
                </g>
            </g>
            <path fill="#FFA1A1" id="Shape" d="M37.245,147.42 C37.245,147.42 78.411,147.136 96.728,131.625 C96.728,131.625 96.581,145.384 99.042,152.487 L104.241,142.63 L101.762,120.898 C101.762,120.898 61.214,144.638 38.23,139.007 C38.232,139.007 34.272,139.998 37.245,147.42 Z"></path>
            <path fill="#FFA1A1" id="Shape" d="M122.611,93.676 C122.611,93.676 170.159,111.719 188.807,133.634 C199.995,146.78 198.182,174.125 187.935,184.371 C143.923,228.381 106.866,123.2 106.866,123.2 L122.611,93.676 Z"></path>
            <g fill="#FFFFFF" transform="translate(109.000000, 93.000000)" opacity="0.42" id="Group">
                <g id="Shape">
                    <path d="M68.977,34.503 C53.326,16.108 13.414,0.966 13.414,0.966 L0.199,25.743 C0.199,25.743 17.923,76.033 42.501,84.811 C42.507,83.778 43.586,82.944 44.919,82.944 C45.646,82.944 46.287,83.198 46.731,83.59 C47.273,82.809 48.171,82.295 49.195,82.295 C50.152,82.295 50.997,82.752 51.544,83.447 C52.259,81.642 54.017,80.363 56.076,80.363 C57.586,80.363 58.93,81.048 59.825,82.122 C60.099,81.04 61.076,80.234 62.244,80.234 C62.885,80.234 63.458,80.48 63.9,80.875 C65.34,79.793 66.79,78.549 68.251,77.089 C76.845,68.487 78.368,45.537 68.977,34.503 Z"></path>
                </g>
            </g>
            <path fill="#FFA1A1" id="Shape" d="M186.53,148.7 C186.53,148.7 142.275,148.414 123.957,132.905 C123.957,132.905 124.716,144.577 122.249,151.68 L116.137,140.813 L118.006,119.817 C118.006,119.817 161.75,143.631 184.734,138.004 C184.734,138.006 189.504,141.276 186.53,148.7 Z"></path>
            <g fill="#FFFFFF" transform="translate(153.000000, 88.000000)" opacity="0.42" id="Group">
                <g id="Oval">
                    <circle r="1" cy="1.564" cx="0.873"></circle>
                </g>
            </g>
            <path fill="#FFE073" id="Shape" d="M101.952,62.155 C98.552,53.863 92.613,45.714 84.598,38.766 C80.202,34.762 75.365,31.397 70.198,28.91 C45.523,15.827 18.229,18.486 7.543,35.708 C4.9,39.967 2.647,48.25 2.395,53.271 C0.258,64.525 -1.631,80.392 6.741,106.769 C6.741,106.769 6.743,106.761 6.744,106.759 C12.289,125.226 26.988,138.04 50.268,138.04 C83.016,138.04 109.562,123.362 109.562,92.579 C109.56,82.651 106.795,72.013 101.952,62.155 Z"></path>
            <path fill="#FFF1A6" id="Shape" d="M103.636,68.658 C100.963,62.144 96.3,55.745 90.003,50.287 C86.554,47.141 82.752,44.499 78.693,42.545 C67.402,36.559 55.416,34.776 45.715,36.998 C45.07,37.346 44.348,37.559 43.567,37.559 C43.344,37.628 43.125,37.705 42.902,37.777 C42.423,42.347 38.576,45.915 33.877,45.915 C33.295,45.915 32.73,45.854 32.178,45.75 C32.467,46.47 32.636,47.313 32.636,48.216 C32.636,49.756 32.154,51.118 31.408,51.987 C31.504,52.413 31.562,52.855 31.562,53.309 C31.562,56.529 28.998,59.142 25.802,59.237 C24.664,65.972 23.274,80.987 28.94,98.45 C29.438,100.993 32.421,107.983 58.414,110.295 C60.977,110.523 32.77,110.458 33.982,112.578 C39.461,122.145 48.785,128.265 63.04,128.265 C88.762,128.265 109.615,116.734 109.615,92.556 C109.613,84.758 107.44,76.401 103.636,68.658 Z"></path>
            <path fill="#FFE073" id="Shape" d="M117.117,62.155 C120.521,53.863 126.458,45.714 134.472,38.766 C138.867,34.762 143.703,31.397 148.874,28.91 C173.548,15.827 200.841,18.486 211.527,35.708 C214.17,39.967 216.423,48.25 216.675,53.271 C218.812,64.525 220.702,80.392 212.33,106.769 C212.33,106.769 212.327,106.761 212.327,106.759 C206.782,125.226 192.083,138.04 168.804,138.04 C136.057,138.04 109.507,123.362 109.507,92.579 C109.509,82.651 112.276,72.013 117.117,62.155 Z"></path>
            <path fill="#FFF1A6" id="Shape" d="M190.058,53.312 C190.058,52.857 190.114,52.417 190.211,51.991 C189.462,51.122 188.981,49.759 188.981,48.219 C188.981,47.315 189.151,46.473 189.439,45.753 C188.887,45.857 188.319,45.918 187.738,45.918 C183.04,45.918 179.194,42.352 178.715,37.78 C178.493,37.707 178.277,37.631 178.051,37.562 C177.272,37.562 176.543,37.348 175.905,37 C166.201,34.778 154.217,36.561 142.926,42.547 C138.866,44.499 135.066,47.143 131.614,50.289 C125.316,55.746 120.653,62.146 117.981,68.659 C114.18,76.402 112.005,84.76 112.005,92.559 C112.005,116.737 132.859,128.268 158.579,128.268 C173.96,128.268 183.597,121.147 188.861,110.252 C189.851,108.201 162.047,112.088 164.423,111.76 C176.69,110.063 188.661,107.671 192.676,98.454 C195.97,93.162 196.879,84.552 196.842,76.421 C196.811,69.61 196.113,63.135 195.594,59.229 C192.504,59.021 190.058,56.455 190.058,53.312 Z"></path>
            <path fill="#C5C5E8" stroke-width="5" stroke="#3F3F3F" id="Shape" d="M119.477,101.229 C119.477,130.444 115.275,154.129 110.086,154.129 C104.899,154.129 100.696,130.443 100.696,101.229 C100.696,72.01 104.9,57.662 110.086,57.662 C115.277,57.662 119.477,72.009 119.477,101.229 Z"></path>
            <circle r="12.296" cy="61.794" cx="109.466" fill="#C5C5E8" stroke-width="5" stroke="#3F3F3F" id="Oval"></circle>
            <circle r="8.857" cy="101.53" cx="168.862" fill="#FFFFFF" id="Oval"></circle>
            <circle r="3.564" cy="72.856" cx="154.614" fill="#FFD645" id="Oval"></circle>
            <circle r="5.721" cy="91.429" cx="41.862" fill="#FFD645" id="Oval"></circle>
            <circle r="1.741" cy="64.07" cx="80.662" fill="#FFD645" id="Oval"></circle>
        </g>
    </g>
</svg>