<svg xmlns:xlink="http://www.w3.org/1999/xlink" xmlns="http://www.w3.org/2000/svg" version="1.1" viewBox="0 0 235 205" height="205px" width="235px">
    
    <title>奶牛</title>
    <desc>Created with Sketch.</desc>
    <defs></defs>
    <g fill-rule="evenodd" fill="none" stroke-width="1" stroke="none" id="Page-1">
        <g transform="translate(-6.000000, 0.000000)" id="奶牛">
            <path stroke-linejoin="round" stroke-linecap="round" stroke-width="5" stroke="#6E6E96" id="Shape" d="M231.469,87.104 C231.469,87.104 242.819,128.238 235.819,151.238"></path>
            <path fill-rule="nonzero" fill="#F0F0FF" id="Shape" d="M21.714,3.405 C21.714,3.405 1.753,21.101 22.597,42.561 C34.962,55.29 55.665,50.624 55.056,39.888 C54.91,37.297 58.344,26.155 56.555,27.223 C49.427,31.477 22.94,24.717 27.707,6.422 C27.708,6.423 30.77,-5.735 21.714,3.405 Z"></path>
            <path opacity="0.15" fill-rule="nonzero" fill="#6E6E96" id="Shape" d="M16.489,13.33 C15.966,19.629 17.997,27.231 25.909,35.378 C36.272,46.047 52.488,44.492 57.108,37.387 C57.013,38.028 56.962,38.562 56.981,38.926 C57.59,49.662 36.886,54.328 24.522,41.599 C13.782,30.542 13.875,20.485 16.489,13.33 Z"></path>
            <ellipse ry="49.279" rx="72.353" cy="78.781" cx="145.351" opacity="0.36" fill-rule="nonzero" fill="#FFFFFF" id="Oval"></ellipse>
            <path fill-rule="nonzero" fill="#F0F0FF" id="Shape" d="M234.824,101.063 C234.824,59.944 201.493,29.74 146.802,29.74 C92.112,29.74 47.777,40.139 47.777,81.259 C47.777,105.147 62.743,129.992 86.005,146.624 C85.973,146.603 85.941,146.582 85.91,146.56 C85.91,146.56 99.125,161.946 99.125,192.755 L99.125,204.489 L121.131,204.489 C121.131,204.489 117.492,177.418 132.999,168.86 C134.681,171.963 135.802,175.733 135.802,180.284 C135.802,198.622 135.802,198.622 135.802,198.622 L153.406,198.622 L153.406,188.351 C153.406,188.351 152.334,174.606 156.26,166.086 C159.727,162.619 163.102,162.909 166.37,166.178 C169.326,169.817 171.622,173.769 171.622,180.282 C171.622,198.62 171.622,198.62 171.622,198.62 L189.227,198.62 L189.227,188.35 C189.227,188.35 188.467,177.204 190.582,167.883 C199.918,179.415 196.685,202.059 196.685,202.059 L213.556,202.059 L213.556,192.524 C213.556,161.641 219.369,145.105 222.698,138.162 C230.588,128.152 234.824,115.687 234.824,101.063 Z"></path>
            <ellipse ry="30.994" rx="45.506" cy="67.231" cx="146.412" opacity="0.36" fill-rule="nonzero" fill="#FFFFFF" id="Oval"></ellipse>
            <path fill-rule="nonzero" fill="#6E6E96" id="Shape" d="M149.447,28.688 C149.582,29.147 149.716,29.652 149.851,30.21 C154.306,48.381 130.465,62.185 130.465,62.185 C125.273,63.981 117.338,60.844 115.773,59.573 C92.901,41.007 116.462,40.953 116.462,40.953 C132.546,45.145 139.736,34.054 143.866,28.271 C130.683,27.526 116.427,28.502 104.229,33.431 C70.866,46.92 115.774,96.695 133.343,96.695 C150.915,96.695 168.23,81.099 170.774,59.915 C173.946,33.504 195.976,40.076 195.976,40.076 C195.976,40.076 169.847,30.584 149.447,28.688 Z"></path>
            <ellipse ry="62.192" rx="62.564" cy="85.245" cx="71.842" fill-rule="nonzero" fill="#F0F0FF" id="Oval"></ellipse>
            <ellipse ry="48.958" rx="49.253" cy="75.977" cx="67.517" opacity="0.57" fill-rule="nonzero" fill="#FAFAFA" id="Oval"></ellipse>
            <path fill-rule="nonzero" fill="#6E6E96" id="Shape" d="M57.449,58.997 C57.916,63.76 55.666,66.081 52.488,66.582 C49.311,67.083 46.412,65.572 45.945,60.811 C45.479,56.048 47.677,51.779 50.853,51.281 C54.03,50.78 56.984,54.236 57.449,58.997 Z"></path>
            <path fill-rule="nonzero" fill="#6E6E96" id="Shape" d="M88.262,60.773 C88.063,65.769 85.434,66.27 81.968,65.819 C78.503,65.365 75.512,64.134 75.71,59.138 C75.91,54.143 78.881,50.457 82.345,50.909 C85.81,51.358 88.46,55.776 88.262,60.773 Z"></path>
            <ellipse ry="47.1398701" rx="62.2521873" cy="108.894565" cx="68.4253716" transform="translate(68.425372, 108.894565) rotate(-172.241027) translate(-68.425372, -108.894565)" fill-rule="nonzero" fill="#FFABAB" id="Oval"></ellipse>
            <path fill-rule="nonzero" fill="#F0A1A1" id="Shape" d="M96.189,68.155 C106.116,73.468 108.567,88.292 108.567,94.541 C108.567,117.395 75.914,136.243 44.29,136.243 C30.809,136.243 18.425,130.322 8.642,118.012 C15.234,136.65 35.9,152.04 62.072,155.607 C96.144,160.25 126.612,143.097 130.128,117.296 C132.848,97.308 118.588,78.003 96.189,68.155 Z"></path>
            <path fill-rule="nonzero" fill="#6E6E96" id="Shape" d="M233.469,87.104 C235.152,96.878 228.204,93.045 224.964,88.175 C223.43,85.869 224.418,81.64 224.418,81.64 C224.418,81.64 227.585,70.167 212.195,64.664 C203.174,61.437 201.228,52.169 202.458,48.106 C203.597,44.341 207.907,47.301 207.907,47.301 C207.907,47.301 229.144,62.005 233.469,87.104 Z"></path>
            <ellipse ry="6.11605046" rx="7.99706597" cy="87.8394076" cx="46.3619932" transform="translate(46.361993, 87.839408) rotate(174.093859) translate(-46.361993, -87.839408)" fill-rule="nonzero" fill="#6E6E96" id="Oval"></ellipse>
            <ellipse ry="5.99821023" rx="7.99728029" cy="89.8725588" cx="78.0385004" transform="translate(78.038500, 89.872559) rotate(-173.056198) translate(-78.038500, -89.872559)" fill-rule="nonzero" fill="#6E6E96" id="Oval"></ellipse>
            <path fill-rule="nonzero" fill="#6E6E96" id="Shape" d="M165.401,120.918 C162.619,113.15 171.87,107.422 184.225,102.994 C196.582,98.565 207.367,97.119 210.149,104.887 C212.933,112.655 206.889,127.333 194.533,131.761 C182.174,136.19 168.185,128.687 165.401,120.918 Z"></path>
            <path fill-rule="nonzero" fill="#F0F0FF" id="Shape" d="M144.236,13.452 C144.236,13.452 164.919,30.301 144.986,52.61 C133.164,65.843 116.486,61.07 112.443,51.294 C110.618,48.277 108.587,37.71 110.42,38.702 C117.72,42.654 143.9,34.795 138.375,16.718 C138.372,16.719 134.807,4.698 144.236,13.452 Z"></path>
            <path opacity="0.15" fill-rule="nonzero" fill="#6E6E96" id="Shape" d="M150.832,21.146 C151.618,27.419 150.904,35.099 143.341,43.566 C133.431,54.661 117.163,53.781 112.251,46.876 C112.372,47.512 112.445,48.043 112.441,48.407 C112.281,59.159 133.162,62.959 144.984,49.723 C155.255,38.229 153.743,28.185 150.832,21.146 Z"></path>
            <rect height="9.585" width="21.896" y="193.905" x="99.123" fill-rule="nonzero" fill="#B8B8D4" id="Rectangle-path"></rect>
            <rect height="9.911" width="17.604" y="188.71" x="135.8" fill-rule="nonzero" fill="#B8B8D4" id="Rectangle-path"></rect>
            <rect height="9.718" width="17.605" y="188.905" x="171.618" fill-rule="nonzero" fill="#B8B8D4" id="Rectangle-path"></rect>
            <rect height="10.214" width="16.448" y="191.847" x="197.106" fill-rule="nonzero" fill="#B8B8D4" id="Rectangle-path"></rect>
            <path opacity="0.2" fill-rule="nonzero" fill="#6E6E96" id="Shape" d="M111.986,203.49 C111.986,203.49 108.486,159.572 126.986,159.572 C126.986,159.572 135.8,158.572 135.8,182.572 C135.8,182.572 136.986,171.572 129.986,171.572 C122.986,171.572 121.021,195.909 121.021,203.49 L111.986,203.49 Z"></path>
            <path opacity="0.2" fill-rule="nonzero" fill="#6E6E96" id="Shape" d="M144.602,198.621 C144.602,198.621 140.839,163.722 160.17,163.722 C160.17,163.722 153.402,164.671 153.402,198.621 L144.602,198.621 Z"></path>
            <path opacity="0.2" fill-rule="nonzero" fill="#6E6E96" id="Shape" d="M180.486,198.621 L180.486,171.57 C180.486,171.57 180.536,157.839 190.582,167.883 L189.227,198.619 L180.486,198.621 Z"></path>
            <path opacity="0.2" fill-rule="nonzero" fill="#6E6E96" id="Shape" d="M205.486,202.061 C205.486,202.061 200.986,157.072 208.986,144.572 C216.986,132.072 236.466,107.337 230.476,76.455 C230.476,76.455 241.502,102.053 232.099,120.107 C222.696,138.163 213.554,141.072 213.554,191.847 L213.554,202.061 L205.486,202.061 Z"></path>
            <path opacity="0.15" fill-rule="nonzero" fill="#6E6E96" id="Shape" d="M74.794,62.174 C40.724,57.53 10.257,74.682 6.741,100.48 C3.225,126.28 27.994,150.959 62.062,155.599 C96.13,160.243 126.599,143.09 130.116,117.29 C133.631,91.492 108.863,66.815 74.794,62.174 Z M122.915,109.641 C119.8,130.586 92.802,144.51 62.615,140.743 C32.427,136.973 10.48,116.939 13.594,95.995 C16.709,75.051 43.706,61.127 73.894,64.895 C104.083,68.663 126.03,88.697 122.915,109.641 Z"></path>
        </g>
    </g>
</svg>