<svg xmlns:xlink="http://www.w3.org/1999/xlink" xmlns="http://www.w3.org/2000/svg" version="1.1" viewBox="0 0 233 214" height="214px" width="233px">
    
    <title>螃蟹</title>
    <desc>Created with Sketch.</desc>
    <defs></defs>
    <g fill-rule="evenodd" fill="none" stroke-width="1" stroke="none" id="Page-1">
        <g transform="translate(4.000000, 0.000000)" id="螃蟹">
            <path stroke-linejoin="round" stroke-linecap="round" opacity="0.1" stroke-width="7" stroke="#000000" id="Shape" d="M0.104,209.704 L56.104,209.704"></path>
            <path stroke-linejoin="round" stroke-linecap="round" opacity="0.1" stroke-width="7" stroke="#000000" id="Shape" d="M185.437,202.291 L224.77,202.291"></path>
            <path fill-rule="nonzero" fill="#E67878" id="Shape" d="M13.31,181.795 C13.255,181.656 13.222,181.527 13.214,181.411 C13.213,181.394 13.216,181.38 13.216,181.363 C13.214,181.256 13.233,181.154 13.27,181.062 C13.276,181.045 13.28,181.031 13.287,181.015 C13.333,180.916 13.402,180.826 13.49,180.74 C13.506,180.724 13.524,180.71 13.541,180.693 C13.636,180.609 13.743,180.529 13.875,180.453 C13.878,180.451 13.88,180.449 13.883,180.447 C14.02,180.369 14.181,180.292 14.354,180.216 C14.387,180.201 14.42,180.188 14.455,180.172 C14.632,180.098 14.821,180.022 15.029,179.943 C15.036,179.941 15.044,179.937 15.05,179.935 C18.101,178.799 24.335,177.129 28.993,167.998 C30.995,164.074 33.493,162.37 35.921,161.91 C40.319,159.688 48.823,158.233 57.783,158.776 C70.616,159.553 73.704,163.567 73.473,167.371 C73.242,171.171 68.63,176.733 55.793,175.955 C51.256,175.681 47.027,174.718 43.463,173.424 C43.457,173.433 43.451,173.441 43.445,173.446 C43.311,173.635 43.163,173.825 43.014,174.014 C42.913,174.143 42.811,174.274 42.703,174.403 C42.557,174.581 42.406,174.757 42.247,174.936 C42.101,175.098 41.945,175.262 41.788,175.426 C41.64,175.582 41.497,175.739 41.338,175.895 C41.025,176.206 40.691,176.518 40.335,176.833 C40.211,176.942 40.073,177.054 39.943,177.163 C39.666,177.399 39.38,177.636 39.077,177.874 C38.922,177.996 38.761,178.118 38.598,178.239 C38.276,178.483 37.939,178.727 37.588,178.973 C37.44,179.077 37.295,179.18 37.142,179.286 C36.625,179.636 36.09,179.985 35.515,180.338 C25.451,186.487 15.336,184.905 13.614,182.362 C13.611,182.356 13.61,182.354 13.607,182.348 C13.494,182.18 13.414,182.032 13.35,181.889 C13.337,181.859 13.321,181.826 13.31,181.795 Z"></path>
            <path fill-rule="nonzero" fill="#FF8787" id="Shape" d="M53.774,159.273 C44.175,158.691 35.253,161.453 35.063,164.556 C34.876,167.66 42.636,168.804 52.235,169.386 C61.834,169.97 65.289,169.325 65.476,166.222 C65.667,163.119 63.373,159.854 53.774,159.273 Z"></path>
            <path fill-rule="nonzero" fill="#FF8787" id="Shape" d="M27.829,188.648 C19.843,208.011 8.067,205.898 11.907,209.704 C14.404,212.18 26.774,211.165 37.752,201.164 C48.733,191.166 48.753,183.869 46.386,181.271 C44.021,178.673 34.41,172.697 27.829,188.648 Z"></path>
            <path fill-rule="nonzero" fill="#E67878" id="Shape" d="M47.087,188.402 C46.014,191.806 43.267,196.144 37.752,201.164 C26.773,211.163 14.404,212.178 11.907,209.704 C10.658,208.469 11.067,207.853 12.45,206.928 C37.474,206.926 33.08,186.295 33.08,186.295 L47.087,188.402 Z"></path>
            <path fill-rule="nonzero" fill="#E67878" id="Shape" d="M63.298,162.854 C45.485,168.442 31.052,179.114 32.707,184.387 C34.36,189.659 51.684,192.768 69.495,187.182 C87.305,181.592 90.684,171.661 89.03,166.385 C87.376,161.111 81.108,157.266 63.298,162.854 Z"></path>
            <path fill-rule="nonzero" fill="#FF8787" id="Shape" d="M54.574,166.48 C41.282,170.65 30.511,178.613 31.746,182.547 C32.98,186.484 45.906,188.804 59.198,184.634 C72.491,180.463 75.011,173.054 73.776,169.113 C72.544,165.182 67.864,162.311 54.574,166.48 Z"></path>
            <path fill-rule="nonzero" fill="#E67878" id="Shape" d="M25.401,110.197 C25.401,110.197 25.468,119.504 34.094,128.132 C42.721,136.758 33.554,148.891 57.818,159.944 C77.932,169.108 78.037,147.274 69.141,138.378 C60.245,129.482 40.024,127.595 40.024,119.506 C40.025,108.184 25.401,91.118 25.401,110.197 Z"></path>
            <path fill-rule="nonzero" fill="#FF8787" id="Shape" d="M73.154,144.534 C72.19,142.217 70.829,140.062 69.142,138.377 C60.246,129.479 40.025,127.594 40.025,119.504 C40.025,115.577 38.266,110.962 35.967,107.4 C31.616,109.005 29.099,111.179 30.163,113.541 C30.163,113.541 35.459,111.678 36.89,120.27 C38.322,128.862 60.465,140.516 63.728,151.471 C65.274,156.654 69.6,152.281 73.154,144.534 Z"></path>
            <ellipse ry="12.6455655" rx="7.75473353" cy="101.700417" cx="32.7471638" transform="translate(32.747164, 101.700417) rotate(178.957123) translate(-32.747164, -101.700417)" fill-rule="nonzero" fill="#FF8787" id="Oval"></ellipse>
            <path fill-rule="nonzero" fill="#E67878" id="Shape" d="M26.464,94.126 C26.004,95.151 25.64,96.295 25.389,97.528 C25.382,97.779 25.385,98.036 25.401,98.301 C25.401,98.301 26.149,105.345 31.826,103.451 C37.504,101.555 33.17,118.377 26.422,108.816 C27.874,112.191 30.286,114.39 32.981,114.34 C37.264,114.265 40.632,108.538 40.504,101.556 C40.418,96.772 38.712,92.64 36.27,90.536 C32.021,90.405 28.242,91.544 26.464,94.126 Z"></path>
            <path fill-rule="nonzero" fill="#D8D8ED" id="Shape" d="M178.529,155.041 C178.529,186.033 150.279,205.08 115.434,205.08 C77.321,205.08 73.063,177.966 52.342,155.041 C32.533,133.128 80.59,98.927 115.434,98.927 C150.282,98.927 178.529,124.049 178.529,155.041 Z"></path>
            <path fill-rule="nonzero" fill="#E67878" id="Shape" d="M71.821,138.672 C95.468,141.68 113.122,155.041 125.923,153.5 C149.259,150.691 148.454,140.9 156.948,138.559 C165.891,133.647 176.759,141.803 173.831,133.79 C164.413,113.338 141.821,98.927 115.435,98.927 C92.774,98.927 67.346,109.556 56.22,125.511 C51.63,133.42 47.356,135.563 71.821,138.672 Z"></path>
            <path fill-rule="nonzero" fill="#FF8787" id="Shape" d="M82.587,127.156 C99.587,129.066 112.277,137.55 121.479,136.572 C138.256,134.788 137.678,128.572 143.786,127.086 C150.214,123.967 158.026,129.147 155.923,124.061 C149.152,111.079 132.911,101.929 113.943,101.929 C97.653,101.929 79.373,108.679 71.375,118.805 C68.073,123.825 65.001,125.184 82.587,127.156 Z"></path>
            <path fill-rule="nonzero" fill="#FF8787" id="Shape" d="M197.383,110.369 C197.383,110.369 197.31,120.68 187.754,130.234 C178.197,139.79 188.353,153.226 161.477,165.47 C139.196,175.62 139.081,151.435 148.934,141.58 C158.787,131.725 181.185,129.636 181.185,120.677 C181.185,108.137 197.383,89.234 197.383,110.369 Z"></path>
            <path fill-rule="nonzero" fill="#E67878" id="Shape" d="M187.754,130.232 C197.31,120.675 197.383,110.368 197.383,110.368 C197.383,107.058 196.987,104.73 196.316,103.206 C191.527,105.232 185.761,108.04 185.761,108.04 C185.761,108.04 185.115,113.788 188.677,115.482 C192.237,117.179 192.746,124.302 184.948,127.523 C177.146,130.745 178.843,147.87 163.921,151.939 C149.001,156.009 145.948,149.906 149.001,142.613 C149.391,141.683 149.407,141.308 149.154,141.374 C149.081,141.443 149.005,141.512 148.934,141.58 C139.08,151.434 139.196,175.62 161.477,165.471 C188.353,153.229 178.2,139.788 187.754,130.232 Z"></path>
            <ellipse ry="15.8272444" rx="9.70514984" cy="97.0853556" cx="194.766597" transform="translate(194.766597, 97.085356) rotate(16.905588) translate(-194.766597, -97.085356)" fill-rule="nonzero" fill="#FF8787" id="Oval"></ellipse>
            <path fill-rule="nonzero" fill="#E67878" id="Shape" d="M204.057,99.908 C205.478,95.238 205.447,90.671 204.254,87.273 C195.983,89.323 187.121,94.536 187.121,94.536 C187.121,94.536 186.947,98.294 195.502,99.101 C204.039,99.906 187.365,116.519 184.735,104.803 C185.455,108.553 187.349,111.371 190.168,112.229 C195.297,113.788 201.517,108.271 204.057,99.908 Z"></path>
            <path fill-rule="nonzero" fill="#FFFFFF" id="Shape" d="M205.965,54.662 C205.682,56.183 204.633,57.265 203.627,57.076 C202.619,56.888 202.662,55.747 202.945,54.226 C203.229,52.704 203.647,51.378 204.656,51.567 C205.665,51.755 206.25,53.142 205.965,54.662 Z"></path>
            <path fill-rule="nonzero" fill="#FFFFFF" id="Shape" d="M207.963,31.148 C208.879,35.127 207.486,38.845 204.855,39.452 C202.22,40.06 201.118,37.257 200.202,33.279 C199.284,29.3 198.897,25.653 201.532,25.044 C204.165,24.436 207.045,27.169 207.963,31.148 Z"></path>
            <path fill-rule="nonzero" fill="#FF8787" id="Shape" d="M56.897,38.041 C56.897,38.041 67.93,64.464 47.275,68.96 C26.62,73.456 21.313,95.028 39.385,96.486 C57.458,97.944 77.951,67.982 67.641,47.407 C57.332,26.834 55.858,36.403 56.897,38.041 Z"></path>
            <path fill-rule="nonzero" fill="#E67878" id="Shape" d="M67.643,47.408 C64.902,41.94 62.791,38.615 61.181,36.691 C80.479,64.989 50.061,89.667 50.061,81.076 C50.061,72.514 46.93,69.113 46.905,69.052 C46.903,69.052 46.902,69.053 46.9,69.053 C42.335,78.45 36.79,87.35 32.892,94.632 C34.568,95.606 36.716,96.271 39.388,96.486 C57.459,97.944 77.953,67.982 67.643,47.408 Z"></path>
            <path fill-rule="nonzero" fill="#E67878" id="Shape" d="M63.057,25.236 C63.057,25.236 29.526,13.348 10.44,50.651 C-8.645,87.953 39.52,120.281 46.903,82.262 C50.721,62.59 37.636,49.775 48.943,34.797 C57.235,23.813 62.314,28.562 63.057,25.236 Z"></path>
            <path fill-rule="nonzero" fill="#FF8787" id="Shape" d="M55.73,26.111 C55.73,26.111 29.578,18.336 14.692,47.429 C-0.194,76.523 37.372,101.737 43.129,72.084 C46.108,56.741 35.901,46.746 44.72,35.063 C51.189,26.498 55.15,28.707 55.73,26.111 Z"></path>
            <path fill-rule="nonzero" fill="#E67878" id="Shape" d="M219.534,173.943 C219.589,173.806 219.622,173.677 219.63,173.56 C219.63,173.542 219.628,173.529 219.628,173.513 C219.63,173.404 219.61,173.304 219.573,173.21 C219.567,173.194 219.563,173.179 219.556,173.164 C219.51,173.065 219.441,172.974 219.353,172.888 C219.336,172.872 219.319,172.859 219.301,172.843 C219.207,172.758 219.1,172.679 218.967,172.601 C218.965,172.599 218.963,172.599 218.959,172.597 C218.822,172.517 218.662,172.441 218.488,172.365 C218.455,172.349 218.422,172.336 218.387,172.32 C218.21,172.246 218.021,172.171 217.813,172.093 C217.806,172.089 217.798,172.086 217.792,172.084 C214.741,170.948 208.507,169.278 203.849,160.147 C201.847,156.223 199.349,154.518 196.921,154.059 C192.523,151.837 184.019,150.381 175.059,150.926 C162.226,151.702 159.138,155.717 159.369,159.52 C159.6,163.319 164.213,168.881 177.049,168.104 C181.586,167.829 185.816,166.867 189.379,165.573 C189.386,165.581 189.392,165.589 189.398,165.596 C189.532,165.784 189.68,165.973 189.829,166.163 C189.931,166.292 190.032,166.422 190.141,166.553 C190.287,166.729 190.438,166.907 190.597,167.084 C190.743,167.246 190.899,167.411 191.056,167.575 C191.204,167.73 191.347,167.887 191.505,168.044 C191.818,168.354 192.152,168.666 192.509,168.981 C192.632,169.09 192.771,169.202 192.901,169.311 C193.178,169.547 193.464,169.785 193.767,170.022 C193.921,170.145 194.083,170.266 194.246,170.389 C194.568,170.632 194.905,170.876 195.256,171.121 C195.404,171.225 195.549,171.329 195.703,171.434 C196.219,171.785 196.754,172.135 197.33,172.487 C207.393,178.635 217.508,177.053 219.23,174.51 C219.233,174.505 219.234,174.502 219.237,174.497 C219.35,174.329 219.43,174.18 219.494,174.037 C219.504,174.01 219.521,173.977 219.534,173.943 Z"></path>
            <path fill-rule="nonzero" fill="#FF8787" id="Shape" d="M167.366,158.373 C167.554,161.477 171.009,162.12 180.607,161.537 C190.205,160.954 197.965,159.808 197.779,156.707 C197.591,153.603 188.667,150.842 179.068,151.423 C169.469,152.003 167.174,155.27 167.366,158.373 Z"></path>
            <path fill-rule="nonzero" fill="#FF8787" id="Shape" d="M186.458,173.422 C184.091,176.02 184.109,183.317 195.091,193.315 C206.07,203.315 218.44,204.33 220.937,201.854 C224.777,198.048 213.001,200.164 205.015,180.799 C198.432,164.848 188.821,170.822 186.458,173.422 Z"></path>
            <path fill-rule="nonzero" fill="#E67878" id="Shape" d="M199.762,178.443 C199.762,178.443 195.367,199.075 220.392,199.076 C221.775,200.003 222.184,200.617 220.935,201.853 C218.438,204.326 206.07,203.312 195.09,193.312 C189.574,188.292 186.828,183.956 185.754,180.55 L199.762,178.443 Z"></path>
            <path fill-rule="nonzero" fill="#E67878" id="Shape" d="M143.812,158.535 C142.159,163.81 145.538,173.742 163.347,179.331 C181.159,184.918 198.482,181.81 200.135,176.537 C201.789,171.264 187.357,160.591 169.543,155.004 C151.734,149.415 145.465,153.262 143.812,158.535 Z"></path>
            <path fill-rule="nonzero" fill="#FF8787" id="Shape" d="M159.066,161.266 C157.831,165.204 160.351,172.616 173.644,176.787 C186.936,180.956 199.862,178.638 201.096,174.7 C202.33,170.764 191.56,162.802 178.268,158.632 C164.978,154.46 160.297,157.33 159.066,161.266 Z"></path>
            <path fill-rule="nonzero" fill="#FF8787" id="Shape" d="M164.312,18.241 C164.312,18.241 149.243,50.753 174.856,57.369 C200.47,63.985 206.068,91.218 183.396,92.171 C160.726,93.124 136.54,54.669 150.424,29.437 C164.308,4.205 165.69,16.243 164.312,18.241 Z"></path>
            <path fill-rule="nonzero" fill="#E67878" id="Shape" d="M172.446,56.626 C154.86,72.975 178.529,86.816 163.026,73.15 C136.866,50.091 160.163,15.181 160.167,15.175 C157.968,17.192 154.825,21.442 150.427,29.436 C136.54,54.669 160.728,93.124 183.399,92.171 C187.026,92.018 189.92,91.189 192.132,89.882 C192.312,80.415 187.747,68.342 184.726,61.43 C182.952,60.38 174.559,57.417 172.446,56.626 Z"></path>
            <path fill-rule="nonzero" fill="#E67878" id="Shape" d="M157.224,1.931 C157.224,1.931 199.731,-11.319 221.801,36.247 C243.873,83.813 182.082,121.922 174.682,74.023 C170.854,49.239 187.832,33.844 174.416,14.567 C164.577,0.432 157.993,6.125 157.224,1.931 Z"></path>
            <path fill-rule="nonzero" fill="#FF8787" id="Shape" d="M163.331,1.439 C163.331,1.439 197.445,-9.196 215.161,28.981 C232.874,67.158 183.282,97.746 177.341,59.3 C174.27,39.409 187.898,27.053 177.128,11.581 C169.23,0.237 163.948,4.807 163.331,1.439 Z"></path>
            <path fill-rule="nonzero" fill="#F0F0FF" id="Shape" d="M55.936,145.992 C55.936,145.992 55.142,150.474 66.461,163.637 C79.772,179.116 99.893,199.546 132.396,184.688 C132.396,184.688 140.909,183.294 135.182,177.569 C129.453,171.84 127.752,166.116 127.752,162.401 C127.752,158.686 107.093,163.858 96.357,156.651 C82.738,147.508 57.174,141.04 55.936,145.992 Z"></path>
            <circle r="6" cy="84.957" cx="102.27" fill-rule="nonzero" fill="#6E6E96" id="Oval"></circle>
            <circle r="6" cy="84.957" cx="127.77" fill-rule="nonzero" fill="#6E6E96" id="Oval"></circle>
            <path opacity="0.31" fill-rule="nonzero" fill="#FFFFFF" id="Shape" d="M22.513,42.362 C22.513,42.362 15.513,48.362 15.513,61.362 C15.513,74.362 22.146,69.752 24.439,59.288 C29.77,34.957 22.513,42.362 22.513,42.362 Z"></path>
            <path opacity="0.31" fill-rule="nonzero" fill="#FFFFFF" id="Shape" d="M208.723,53.728 C208.723,53.728 216.996,41.74 209.354,31.224 C195.129,11.653 199.17,28.778 199.777,39.473 C201.053,62.01 208.723,53.728 208.723,53.728 Z"></path>
            <ellipse ry="7.75023393" rx="2.25006792" cy="166.68825" cx="176.504592" transform="translate(176.504592, 166.688250) rotate(-70.573949) translate(-176.504592, -166.688250)" opacity="0.3" fill-rule="nonzero" fill="#FFFFFF" id="Oval"></ellipse>
            <ellipse ry="7.75000174" rx="2.24900051" cy="177.186677" cx="50.6049487" transform="translate(50.604949, 177.186677) rotate(-106.624608) translate(-50.604949, -177.186677)" opacity="0.3" fill-rule="nonzero" fill="#FFFFFF" id="Oval"></ellipse>
            <path opacity="0.33" fill-rule="nonzero" fill="#FFFFFF" id="Shape" d="M128.77,113.501 C128.77,117.393 120.823,117.727 111.02,117.727 C101.217,117.727 93.27,117.393 93.27,113.501 C93.27,109.609 101.217,106.457 111.02,106.457 C120.823,106.457 128.77,109.609 128.77,113.501 Z"></path>
            <path opacity="0.84" fill-rule="nonzero" fill="#FFFFFF" id="Shape" d="M91.936,166.531 C90.151,169.484 84.956,166.693 78.737,162.937 C72.519,159.179 67.633,155.877 69.418,152.922 C71.204,149.968 77.691,150.619 83.909,154.376 C90.127,158.137 93.722,163.577 91.936,166.531 Z"></path>
        </g>
    </g>
</svg>