<svg xmlns:xlink="http://www.w3.org/1999/xlink" xmlns="http://www.w3.org/2000/svg" version="1.1" viewBox="0 0 196 245" height="245px" width="196px">
    
    <title>鹿</title>
    <desc>Created with Sketch.</desc>
    <defs></defs>
    <g fill-rule="evenodd" fill="none" stroke-width="1" stroke="none" id="Page-1">
        <g fill-rule="nonzero" id="鹿">
            <path fill="#6E6E96" id="Shape" d="M106.552,1.51 C106.906,2.332 115.141,21.836 106.585,38.004 C101.52,47.576 91.719,53.821 77.458,56.565 C76.102,56.826 74.791,55.938 74.53,54.582 C74.269,53.226 75.157,51.915 76.512,51.655 C89.2,49.215 97.825,43.843 102.152,35.69 C109.595,21.662 102.037,3.669 101.96,3.489 L101.961,3.491 C101.414,2.223 101.998,0.752 103.266,0.205 C104.534,-0.342 106.005,0.242 106.552,1.51 Z"></path>
            <path fill="#6E6E96" id="Shape" d="M97.578,23.56 C97.583,23.556 97.581,23.558 97.586,23.554 C97.537,23.595 92.706,27.66 92.436,33.423 C92.26,37.175 94.054,40.96 97.766,44.673 C98.743,45.649 98.743,47.232 97.766,48.208 C96.789,49.185 95.207,49.185 94.231,48.208 C89.463,43.44 87.18,38.367 87.445,33.13 C87.849,25.133 94.15,19.904 94.419,19.686 C95.488,18.813 97.064,18.973 97.937,20.042 C98.809,21.112 98.648,22.687 97.578,23.56 Z"></path>
            <path fill="#6E6E96" id="Shape" d="M131.393,25.042 C128.792,32.598 119.395,45.759 102.434,41.488 C101.094,41.151 100.284,39.792 100.621,38.453 C100.958,37.114 102.314,36.302 103.654,36.639 C120.367,40.848 126.418,24.124 126.667,23.41 L126.665,23.415 C127.113,22.11 128.537,21.415 129.842,21.864 C131.146,22.314 131.84,23.737 131.393,25.042 Z"></path>
            <path fill="#6E6E96" id="Shape" d="M127.479,7.228 C127.243,7.918 121.481,24.137 107.924,24.129 C106.543,24.128 105.425,23.008 105.426,21.628 C105.427,20.248 106.546,19.128 107.927,19.129 C117.909,19.135 122.707,5.727 122.754,5.591 C122.789,5.49 122.832,5.388 122.88,5.293 L122.753,5.595 C123.203,4.29 124.627,3.597 125.932,4.049 C127.238,4.499 127.932,5.922 127.479,7.228 Z"></path>
            <path fill="#E3B334" id="Shape" d="M66.74,167.248 C62.86,161.907 92.457,168.277 90.198,181.894 C86.719,202.858 83.345,202.363 82.632,209.55 C81.384,222.145 79.541,232.97 78.351,237.923 C77.2,242.7 75.778,243.276 73.68,243.276 C71.382,243.276 70.159,242.684 69.538,237.93 C68.378,229.03 69.336,204.249 69.336,195.255 C69.336,181.455 72.871,175.686 66.74,167.248 Z"></path>
            <path fill="#6E6E96" id="Shape" d="M79.064,234.585 L69.242,234.585 C69.318,235.843 69.415,236.991 69.538,237.932 C70.159,242.686 71.382,243.277 73.679,243.277 C75.776,243.277 77.199,242.705 78.35,237.923 C78.567,237.019 78.812,235.857 79.064,234.585 Z"></path>
            <path opacity="0.15" fill="#6E6E96" id="Shape" d="M75.045,166.336 C71.013,166.957 67.65,168.45 67.65,168.45 C67.65,168.45 77.978,183.493 77.978,191.513 C77.978,199.53 77.765,243.078 73.686,243.126 C75.78,243.125 77.201,242.546 78.351,237.773 C79.54,232.82 81.383,221.995 82.631,209.4 C83.217,203.498 85.597,202.766 88.356,191.087 C88.757,184.668 88.888,179.097 88.551,175.47 C88.528,175.225 88.488,175.003 88.457,174.77 C85.592,170.702 79.924,167.81 75.045,166.336 Z"></path>
            <path fill="#E3B334" id="Shape" d="M161.219,196.897 L142.499,173.293 L124.68,182.852 C124.68,182.852 128.383,193.948 149.018,197.451 L149.018,236.497 C149.018,241.054 151.19,241.518 153.364,241.958 C155.934,242.472 157.829,241.473 159.218,236.132 C162.534,223.408 163.571,197.696 163.571,197.696 L161.219,196.897 Z"></path>
            <path opacity="0.15" fill="#6E6E96" id="Shape" d="M163.57,197.695 L161.218,196.897 L156.822,191.355 L140.536,179.584 C140.536,190.084 158.286,201.834 158.286,201.834 C158.286,201.834 157.786,227.084 156.286,235.334 C154.788,243.574 149.249,238.682 149.236,238.67 C149.84,241.227 151.599,241.601 153.362,241.957 C155.932,242.471 157.827,241.472 159.216,236.131 C162.534,223.407 163.57,197.695 163.57,197.695 Z"></path>
            <path fill="#FFD569" id="Shape" d="M188.225,129.656 C196.438,127.522 195.495,123.373 195.571,126.901 C195.649,130.433 194.733,139.254 185.405,142.433 C181.93,142.417 179.033,139.546 178.936,136.019 C178.839,132.496 180.843,131.574 188.225,129.656 Z"></path>
            <path fill="#6E6E96" id="Shape" d="M160.158,231.806 L149.017,231.806 L149.017,236.495 C149.017,241.052 151.189,241.516 153.363,241.956 C155.933,242.47 157.826,241.471 159.217,236.13 C159.561,234.81 159.872,233.351 160.158,231.808 L160.158,231.806 Z"></path>
            <path fill="#E3B334" id="Shape" d="M89.914,99.739 L56.887,127.55 L56.887,145.48 C56.887,145.48 59.495,182.853 108.167,182.853 L144.707,182.853 C176.603,182.853 143.628,186.701 112.021,175.96 C75.595,175.96 73.063,150.444 70.536,141.179 C64.252,118.15 73.489,114.376 89.04,111.125 C89.242,110.164 89.517,109.166 89.914,108.104 C90.846,105.613 91.499,103.471 91.948,101.611 C91.109,99.973 89.914,99.739 89.914,99.739 Z"></path>
            <path fill="#E3B334" id="Shape" d="M71.824,144.886 C68.415,128.694 89.637,117.553 89.637,117.553 C45.792,121.715 71.824,144.886 71.824,144.886 Z"></path>
            <path fill="#FFD569" id="Shape" d="M89.914,89.854 C89.914,89.854 96.311,91.012 89.914,108.106 C82.382,128.232 111.643,129.835 111.643,129.835 L156.84,129.835 C156.84,129.835 177.483,128.749 181.177,150.694 C183.464,164.277 181.405,172.632 179.081,177.413 C177.977,181.812 177.455,187.567 180.787,190.981 C182.644,192.138 183.738,192.45 185.458,194.169 C188.4,197.109 187.584,202.264 187.583,202.27 L187.584,202.27 C187.584,202.27 187.232,223.41 183.917,236.13 C182.523,241.473 180.632,242.472 178.063,241.958 C175.889,241.52 173.716,241.055 173.716,236.495 C173.716,224.226 173.716,209.431 173.716,201.239 C154.613,198.247 145.403,189.292 141.156,182.852 L108.234,182.852 C104.005,197.731 96.869,204.25 96.255,210.402 C95.006,222.997 93.162,233.821 91.972,238.774 C90.823,243.552 89.399,244.128 87.303,244.128 C85.003,244.128 83.781,243.538 83.159,238.782 C81.997,229.882 82.955,205.101 82.955,196.107 C82.955,190.571 83.524,184.525 84.608,179.129 C58.578,169.68 56.882,145.478 56.882,145.478 L56.882,117.664 L89.914,89.854 Z"></path>
            <path fill="#F2C349" id="Shape" d="M107.811,131.912 C107.811,131.912 92.818,128.133 84.321,130.418 C73.38,133.359 64.633,143.369 77.182,155.918 C77.182,155.918 55.891,152.022 60.191,138.929 C64.491,125.834 78.797,120.116 85.041,118.101 C91.285,116.084 107.811,131.912 107.811,131.912 Z"></path>
            <path fill="#F2C349" id="Shape" d="M176.657,144.259 C176.657,144.259 187.238,173.187 156.636,173.187 C126.032,173.187 71.823,167.189 71.823,144.886 C71.823,122.583 71.823,123.776 71.823,123.776 L56.533,123.776 C56.533,123.776 54.586,145.172 60.917,158.624 C68.445,174.619 83.759,178.812 83.759,184.318 C82.034,193.582 82.868,235.439 82.868,235.439 L92.697,235.439 L96.632,208.537 L108.236,182.853 L141.156,182.853 C141.156,182.853 151.154,199.8 173.718,201.24 L173.718,231.805 L184.86,231.807 C184.86,231.807 189.898,204.624 186.673,195.873 C183.446,187.122 173.534,193.583 181.034,171.083 C188.534,148.583 176.657,144.259 176.657,144.259 Z"></path>
            <path fill="#6E6E96" id="Shape" d="M92.691,235.44 L82.868,235.44 C82.947,236.697 83.042,237.844 83.164,238.785 C83.786,243.541 85.009,244.131 87.307,244.131 C89.404,244.131 90.827,243.559 91.976,238.777 C92.194,237.875 92.438,236.713 92.692,235.438 L92.691,235.44 Z"></path>
            <path fill="#6E6E96" id="Shape" d="M184.857,231.806 L173.715,231.806 L173.715,236.495 C173.715,241.052 175.888,241.516 178.062,241.956 C180.63,242.47 182.525,241.471 183.916,236.13 C184.26,234.81 184.57,233.351 184.855,231.808 L184.855,231.806 L184.857,231.806 Z"></path>
            <path fill="#6E6E96" id="Shape" d="M29.941,9.82 C29.942,9.817 29.942,9.819 29.943,9.816 C29.36,10.853 15.939,35.427 41.294,54.315 C42.401,55.14 42.631,56.706 41.806,57.814 C40.981,58.921 39.415,59.15 38.308,58.325 C9.358,36.759 25.429,7.642 25.594,7.35 C26.277,6.15 27.803,5.729 29.003,6.412 C30.203,7.094 30.623,8.62 29.941,9.82 Z"></path>
            <path fill="#6E6E96" id="Shape" d="M9.407,10.363 C9.407,10.354 9.407,10.359 9.407,10.349 C9.404,10.85 9.512,22.662 24.162,26.511 C25.497,26.862 26.295,28.229 25.944,29.564 C25.593,30.899 24.226,31.697 22.89,31.347 C4.359,26.478 4.405,10.443 4.407,10.282 C4.429,8.901 5.567,7.803 6.948,7.823 C8.328,7.845 9.43,8.982 9.407,10.363 Z"></path>
            <path fill="#6E6E96" id="Shape" d="M5.357,28.188 C5.356,28.185 5.357,28.187 5.356,28.184 C5.388,28.276 8.669,37.42 15.79,40.787 C19.15,42.376 22.934,42.425 27.034,40.931 C28.331,40.458 29.765,41.127 30.238,42.424 C30.711,43.721 30.043,45.156 28.745,45.629 C23.332,47.602 18.243,47.488 13.622,45.293 C4.604,41.009 0.792,30.284 0.635,29.829 C0.182,28.525 0.871,27.1 2.176,26.647 C3.48,26.194 4.904,26.884 5.357,28.188 Z"></path>
            <path fill="#6E6E96" id="Shape" d="M36.918,24.194 C37.189,24.463 43.543,30.87 43.56,39.633 C43.569,44.884 41.337,49.784 36.925,54.196 C35.948,55.173 34.366,55.173 33.39,54.196 C32.413,53.22 32.413,51.637 33.39,50.661 C44.698,39.353 33.858,28.206 33.391,27.737 L33.397,27.742 C32.417,26.769 32.411,25.186 33.383,24.206 C34.355,23.226 35.938,23.221 36.918,24.194 Z"></path>
            <path fill="#F2C349" id="Shape" d="M64.49,47.262 C86.451,47.262 104.255,65.065 104.255,87.027 C104.255,108.987 86.451,126.793 64.49,126.793 C16.904,126.793 -1.145,87.027 20.816,87.027 C41.022,87.027 22.119,47.262 64.49,47.262 Z"></path>
            <path fill="#FFD569" id="Shape" d="M62.113,48.745 C72.887,48.745 82.384,54.204 87.99,62.506 C89.589,64.873 90.872,67.471 91.776,70.24 C92.776,73.295 93.317,76.558 93.317,79.948 C93.317,97.181 79.239,109.23 62.113,111.152 C35.199,114.173 -5.199,91.727 22.749,87.629 C25.235,87.265 33.267,92.514 34.861,91.361 C36.446,90.215 28.03,88.123 31.625,80.963 C37.438,69.385 35.634,48.746 62.113,48.745 Z"></path>
            <path fill="#F2C349" id="Shape" d="M38.96,91.725 C38.96,91.725 38.564,100.079 33.002,96.957 C27.44,93.835 14.898,95.749 20.213,101.062 C20.213,101.062 11.76,97.355 11.76,88.346 L26.227,85.668 C26.227,85.669 33.928,91.725 38.96,91.725 Z"></path>
            <circle r="7.17" cy="86.374" cx="10.386" fill="#6E6E96" id="Oval"></circle>
            <ellipse ry="2.793" rx="4.393" cy="149.162" cx="163.654" fill="#FFF7E0" id="Oval"></ellipse>
            <ellipse ry="3.993" rx="7.705" cy="155.948" cx="135.984" fill="#FFF7E0" id="Oval"></ellipse>
            <ellipse ry="1.396" rx="2.795" cy="140.975" cx="122.13" fill="#FFF7E0" id="Oval"></ellipse>
            <ellipse ry="1.396" rx="3.395" cy="141.773" cx="146.285" fill="#FFF7E0" id="Oval"></ellipse>
            <ellipse ry="2.23802578" rx="5.20605997" cy="152.590249" cx="108.138842" transform="translate(108.138842, 152.590249) rotate(-162.782693) translate(-108.138842, -152.590249)" fill="#FFF7E0" id="Oval"></ellipse>
            <ellipse ry="2.39600235" rx="3.39200332" cy="139.169657" cx="97.1710976" transform="translate(97.171098, 139.169657) rotate(-161.155570) translate(-97.171098, -139.169657)" fill="#FFF7E0" id="Oval"></ellipse>
            <circle r="8.542" cy="76.208" cx="53.575" fill="#F2C349" id="Oval"></circle>
            <path fill="#F2C349" id="Shape" d="M95.517,47.426 C118.741,44.047 132.465,52.067 132.465,52.067 C132.465,52.067 132.346,52.129 132.154,52.227 C132.804,52.636 133.232,53.147 133.374,53.78 C134.475,58.701 118.103,68.63 108.529,71.161 C92.662,75.356 86.34,68.37 82.995,63.452 C82.735,63.07 82.872,63.892 82.995,63.452 C78.901,58.041 79.031,49.824 95.517,47.426 Z"></path>
            <circle r="3.5" cy="76.75" cx="53.033" fill="#6E6E96" id="Oval"></circle>
            <path opacity="0.15" fill="#6E6E96" id="Shape" d="M110.037,68.094 C110.037,68.094 136.04,60.083 110.037,56.583 C84.033,53.083 86.557,63.467 90.836,67.747 C90.836,67.747 72.91,61.215 84.033,53.083 C95.156,44.951 122.304,45.472 130.927,54.27 C139.55,63.068 131.033,55.583 131.033,55.583 C131.033,55.583 117.813,68.094 110.037,68.094 Z"></path>
            <path opacity="0.43" fill="#FFFFFF" id="Shape" d="M62.037,91.333 C62.037,93.404 58.567,93.083 54.287,93.083 C50.007,93.083 46.537,93.404 46.537,91.333 C46.537,89.262 50.007,87.583 54.287,87.583 C58.567,87.583 62.037,89.262 62.037,91.333 Z"></path>
            <path fill="#E3B334" id="Shape" d="M96.371,180.25 C96.371,180.25 96.871,201.083 92.704,205.25 C89.418,208.536 91.647,223.483 89.827,235.438 L92.697,235.438 L96.633,208.536 C102.038,200.473 106.038,191.473 108.237,182.852 C108.236,182.853 99.037,182.917 96.371,180.25 Z M108.236,182.853 L110.25,182.853 C109.083,182.65 108.236,182.853 108.236,182.853 Z"></path>
            <path opacity="0.15" fill="#6E6E96" id="Shape" d="M186.673,195.874 C185.138,191.711 182.092,190.987 180.125,188.953 C181.162,190.269 182.8,194.244 182.8,206.228 C182.8,215.655 182.562,225.091 181.408,231.806 L184.859,231.807 C184.859,231.807 189.897,204.625 186.673,195.874 Z M179.293,188.302 C179.293,188.302 179.502,188.327 179.816,188.615 C179.733,188.516 179.655,188.411 179.577,188.304 C179.482,188.305 179.388,188.302 179.293,188.302 Z"></path>
        </g>
    </g>
</svg>