<svg xmlns:xlink="http://www.w3.org/1999/xlink" xmlns="http://www.w3.org/2000/svg" version="1.1" viewBox="0 0 235 214" height="214px" width="235px">
    
    <title>海豚</title>
    <desc>Created with Sketch.</desc>
    <defs></defs>
    <g fill-rule="evenodd" fill="none" stroke-width="1" stroke="none" id="Page-1">
        <g fill-rule="nonzero" id="海豚">
            <path fill="#A3D9FF" id="Shape" d="M141.624,16.485 C141.624,16.485 181.774,-4.911 189.302,3.174 C196.832,11.26 177.474,28.574 181.651,48.217 C181.65,48.218 141.624,39.124 141.624,16.485 Z"></path>
            <path fill="#A3D9FF" id="Shape" d="M2.249,94.605 C2.249,94.605 -4.991,79.366 15.567,75.324 C15.567,75.324 -2.225,16.826 77.116,2.521 C163.18,-12.999 229.171,82.134 222.312,174.218 L200.305,182.927 C200.305,182.927 200.305,68.484 47.417,97.094 C47.419,97.094 6.88,110.363 2.249,94.605 Z"></path>
            <g fill="#61A7D9" transform="translate(1.000000, 0.000000)" opacity="0.36" id="Group">
                <path id="Shape" d="M180.08,43.364 C179.522,25.757 195.205,10.586 188.302,3.174 C183.834,-1.624 167.876,3.961 155.641,9.296 C155.641,9.296 180.056,-5.522 180.056,5.189 C180.056,10.739 172.206,25.844 171.224,34.456 C143.681,6.915 111.128,-3.792 76.115,2.521 C-3.224,16.827 14.568,75.325 14.568,75.325 C-5.99,79.367 1.25,94.606 1.25,94.606 C5.881,110.363 46.42,97.094 46.42,97.094 C167.258,74.481 192.587,141.231 197.898,170.208 C192.792,138.984 169.377,62.475 63.054,82.371 C63.054,82.371 23.842,94.013 23.842,86.675 C23.842,86.675 17.557,73.446 35.404,69.937 C35.404,69.937 34.822,68.941 34.239,67.238 C45.818,83.087 104.244,71.985 104.244,71.985 C180.081,74.178 198.508,155.1 198.508,155.1 L198.508,155.087 C198.81,160.65 199.354,171.191 199.354,174.928 C199.354,180.099 220.507,174.928 220.507,174.928 C220.507,174.928 222.203,165.206 220.973,150.325 C221.664,157.221 221.862,164.176 221.51,171.122 C224.341,122.43 208.485,74.787 180.08,43.364 Z M35.129,51.25 C35.483,50.505 35.916,49.75 36.385,48.994 C36.387,49.005 36.388,49.017 36.39,49.029 C35.935,49.786 35.507,50.53 35.129,51.25 Z M71.588,5.773 C132.054,-12.534 187.335,49.598 208.586,99.773 C224.639,137.673 217.756,177.437 201.759,130.291 C195.707,111.428 177.703,90.994 156.527,75.457 C127.507,54.164 90.6,43.575 61.873,51.125 C55.339,52.57 35.354,60.72 30.185,51.25 C30.184,51.25 22.859,15.174 71.588,5.773 Z"></path>
            </g>
            <path fill="#F0F0FF" id="Shape" d="M199.701,176.296 C204.581,103.009 139.707,66.088 70.612,66.088 C45.048,66.088 -4.128,69.082 1.153,91.576 C1.477,93.909 2.249,95.543 2.249,95.543 C6.881,111.299 47.419,98.03 47.419,98.03 C176.133,73.947 196.484,151.25 199.701,176.296 Z"></path>
            <g fill="#6E6E96" transform="translate(0.000000, 72.000000)" opacity="0.15" id="Group">
                <path id="Shape" d="M199.552,87.309 C199.523,90.853 199.316,94.48 198.896,98.208 C196.735,74.923 183.574,-4.781 57.333,12.231 C57.333,12.231 18.241,19.916 14.343,15.33 C14.343,15.33 12.769,13.788 12.545,11.617 C11.64,7.165 13.089,3.625 16.161,0.815 C5.73,4.629 -0.971,10.522 1.154,19.579 C1.478,21.912 2.25,23.546 2.25,23.546 C6.882,39.303 47.42,26.033 47.42,26.033 C176.134,1.946 196.484,79.249 199.702,104.298 C200.094,98.398 200.028,92.738 199.552,87.309 Z"></path>
            </g>
            <path fill="#94CBEB" id="Shape" d="M83.56,87.142 C83.56,87.142 82.98,113.264 129.89,120.728 C129.89,120.728 144.329,121.931 133.943,110.776 C123.556,99.623 122.94,92.118 102.092,85.898 C81.244,79.677 83.56,87.142 83.56,87.142 Z"></path>
            <g fill="#61A7D9" transform="translate(83.000000, 83.000000)" opacity="0.36" id="Group">
                <g id="Shape">
                    <path d="M50.943,27.776 C45.614,22.054 42.853,17.295 38.617,13.173 C38.914,13.605 39.219,14.04 39.538,14.485 C47.578,25.641 36.4,24.437 36.4,24.437 C14.896,20.016 6.287,9.049 2.84,0.841 C-0.159,1.812 0.56,4.142 0.56,4.142 C0.56,4.142 -0.02,30.265 46.89,37.728 C46.891,37.728 61.331,38.931 50.943,27.776 Z"></path>
                </g>
            </g>
            <path fill="#A3D9FF" id="Shape" d="M202.303,165.908 C202.303,165.908 179.051,166.531 175.673,185.186 C172.322,203.698 203.59,183.044 222.828,210.789 C234.881,228.166 240.27,163.214 202.303,165.908 Z"></path>
            <g fill="#61A7D9" transform="translate(175.000000, 166.000000)" opacity="0.36" id="Group">
                <g id="Shape">
                    <path d="M43.885,4.223 C52.165,11.997 53.207,25.802 44.205,25.802 C41.423,25.802 38.639,25.264 35.922,22.765 C33.983,20.982 32.077,14.313 30.236,14.175 C26.855,13.921 23.69,20.255 20.91,21.476 C14.608,24.238 10.285,22.9 9.914,16.747 C9.222,5.247 21.702,0.904 23.715,0.279 C17.055,1.307 3.218,5.122 0.673,19.182 C-2.677,37.695 28.59,17.041 47.828,44.786 C57.696,59.018 63.092,18.06 43.885,4.223 Z"></path>
                </g>
            </g>
            <circle r="5.726" cy="42.712" cx="44.166" fill="#6E6E96" id="Oval"></circle>
            <path fill="#61A7D9" id="Shape" d="M131.772,168.148 C134.293,172.289 133.234,174.487 131.08,175.798 C128.924,177.111 126.484,177.04 123.965,172.901 C121.444,168.76 119.459,161.563 121.614,160.252 C123.77,158.939 129.251,164.007 131.772,168.148 Z"></path>
            <g fill="#61A7D9" transform="translate(146.000000, 133.000000)" opacity="0.51" id="Group">
                <path id="Shape" d="M6.329,5.837 C7.82,8.286 7.347,9.497 6.257,10.159 C5.169,10.823 3.877,10.688 2.385,8.237 C0.893,5.786 -0.434,1.618 0.655,0.956 C1.743,0.292 4.837,3.386 6.329,5.837 Z"></path>
            </g>
            <g fill="#61A7D9" transform="translate(209.000000, 39.000000)" opacity="0.31" id="Group">
                <path id="Shape" d="M8.615,1.776 C10.757,3.155 10.397,5.002 9.231,6.813 C8.065,8.624 6.533,9.714 4.39,8.335 C2.247,6.956 0.021,3.444 1.188,1.633 C2.355,-0.178 6.472,0.397 8.615,1.776 Z"></path>
            </g>
            <g fill="#61A7D9" transform="translate(227.000000, 88.000000)" opacity="0.51" id="Group">
                <path id="Shape" d="M6.926,5.926 C8.418,8.376 7.944,9.587 6.854,10.249 C5.766,10.913 4.474,10.778 2.982,8.327 C1.491,5.876 0.164,1.708 1.253,1.045 C2.34,0.381 5.433,3.475 6.926,5.926 Z"></path>
            </g>
            <g fill="#61A7D9" transform="translate(80.000000, 122.000000)" opacity="0.51" id="Group">
                <path id="Shape" d="M7.826,4.998 C9.235,7.312 8.337,8.732 6.751,9.695 C5.168,10.662 3.497,10.808 2.087,8.492 C0.677,6.177 -0.127,1.963 1.458,0.998 C3.042,0.032 6.416,2.681 7.826,4.998 Z"></path>
            </g>
        </g>
    </g>
</svg>