<svg xmlns:xlink="http://www.w3.org/1999/xlink" xmlns="http://www.w3.org/2000/svg" version="1.1" viewBox="0 0 242 227" height="227px" width="242px">
    
    <title>大象</title>
    <desc>Created with Sketch.</desc>
    <defs></defs>
    <g fill-rule="evenodd" fill="none" stroke-width="1" stroke="none" id="Page-1">
        <g fill-rule="nonzero" id="大象">
            <path fill="#D8D8E6" id="Shape" d="M241.039,135.494 C241.039,95.892 206.408,77.806 161.226,77.806 C116.042,77.806 26.194,184.887 61.149,164.372 C67.073,160.894 81.282,156.37 87.956,165.594 L87.838,165.569 C87.838,165.569 95.767,172.336 89.793,204.905 C88.423,218.905 89.166,218.164 92.076,221.073 C99.772,228.768 129.904,227.162 138.44,221.073 C140.396,214.963 141.633,209.393 142.392,204.427 C148.733,206.217 155.08,207.198 161.227,207.198 C171.549,207.198 181.129,205.77 189.844,203.172 C190.576,208.448 191.86,214.443 193.981,221.073 C199.109,226.201 229.449,227.162 235.54,221.073 C239.029,208.214 239.997,174.889 240.257,154.968 C241.039,142.246 241.039,142.246 241.039,135.494 Z"></path>
            <path fill="#D8D8E6" id="Shape" d="M141.268,43.301 C113.806,28.139 69.049,41.068 52.472,71.093 C42.721,88.756 41.747,106.766 48.182,121.691 L48.176,121.689 C48.176,121.689 48.187,121.71 48.194,121.72 C48.583,122.618 48.992,123.513 49.434,124.388 C51.648,130.076 54.442,143.404 36.39,151.068 C36.39,151.068 10.607,160.293 7.184,138.29 C7.184,138.29 6.956,128.48 2.164,133.269 C-2.627,138.06 6.27,171.148 35.021,171.148 C54.192,171.148 70.919,161.408 81.161,151.4 C108.188,161.261 143.927,154.914 158.777,128.017 C175.353,97.995 168.73,58.462 141.268,43.301 Z"></path>
            <g fill="#6E6E96" transform="translate(1.000000, 59.000000)" opacity="0.15" id="Group">
                <path id="Shape" d="M1.725,75.98 C1.725,75.98 2.15,87.342 10.312,95.335 C21.178,105.977 43.679,110.648 76.999,74.595 C76.999,74.595 99.971,76.236 112.735,64.336 C126.244,51.744 125.449,16.175 97.219,10.085 L129.401,0.877 L160.17,62.095 C160.17,62.095 147.789,108.236 80.164,92.398 C80.164,92.398 57.29,115.459 31.33,112.575 C5.366,109.689 -3.027,80.732 1.725,75.98 Z"></path>
            </g>
            <path fill="#6E6E96" id="Shape" d="M77.702,91.513 C77.626,94.823 74.886,97.42 71.587,97.31 C68.284,97.203 65.67,94.426 65.744,91.11 C65.817,87.8 68.557,85.201 71.862,85.312 C75.165,85.425 77.779,88.191 77.702,91.513 Z"></path>
            <path fill="#D8D8E6" id="Shape" d="M210.449,24.902 C189.953,-0.718 154.136,-6.127 130.451,12.822 C115.849,24.504 101.439,45.192 97.331,65.344 C109.832,62.377 123.876,70.584 129.992,85.099 C134.554,95.921 133.522,107.448 128.207,115.462 C153.578,123.641 187.613,119.247 204.672,105.599 C228.358,86.653 230.944,50.522 210.449,24.902 Z"></path>
            <path fill="#E0A1CB" id="Shape" d="M192.261,36.631 C177.587,18.289 151.943,14.417 134.985,27.983 C124.531,36.346 114.214,51.158 111.273,65.587 C120.225,67.098 124.721,70.137 129.1,80.53 C132.365,88.278 133.326,89.239 133.38,101.471 C151.542,107.327 175.911,104.179 188.126,94.409 C205.083,80.844 206.937,54.976 192.261,36.631 Z"></path>
            <path fill="#CF94BB" id="Shape" d="M129.61,42.897 C146.088,29.716 171.004,33.479 185.257,51.3 C194.361,62.682 196.907,77.044 193.275,89.372 C205.281,75.098 205.281,52.907 192.261,36.632 C177.587,18.29 151.943,14.418 134.985,27.984 C124.531,36.347 114.214,51.159 111.273,65.588 C111.357,65.602 111.437,65.621 111.521,65.635 C116.091,56.577 122.814,48.332 129.61,42.897 Z"></path>
            <path fill="#F0F0FF" id="Shape" d="M16.924,104.395 C16.924,104.395 23.527,139.637 61.494,139.637 C61.494,139.637 75.762,141.399 75.762,127.198 C75.762,116.63 65.279,120.343 51.647,118.387 C19.109,113.723 14.283,89.415 16.924,104.395 Z"></path>
            <path fill="#D8D8E6" id="Shape" d="M110.589,207.628 C109.677,212.994 105.251,216.719 100.704,215.943 C96.157,215.17 97.162,212.775 98.074,207.409 C98.985,202.043 99.459,195.738 104.008,196.512 C108.554,197.284 111.501,202.262 110.589,207.628 Z"></path>
            <path fill="#D8D8E6" id="Shape" d="M207.845,207.611 C208.697,211.232 207.188,214.685 204.473,215.324 C201.759,215.962 201.178,214.435 200.326,210.812 C199.473,207.193 198.676,202.847 201.389,202.208 C204.102,201.572 206.994,203.99 207.845,207.611 Z"></path>
            <g fill="#6E6E96" transform="translate(113.000000, 2.000000)" opacity="0.15" id="Group">
                <path id="Shape" d="M0.407,67.824 C4.873,70.19 8.939,73.81 12.11,78.431 C11.761,77.394 11.367,76.36 10.9,75.334 C8.87,70.882 5.046,68.685 0.407,67.824 Z M97.449,22.902 C88.47,11.68 75.539,4.096 62.991,0.978 C73.027,4.366 82.108,12.543 89.445,21.019 C109.455,44.135 106.929,76.736 83.804,93.831 C69.079,104.719 41.406,109.072 18.074,104.837 C17.369,108.712 17.248,110.385 15.207,113.463 C40.575,121.643 73.332,119.173 90.393,105.525 C114.078,86.577 117.945,48.521 97.449,22.902 Z"></path>
            </g>
            <g fill="#EFEFFF" transform="translate(97.000000, 0.000000)" opacity="0.82" id="Group">
                <path id="Shape" d="M106.458,22.659 C86.673,-2.961 53.022,-6.447 30.159,12.503 C16.061,24.184 4.935,42.949 0.971,63.102 C3.024,62.598 1.407,62.424 3.5,62.541 C9.533,46.51 20.712,31.35 32.015,21.982 C54.88,3.033 89.456,8.442 109.244,34.062 C113.631,39.742 116.916,45.939 119.135,52.351 C117.599,41.958 113.41,31.659 106.458,22.659 Z"></path>
            </g>
            <path fill="#D8D8E6" id="Shape" d="M214.137,128.788 C216.868,132.381 213.43,152.06 206.456,157.363 C199.479,162.668 191.611,164.054 188.88,160.463 C186.149,156.869 192.548,152.619 199.523,147.317 C206.498,142.012 211.405,125.195 214.137,128.788 Z"></path>
            <path opacity="0.15" fill="#6E6E96" id="Shape" d="M240.037,135.494 C240.038,126.302 237.87,117.694 234.124,110.236 C233.91,119.577 236.802,128.512 233.204,136.765 C232.903,138.242 232.563,139.777 232.146,141.425 C224.63,162.488 201.44,178.667 172.461,182.978 C164.375,185.183 155.792,186.373 146.896,186.373 C124.457,186.373 103.999,178.822 88.54,166.419 C97.848,179.064 102.23,184.876 115.937,192.141 C123.348,194.866 126.07,202.878 126.07,206.348 C126.07,221.661 118.638,225.536 112.929,226.256 C123.117,226.305 133.867,224.329 138.434,221.07 C140.392,214.954 141.624,209.388 142.38,204.42 C148.724,206.212 155.068,207.195 161.221,207.195 C180.726,207.195 197.611,202.134 210.904,193.578 C210.881,193.599 210.854,193.622 210.83,193.642 C210.83,193.642 210.916,193.579 211.065,193.474 C211.539,193.167 212.005,192.861 212.466,192.547 C217.06,189.662 229.62,183.114 227.65,199.275 C227.108,203.73 226.647,207.556 226.326,210.779 C225.992,214.095 221.744,223.025 197.638,223.025 C192.813,223.025 222.475,229.702 229.995,223.736 C234.807,219.92 240.245,230.042 240.245,155.046 C240.245,155.046 240.224,155.094 240.186,155.16 C242.044,148.91 240.037,142.316 240.037,135.494 Z"></path>
            <path opacity="0.15" fill="#6E6E96" id="Shape" d="M72.096,120.442 C73.545,129.511 65.313,131.04 65.313,131.04 C27.316,140.372 16.329,99.861 16.327,99.853 C16.237,100.406 16.471,101.82 16.924,104.395 C16.924,104.395 23.527,139.637 61.494,139.637 C61.494,139.637 75.762,141.399 75.762,127.198 C75.762,123.432 74.426,121.484 72.096,120.442 Z"></path>
        </g>
    </g>
</svg>