<svg xmlns:xlink="http://www.w3.org/1999/xlink" xmlns="http://www.w3.org/2000/svg" version="1.1" viewBox="0 0 233 182" height="182px" width="233px">
    
    <title>鱼</title>
    <desc>Created with Sketch.</desc>
    <defs></defs>
    <g fill-rule="evenodd" fill="none" stroke-width="1" stroke="none" id="Page-1">
        <g fill-rule="nonzero" id="鱼">
            <path fill="#F5CF6E" id="Shape" d="M70.069,146.314 C70.069,146.314 116.902,197.651 132.035,176.47 C147.168,155.286 133.792,131.81 123.743,141.523 C113.697,151.234 104.74,160.429 70.069,146.314 Z"></path>
            <path fill="#FFE95F" id="Shape" d="M81.093,157.297 C81.093,157.297 110.138,166.962 120.782,162.77 C138.836,155.654 134.251,174.079 115.459,172.803 C103.06,171.959 81.093,157.297 81.093,157.297 Z"></path>
            <path fill="#F5CF6E" id="Shape" d="M134.704,24.055 C134.704,24.055 171.591,18.472 193.254,45.417 C209.508,65.64 160.878,95.793 161.497,76.809 C162.029,60.558 181.254,31.203 134.704,24.055 Z"></path>
            <path fill="#FFE95F" id="Shape" d="M146.573,23.405 C146.573,23.405 178.209,26.057 186.081,48.986 C186.081,48.986 187.76,53.553 183.332,63.019 C173.839,83.321 169.184,49.78 146.573,23.405 Z"></path>
            <path fill="#FFE95F" id="Shape" d="M164.67,41.629 C150.735,16.6 120.631,-13.441 70.34,6.935 C61.81,10.391 53.888,17.01 49.378,24.22 C35.331,46.673 -0.916,44.303 0.966,68.157 C1.723,77.757 22.774,81.657 24.874,104.311 C28.258,140.819 79.004,176.972 146.059,152.029 C146.059,152.029 179.187,131.146 186.809,150.766 C194.426,170.383 204.828,197.906 225.135,138.568 C242.892,86.691 224.282,108.547 203.497,110.382 C182.711,112.221 183.809,117.639 174.056,68.92 C174.059,68.922 172.506,55.707 164.67,41.629 Z"></path>
            <path fill="#F5CF6E" id="Shape" d="M232.237,109.659 C214.341,171.992 185.356,158.887 192.984,147.616 C203.885,131.511 200.488,122.352 200.488,122.352 C193.913,117.373 191.759,113.831 191.127,110.4 C184.153,107.848 179.942,98.296 174.061,68.921 C174.061,68.921 172.508,55.705 164.672,41.628 C150.737,16.6 120.631,-13.442 70.34,6.935 C61.81,10.393 53.888,17.01 49.378,24.221 C35.331,46.673 -0.916,44.303 0.967,68.158 C1.723,77.758 22.774,81.658 24.875,104.311 C28.26,140.82 79.006,176.972 146.06,152.029 C146.06,152.029 179.188,131.146 186.81,150.766 C194.427,170.383 204.829,197.906 225.136,138.568 C229.927,124.575 232.067,115.469 232.237,109.659 Z"></path>
            <path fill="#FF99AD" id="Shape" d="M174.059,68.922 C174.059,68.922 172.506,55.707 164.67,41.629 C150.735,16.6 120.631,-13.441 70.34,6.935 C61.81,10.392 53.888,17.009 49.378,24.221 C31.473,52.84 -5.366,35.669 0.966,68.157 C2.805,77.595 22.773,81.658 24.875,104.311 C28.259,140.819 79.005,176.972 146.06,152.029 C146.06,152.029 153.86,147.792 162.965,145.003 C174.407,137.763 186.598,147.564 192.748,139.87 C207.476,122.11 197.221,112.07 194.213,111.098 C185.293,110.129 180.759,102.392 174.059,68.922 Z"></path>
            <path fill="#6E6E96" id="Shape" d="M58.647,52.281 C56.165,54.781 52.917,54.897 51.393,52.54 C49.869,50.186 50.646,46.247 53.131,43.745 C55.615,41.245 58.862,41.127 60.386,43.486 C61.91,45.842 61.132,49.78 58.647,52.281 Z"></path>
            <path fill="#E3AA00" id="Shape" d="M109.624,107.413 C109.094,108.962 107.303,109.778 105.624,109.232 C103.944,108.689 103.013,106.991 103.545,105.441 C104.074,103.894 105.866,103.077 107.545,103.623 C109.223,104.166 110.155,105.865 109.624,107.413 Z"></path>
            <path fill="#E3AA00" id="Shape" d="M94.166,105.519 C93.513,107.426 91.309,108.428 89.243,107.757 C87.175,107.09 86.029,104.999 86.681,103.095 C87.333,101.188 89.539,100.185 91.605,100.855 C93.672,101.523 94.817,103.614 94.166,105.519 Z"></path>
            <path fill="#FFE95F" id="Shape" d="M70.339,6.934 C68.921,7.51 67.521,8.181 66.147,8.918 C89.411,21.777 102.143,40.98 89.142,78.958 C80.468,104.302 57.345,116.895 28.515,118.35 C35.495,134.677 51.693,149.249 74.068,156.116 C93.217,137.927 108.143,114.536 117.207,88.056 C126.788,60.065 140.52,17.583 123.845,4.028 C109.449,-1.274 91.719,-1.728 70.339,6.934 Z M180.708,95.789 C178.568,89.536 176.449,80.877 174.057,68.922 C174.057,68.922 172.506,55.707 164.669,41.629 C160.19,33.584 154.035,25.022 146.081,17.781 C165.722,33.745 157.575,77.385 146.415,109.99 C139.936,128.919 130.1,145.579 118.139,159.187 C127.044,157.949 136.383,155.628 146.06,152.03 C146.06,152.03 153.86,147.793 162.965,145.004 C163.091,144.922 163.217,144.858 163.341,144.781 C167.681,136.622 171.417,128.034 174.48,119.087 C177.115,111.379 179.187,103.592 180.708,95.789 Z"></path>
            <path opacity="0.15" fill="#6E6E96" id="Shape" d="M194.977,131.154 C194.977,131.154 186.432,112.09 152.908,125.894 C150.677,126.813 148.33,127.586 145.9,128.239 C159.07,102.235 158.407,62.696 157.449,46.288 C158.541,81.884 138.974,129.721 138.971,129.727 C116.122,133.463 87.987,127.565 70.442,117.299 C70.447,117.293 100.907,92.798 94.779,44.352 C94.779,44.352 90.771,91.395 60.42,110.867 C55.877,107.144 55.563,104.552 54.304,100.258 C49.158,82.711 40.499,66.562 26.792,66.562 C7.632,71.991 3.153,58.683 3.153,58.683 C2.264,58.849 1.409,59.016 0.56,59.183 C0.058,61.909 0.14,65.254 0.956,69.444 C2.769,78.751 22.458,82.757 24.531,105.094 C27.868,141.091 77.905,176.74 144.023,152.145 C144.023,152.145 151.714,147.967 160.693,145.217 C171.975,138.077 183.996,147.741 190.06,140.155 C192.483,137.231 194.208,134.526 195.408,132.035 C195.144,131.468 194.977,131.154 194.977,131.154 Z M60.42,110.868 L70.436,117.296 C67.792,115.748 62.528,112.594 60.42,110.868 Z M138.973,129.726 L145.739,128.278 C143.545,128.861 141.289,129.348 138.973,129.726 Z M131.916,33.857 C131.916,56.885 105.412,117.185 105.412,117.185 L112.24,119.576 C131.703,87.978 131.916,33.857 131.916,33.857 Z M157.448,46.288 C157.373,43.812 157.192,41.399 156.904,39.063 C156.988,39.924 157.225,42.484 157.448,46.288 Z M156.904,39.064 C156.883,38.853 156.871,38.741 156.871,38.741 C156.884,38.846 156.89,38.958 156.904,39.064 Z"></path>
            <path fill="#FFE95F" id="Shape" d="M126.534,148.635 C119.377,156.972 106.905,158.371 95.599,149.183 C84.292,139.992 88.078,117.375 88.078,117.375 C95.235,109.036 106.408,114.147 117.715,123.338 C129.024,132.531 133.691,140.298 126.534,148.635 Z"></path>
            <path fill="#F5CF6E" id="Shape" d="M118.573,122.335 C113.882,118.522 110.214,117.389 105.823,115.547 C108.535,117.022 110.337,116.97 113.15,119.211 C122.87,126.955 126.88,133.501 120.731,140.526 C114.578,147.551 103.859,148.73 94.141,140.987 C88.824,136.75 87.392,129.129 87.184,123.092 C86.946,130.797 87.938,142.955 95.6,149.183 C107.347,158.729 120.301,157.276 127.738,148.615 C135.169,139.953 130.321,131.885 118.573,122.335 Z"></path>
            <path opacity="0.15" fill="#6E6E96" id="Shape" d="M53.452,99.407 C53.452,99.407 101.13,76.747 89.015,35.41 C89.015,35.41 105.436,83.988 60.419,110.868 L53.452,99.407 Z"></path>
        </g>
    </g>
</svg>