<svg xmlns:xlink="http://www.w3.org/1999/xlink" xmlns="http://www.w3.org/2000/svg" version="1.1" viewBox="0 0 239 219" height="219px" width="239px">
    
    <title>鹰</title>
    <desc>Created with Sketch.</desc>
    <defs></defs>
    <g fill-rule="evenodd" fill="none" stroke-width="1" stroke="none" id="Page-1">
        <g fill-rule="nonzero" transform="translate(-1.000000, 0.000000)" id="鹰">
            <path fill="#DFA000" id="Shape" d="M166.225,216.077 C166.223,216.087 166.225,216.081 166.223,216.092 C166.324,215.604 168.87,204.161 184.674,203.967 C186.042,203.948 187.137,202.826 187.121,201.458 C187.103,200.091 185.98,198.995 184.611,199.012 C164.67,199.258 161.39,214.974 161.359,215.133 C161.099,216.476 161.976,217.777 163.32,218.036 C164.664,218.297 165.964,217.42 166.225,216.077 Z"></path>
            <path fill="#DFA000" id="Shape" d="M173.443,202.877 L167.745,193.475 C167.036,192.304 165.514,191.931 164.343,192.64 C163.173,193.35 162.8,194.873 163.509,196.043 L169.208,205.444 C169.917,206.614 171.439,206.987 172.609,206.278 C173.779,205.569 174.154,204.047 173.443,202.877 Z"></path>
            <path fill="#8383A3" id="Shape" d="M198.912,46.939 C211.428,37.69 211,21.749 179.598,30.002 C127.919,43.584 132.916,42.495 129.828,61.42 C127.796,73.887 142.9,92.934 187.738,79.425 C209.036,79.987 158.71,76.636 198.912,46.939 Z"></path>
            <g transform="translate(44.000000, 21.000000)" id="Group">
                <path fill="#000000" id="Shape" d="M3.124,36.471 C5.597,44.269 17.424,44.023 37.331,35.146 C57.418,26.196 74.62,14.661 72.146,6.86 C69.67,-0.938 52.402,3.214 31.875,10.775 C11.346,18.332 0.65,28.669 3.124,36.471 Z"></path>
                <g opacity="0.43" fill="#FFFFFF" id="Clipped">
                    <g transform="translate(2.000000, 2.000000)" id="Group">
                        <g id="Shape">
                            <path d="M1.124,34.471 C3.597,42.269 15.424,42.023 35.331,33.146 C55.418,24.196 72.62,12.661 70.146,4.86 C67.67,-2.938 50.402,1.214 29.875,8.775 C9.346,16.332 -1.35,26.669 1.124,34.471 Z"></path>
                        </g>
                    </g>
                </g>
            </g>
            <path fill="#8383A3" id="Shape" d="M153.238,37.169 C152.396,37.391 151.573,37.607 150.761,37.819 C148.687,30.443 145.551,23.722 140.136,19.345 C131.07,12.019 110.934,9.423 94.339,7.428 C85.033,4.673 68.06,2.882 48.652,1.574 C19.161,-0.411 1.098,2.716 0.978,8.621 C0.889,13.077 9.57,16.342 26.415,18.07 C21.669,20.502 19.083,23.447 19.76,26.375 C20.509,29.612 25.103,32.164 31.783,33.595 C29.783,35.881 28.975,38.22 29.687,40.4 C31.046,44.553 37.591,47.171 46.508,47.796 C46.995,48.096 47.496,48.398 48.008,48.697 C46.31,51.486 45.843,54.236 46.893,56.691 C49.096,61.841 57.423,64.42 68.076,64.033 C115.952,78.373 75.939,139.529 109.574,115.953 C121.664,107.478 146.965,92.883 159.781,86.544 C160.322,86.563 160.857,86.58 161.38,86.594 C169.229,86.801 167.348,86.474 163.858,84.496 C172.368,80.136 175.63,77.727 166.757,78.933 C161.747,79.613 159.059,76.158 157.274,70.536 C158.961,66.244 163.412,60.857 172.551,54.105 C185.068,44.858 184.641,28.915 153.238,37.169 Z"></path>
            <path fill="#8D8DB0" id="Shape" d="M154.7,60.473 C154.7,50.978 172.956,45.303 172.652,42.697 C172.347,35.186 152.349,43.861 151.646,41.184 C149.073,31.387 144.64,25.198 133.726,17.553 C125.876,12.055 108.451,10.108 94.087,8.61 C86.032,6.543 71.341,5.199 54.544,4.218 C29.016,2.728 13.381,5.075 13.278,9.505 C13.2,12.85 20.715,15.298 35.294,16.597 C31.185,18.422 28.948,20.632 29.533,22.828 C30.181,25.257 34.158,27.172 39.94,28.247 C38.21,29.962 37.509,31.717 38.126,33.351 C39.302,36.467 44.967,38.431 52.687,38.9 C53.108,39.128 53.541,39.352 53.985,39.578 C52.514,41.671 52.111,43.733 53.02,45.577 C54.926,49.44 62.134,51.377 71.355,51.085 C128.058,51.085 82.83,111.992 111.943,94.299 C131.684,82.304 154.7,76.874 154.7,60.473 Z"></path>
            <path fill="#000000" id="Shape" d="M203.188,83.263 C200.119,82.409 194.784,84.354 192.358,87.329 C191.243,88.703 192.149,90.212 191.669,91.911 C191.106,93.921 190.5,96.086 190.95,98.106 C191.403,100.128 192.911,102.005 193.009,103.644 C193.142,105.864 192.064,108.6 193.105,111.151 C193.734,112.692 195.993,113.589 196.753,115.235 C197.169,116.131 195.925,117.958 196.533,118.597 C198.616,120.789 201.512,121.609 203.502,121.534 C203.856,121.092 204.207,120.648 204.565,120.195 C212.026,110.729 228.886,123.757 233.757,120.524 C234.939,102.573 220.064,87.783 203.188,83.263 Z"></path>
            <g fill="#000000" transform="translate(185.000000, 78.000000)" opacity="0.31" id="Group">
                <g id="Shape">
                    <path d="M36.275,10.71 C29.474,5.441 20.683,1.754 11.056,0.037 C7.866,0.709 4.41,2.526 2.482,4.892 C1.138,6.544 2.23,8.363 1.65,10.413 C0.97,12.832 0.243,15.442 0.785,17.879 C1.332,20.314 3.146,22.576 3.265,24.551 C3.426,27.225 2.125,30.523 3.38,33.595 C4.138,35.453 6.859,36.533 7.776,38.517 C8.276,39.594 6.776,41.795 7.508,42.566 C10.02,45.211 13.51,46.198 15.906,46.105 C16.332,45.572 16.758,45.041 17.187,44.494 C17.875,43.624 18.631,42.928 19.437,42.352 C19.478,42.298 19.519,42.248 19.562,42.195 C28.162,31.287 49.254,50.27 50.081,39.785 C50.639,32.688 48.908,26.279 45.486,20.753 C42.952,17.026 39.823,13.648 36.275,10.71 Z"></path>
                </g>
            </g>
            <g fill="#000000" transform="translate(179.000000, 77.000000)" opacity="0.31" id="Group">
                <g id="Shape">
                    <path d="M8.291,0.038 C5.951,1.107 3.794,2.607 2.357,4.37 C0.775,6.315 2.062,8.456 1.378,10.868 C0.576,13.717 -0.278,16.789 0.358,19.654 C1.001,22.521 3.137,25.183 3.278,27.508 C3.466,30.654 1.934,34.535 3.416,38.154 C4.306,40.342 7.509,41.611 8.59,43.95 C9.179,45.217 7.413,47.805 8.277,48.715 C11.006,51.587 14.705,52.785 17.476,52.869 C20.089,49.966 22.747,46.772 25.566,43.195 C34.166,32.285 55.26,51.269 56.086,40.785 C57.926,17.349 34.816,1.408 8.291,0.038 Z"></path>
                </g>
            </g>
            <path fill="#8D8DB0" id="Shape" d="M83.326,173.823 C84.073,183.673 108.609,184.477 126.085,179.489 C126.116,179.528 126.139,179.571 126.176,179.604 C139.846,191.25 140.11,189.989 147.996,194.166 C155.131,197.45 161.75,198.104 167.973,194.759 C178.102,189.303 159.327,159.808 174.819,148.555 C175.487,148.069 176.048,147.609 176.518,147.173 C187.106,140.252 194.889,132.475 204.567,120.195 C213.166,109.287 234.26,128.27 235.086,117.785 C237.638,85.326 192.326,63.398 156.364,82.341 L44.145,147.241 C16.577,162.3 2.575,171.35 6.385,177.684 C6.385,177.684 14.175,189.057 41.764,174.932 C41.763,174.933 38.182,192.023 83.326,173.823 L122.483,155.458"></path>
            <path fill="#F7C663" id="Shape" d="M234.289,113.852 C234.289,113.852 243.448,126.793 236.682,132.708 C235.61,133.645 235.264,134.326 233.247,134.798 C233.247,134.798 234.661,133.823 235.435,131.46 C236.381,128.564 235.581,124.595 227.363,121.239 C227.363,121.239 226.099,120.793 227.162,117.931 C228.283,114.92 232.875,111.656 234.289,113.852 Z"></path>
            <path fill="#6E6E96" id="Shape" d="M209.609,96.014 L215.284,99.164 C216.48,99.829 217.988,99.396 218.652,98.201 C219.316,97.005 218.884,95.497 217.689,94.833 L212.013,91.683 C210.818,91.018 209.31,91.451 208.646,92.646 C207.982,93.842 208.413,95.35 209.609,96.014 Z"></path>
            <path opacity="0.41" fill="#6E6E96" id="Shape" d="M97.745,141.356 C90.312,138.878 44.232,163.157 27.881,170.094 C11.53,177.031 17.703,165.742 17.703,165.742 C17.703,165.742 3.548,170.155 6.384,177.683 C9.22,185.211 40.849,177.233 40.849,177.233 C40.849,177.233 88.078,155.275 97.04,149.926 C106.002,144.577 105.177,143.833 97.745,141.356 Z M197.641,80.816 C194.287,84.184 188.381,96.819 188.381,111.709 C188.381,121.256 182.081,124.433 175.034,128.98 C171.091,131.524 144.585,140.402 141.148,145.16 C139.515,147.419 166.345,138.357 159.956,146.549 C156.268,159.008 161.497,173.351 161.497,173.351 C161.868,178.915 165.383,183.722 160.176,185.457 C149.772,188.926 128.465,171.088 128.465,171.088 C128.465,171.088 119.546,172.573 110.627,172.573 C101.709,172.573 117.216,171.166 124.727,163.655 C131.248,157.134 130.51,154.601 128.385,153.663 C119.881,145.157 99.727,158.7 79.412,168.114 C59.097,177.528 54.96,171.22 54.96,171.22 L42.825,177.062 C50.393,186.945 85.796,173.638 85.796,173.638 L99.818,167.061 L84.252,176.123 C89.092,189.088 126.085,179.492 126.085,179.492 C126.085,179.492 126.766,181.875 141.324,190.845 C155.882,199.815 166.76,195.359 170.582,191.536 C173.6,188.518 170.312,168.588 168.793,160.314 C170.688,150.462 177.803,144.096 184.621,140.911 C194.082,136.49 204.684,117.708 204.684,117.708 C191.941,105.88 197.641,80.816 197.641,80.816 Z"></path>
            <path opacity="0.15" fill="#6E6E96" id="Shape" d="M205.637,81.025 C205.637,81.025 187.264,91.477 210.716,106.671 C226.586,116.953 234.746,100.792 217.322,85.53 C217.322,85.53 232.364,96.621 232.364,110.686 L226.57,119.223 C226.57,119.223 213.689,113.607 205.429,118.232 C205.432,118.233 183.38,88.08 205.637,81.025 Z"></path>
            <path opacity="0.26" fill="#6E6E96" id="Shape" d="M182.9,31.736 C182.9,31.736 197.833,33.009 188.254,46.222 C178.675,59.435 159.948,69.957 174.927,73.615 L161.155,77.405 C161.155,77.405 154.69,72.687 159.582,66.392 C164.474,60.096 187.774,44.781 179.007,38.625 C170.24,32.469 177.446,37.062 177.446,37.062 L167.835,34.874 L182.9,31.736 Z"></path>
        </g>
    </g>
</svg>