<svg xmlns:xlink="http://www.w3.org/1999/xlink" xmlns="http://www.w3.org/2000/svg" version="1.1" viewBox="0 0 187 236" height="236px" width="187px">
    
    <title>猴子</title>
    <desc>Created with Sketch.</desc>
    <defs></defs>
    <g fill-rule="evenodd" fill="none" stroke-width="1" stroke="none" id="Page-1">
        <g fill-rule="nonzero" transform="translate(-9.000000, 0.000000)" id="猴子">
            <path fill="#D4A5A5" id="Shape" d="M140.906,204.15 L132.835,185.703 C132.835,185.703 145.327,170.607 142.426,142.193 C139.53,113.776 153.854,89.98 183.02,102.76 C208.826,114.068 185.338,135.812 185.338,123.636 C185.338,112.155 156.055,105.658 156.055,134.365 C156.055,134.365 159.889,185.167 140.906,204.15 Z"></path>
            <path opacity="0.2" fill="#6E6E96" id="Shape" d="M139.01,188.031 C139.01,188.031 154.031,176.267 149.539,134.359 C149.539,134.359 148.637,108.89 169.045,106.965 C189.452,105.044 189.452,117.896 189.452,117.896 C189.452,117.896 192.383,120.109 192.383,114.737 C192.383,114.737 196.154,127.211 188.033,127.211 C188.033,127.211 182.967,110.912 168.499,114.403 C168.499,114.403 152.533,115.9 156.025,148.329 C156.025,148.329 155.517,189.059 143.812,200.763 L139.01,188.031 Z"></path>
            <path fill="#D4A5A5" id="Shape" d="M121.643,153.334 C106.276,131.15 101.423,126.193 93.652,114.266 C88.019,105.617 86.681,103.695 92.369,100.881 C106.205,94.034 70.067,88.486 70.067,88.486 C58.476,76.898 17.287,111.066 30.855,110.234 C40.432,109.648 45.809,117.707 43.479,120.035 C43.111,120.4 42.849,120.875 42.656,121.426 C41.287,122.522 39.892,123.947 38.475,125.766 C38.475,125.766 26.57,144.537 38.475,165.596 C50.377,186.659 48.088,221.457 48.088,221.457 L63.656,223.746 C63.656,223.746 73.989,207.096 65.794,184.506 C77.109,198.1 99.295,231.92 108.068,233.175 C121.4,235.078 140.22,225.86 140.22,197.469 C140.221,176.166 133.823,170.906 121.643,153.334 Z"></path>
            <path fill="#BA9191" id="Shape" d="M114.775,148.15 C114.775,148.15 132.853,170.853 130.545,194.588 C128.232,218.325 121.055,213.296 121.055,213.296 C121.055,213.296 131.503,222.623 127.438,228.057 C127.438,228.057 150.637,212.078 139.036,184.506 C127.438,156.938 114.775,148.15 114.775,148.15 Z"></path>
            <path fill="#BA9191" id="Shape" d="M40.782,164.29 C40.782,164.29 31.294,138.861 49.869,128.775 C68.447,118.691 88.82,107.048 114.777,148.15 L84.396,102.628 L42.556,111.957 C42.556,111.957 44.687,117.852 38.472,125.766 C32.256,133.675 30.376,153.885 40.782,164.29 Z"></path>
            <path fill="#C29797" id="Shape" d="M67.112,186.809 C67.112,186.809 72.761,207.483 68.015,216.93 L56.238,211.044 C56.238,211.044 67.384,204.147 58.362,180.258 C58.362,180.258 56.871,175.504 58.99,173.716 C59.968,172.893 61.715,170.876 64.73,173.893 C64.73,173.893 68.71,177.872 72.426,181.588 C76.141,185.301 60.61,152.359 68.375,140.522 C68.375,140.522 83.838,188.225 81.185,204.676"></path>
            <path fill="#BA9191" id="Shape" d="M115.034,209.729 C115.034,209.729 118.788,172.255 109.613,153.631 C109.613,153.631 118.411,187.678 97.938,215.549 C97.94,215.549 108.536,208.932 115.034,209.729 Z"></path>
            <path fill="#D4A5A5" id="Shape" d="M73.886,134.689 C87.611,120.96 111.734,140.179 111.734,172.002 C111.734,201.769 100.742,211.837 100.742,211.837 C100.742,235.648 85.175,234.275 85.175,234.275 L79.682,217.793 C85.175,183.455 74.012,159.497 74.012,159.497 C74.012,159.497 66.806,141.77 73.886,134.689 Z"></path>
            <path fill="#C29797" id="Shape" d="M83.681,191.964 C83.681,191.964 83.656,200.786 92.504,200.786 C101.352,200.786 115.707,145.652 82.525,132.971 C82.525,132.971 113.274,132.143 111.733,172.005 C110.19,211.872 97.941,215.549 97.941,215.549 C97.941,215.549 91.674,209.459 81.744,212.504 L83.681,191.964 Z"></path>
            <path fill="#D4A5A5" id="Shape" d="M65.534,217.875 C67.545,223.135 62.963,229.068 55.298,231.135 C47.632,233.196 39.733,232.923 37.721,227.662 C35.712,222.402 40.353,214.141 48.014,212.08 C55.681,210.02 63.521,212.615 65.534,217.875 Z"></path>
            <path fill="#D4A5A5" id="Shape" d="M100.514,219.159 C102.546,225.502 101.167,230.546 92.834,233.221 C84.503,235.887 72.372,235.176 70.342,228.831 C68.305,222.49 73.413,215.178 81.743,212.504 C90.079,209.832 98.483,212.809 100.514,219.159 Z"></path>
            <path fill="#C29797" id="Shape" d="M74.76,220.24 C74.76,220.24 72.339,227.144 83.659,225.371 C94.985,223.603 95.411,215.549 95.411,215.549 C95.411,215.549 110.146,225.848 92.834,233.217 C75.523,240.589 66.287,229.469 74.76,220.24 Z"></path>
            <path fill="#C29797" id="Shape" d="M43.242,217.869 C43.242,217.869 38.369,226.435 48.631,225.019 C58.892,223.605 58.892,215.052 58.892,215.052 C58.892,215.052 68.965,213.019 60.662,225.99 C54.043,234.174 28.732,232.374 43.242,217.869 Z"></path>
            <ellipse ry="10.8389462" rx="12.6219374" cy="224.183815" cx="111.61993" transform="translate(111.619930, 224.183815) rotate(152.276684) translate(-111.619930, -224.183815)" fill="#D4A5A5" id="Oval"></ellipse>
            <path fill="#D4A5A5" id="Shape" d="M50.416,201.271 L50.416,219.124 C50.416,219.124 61.87,224.384 61.87,197.891 L50.416,201.271 Z"></path>
            <path fill="#D4A5A5" id="Shape" d="M83.659,191.582 L82.885,219.788 L94.536,217.521 C94.536,217.521 103.499,199.021 102.749,177.978 C101.999,156.935 83.659,191.582 83.659,191.582 Z"></path>
            <path fill="#BA9191" id="Shape" d="M103.5,220 C103.5,220 101.091,229.529 110.066,226.566 C119.045,223.603 119.748,214.548 116.439,214.326 C113.127,214.097 130.672,211.976 124.73,225.702 C118.79,239.43 91.401,239.021 103.5,220 Z"></path>
            <path fill="#D4A5A5" id="Shape" d="M103.5,220 C103.5,220 114.643,207.246 115.753,196.135 L124.861,212.897 C124.861,212.896 111.568,236.109 103.5,220 Z"></path>
            <path fill="#BA9191" id="Shape" d="M126.379,211.159 C126.379,211.159 123.087,216.256 115.549,223.794 L120.168,229.107 C120.168,229.107 130.205,225.929 133.359,216.982 L126.379,211.159 Z"></path>
            <path fill="#C29797" id="Shape" d="M61.025,208.63 L58.887,215.19 C58.887,215.19 58.288,220.37 55.077,222.487 C55.077,222.487 62.365,223.772 63.163,221.551 C63.961,219.329 65.913,207.944 65.913,207.944 L61.025,208.63 Z"></path>
            <ellipse ry="23.6243211" rx="22.3612504" cy="40.1393068" cx="32.7731456" transform="translate(32.773146, 40.139307) rotate(137.719374) translate(-32.773146, -40.139307)" fill="#D4A5A5" id="Oval"></ellipse>
            <path fill="#D4A5A5" id="Shape" d="M132.023,82.09 C118.806,116.245 104.568,128.617 62.807,123.858 C-11.541,115.389 14.672,77.608 16.784,65.432 C20.035,46.71 17.792,43.691 18.355,41.421 C29.117,-1.986 66.03,-3.755 97.097,5.371 C129.791,14.977 144.611,49.57 132.023,82.09 Z"></path>
            <path fill="#F7DDCB" id="Shape" d="M47.316,121.752 C87.228,127.547 112.502,105.085 106.093,78.164 C101.729,59.81 118.952,45.534 108.332,31.304 C89.3,11.302 73.997,28.467 58.609,18.758 C39.318,2.516 30.99,13.783 27.566,16.698 C14.44,38.442 20.743,46 16.248,62.897 C8.563,91.798 2.29,110.582 47.316,121.752"></path>
            <ellipse ry="5.53988324" rx="4.04891467" cy="50.2754383" cx="39.9433039" transform="translate(39.943304, 50.275438) rotate(-171.737818) translate(-39.943304, -50.275438)" fill="#6E6E96" id="Oval"></ellipse>
            <ellipse ry="5.75287875" rx="4.04891467" cy="54.4637845" cx="57.5134475" transform="translate(57.513447, 54.463784) rotate(-171.737818) translate(-57.513447, -54.463784)" fill="#6E6E96" id="Oval"></ellipse>
            <path opacity="0.15" fill="#D4A5A5" id="Shape" d="M112.956,52.189 C120.91,16.632 81.077,20.025 81.077,20.025 C110.019,24.229 101.511,36.894 95.496,78.312 C93.102,94.789 83.427,107.246 45.488,105.111 C50.128,103.427 54.5,94.687 51.189,85.512 L26.709,82.009 C26.709,82.009 17.626,88.187 24.477,97.368 C9.758,83.032 20.43,53.961 20.43,53.961 C-4.647,109.395 24.578,110.672 41.144,119.381 C57.71,128.087 88.775,119.996 102.466,105.211 C116.153,90.423 105.003,87.747 112.956,52.189 Z"></path>
            <path fill="#A1A1C9" id="Shape" d="M51.205,90.237 C49.599,95.703 43.053,98.593 36.583,96.692 C30.113,94.792 28.591,89.29 28.583,83.591 C28.575,77.652 35.69,75.805 42.159,77.707 C48.631,79.607 52.811,84.772 51.205,90.237 Z"></path>
            <ellipse ry="2.66898212" rx="4.02597303" cy="83.896519" cx="38.072327" transform="translate(38.072327, 83.896519) rotate(-171.732148) translate(-38.072327, -83.896519)" fill="#BCBCEB" id="Oval"></ellipse>
            <path opacity="0.15" fill="#6E6E96" id="Shape" d="M102.33,107.469 C102.33,107.469 146.251,66.745 125.361,29 C125.361,29 161.386,81.08 101.84,120.438 C101.84,120.438 79.098,125.33 62.067,123.205 C61.243,123.102 60.433,122.981 59.639,122.849 C42.434,119.877 88.657,126.021 102.33,107.469 Z"></path>
            <path fill="#D4A5A5" id="Shape" d="M148.223,73.608 C147.446,87.201 136.319,97.983 123.37,97.692 C110.418,97.4 105.331,86.806 106.103,73.212 C106.876,59.619 113.22,48.176 126.167,48.467 C139.122,48.757 148.994,60.015 148.223,73.608 Z"></path>
            <path opacity="0.51" fill="#B88686" id="Shape" d="M137.846,73.731 C137.321,82.922 129.799,90.212 121.042,90.016 C112.286,89.817 108.848,82.655 109.37,73.464 C109.892,64.273 114.183,56.535 122.935,56.733 C131.693,56.929 138.368,64.54 137.846,73.731 Z"></path>
        </g>
    </g>
</svg>