<svg xmlns:xlink="http://www.w3.org/1999/xlink" xmlns="http://www.w3.org/2000/svg" version="1.1" viewBox="0 0 242 218" height="218px" width="242px">
    
    <title>章鱼</title>
    <desc>Created with Sketch.</desc>
    <defs></defs>
    <g fill-rule="evenodd" fill="none" stroke-width="1" stroke="none" id="Page-1">
        <g fill-rule="nonzero" id="章鱼">
            <path fill="#FFA6CC" id="Shape" d="M175.99,167.138 C211.676,162.89 237.868,180.637 211.676,185.405 C211.676,185.405 202.966,191.991 218.262,191.991 C239.714,191.991 276.249,144.624 161.974,139.527"></path>
            <path fill="#F28CB7" id="Shape" d="M189.796,155.575 C189.796,155.575 176.075,151.733 165.561,154.164 L175.991,167.14 C211.677,162.892 237.869,180.639 211.677,185.407 C221.661,185.407 237.975,180.483 226.544,169.053 C215.113,157.621 189.796,155.575 189.796,155.575 Z"></path>
            <path fill="#FFA6CC" id="Shape" d="M84.92,85.089 C84.92,85.089 66.387,70.705 78.707,41.818 C91.498,11.824 68.467,0.016 51.519,4.859 C30.221,10.943 38.266,32.367 39.774,35.64 C42.934,42.494 54.906,45.524 56.73,40.293 C59.279,32.995 51.085,41.085 49.071,34.36 C46.911,27.158 49.481,21.651 59.591,21.427 C63.526,21.34 68.882,26.827 63.753,47.767 C57.686,72.534 44.734,107.819 76.741,122.534 C76.741,122.533 86.886,119.016 84.92,85.089 Z"></path>
            <path fill="#F28CB7" id="Shape" d="M66.074,57.09 C76.643,20.9 73.56,20.963 68.116,15.52 C62.672,10.075 42.174,7.89 42.174,27.425 C42.174,38.859 46.412,42.061 49.925,42.753 C50.358,42.829 50.78,42.882 51.196,42.91 C53.1,43.002 54.548,42.478 54.548,42.478 C55.583,42.058 56.364,41.346 56.732,40.293 C59.281,32.995 51.087,41.085 49.073,34.36 C46.913,27.158 49.483,21.651 59.593,21.427 C63.528,21.34 68.884,26.827 63.755,47.767 C57.688,72.534 44.736,107.819 76.743,122.534 C76.743,122.534 83.413,120.219 84.889,101.253 C71.135,110.159 58.205,84.038 66.074,57.09 Z"></path>
            <path fill="#F28CB7" id="Shape" d="M59.594,173.367 C24.333,176.344 28.88,125.385 39.198,101.717 C47.071,83.662 29.534,89.292 29.534,89.292 C5.426,100.23 24.755,121.896 24.755,134.855 C24.755,140.562 17.957,136.553 17.957,136.553 C-6.256,122.108 -9.868,61.36 41.747,61.36 C80.556,61.36 72.652,98 56.192,114.463 C47.037,123.616 69.463,133.537 76.74,120.495 C80.748,113.311 85.485,99.365 82.954,79.627 C76.168,26.703 111.81,8.283 118.194,5.063 C112.323,8.851 167.293,-17.882 197.23,27.8 C233.887,83.74 165.882,99.419 171.706,123.295 C187.885,189.654 93.577,168.415 64.265,165.441"></path>
            <path fill="#FFA6CC" id="Shape" d="M58.417,112.055 C58.417,112.055 58.416,112.055 58.417,112.055 C58.417,112.056 58.417,112.055 58.417,112.055 Z M90.715,93.798 C90.715,93.798 86.765,131.061 62.158,126.353 C45.355,123.137 54.433,114.24 64.224,97.067 C63.714,101.757 61.89,106.835 58.416,112.056 C73.285,94.688 78.762,61.36 41.748,61.36 C-9.867,61.36 -6.255,122.109 17.959,136.552 C17.959,136.552 19.798,137.634 21.563,137.871 C20.879,135.984 20.627,134.852 21.056,134.852 C21.056,134.852 -12.547,96.431 25.017,76.104 C32.525,72.041 40.002,71.123 46.395,72.518 C46.395,72.518 63.93,77.97 51.44,101.51 C38.949,125.049 43.679,157.665 84.07,137.754 C84.069,137.757 99.182,123.073 90.715,93.798 Z"></path>
            <path fill="#FFA6CC" id="Shape" d="M158.784,135.064 C158.784,147.995 178.964,167.138 178.964,167.138 C216.774,204.948 164.426,222.225 151.352,216.839 C144.128,213.867 151.352,210.893 151.352,210.893 C182.099,206.578 172.157,184.414 146.252,178.608 C121.613,173.087 126.711,148.872 126.711,148.872 C126.711,148.872 125.861,136.128 140.306,130.18 C154.748,124.232 158.784,129.865 158.784,135.064 Z"></path>
            <ellipse ry="5.16911785" rx="7.17016347" cy="26.311558" cx="127.45073" transform="translate(127.450730, 26.311558) rotate(164.835332) translate(-127.450730, -26.311558)" fill="#C71870" id="Oval"></ellipse>
            <ellipse ry="2.75099077" rx="3.8149872" cy="52.2633803" cx="155.540583" transform="translate(155.540583, 52.263380) rotate(164.840862) translate(-155.540583, -52.263380)" fill="#C71870" id="Oval"></ellipse>
            <path fill="#FFA6CC" id="Shape" d="M194.481,58.54 C194.481,87.398 168.568,94.068 146.459,110.792 C126.873,125.605 149.461,150.645 120.527,164.088 C117.207,165.631 81.73,166.11 72.247,150.645 C68.229,144.091 91.383,147.55 91.383,109.415 C91.383,89.618 87.362,70.903 89.924,58.542 C95.744,30.458 115.134,6.392 141.656,6.392 C168.176,6.389 194.481,29.681 194.481,58.54 Z"></path>
            <ellipse ry="5.67099243" rx="8.14998912" cy="61.1660098" cx="123.300478" transform="translate(123.300478, 61.166010) rotate(-75.977653) translate(-123.300478, -61.166010)" fill="#6E6E96" id="Oval"></ellipse>
            <path fill="#F28CB7" id="Shape" d="M166.723,210.893 C177.008,206.578 187.529,184.414 161.623,178.608 C136.985,173.087 142.083,148.872 142.083,148.872 C142.083,148.872 141.234,136.128 155.678,130.18 C156.063,130.022 156.437,129.875 156.808,129.733 C154.377,127.287 149.412,126.43 140.305,130.18 C125.862,136.128 126.71,148.872 126.71,148.872 C126.71,148.872 121.612,173.087 146.251,178.608 C172.154,184.414 182.098,206.578 151.351,210.893 C151.351,210.893 144.127,213.87 151.351,216.839 C154.599,218.178 160.269,218.114 166.378,216.69 C159.755,213.769 166.723,210.893 166.723,210.893 Z"></path>
            <path fill="#FFA6CC" id="Shape" d="M99.585,142.135 C99.585,142.135 87.458,138.998 73.561,146.891 C48.968,160.851 55.791,194.688 83.82,204.698 C106.033,212.63 136.105,190.941 125.955,165.467 C123.298,158.796 117.883,148.143 108.847,145.141 C108.847,145.141 94.831,138.134 83.822,149.146 C83.822,149.146 78.818,154.65 92.831,154.65 C106.844,154.65 112.352,179.173 101.339,183.679 C90.328,188.183 84.321,166.16 106.844,166.16"></path>
            <path fill="#F28CB7" id="Shape" d="M100.095,141.714 C105.16,142.028 108.844,144.178 108.844,144.178 C117.88,150.277 123.295,158.794 125.952,165.465 C136.102,190.941 106.03,212.628 83.817,204.696 C65.294,198.081 55.875,182.285 58.837,167.49 C58.837,167.505 56.897,177.984 63.822,186.081 C70.756,194.183 80.915,209.072 103.336,197.112 C136.171,177.292 104.074,132.396 83.69,152.783 C83.69,152.783 82.337,141.714 100.095,141.714 Z"></path>
            <path fill="#F28CB7" id="Shape" d="M85.091,156.179 C85.091,156.179 69.718,165.786 75.963,179.239 C82.066,192.382 108.478,193.347 107.153,172 C107.383,177.172 105.608,181.936 101.336,183.683 C91.357,187.767 85.488,170.054 101.249,166.704 C96.25,153.844 85.091,156.179 85.091,156.179 Z M107.029,170.466 L107.027,170.464 C107.03,170.486 107.032,170.511 107.035,170.531 C107.031,170.51 107.031,170.488 107.029,170.466 Z"></path>
            <path fill="#F28CB7" id="Shape" d="M143.46,164.258 C143.46,164.258 136.026,154.037 167.981,159.546 L141.884,150.146 C141.885,150.144 139.615,157.832 143.46,164.258 Z"></path>
            <path fill="#F28CB7" id="Shape" d="M116.934,108.201 C116.934,108.201 105.715,132.057 112.955,148.087 C119.61,162.819 132.626,153.874 132.626,153.874 C132.626,153.874 135.735,112.586 116.934,108.201 Z"></path>
            <path fill="#F28CB7" id="Shape" d="M212.613,149.131 C212.613,149.131 208.064,157.416 216.121,162.191 L201.586,157.486 L212.613,149.131 Z"></path>
            <circle r="7.232" cy="26.129" cx="159.085" fill="#F28CB7" id="Oval"></circle>
            <circle r="2.841" cy="21.013" cx="125.534" fill="#F28CB7" id="Oval"></circle>
            <circle r="3.1" cy="41.627" cx="139.455" fill="#F28CB7" id="Oval"></circle>
            <circle r="11.623" cy="42.918" cx="187.529" fill="#F28CB7" id="Oval"></circle>
            <ellipse ry="5.087" rx="5.574" cy="35.388" cx="100.085" fill="#F28CB7" id="Oval"></ellipse>
            <ellipse ry="6.00612075" rx="8.63117352" cy="68.4226632" cx="145.358633" transform="translate(145.358633, 68.422663) rotate(-66.359796) translate(-145.358633, -68.422663)" fill="#6E6E96" id="Oval"></ellipse>
            <path fill="#FFA6CC" id="Shape" d="M134.358,143.347 C134.358,143.347 199.779,183.704 218.471,134.426 C218.471,134.426 224.418,121.257 214.223,100.442 C204.03,79.626 222.719,69.004 229.091,79.626 C235.464,90.248 235.675,64.121 217.62,59.235 C199.565,54.35 193.829,83.876 199.565,104.267 C205.3,124.658 169.618,128.48 159.846,105.115 C150.074,81.752 122.462,94.495 119.276,108.727 C116.092,122.959 119.911,134.85 134.358,143.347 Z"></path>
            <path fill="#F28CB7" id="Shape" d="M231.805,72.89 C229.577,68.702 226.284,65.857 221.446,65.857 C190.621,65.857 209.29,110.453 209.797,114.658 C216.218,167.982 141.755,141.864 133.589,123.609 C117.255,103.912 133.14,95.162 132.358,95.78 C131.045,97.64 119.732,106.706 119.281,108.725 C116.093,122.957 119.914,134.85 134.361,143.347 C134.361,143.347 199.782,183.704 218.474,134.426 C218.474,134.426 224.421,121.257 214.226,100.442 C204.033,79.626 222.723,69.004 229.094,79.626 C232.694,85.628 234.323,79.894 231.805,72.89 Z"></path>
            <circle r="8.086" cy="127.852" cx="142.155" fill="#F28CB7" id="Oval"></circle>
            <circle r="5.285" cy="143.787" cx="170.098" fill="#F28CB7" id="Oval"></circle>
            <circle r="2.882" cy="132.257" cx="191.236" fill="#F28CB7" id="Oval"></circle>
            <circle r="1.682" cy="125.771" cx="158.81" fill="#F28CB7" id="Oval"></circle>
            <circle r="6.486" cy="143.306" cx="54.801" fill="#FFA6CC" id="Oval"></circle>
            <circle r="3.603" cy="164.326" cx="218.258" fill="#F28CB7" id="Oval"></circle>
            <circle r="4.324" cy="172.612" cx="167.216" fill="#F28CB7" id="Oval"></circle>
            <circle r="1.682" cy="167.087" cx="233.273" fill="#F28CB7" id="Oval"></circle>
            <circle r="7.056" cy="175.824" cx="78.191" fill="#FFA6CC" id="Oval"></circle>
            <circle r="4.587" cy="195.453" cx="106.948" fill="#F28CB7" id="Oval"></circle>
            <circle r="2.242" cy="79.093" cx="60.406" fill="#F28CB7" id="Oval"></circle>
            <circle r="6.726" cy="72.686" cx="33.276" fill="#FFA6CC" id="Oval"></circle>
            <circle r="6.986" cy="145.969" cx="188.775" fill="#FFA6CC" id="Oval"></circle>
            <circle r="5.959" cy="121.723" cx="209.366" fill="#FFA6CC" id="Oval"></circle>
            <circle r="5.55" cy="165.772" cx="144.64" fill="#FFA6CC" id="Oval"></circle>
        </g>
    </g>
</svg>