<svg xmlns:xlink="http://www.w3.org/1999/xlink" xmlns="http://www.w3.org/2000/svg" version="1.1" viewBox="0 0 171 234" height="234px" width="171px">
    
    <title>企鹅</title>
    <desc>Created with Sketch.</desc>
    <defs></defs>
    <g fill-rule="evenodd" fill="none" stroke-width="1" stroke="none" id="Page-1">
        <g fill-rule="nonzero" id="企鹅">
            <path fill="#FFE38F" id="Shape" d="M110.143,210.153 C98.026,208.13 86.981,207.936 79.656,209.28 C74.333,209.117 68.342,209.362 62.036,210.085 C41.029,212.489 24.553,219.233 25.229,225.14 C25.906,231.047 43.481,233.89 64.486,231.482 C73.192,230.484 81.114,228.743 87.368,226.624 C92.893,228.54 99.468,230.209 106.596,231.398 C127.449,234.88 145.146,232.947 146.127,227.082 C147.105,221.214 130.995,213.636 110.143,210.153 Z"></path>
            <path fill="#9595AB" id="Shape" d="M22.634,74.106 C22.634,74.106 -6.432,107.838 1.841,158.212 C1.841,158.212 11.562,185.905 14.153,140.433 C16.743,94.958 22.634,94.107 22.634,74.106 Z"></path>
            <path fill="#9595AB" id="Shape" d="M148.368,74.106 C148.368,74.106 177.431,107.84 169.16,158.212 C169.16,158.212 159.442,185.905 156.848,140.433 C154.259,94.958 148.368,94.107 148.368,74.106 Z"></path>
            <path fill="#9595AB" id="Shape" d="M139.246,49.466 C148.573,73.646 160.121,100.657 160.121,127.732 C160.121,188.537 131.586,220.554 86.046,220.554 C40.502,220.554 11.971,185.656 11.971,124.855 C11.971,98.455 20.159,71.511 31.936,49.475 C47.277,20.758 49.956,0.373 86.044,0.373 C114.936,0.373 127.074,17.911 139.246,49.466 Z"></path>
            <path fill="#A9A9BA" id="Shape" d="M128.901,45.371 C136.755,65.729 146.476,88.473 146.476,111.268 C146.476,162.461 122.453,189.423 84.108,189.423 C45.761,189.423 21.738,160.037 21.738,108.845 C21.738,86.616 28.634,63.929 38.548,45.375 C51.465,21.199 53.719,4.034 84.106,4.034 C108.431,4.034 118.65,18.802 128.901,45.371 Z"></path>
            <g fill="#6E6E96" transform="translate(58.000000, 41.000000)" opacity="0.59" id="Group">
                <g id="Shape">
                    <path d="M53.812,3.917 C53.812,9.328 49.732,9.582 43.402,13.034 C38.899,15.486 33.258,21.331 27.134,21.331 C21.632,21.331 16.518,15.441 12.272,13.034 C5.147,8.994 0.461,8.208 0.461,3.917 C0.461,3.917 12.402,0.985 27.134,0.985 C41.868,0.985 53.812,3.917 53.812,3.917 Z"></path>
                </g>
            </g>
            <path fill="#F0F0FF" id="Shape" d="M146.761,142.937 C146.761,189.141 123.198,213.47 85.594,213.47 C47.988,213.47 24.429,186.952 24.429,140.75 C24.429,94.547 60.295,65.843 85.594,65.843 C110.895,65.843 146.761,96.736 146.761,142.937 Z"></path>
            <ellipse ry="4.783" rx="3.806" cy="19.002" cx="73.987" fill="#6E6E96" id="Oval"></ellipse>
            <ellipse ry="5.105" rx="4.063" cy="19.324" cx="97.768" fill="#6E6E96" id="Oval"></ellipse>
            <path fill="#FFE38F" id="Shape" d="M113.008,41.678 C113.008,40.505 109.162,40.882 103.118,38.195 C98.284,36.049 92.047,30.623 85.232,30.623 C77.565,30.623 70.623,35.974 65.594,38.201 C60.569,40.428 57.46,39.531 57.46,41.679 C57.46,45.083 62.34,45.707 69.756,48.913 C74.179,50.822 79.504,54.092 85.232,54.092 C91.605,54.092 97.478,50.859 102.166,48.913 C108.739,46.182 112.979,45.971 113.004,41.713 C113.006,41.7 113.008,41.689 113.008,41.678 Z"></path>
            <path fill="#FFFFFF" id="Shape" d="M131.973,132.733 C131.973,170.141 112.896,189.84 82.448,189.84 C51.999,189.84 32.925,168.37 32.925,130.963 C32.925,93.557 61.965,70.315 82.448,70.315 C102.933,70.315 131.973,95.327 131.973,132.733 Z"></path>
            <g fill="#6E6E96" transform="translate(59.000000, 42.000000)" opacity="0.15" id="Group">
                <path id="Shape" d="M0.288,0.449 L52.541,0.449 C52.541,0.449 35.924,12.09 26.232,12.09 C16.545,12.09 -1.526,3.252 0.288,0.449 Z"></path>
            </g>
            <path opacity="0.68" fill="#FFC58F" id="Shape" d="M125.446,213.666 C130.284,216.423 133.081,219.424 132.71,222.052 C131.947,227.436 118.189,229.21 101.979,226.014 C96.438,224.922 91.328,223.389 87.032,221.63 C82.171,223.576 76.011,225.174 69.244,226.091 C52.915,228.302 39.252,225.693 38.726,220.269 C38.503,217.979 40.668,215.551 44.466,213.345 C32.59,216.521 24.759,221.033 25.23,225.14 C25.907,231.047 43.482,233.89 64.487,231.482 C73.193,230.484 81.115,228.743 87.369,226.624 C92.894,228.54 99.469,230.209 106.597,231.398 C127.45,234.88 145.147,232.947 146.128,227.082 C146.846,222.765 138.31,217.522 125.446,213.666 Z"></path>
        </g>
    </g>
</svg>