<svg xmlns:xlink="http://www.w3.org/1999/xlink" xmlns="http://www.w3.org/2000/svg" version="1.1" viewBox="0 0 117 240" height="240px" width="117px">
    
    <title>海马</title>
    <desc>Created with Sketch.</desc>
    <defs></defs>
    <g fill-rule="evenodd" fill="none" stroke-width="1" stroke="none" id="Page-1">
        <g fill-rule="nonzero" id="海马">
            <path fill="#CF6629" id="Shape" d="M78.528,25.882 C78.528,25.882 87.598,0.906 62.596,0.906 C62.596,0.906 46.112,2.049 42.706,12.845 C42.706,12.845 37.632,7.511 29.707,11.497 C26.302,13.21 22.854,15.956 21.681,23.072 C21.681,23.072 3.135,31.18 11.453,47.507 C11.453,47.507 -1.269,61.59 17.594,75.289 C17.595,75.292 25.138,23.005 78.528,25.882 Z"></path>
            <path fill="#CF6629" id="Shape" d="M21.301,105.976 C21.301,105.976 -8.496,105.976 6.402,120.873 C6.402,120.873 -6.037,128.766 6.402,135.018 C3.403,140.081 2.013,155.076 18.873,147.487 C18.873,147.487 30.626,138.976 36.099,141.81 C41.57,144.64 35.124,113.302 21.301,105.976 Z"></path>
            <path fill="#8F0000" id="Shape" d="M21.444,107.52 C21.444,107.52 31.411,133.7 31.411,141.44 C31.411,141.44 34.503,140.746 35.765,142.005 C37.942,144.184 21.444,107.52 21.444,107.52 Z"></path>
            <path opacity="0.52" fill="#E38E5D" id="Shape" d="M12.511,70.828 C10.671,62.582 16.327,56.307 16.327,56.307 C8.01,39.979 26.556,31.872 26.556,31.872 C23.845,24.755 25.191,19.734 30.45,16.166 C37.792,11.186 47.58,21.645 47.58,21.645 C47.58,6.178 64.41,6.645 64.41,6.645 C77.307,6.645 77.205,11.055 79.878,13.112 C78.939,6.964 74.896,0.907 62.582,0.907 C62.582,0.907 46.1,2.05 42.694,12.846 C42.694,12.846 37.619,7.512 29.694,11.498 C26.289,13.211 22.841,15.957 21.669,23.073 C21.669,23.073 3.123,31.181 11.441,47.509 C11.44,47.51 1.354,58.696 12.511,70.828 Z"></path>
            <g fill="#E38E5D" transform="translate(0.000000, 105.000000)" opacity="0.52" id="Group">
                <g id="Shape">
                    <path d="M35.972,36.753 C36.013,36.774 36.058,36.788 36.099,36.812 C36.72,37.132 37.18,36.994 37.501,36.52 C36.991,36.594 36.482,36.67 35.972,36.753 Z M29.224,30.019 C-1.468,30.019 18.547,15.874 18.547,15.874 C9.949,7.276 16.235,3.641 23.092,2.103 C22.508,1.689 21.914,1.301 21.3,0.976 C21.3,0.976 -8.497,0.976 6.402,15.872 C6.402,15.872 -6.036,23.766 6.402,30.018 C3.403,35.081 2.014,50.076 18.873,42.487 C18.873,42.487 20.898,41.022 23.658,39.51 C23.374,39.587 23.213,39.635 23.213,39.635 C6.352,47.225 23.34,30.019 29.224,30.019 Z"></path>
                </g>
            </g>
            <path fill="#8F0000" id="Shape" d="M12.511,70.828 C12.511,70.828 11.643,33.816 47.581,21.644 L14.959,73.219 L12.511,70.828 Z"></path>
            <path fill="#FFBF00" id="Shape" d="M72.257,23.074 C72.257,23.074 40.616,9.804 22.432,43.331 C4.248,76.858 22.251,108.879 27.366,121.38 C32.48,133.881 43.277,146.383 29.639,167.407 C16.001,188.433 26.798,239.859 67.429,239.859 C108.058,239.859 99.533,196.957 83.623,192.411 C67.712,187.865 57.769,200.082 64.304,206.617 C70.837,213.152 75.667,197.525 82.488,210.596 C89.306,223.664 60.325,237.871 50.666,210.029 C41.005,182.184 79.843,149.7 79.843,149.7 C79.843,149.7 105.786,127.632 86.465,100.357 C67.145,73.08 60.893,71.375 80.781,71.375 C100.669,71.375 116.01,72.512 116.01,65.693 C116.01,58.874 104.076,57.737 101.236,57.737 C98.396,57.737 85.326,56.786 85.326,46.939 C85.326,40.122 87.03,27.052 72.257,23.074 Z"></path>
            <path opacity="0.34" fill="#FFFF8A" id="Shape" d="M45.941,170.543 C58.304,150.429 48.516,138.467 43.88,126.506 C39.244,114.545 17.949,78.936 34.433,46.86 C49.161,18.204 78.641,24.794 82.681,37.391 C84.193,33.514 78.642,24.793 72.256,23.075 C72.256,23.075 40.615,9.805 22.431,43.331 C4.247,76.858 22.249,108.878 27.364,121.38 C32.478,133.881 43.276,146.383 29.637,167.408 C16,188.434 26.797,239.859 67.426,239.859 C69.888,239.859 72.161,239.699 74.271,239.402 C23.528,234.436 34.27,189.533 45.941,170.543 Z"></path>
            <path fill="#F0F0FF" id="Shape" d="M69.11,72.841 C59.264,79.929 53.428,98.212 53.428,116.397 C53.428,134.683 60.108,150.645 70.045,159.247 C75.48,153.351 79.839,149.7 79.839,149.7 C79.839,149.7 105.782,127.632 86.461,100.357 C78.199,88.692 69.11,78.478 69.11,72.841 Z"></path>
            <ellipse ry="5.102" rx="3.977" cy="39.739" cx="65.62" fill="#6E6E96" id="Oval"></ellipse>
            <g fill="#6E6E96" transform="translate(30.000000, 60.000000)" opacity="0.15" id="Group">
                <g id="Shape">
                    <path d="M34.701,174.621 C19.137,174.621 7.955,167.069 0.843,156.576 C7.64,169.465 19.722,179.366 37.549,179.366 C70.961,179.366 71.129,150.356 61.287,137.521 C67.845,151.624 64.448,174.621 34.701,174.621 Z M83.28,0.332 C83.28,0.373 83.286,0.411 83.286,0.453 C83.286,7.272 67.944,6.137 48.056,6.137 C41.046,6.137 31.578,6.568 27.652,11.143 C27.652,11.143 -6.772,44.976 33.31,100.03 C22.648,111.91 7.701,130.48 13.897,148.339 C18.566,161.796 28.94,166.624 36.413,165.315 C30.417,164.257 24.314,159.703 20.788,149.535 C14.427,131.204 29.086,110.866 39.847,99.105 L40.482,99.015 L40.454,98.451 C40.359,98.554 40.269,98.649 40.173,98.753 C45.608,92.857 49.968,89.208 49.968,89.208 C49.968,89.208 75.911,67.139 56.59,39.863 C46.81,26.056 40.388,18.806 39.004,15.008 C38.978,14.932 38.95,14.859 38.929,14.784 C38.88,14.639 38.841,14.498 38.81,14.364 C38.793,14.29 38.784,14.219 38.769,14.149 C38.748,14.024 38.732,13.903 38.726,13.787 C38.722,13.719 38.726,13.651 38.728,13.585 C38.732,13.481 38.738,13.374 38.755,13.276 C38.767,13.211 38.787,13.15 38.806,13.088 C38.831,12.999 38.861,12.909 38.902,12.826 C38.931,12.767 38.969,12.71 39.006,12.655 C39.054,12.58 39.103,12.505 39.163,12.436 C39.214,12.38 39.274,12.332 39.334,12.279 C39.401,12.218 39.469,12.155 39.549,12.1 C39.623,12.05 39.711,12.004 39.794,11.958 C39.879,11.91 39.961,11.859 40.06,11.814 C40.161,11.768 40.279,11.727 40.394,11.686 C40.494,11.648 40.585,11.609 40.695,11.576 C40.839,11.533 41.002,11.494 41.161,11.456 C41.264,11.432 41.353,11.402 41.461,11.382 C41.725,11.324 42.01,11.277 42.315,11.233 C42.33,11.231 42.339,11.228 42.356,11.226 C42.682,11.18 43.028,11.14 43.399,11.104 C43.496,11.094 43.606,11.088 43.704,11.081 C43.987,11.058 44.27,11.034 44.579,11.015 C44.721,11.005 44.878,11 45.024,10.994 C45.309,10.979 45.591,10.964 45.895,10.953 C46.073,10.946 46.268,10.942 46.453,10.936 C46.751,10.928 47.043,10.918 47.356,10.913 C47.563,10.91 47.787,10.907 48.002,10.904 C48.903,10.89 49.862,10.883 50.907,10.883 C70.796,10.883 86.137,12.021 86.137,5.2 C86.133,3.069 84.968,1.493 83.28,0.332 Z M46.44,39.86 C65.76,67.135 44.266,89.205 44.266,89.205 C44.266,89.205 39.871,88.822 37.223,86.173 C28.94,77.148 30.878,60.964 31.024,54.424 C31.188,47.035 30.762,37.506 36.87,24.788 C39.367,28.977 38.254,28.3 46.44,39.86 Z"></path>
                </g>
            </g>
            <circle r="3.638" cy="84.676" cx="33.812" fill="#FFBF00" id="Oval"></circle>
            <circle r="4.153" cy="80.523" cx="33.298" fill="#FFBF00" id="Oval"></circle>
            <circle r="2.946" cy="90.747" cx="33.12" fill="#FFBF00" id="Oval"></circle>
            <circle r="1.265" cy="87.049" cx="26.692" fill="#FFBF00" id="Oval"></circle>
            <circle r="2.215" cy="96.857" cx="31.122" fill="#FFBF00" id="Oval"></circle>
            <circle r="1" cy="80.998" cx="23.37" fill="#FFBF00" id="Oval"></circle>
            <circle r="2.245" cy="76.004" cx="33.05" fill="#FFBF00" id="Oval"></circle>
            <circle r="5.755" cy="74.769" cx="32.131" fill="#FFBF00" id="Oval"></circle>
            <circle r="4.271" cy="70.437" cx="35.077" fill="#FFBF00" id="Oval"></circle>
            <path fill="#FFFFFF" id="Shape" d="M71.354,99.005 C71.354,99.005 85.465,123.14 76.048,128.216 C66.632,133.294 64.772,80.745 71.354,99.005 Z"></path>
            <path opacity="0.15" fill="#6E6E96" id="Shape" d="M69.869,195.277 C69.869,195.277 63.03,202.81 71.573,201.227 C80.117,199.645 88.153,205.386 85.327,218.047 C85.327,218.047 82.965,200.595 71.889,206.288 C60.815,211.985 60.381,198.993 69.869,195.277 Z"></path>
        </g>
    </g>
</svg>