<svg xmlns:xlink="http://www.w3.org/1999/xlink" xmlns="http://www.w3.org/2000/svg" version="1.1" viewBox="0 0 241 227" height="227px" width="241px">
    
    <title>鲨鱼</title>
    <desc>Created with Sketch.</desc>
    <defs></defs>
    <g fill-rule="evenodd" fill="none" stroke-width="1" stroke="none" id="Page-1">
        <g fill-rule="nonzero" id="鲨鱼">
            <path fill="#B1CFE0" id="Shape" d="M222.539,179.169 C215.302,189.822 204.647,186.855 204.647,186.855 C206.784,193.246 203.465,202.026 203.465,202.026 C196.149,216.693 197.18,225.724 197.18,225.724 C186.949,220.62 185.505,199.878 188.791,193.29 C192.077,186.702 185.018,182.001 185.018,182.001 L190.532,164.714 C190.532,164.714 200.475,181.03 215.028,168.607 C227.221,158.201 240.252,162.449 240.252,162.449 C240.252,162.449 233.069,163.666 222.539,179.169 Z"></path>
            <path fill="#9FC1D4" id="Shape" d="M195.479,172.744 C208.37,188.526 217.514,175.691 217.514,175.691 C225.303,163.923 240.25,162.449 240.25,162.449 C236.032,163.859 230.723,167.83 223.146,179.597 C218.169,187.327 204.195,188.474 204.195,188.474 C204.195,188.474 210.429,189.971 203.464,202.026 C196.497,214.08 197.178,225.724 197.178,225.724 C188.824,221.556 183.55,204.974 187.752,196.55 C191.954,188.126 178.359,176.667 178.359,176.667 C189.632,176.518 195.479,172.744 195.479,172.744 Z"></path>
            <path fill="#9FC1D4" id="Shape" d="M136.008,52.736 C170.779,51.072 199.562,90.126 195.679,97.905 C195.679,97.905 172.197,79.789 149.531,81.676 C128.133,83.456 122.219,70.968 126.101,63.189 C129.981,55.409 114.561,53.764 136.008,52.736 Z"></path>
            <path fill="#C0DDED" id="Shape" d="M164.575,66.123 C196.292,81.949 195.679,97.906 195.679,97.906 C199.562,90.127 170.779,51.073 136.008,52.737 C133.491,52.858 131.501,52.987 129.909,53.133 C134.219,68.168 156.413,81.675 156.436,81.69 C156.436,81.691 156.436,81.69 156.436,81.69 C156.433,81.682 145.651,56.68 164.575,66.123 Z"></path>
            <path fill="#D4DBDE" id="Shape" d="M18.154,99.81 C16.49,97.128 15.145,94.507 14.119,91.96 C10.112,83.761 4.891,71.726 7.037,68.533 C10.377,63.565 17.316,66 17.316,66 L17.316,66.004 C20.029,63.066 23.715,60.537 28.397,58.501 C52.005,48.234 86.792,34.769 119.131,68.255 C151.474,101.744 199.199,191.584 183.978,180.5 C149.176,145.106 93.04,161.98 52.075,133.02 C36.014,121.666 24.698,110.322 18.202,99.887 L18.202,99.897 C18.201,99.895 18.184,99.865 18.154,99.81 Z"></path>
            <path fill="#B1CFE0" id="Shape" d="M131.099,41.837 C160.117,71.883 165.259,113.314 179.398,144.607 C192.683,174.005 202.368,173.38 195.279,180.227 C176.759,198.112 128.689,98.76 64.014,78.793 C28.774,67.913 16.03,61.321 7.772,47.615 C-4.092,27.921 -0.138,2.237 15.026,1.533 C43.318,0.218 84.078,-6.847 131.099,41.837 Z"></path>
            <path fill="#C0DDED" id="Shape" d="M5.903,7.031 C34.92,6.415 75.014,4.21 122.876,53.766 C154.23,86.232 164.071,126.706 188.274,161.335 C188.694,161.937 188.274,161.335 188.671,161.915 C186.093,157.811 183.141,151.712 179.975,144.71 C165.836,113.418 160.694,71.987 131.675,41.94 C84.656,-6.745 43.9,0.321 15.605,1.635 C11.527,1.825 8.27,3.831 5.903,7.031 Z"></path>
            <path fill="#C0DDED" id="Shape" d="M20.345,6.829 C20.345,17.481 32.223,28.527 32.223,28.527 C15.086,3.274 42.212,8.357 42.212,8.357 C42.212,8.357 20.345,-3.824 20.345,6.829 Z"></path>
            <path fill="#9FC1D4" id="Shape" d="M7.771,47.614 C16.029,61.32 28.773,67.912 64.012,78.792 C128.688,98.76 176.759,198.111 195.276,180.227 C199.356,176.289 197.655,175.811 193.137,169.677 C193.137,169.677 191.442,181.732 179.915,168.976 C168.391,156.22 132.896,78.746 77.887,56.418 C29.674,36.849 29.164,24.287 22.115,9.737 C20.095,5.562 16.529,2.061 11.189,2.322 C-0.723,6.847 -3.019,29.706 7.771,47.614 Z"></path>
            <circle r="5.241" cy="26.406" cx="67.412" fill="#6E6E96" id="Oval"></circle>
            <path fill="#E8EFF2" id="Shape" d="M76.724,129.263 C52.81,125.026 11.62,84.216 16.188,85.025 C28.962,87.288 52.065,96.276 67.278,93.168 C97.302,87.035 141.121,146.425 141.121,146.425 C161.11,166.68 116.919,136.385 76.724,129.263 Z"></path>
            <path fill="#DCE3E6" id="Shape" d="M104.636,143.013 C104.782,149.679 96.766,155.566 89.945,138.743 C83.125,121.921 88.843,102.088 88.843,102.088 C93.98,91.108 104.486,136.345 104.636,143.013 Z"></path>
            <path fill="#9FC1D4" id="Shape" d="M113.881,181.957 C128.425,194.488 115.495,160.099 131.787,127.445 C138.181,114.633 107.892,97.108 107.892,97.108 C76.191,69.843 99.339,169.423 113.881,181.957 Z"></path>
            <path fill="#B1CFE0" id="Shape" d="M113.881,181.957 C125.247,190.402 120.295,178.795 122.637,164.353 C122.636,164.358 122.638,164.345 122.637,164.353 C117.651,210.108 106.415,138.322 104.536,119.865 C101.302,88.114 118.974,103.956 118.974,103.956 C119.192,94.27 121.968,106.375 118.077,101.272 C112.146,95.945 107.893,97.108 107.893,97.108 C104.951,94.578 102.483,93.144 100.436,92.628 C99.707,92.518 98.986,92.461 98.268,92.439 C81.997,93.988 100.451,171.977 113.881,181.957 Z"></path>
            <g fill="#61A7D9" transform="translate(104.000000, 209.000000)" opacity="0.42" id="Group">
                <g id="Shape">
                    <path d="M11.709,9.014 C14.23,13.155 13.171,15.353 11.017,16.663 C8.861,17.976 6.421,17.905 3.902,13.767 C1.381,9.626 -0.604,2.429 1.551,1.119 C3.707,-0.195 9.188,4.875 11.709,9.014 Z"></path>
                </g>
            </g>
            <g fill="#61A7D9" transform="translate(130.000000, 183.000000)" opacity="0.26" id="Group">
                <g id="Shape">
                    <path d="M6.267,5.705 C7.758,8.153 7.286,9.364 6.195,10.026 C5.107,10.69 3.816,10.555 2.324,8.104 C0.832,5.653 -0.495,1.485 0.594,0.823 C1.681,0.16 4.774,3.251 6.267,5.705 Z"></path>
                </g>
            </g>
            <g fill="#61A7D9" transform="translate(175.000000, 31.000000)" opacity="0.31" id="Group">
                <g id="Shape">
                    <path d="M8.554,2.078 C10.695,3.457 10.335,5.304 9.169,7.115 C8.003,8.927 6.472,10.016 4.328,8.637 C2.184,7.258 -0.041,3.746 1.126,1.935 C2.292,0.124 6.409,0.699 8.554,2.078 Z"></path>
                </g>
            </g>
            <g fill="#61A7D9" transform="translate(211.000000, 138.000000)" opacity="0.26" id="Group">
                <g id="Shape">
                    <path d="M6.862,5.792 C8.354,8.241 7.881,9.452 6.791,10.113 C5.703,10.777 4.411,10.642 2.919,8.191 C1.429,5.741 0.101,1.572 1.19,0.911 C2.276,0.248 5.37,3.341 6.862,5.792 Z"></path>
                </g>
            </g>
            <g fill="#61A7D9" transform="translate(64.000000, 172.000000)" opacity="0.51" id="Group">
                <g id="Shape">
                    <path d="M7.764,4.864 C9.173,7.178 8.275,8.598 6.689,9.561 C5.106,10.528 3.435,10.673 2.025,8.358 C0.615,6.043 -0.189,1.83 1.396,0.864 C2.979,-0.102 6.354,2.546 7.764,4.864 Z"></path>
                </g>
            </g>
            <path fill="#E8EFF2" id="Shape" d="M26.576,78.802 C26.576,78.802 8.927,64.958 22.019,69.428 C35.111,73.898 62.332,80.577 67.306,79.885 C67.306,79.885 16.591,65.276 6.691,47.394 C6.692,47.394 2.713,69.655 26.576,78.802 Z"></path>
        </g>
    </g>
</svg>