<svg xmlns:xlink="http://www.w3.org/1999/xlink" xmlns="http://www.w3.org/2000/svg" version="1.1" viewBox="0 0 244 210" height="210px" width="244px">
    
    <title>绵羊</title>
    <desc>Created with Sketch.</desc>
    <defs></defs>
    <g fill-rule="evenodd" fill="none" stroke-width="1" stroke="none" id="Page-1">
        <g fill-rule="nonzero" id="绵羊">
            <path fill="#E8AC89" id="Shape" d="M59.729,30.328 C61.225,39.687 49.38,56.4 34.542,51.641 C17.898,46.306 2.498,48.881 1.001,39.521 C-0.495,30.161 13.717,20.157 29.124,17.747 C44.532,15.335 58.233,20.968 59.729,30.328 Z"></path>
            <path fill="#F7CDAF" id="Shape" d="M54.644,42.392 C54.235,39.447 57.435,37.807 53.285,35.194 C24.562,17.101 6.44,37.834 6.44,37.834 C9.339,47.297 22.398,44.855 36.44,51.377 C43.852,54.821 50.436,49.724 54.644,42.392 Z"></path>
            <path fill="#E8AC89" id="Shape" d="M104.095,174.123 C104.304,187.769 96.38,198.954 86.397,199.103 C76.414,199.252 68.151,188.309 67.942,174.664 C67.734,161.018 75.746,160.371 85.729,160.221 C95.712,160.073 103.885,160.476 104.095,174.123 Z"></path>
            <path fill="#E8AC89" id="Shape" d="M148.984,174.58 C149.445,188.221 157.909,199.01 167.888,198.681 C177.866,198.35 185.582,187.022 185.121,173.382 C184.658,159.742 176.391,158.539 166.414,158.869 C156.434,159.201 148.524,160.94 148.984,174.58 Z"></path>
            <path fill="#E4E4F2" id="Shape" d="M243.138,99.83 C243.138,89.301 237.541,80.037 229.064,74.638 C230.907,70.297 231.932,65.547 231.932,60.566 C231.932,40.037 214.666,23.391 193.366,23.391 C190.337,23.391 187.393,23.739 184.565,24.375 C178.566,10.567 164.419,0.869 147.917,0.869 C134.659,0.869 122.929,7.134 115.712,16.756 C110.207,11.397 102.571,8.075 94.129,8.075 C77.355,8.075 63.755,21.181 63.755,37.351 C63.755,37.677 63.769,37.998 63.78,38.322 C44.185,53.807 31.89,76.093 31.89,100.864 C31.89,132.383 41.427,152.917 57.086,165.863 C63.672,179.748 78.282,189.41 95.261,189.41 C102.122,189.41 108.591,187.824 114.307,185.026 C116.821,185.206 119.366,185.335 121.939,185.421 C128.392,189.481 136.096,191.847 144.377,191.847 C157.256,191.847 168.748,186.139 176.287,177.204 C180.049,175.697 183.655,173.985 187.1,172.077 C190.949,173.775 195.225,174.731 199.736,174.731 C216.511,174.731 230.11,161.624 230.11,145.457 C230.11,138.772 227.783,132.614 223.871,127.687 C235.186,123.141 243.138,112.382 243.138,99.83 Z"></path>
            <g fill="#6E6E96" transform="translate(31.000000, 46.000000)" opacity="0.15" id="Group">
                <g id="Shape">
                    <path d="M212.138,53.83 C212.138,43.301 206.541,34.037 198.064,28.638 C199.907,24.297 200.932,19.547 200.932,14.566 C200.932,9.649 199.932,4.96 198.131,0.663 C197.652,2.798 196.99,4.868 196.149,6.851 C204.628,12.25 192.965,23.445 198.6,32.374 C212.14,53.831 197.088,66.889 185.777,71.434 C182.174,75.001 179.26,74.949 186.913,89.204 C194.579,103.481 188.372,109.058 171.597,109.058 C168.389,109.058 159.576,107.514 155.727,105.814 C146.067,104.153 140.139,114.451 136.378,115.959 C128.839,124.892 124.346,124.063 111.466,124.063 C103.186,124.063 95.483,121.696 89.028,117.636 C87.698,116.322 83.91,114.754 81.395,117.241 C75.679,120.038 69.209,121.625 62.349,121.625 C45.37,121.625 30.761,111.965 24.174,98.08 C12.633,88.538 4.424,74.865 0.902,55.724 C1.074,86.753 10.573,107.041 26.089,119.87 C32.676,133.754 47.285,143.416 64.264,143.416 C71.124,143.416 77.594,141.83 83.31,139.032 C85.825,139.212 88.369,139.341 90.943,139.427 C97.397,143.487 105.1,145.853 113.381,145.853 C126.261,145.853 137.752,140.145 145.291,131.21 C149.053,129.704 152.66,127.991 156.104,126.083 C159.954,127.781 164.23,128.737 168.741,128.737 C185.516,128.737 199.116,115.63 199.116,99.463 C199.116,92.778 196.788,86.621 192.876,81.693 C204.186,77.141 212.138,66.382 212.138,53.83 Z"></path>
                </g>
            </g>
            <path opacity="0.68" fill="#FFFFFF" id="Shape" d="M229.064,74.637 C230.045,74.276 231.53,77.594 232.458,77.145 C231.386,76.24 230.256,75.397 229.064,74.637 C230.909,70.296 231.932,65.546 231.932,60.565 C231.932,40.036 214.666,23.39 193.368,23.39 C190.339,23.39 187.394,23.738 184.565,24.374 C178.566,10.566 164.419,0.868 147.917,0.868 C134.659,0.868 122.927,7.133 115.712,16.755 C110.207,11.396 102.572,8.072 94.13,8.072 C77.356,8.072 63.756,21.179 63.756,37.349 C63.756,37.675 63.772,37.996 63.781,38.32 C57.468,43.308 51.919,49.006 47.288,55.262 C47.306,82.459 56.358,100.185 71.214,111.363 C77.468,123.363 91.341,131.716 107.465,131.716 C113.98,131.716 120.124,130.345 125.551,127.928 C127.939,128.08 134.59,79.285 137.033,79.358 C138.455,80.172 170.93,52.039 163.66,85.179 C159.83,102.634 140.463,82.207 140.463,105.047 C140.463,119.207 143.891,132.721 154.108,133.82 C184.085,137.051 184.405,114.632 194.678,116.733 C198.248,115.432 191.408,118.382 194.678,116.733 C198.332,118.203 202.395,119.026 206.678,119.026 C222.61,119.026 235.523,107.701 235.523,93.725 C235.526,87.953 232.778,78.898 229.064,74.637 Z"></path>
            <path fill="#E8AC89" id="Shape" d="M157.971,83.525 C151.278,90.299 140.584,80.723 125.651,76.263 C97.317,67.805 108.754,49.18 115.447,42.402 C122.14,35.624 138.738,40.93 149.892,51.717 C161.047,62.505 164.667,76.747 157.971,83.525 Z"></path>
            <path fill="#F7CDAF" id="Shape" d="M123.868,73.218 C139.423,79.012 150.614,91.355 157.7,83.114 C153.796,59.174 130.771,52.422 130.771,52.422 C130.771,52.422 122.952,58.079 121.386,72.223 C122.181,72.563 123.004,72.897 123.868,73.218 Z"></path>
            <path fill="#E8AC89" id="Shape" d="M166.829,184.973 C167.239,197.085 174.755,206.665 183.616,206.373 C192.474,206.078 199.325,196.019 198.917,183.909 C198.507,171.798 191.165,170.729 182.306,171.021 C173.445,171.32 166.42,172.862 166.829,184.973 Z"></path>
            <path fill="#E8AC89" id="Shape" d="M91.829,188.337 C92.24,200.448 99.755,210.028 108.616,209.736 C117.475,209.441 124.324,199.383 123.918,187.274 C123.508,175.163 116.167,174.093 107.308,174.385 C98.447,174.683 91.42,176.227 91.829,188.337 Z"></path>
            <path fill="#E8AC89" id="Shape" d="M105.729,29.323 C136.069,42.896 139.588,81.112 130.2,120.589 C118.676,169.024 76.255,173.489 44.793,162.7 C-9.638,144.036 6.65,111.095 20.324,71.44 C38.578,18.501 75.388,15.752 105.729,29.323 Z"></path>
            <path opacity="0.64" fill="#F7CDAF" id="Shape" d="M97.292,28.285 C118.668,37.452 123.325,61.913 118.837,89.305 C118.108,93.76 95.574,90.521 94.393,95.078 C93.266,99.425 113.409,98.942 111.74,114.653 C98.06,143.614 67.634,146.261 44.615,138.815 C9.042,127.311 10.683,107.649 18.88,83.565 C20.454,78.942 32.707,76.81 34.547,71.887 C35.162,70.241 25.341,65.928 25.954,64.252 C41.956,20.479 72.439,17.628 97.292,28.285 Z"></path>
            <ellipse ry="5.447" rx="5.505" cy="118.221" cx="55.224" fill="#6E6E96" id="Oval"></ellipse>
            <ellipse ry="9.473" rx="6.701" cy="67.584" cx="51.65" fill="#6E6E96" id="Oval"></ellipse>
            <ellipse ry="9.473" rx="6.701" cy="68.531" cx="82.285" fill="#6E6E96" id="Oval"></ellipse>
            <path opacity="0.15" fill="#6E6E96" id="Shape" d="M105.629,207.295 C105.629,207.295 115.508,206.29 113.283,187.938 C112.007,177.424 104.749,176.633 104.749,176.633 C104.749,176.633 125.249,170.924 121.39,193.102 C117.533,215.277 110.445,207.295 105.629,207.295 Z"></path>
            <path opacity="0.15" fill="#6E6E96" id="Shape" d="M179.436,171.956 C179.436,171.956 189.637,173.219 189.637,185.836 C189.637,198.453 183.541,204.27 183.541,204.27 C183.541,204.27 198.562,203.082 198.562,186.256 C198.563,169.433 189.194,171.956 179.436,171.956 Z"></path>
            <path opacity="0.3" fill="#FFFFFF" id="Shape" d="M104.054,111.043 C103.84,113.796 100.096,115.751 95.691,115.409 C91.286,115.066 87.888,110.557 88.102,107.805 C88.316,105.053 92.06,105.097 96.465,105.439 C100.87,105.781 104.267,108.289 104.054,111.043 Z"></path>
            <ellipse ry="7.99999904" rx="4.9999994" cy="91.9195516" cx="30.0766652" transform="translate(30.076665, 91.919552) rotate(-85.560866) translate(-30.076665, -91.919552)" opacity="0.3" fill="#FFFFFF" id="Oval"></ellipse>
        </g>
    </g>
</svg>