<svg xmlns:xlink="http://www.w3.org/1999/xlink" xmlns="http://www.w3.org/2000/svg" version="1.1" viewBox="0 0 233 211" height="211px" width="233px">
    
    <title>蜗牛</title>
    <desc>Created with Sketch.</desc>
    <defs></defs>
    <g fill-rule="evenodd" fill="none" stroke-width="1" stroke="none" id="Page-1">
        <g fill-rule="nonzero" id="蜗牛">
            <ellipse ry="16.945" rx="109.278" cy="193.15" cx="122.884" opacity="0.1" fill="#6E6E96" id="Oval"></ellipse>
            <path fill="#F7E2CD" id="Shape" d="M53.645,60.983 C53.645,60.983 43.306,38.691 56.936,34.79 L31.572,27.978 C31.572,27.978 50.718,52.742 31.869,61.382 L53.645,60.983 Z"></path>
            <g fill="#6E6E96" transform="translate(33.000000, 27.000000)" opacity="0.15" id="Group">
                <path id="Shape" d="M6.52,16.99 C4.007,9.283 1.8,5.866 0.125,3.379 L0.599,0.679 L23.935,7.79 C15.433,10.224 15.891,18.872 17.716,25.742 L17.715,25.743 C17.716,25.742 12.379,3.699 6.52,16.99 Z"></path>
            </g>
            <circle r="18.1" cy="19.357" cx="47.483" fill="#F0F0FF" id="Oval"></circle>
            <circle r="3.896" cy="20.706" cx="42.272" fill="#6E6E96" id="Oval"></circle>
            <path fill="#F7E2CD" id="Shape" d="M73.904,74.115 C73.904,74.115 72.333,49.592 86.45,50.887 L65.27,35.357 C65.27,35.357 70.733,56.381 61.293,56.381 L73.904,74.115 Z"></path>
            <g fill="#6E6E96" transform="translate(65.000000, 35.000000)" opacity="0.15" id="Group">
                <path id="Shape" d="M1,17.818 C2.844,12.895 1.172,3.282 0.512,0.358 L2.272,0.814 L21.45,15.888 C12.643,15.079 9.943,23.307 9.157,30.371 L9.156,30.372 C9.156,30.372 11.271,7.547 1,17.818 Z"></path>
            </g>
            <circle r="18.1" cy="33.079" cx="83.223" fill="#F0F0FF" id="Oval"></circle>
            <circle r="3.897" cy="32.451" cx="77.877" fill="#6E6E96" id="Oval"></circle>
            <path fill="#F7E2CD" id="Shape" d="M73.691,72.238 C58.28,19.099 -43.25,94.802 22.081,178.73 C44.138,207.068 98.647,210.644 130.217,210.644 C184.365,210.644 228.26,203.031 228.26,193.639 C228.26,184.246 184.207,180.743 130.217,176.635 C53.433,170.789 76.307,81.26 73.691,72.238 Z"></path>
            <path fill="#EDD9C4" id="Shape" d="M22.081,178.729 C44.138,207.068 98.646,210.644 130.217,210.644 C184.365,210.644 228.26,203.03 228.26,193.639 C228.26,184.245 184.207,180.743 130.217,176.635 C53.432,170.787 76.306,81.257 73.691,72.238 C58.28,19.098 -43.248,94.802 22.081,178.729 Z M73.691,72.237 C75.066,79.955 59.976,159.177 97.77,174.346 C123.29,184.59 221.351,182.768 221.351,190.805 C221.351,198.837 126.272,194.701 97.77,194.701 C81.152,194.701 52.462,191.64 40.851,167.391 C6.465,95.578 65.58,26.768 73.691,72.237 Z"></path>
            <path fill="#DECCB8" id="Shape" d="M22.081,178.729 C44.138,207.068 98.646,210.644 130.217,210.644 C171.391,210.644 206.631,206.242 221.156,200 C203.189,203.896 175.558,206.393 144.564,206.393 C112.993,206.393 55.546,205.753 33.488,177.415 C-8.742,123.161 22.56,56.126 50.58,54.613 C18.55,56.686 -27.245,115.361 22.081,178.729 Z"></path>
            <ellipse ry="60.628" rx="60.591" cy="136.192" cx="151.795" fill="#8B5C29" id="Oval"></ellipse>
            <path fill="#D59758" id="Shape" d="M159.045,128.214 C158.973,128.124 158.939,128.08 158.938,128.08 C160.833,130.304 163.936,132.311 165.057,132.339 C165.022,132.339 164.953,132.35 164.92,132.36 C165.063,132.311 165.61,132.012 166.432,131.191 C166.328,131.297 166.189,131.564 166.164,131.708 C166.305,130.916 165.519,127.371 161.869,123.562 C157.66,119.171 152.235,116.949 147.357,117.612 C132.229,119.668 127.138,130.814 127.576,137.277 C128.514,151.145 143.595,168.261 163.097,168.261 C189.685,168.261 201.299,149.834 202.19,132.59 C203.336,110.426 189.047,84.958 154.972,81.422 C130.728,78.906 109.576,88.376 100.376,110.734 C92.479,129.931 93.556,160.682 114.582,177.618 C121.224,182.969 141.334,191.711 135.988,198.359 C130.642,205.005 101.863,194.917 95.219,189.567 C62.572,162.483 56.995,135.014 71.823,98.973 C86.302,63.776 118.929,44.363 156.971,48.311 C208.679,53.677 233.776,94.377 231.84,131.809 C229.865,170.067 201.597,196.783 163.098,196.783 C124.85,196.783 102.211,167.198 100.331,139.361 C98.468,111.777 115.697,90.732 143.206,86.994 C165.37,83.981 184.95,98.517 192.835,114.433 C199.788,128.471 198.038,143.264 188.27,153.038 C179.289,162.027 169.821,163.525 163.466,163.194 C147.773,162.385 137.07,150.141 135.083,147.697 C129.706,141.074 130.712,131.343 137.329,125.963 C143.945,120.584 153.67,121.59 159.045,128.214 Z"></path>
            <path fill="#DEA66C" id="Shape" d="M118.849,197.385 C117.416,196.897 89.369,190.899 75.147,160.963 C67.124,144.082 66.934,125.099 74.579,104.54 C85.696,74.648 105.335,61.222 119.854,55.22 C140.219,46.803 163.614,47.366 184.042,56.768 C216.872,71.878 232.298,103.936 225.309,142.516 C222.175,159.817 207.697,175.146 187.525,182.521 C165.453,190.59 142.384,187.233 125.828,173.533 C105.017,156.321 104.321,128.285 113.33,109.882 C119.167,97.958 140.031,83.899 167.356,93.938 C191.546,102.823 195.518,117.285 195.731,125.115 C196.044,136.62 188.683,147.608 177.416,152.457 C166.256,157.264 154.332,154.864 145.517,146.044 C142.038,142.563 142.038,136.917 145.517,133.439 C148.996,129.96 154.635,129.96 158.114,133.439 C162.691,138.018 167.307,137.406 170.376,136.085 C174.862,134.153 178.038,129.746 177.925,125.604 C177.772,119.958 171.683,114.517 161.22,110.674 C146.415,105.236 134.897,108.11 128.782,118.764 C122.261,130.125 123.618,148.582 137.179,159.799 C148.81,169.419 165.344,171.655 181.41,165.78 C195.449,160.646 205.799,150.268 207.779,139.34 C213.306,108.826 201.942,84.633 176.596,72.968 C160.893,65.739 142.222,65.267 126.654,71.701 C110.535,78.364 98.301,91.87 91.277,110.764 C85.39,126.591 85.36,140.873 91.187,153.212 C102.095,176.312 130.065,189.741 130.345,189.838 L130.325,189.832 C134.983,191.412 136.292,192.425 134.712,197.089 C134.206,198.582 128.19,198.159 124.605,198.159 L118.849,197.385 Z"></path>
            <path fill="#E4BC96" id="Shape" d="M151.334,94.137 C127.48,94.137 108.023,111.401 106.962,133.061 C106.932,132.443 106.91,131.823 106.91,131.198 C106.91,108.675 126.798,90.413 151.333,90.413 C175.868,90.413 195.757,108.674 195.757,131.198 C195.757,131.823 195.786,130.583 195.757,131.198 C194.697,109.538 175.189,94.137 151.334,94.137 Z"></path>
            <path fill="#E4BC96" id="Shape" d="M187.754,162.976 C187.754,162.976 143.403,190.287 126.676,144.364 C126.676,144.364 140.852,181.589 187.754,162.976 Z"></path>
            <g fill="#FFFFFF" transform="translate(73.000000, 52.000000)" opacity="0.21" id="Group">
                <g id="Shape">
                    <path d="M140.797,71.832 L140.797,71.841 C140.773,69.305 139.383,9.702 73.467,9.702 C18.597,9.702 10.717,69.383 10.411,71.922 C10.094,74.531 7.722,76.391 5.114,76.072 C2.506,75.756 0.647,73.384 0.964,70.776 C1.052,70.059 3.209,53.023 13.052,35.786 C26.353,12.495 47.244,0.185 73.467,0.185 C112.803,0.185 131.658,19.714 140.549,36.1 C150.08,53.659 150.312,71.033 150.316,71.765 C150.337,74.392 148.22,76.536 145.592,76.557 C142.963,76.575 140.819,74.461 140.797,71.832 Z"></path>
                </g>
            </g>
            <g fill="#FFFFFF" transform="translate(73.000000, 133.000000)" opacity="0.27" id="Group">
                <path id="Shape" d="M0.11,9.039 C0.11,12.018 3.476,16.336 6.454,16.336 C9.432,16.336 10.895,12.019 10.895,9.039 C10.895,6.061 8.481,0.791 5.503,0.791 C2.524,0.791 0.11,6.061 0.11,9.039 Z"></path>
            </g>
            <g fill="#FFFFFF" transform="translate(78.000000, 154.000000)" opacity="0.27" id="Group">
                <path id="Shape" d="M0.82,4.059 C0.82,6.074 4.357,9.611 6.371,9.611 C8.386,9.611 8.116,6.074 8.116,4.059 C8.116,2.043 6.483,0.412 4.469,0.412 C2.455,0.412 0.82,2.045 0.82,4.059 Z"></path>
            </g>
            <circle r="7.138" cy="149.494" cx="33.932" fill="#EDD9C4" id="Oval"></circle>
            <circle r="5.567" cy="158.255" cx="34.741" fill="#EDD9C4" id="Oval"></circle>
            <circle r="5.354" cy="142.951" cx="32.386" fill="#EDD9C4" id="Oval"></circle>
            <circle r="2.439" cy="163.71" cx="48.267" fill="#EDD9C4" id="Oval"></circle>
            <circle r="2.379" cy="133.791" cx="43.449" fill="#EDD9C4" id="Oval"></circle>
            <circle r="6.662" cy="187.085" cx="167.642" fill="#D59758" id="Oval"></circle>
            <circle r="5.493" cy="188.988" cx="158.385" fill="#D59758" id="Oval"></circle>
            <circle r="4.52" cy="186.371" cx="176.445" fill="#D59758" id="Oval"></circle>
            <circle r="3.093" cy="176.379" cx="184.059" fill="#D59758" id="Oval"></circle>
            <circle r="3.643" cy="137.128" cx="164.306" fill="#D59758" id="Oval"></circle>
            <circle r="3.413" cy="135.13" cx="167.913" fill="#D59758" id="Oval"></circle>
            <circle r="2.22" cy="133.131" cx="158.417" fill="#D59758" id="Oval"></circle>
            <circle r="3.873" cy="136.233" cx="161.047" fill="#D59758" id="Oval"></circle>
            <circle r="1.586" cy="136.012" cx="177.159" fill="#D59758" id="Oval"></circle>
            <g fill="#FFFFFF" transform="translate(90.000000, 166.000000)" opacity="0.27" id="Group">
                <circle r="1.586" cy="1.735" cx="2.143" id="Oval"></circle>
            </g>
            <ellipse ry="4.674" rx="4.316" cy="138.277" cx="29.834" fill="#EDD9C4" id="Oval"></ellipse>
            <circle r="1" cy="128.406" cx="35.988" fill="#EDD9C4" id="Oval"></circle>
            <circle r="1" cy="142.031" cx="42.661" fill="#EDD9C4" id="Oval"></circle>
            <circle r="1.359" cy="155.259" cx="43.82" fill="#EDD9C4" id="Oval"></circle>
            <g fill="#D59758" transform="translate(173.000000, 5.000000)" opacity="0.45" id="Group">
                <circle r="6.027" cy="6.343" cx="6.2" id="Oval"></circle>
            </g>
            <circle r="2.538" cy="30.058" cx="140.815" fill="#D59758" id="Oval"></circle>
            <circle r="1.586" cy="50.678" cx="215.999" fill="#D59758" id="Oval"></circle>
            <path fill="#6E6E96" id="Shape" d="M18.902,92.569 C21.395,97.171 29.407,104.509 41.889,99.344 C43.103,98.841 43.68,97.449 43.178,96.236 C42.676,95.023 41.284,94.445 40.07,94.948 C28.493,99.739 23.297,90.68 23.081,90.292 L23.034,90.208 C23.028,90.196 22.974,90.116 22.974,90.116 L23.086,90.303 C22.461,89.148 21.017,88.719 19.861,89.345 C18.706,89.969 18.276,91.413 18.902,92.569 Z"></path>
            <path fill="#E6E6F5" id="Shape" d="M81.375,21.137 C91.372,21.137 99.476,29.242 99.476,39.238 C99.476,39.634 99.44,40.021 99.415,40.41 C100.771,37.871 101.544,34.976 101.544,31.898 C101.544,21.902 93.44,13.798 83.443,13.798 C73.842,13.798 66.009,21.279 65.401,30.726 C68.449,25.022 74.455,21.137 81.375,21.137 Z"></path>
            <path fill="#E6E6F5" id="Shape" d="M45.649,7.81 C55.648,7.81 63.752,15.916 63.752,25.913 C63.752,26.309 63.719,26.697 63.694,27.085 C65.048,24.547 65.823,21.65 65.823,18.572 C65.823,8.574 57.719,0.469 47.719,0.469 C38.115,0.469 30.281,7.951 29.675,17.401 C32.719,11.696 38.728,7.81 45.649,7.81 Z"></path>
        </g>
    </g>
</svg>