<svg xmlns:xlink="http://www.w3.org/1999/xlink" xmlns="http://www.w3.org/2000/svg" version="1.1" viewBox="0 0 239 218" height="218px" width="239px">
    
    <title>老虎</title>
    <desc>Created with Sketch.</desc>
    <defs></defs>
    <g fill-rule="evenodd" fill="none" stroke-width="1" stroke="none" id="Page-1">
        <g fill-rule="nonzero" transform="translate(0.000000, -1.000000)" id="老虎">
            <polyline points="39.59 132.669 63.876 218.421 85.752 218.421 85.752 161.469" fill="#FFE359" id="Shape"></polyline>
            <path fill="#FFC859" id="Shape" d="M52.646,178.772 C52.646,178.772 52.402,180.292 52.646,178.772 C53.156,175.601 58.772,170.709 67.224,170.709 C79.724,170.709 77.724,218.422 77.724,218.422 L85.752,218.422 L85.389,159.764 L70.159,157.699 L47,158.833"></path>
            <path fill="#FFC859" id="Shape" d="M180.708,90.783 C180.708,90.783 187.596,83.331 201.18,45.973 C214.764,8.615 219.592,0.692 229.216,3.521 C238.838,6.351 242.147,17.736 235.456,40.322 C233.525,46.834 210.855,85.317 189.704,100.538"></path>
            <circle r="21.479" cy="22.474" cx="34.785" fill="#FFC859" id="Oval"></circle>
            <path fill="#FFE359" id="Shape" d="M111.789,163.518 L111.789,217.289 L134.432,217.289 C134.432,217.289 141.788,188.987 147.453,166.351"></path>
            <path fill="#FFE359" id="Shape" d="M29.444,133.317 C29.444,133.317 108.958,214.279 206.315,145.791 C206.315,145.791 224.725,93.878 188.204,81.444 C164.674,74.709 140.011,76.349 116.071,76.38 C113.482,76.418 110.896,76.431 108.318,76.444 C74.983,76.444 43.87,81.444 43.87,81.444 L29.444,133.317"></path>
            <path fill="#FFC859" id="Shape" d="M139.634,75.786 C139.634,75.786 152.725,113.543 116.059,152.545 C109.924,159.068 130.318,160.144 144.318,157.143 C158.318,154.142 164.056,153.211 164.056,153.211 L163.597,168.011 C163.597,168.011 122.724,183.877 85.389,167.211 L65.624,160.72 C65.626,160.719 137.489,88.143 139.634,75.786 Z"></path>
            <path fill="#FFC859" id="Shape" d="M111.789,188.876 C111.789,188.876 112.583,182.21 126.725,182.21 C140.87,182.21 126.393,217.288 126.393,217.288 L134.432,217.288 L145.855,172.71 L111.79,174.205 L114.29,188.876 L111.789,188.876 Z"></path>
            <path fill="#FFE359" id="Shape" d="M161.598,153.646 L161.598,217.289 L184.242,217.289 C184.242,217.289 187.677,203.478 201.669,164.738 C204.576,156.689 209.498,138.766 209.498,129.625"></path>
            <circle r="69.819" cy="81.079" cx="70.013" fill="#FFC859" id="Oval"></circle>
            <ellipse ry="57.486" rx="60.151" cy="71.746" cx="66.915" fill="#FFE359" id="Oval"></ellipse>
            <path fill="#D1D1E8" id="Shape" d="M107.798,138.889 C105.685,159.702 83.26,162.753 56.258,160.011 C29.256,157.272 7.902,149.775 10.015,128.96 C12.128,108.147 35.731,93.496 62.733,96.234 C89.735,98.98 109.911,118.076 107.798,138.889 Z"></path>
            <path fill="#F0F0FF" id="Shape" d="M88.494,110.478 C93.597,116.149 96.317,123.1 95.585,130.317 C94.898,137.07 91.458,141.414 86.154,144.026 C82.307,145.922 57.227,121.836 69.874,143.338 C72.425,147.678 61.425,147.305 55.586,146.709 C34.63,144.582 18.059,138.768 19.699,122.612 C20.153,118.137 21.887,114.03 24.602,110.475 C31.689,101.195 37.09,120.404 52.058,123.21 C89.391,130.21 82.176,103.455 88.494,110.478 Z"></path>
            <path fill="#BEBED6" id="Shape" d="M80.979,107.14 C79.724,116.817 70.58,118.453 59.123,116.964 C47.665,115.478 38.712,111.45 40.919,101.943 C43.34,91.522 50.864,86.868 62.319,88.352 C73.777,89.838 82.23,97.458 80.979,107.14 Z"></path>
            <polygon points="71.541 29.322 71.541 25.657 55.415 25.657 55.415 29.322 61.646 29.322 61.646 32.287 55.415 32.287 55.415 35.952 61.646 35.952 61.646 39.218 55.415 39.218 55.415 42.883 71.541 42.883 71.541 39.218 65.31 39.218 65.31 35.952 71.541 35.952 71.541 32.287 65.31 32.287 65.31 29.322" fill="#6E6E96" id="Shape"></polygon>
            <path fill="#FFC859" id="Shape" d="M101.231,28.872 C101.231,15.209 112.308,4.132 125.971,4.132 C139.634,4.132 150.711,15.209 150.711,28.872 C150.711,42.536 139.634,53.612 125.971,53.612"></path>
            <ellipse ry="6.987" rx="4.658" cy="62.245" cx="49.157" fill="#6E6E96" id="Oval"></ellipse>
            <ellipse ry="6.987" rx="4.658" cy="62.245" cx="73.648" fill="#6E6E96" id="Oval"></ellipse>
            <ellipse ry="19.108" rx="18.946" cy="33.176" cx="127.003" fill="#FFE359" id="Oval"></ellipse>
            <path fill="#F0F0FF" id="Shape" d="M63.224,99.91 C63.224,103.017 60.537,102.535 57.224,102.535 C53.911,102.535 51.224,103.016 51.224,99.91 C51.224,96.804 53.911,94.285 57.224,94.285 C60.537,94.285 63.224,96.803 63.224,99.91 Z"></path>
            <path fill="#FFE359" id="Shape" d="M210.773,27.73 C210.773,27.73 214.911,13.71 225.724,13.71 C236.537,13.71 217.04,65.851 203.224,75.21 C189.404,84.569 210.773,27.73 210.773,27.73 Z"></path>
            <ellipse ry="17.815" rx="18.067" cy="26.511" cx="35.117" fill="#FFE359" id="Oval"></ellipse>
            <path fill="#FFC859" id="Shape" d="M173.391,217.289 L194.974,131.462 C194.974,131.462 212.725,79.812 166.721,77.373 C166.721,77.373 223.491,75.864 209.077,135.152 C194.665,199.904 184.241,217.289 184.241,217.289 L173.391,217.289 Z"></path>
        </g>
    </g>
</svg>