<svg xmlns:xlink="http://www.w3.org/1999/xlink" xmlns="http://www.w3.org/2000/svg" version="1.1" viewBox="0 0 236 175" height="175px" width="236px">
    
    <title>乌龟</title>
    <desc>Created with Sketch.</desc>
    <defs></defs>
    <g fill-rule="evenodd" fill="none" stroke-width="1" stroke="none" id="Page-1">
        <g fill-rule="nonzero" id="乌龟">
            <path fill="#B3D492" id="Shape" d="M56.679,101.313 C56.679,101.313 59.771,137.97 87.594,149.011 C115.417,160.052 136.31,115.446 110.559,115.446 C81.434,115.446 72.614,105.765 71.695,95.133 C70.776,84.495 56.679,86.791 56.679,101.313 Z"></path>
            <path fill="#E3D0BC" id="Shape" d="M56.679,101.313 C56.679,101.313 59.771,137.97 87.594,149.011 C113.826,159.421 133.89,120.37 114.518,115.87 C120.572,121.926 121.326,131.411 97.572,136.682 C73.82,141.951 56.679,101.313 56.679,101.313"></path>
            <path fill="#E3D0BC" id="Shape" d="M213.775,80.739 C213.775,115.014 201.859,144.699 123.562,144.699 C80.002,144.699 56.04,112.94 56.04,102.254 C56.04,85.713 54.216,88.373 54.216,72.218 C54.216,37.944 68.202,20.632 118.457,20.632 C168.71,20.631 213.775,46.466 213.775,80.739 Z"></path>
            <path fill="#87B8A4" id="Shape" d="M204.875,38.85 C202.585,29.287 190.117,19.151 173.301,14.196 C171.667,13.714 170.041,13.302 168.43,12.946 C160.178,5.333 146.094,0.316 130.096,0.316 C116.449,0.316 104.192,3.971 95.763,9.771 C91.953,10.1 88.021,10.822 84.061,11.974 C67.88,16.684 55.887,27.185 52.681,38.097 C34.4,55.156 30.137,73.629 48.268,73.629 C58.534,73.629 65.001,71.522 72.231,73.629 C99.5,81.579 110.083,108.684 158.777,108.684 C178.111,108.684 216.333,101.253 216.333,65.644 C216.333,55.379 211.922,46.415 204.875,38.85 Z"></path>
            <path fill="#FFFFFF" id="Shape" d="M48.844,68.703 C48.829,68.712 48.837,68.707 48.823,68.717 C48.978,68.621 64.864,59.506 105.194,89.545 C127.432,106.109 166.925,108.84 193.231,95.633 C209.602,87.414 218.618,73.87 218.618,57.497 C218.618,56.459 217.776,55.618 216.739,55.618 C215.7,55.618 214.858,56.459 214.858,57.497 C214.858,76.565 202.18,86.933 191.545,92.273 C166.81,104.692 128.294,102.063 107.441,86.532 C64.602,54.623 47.498,65.093 46.791,65.554 C45.921,66.121 45.676,67.285 46.243,68.155 C46.811,69.024 47.975,69.27 48.844,68.703 Z"></path>
            <path fill="#F7E2CD" id="Shape" d="M189.236,115.355 C189.236,115.355 194.99,139.414 214.599,143.944 C234.208,148.479 243.599,116.718 226.482,119.316 C207.119,122.254 200.279,116.709 198.593,109.73 C196.912,102.751 187.773,105.703 189.236,115.355 Z"></path>
            <ellipse ry="1.409" rx="2.35" cy="85.218" cx="62.148" fill="#00A33D" id="Oval"></ellipse>
            <ellipse ry="2.115" rx="4.463" cy="67.128" cx="47.817" fill="#00A33D" id="Oval"></ellipse>
            <ellipse ry="1.917" rx="2.997" cy="111.865" cx="48.815" fill="#00A33D" id="Oval"></ellipse>
            <ellipse ry="1.645" rx="2.35" cy="96.964" cx="70.136" fill="#00A33D" id="Oval"></ellipse>
            <ellipse ry="3.188" rx="4.783" cy="104.772" cx="37.558" fill="#00A33D" id="Oval"></ellipse>
            <ellipse ry="2.176" rx="4.375" cy="82.782" cx="45.088" fill="#00A33D" id="Oval"></ellipse>
            <ellipse ry="1.057" rx="1.997" cy="74.529" cx="67.435" fill="#00A33D" id="Oval"></ellipse>
            <path fill="#9AD1BA" id="Shape" d="M205.084,39.084 C205.014,39.006 204.947,38.927 204.874,38.85 C202.584,29.287 190.116,19.151 173.3,14.196 C171.666,13.714 170.04,13.302 168.428,12.946 C160.177,5.333 146.093,0.316 130.096,0.316 C116.447,0.316 104.191,3.971 95.762,9.771 C91.952,10.1 88.02,10.822 84.06,11.974 C67.879,16.684 55.886,27.185 52.68,38.097 C52.456,38.306 52.244,38.516 52.024,38.725 C60.168,56.483 91.365,69.712 128.636,69.712 C165.658,69.712 196.689,56.661 205.084,39.084 Z"></path>
            <path fill="#F7E2CD" id="Shape" d="M105.713,97.18 C105.713,97.18 141.872,121.51 171.004,117.483 C200.136,113.457 179.149,133.771 139.365,133.771 C128.043,133.771 126.744,114.888 119.469,113.554 C116.84,113.073 106.995,127.333 111.996,132.333 C121.459,141.798 81.996,128.999 88.306,108.71 C93.36,92.458 81.101,78.325 81.101,78.325 C81.101,78.325 87.251,82.009 105.713,97.18 Z"></path>
            <path fill="#87AB9C" id="Shape" d="M214.534,58.617 C213.396,90.057 175.927,99.909 157.012,99.909 C108.307,99.909 97.48,71.728 70.464,63.852 C63.235,61.745 56.767,64.852 46.501,64.852 C41.489,64.852 38.202,63.432 36.436,61.027 C34.211,68.936 37.38,74.568 47.385,74.568 C57.65,74.568 64.118,72.461 71.347,74.568 C98.616,82.517 109.2,109.624 157.894,109.624 C177.228,109.624 219.867,99.542 219.867,63.933 C219.867,52.575 214.014,54.033 214.534,58.617 Z"></path>
            <path fill="#E3D0BC" id="Shape" d="M83.848,87.251 C88.173,106.548 71.505,126.714 46.62,132.288 C21.735,137.866 5.538,125.806 1.213,106.505 C-3.111,87.208 6.076,67.98 30.96,62.403 C55.845,56.829 79.522,67.952 83.848,87.251 Z"></path>
            <path fill="#F7E2CD" id="Shape" d="M79.661,80.349 C83.317,94.934 67.879,110.444 45.183,114.992 C22.486,119.539 7.936,110.597 4.281,96.011 C0.625,81.425 9.248,66.721 31.945,62.172 C54.644,57.625 76.004,65.762 79.661,80.349 Z"></path>
            <path fill="#E3D0BC" id="Shape" d="M230.1,119.339 C231.899,121.202 234.518,131.577 217.002,135.433 C199.411,139.305 189.238,111.477 189.236,111.473 C189.04,112.611 189.017,113.906 189.236,115.355 C189.236,115.355 194.989,139.414 214.597,143.944 C232.627,148.113 242,121.63 230.1,119.339 Z"></path>
            <circle r="4.393" cy="83.032" cx="28.138" fill="#6E6E96" id="Oval"></circle>
            <circle r="3.289" cy="44.712" cx="118.063" opacity="0.27" fill="#6E6E96" id="Oval"></circle>
            <circle r="3.994" cy="54.682" cx="144.255" opacity="0.27" fill="#6E6E96" id="Oval"></circle>
            <circle r="1.409" cy="40.11" cx="130.279" opacity="0.27" fill="#6E6E96" id="Oval"></circle>
            <path fill="#F7E2CD" id="Shape" d="M118.047,125.028 C118.047,125.028 121.139,161.685 148.962,172.726 C176.785,183.768 197.68,139.162 171.927,139.162 C142.805,139.162 133.985,129.481 133.063,118.848 C132.145,108.21 118.047,110.505 118.047,125.028 Z"></path>
            <path fill="#E3D0BC" id="Shape" d="M118.047,125.028 C118.047,125.028 121.139,161.685 148.962,172.726 C175.193,183.136 195.262,144.087 175.887,139.587 C181.942,145.641 182.694,155.126 158.942,160.398 C135.189,165.667 118.047,125.028 118.047,125.028"></path>
            <path fill="#FFF3E8" id="Shape" d="M79.28,80.81 C75.623,66.222 54.263,58.085 31.564,62.632 C8.867,67.181 0.245,81.884 3.9,96.47 C4.75,99.863 6.196,102.944 8.19,105.626 C4.133,94.809 10.343,76.977 29.557,69.667 C49.995,61.893 71.175,70.134 76.87,81.395 C80.366,88.31 77.199,96.794 69.506,104.117 C77.375,97.455 81.33,88.987 79.28,80.81 Z"></path>
            <path opacity="0.15" fill="#6E6E96" id="Shape" d="M102.188,80.195 C102.188,80.195 94.995,74.667 120.662,76.334 C146.329,78.001 157.449,77.548 160.996,74.001 C160.996,74.001 160.996,94.939 160.996,97.431 C160.996,97.431 170.376,99.344 173.95,95.77 L173.95,69.667 C173.95,69.667 190.39,64.54 192.329,60.667 C192.329,60.667 195.661,82.009 195.661,87.494 C195.661,87.494 202.152,87.207 206.627,76.875 C206.627,76.875 204.58,58.897 202.329,54.333 C202.329,54.333 208.662,46.666 208.662,44.333 C208.662,42 204.543,42 204.543,42 C204.543,42 168.227,83.798 101.777,68.065 C101.777,68.066 94.434,72.441 102.188,80.195 Z"></path>
            <path fill="#90C2AC" id="Shape" d="M57.386,33.229 C57.386,33.229 87.158,78.845 163.077,56.037 C163.077,56.037 207.609,40.789 195.759,28.939 C195.759,28.939 206.12,37.36 204.543,42.001 C202.966,49.918 166.779,75.286 120.662,69.503 C72.702,65.563 52.404,47.104 51.737,40.167 L57.386,33.229 Z"></path>
            <path fill="#90C2AC" id="Shape" d="M149.316,25.491 C149.316,25.491 157.91,42.767 156.098,57.654 L171.21,54.168 C171.21,54.168 167.345,27.895 163.175,20.654 L149.316,25.491 Z"></path>
            <path fill="#90C2AC" id="Shape" d="M107.765,61.189 C107.765,61.189 108.061,33.26 116.844,24.477 C125.627,15.694 117.824,23.497 117.824,23.497 L104.309,18.718 C104.309,18.718 93.249,40.673 93.249,57.711 C93.249,57.712 103.069,61.189 107.765,61.189 Z"></path>
            <path fill="#90C2AC" id="Shape" d="M73.563,48.217 C73.563,48.217 84.25,17.846 98.63,13.308 L95.755,9.743 C95.755,9.743 74.212,25.952 69.616,45.368 L73.563,48.217 Z"></path>
            <path opacity="0.4" fill="#FFFFFF" id="Shape" d="M177.203,30.732 C178.549,32.848 178.629,35.207 177.38,36.001 C176.133,36.795 174.567,35.187 173.221,33.07 C171.874,30.954 171.258,29.132 172.507,28.338 C173.753,27.544 175.855,28.616 177.203,30.732 Z"></path>
            <path opacity="0.4" fill="#FFFFFF" id="Shape" d="M88.084,29.109 C86.278,31.854 86.028,34.511 87.528,35.044 C89.026,35.577 91.073,33.337 92.88,30.592 C94.686,27.847 95.567,25.637 94.067,25.105 C92.569,24.571 89.891,26.364 88.084,29.109 Z"></path>
            <path fill="#A1D9C2" id="Shape" d="M173.3,14.195 C171.666,13.713 170.04,13.301 168.428,12.945 C160.177,5.332 146.093,0.315 130.096,0.315 C116.447,0.315 104.191,3.97 95.762,9.77 C95.493,9.793 95.22,9.833 94.949,9.86 C101.809,20.193 117.568,27.423 135.92,27.423 C151.576,27.423 165.341,22.157 173.312,14.196 C173.307,14.196 173.305,14.196 173.3,14.195 Z"></path>
            <path opacity="0.75" fill="#FFFFFF" id="Shape" d="M150.771,9.162 C156.171,11.49 158.352,14.683 155.639,16.295 C152.925,17.906 147.351,16.366 141.948,14.038 C136.55,11.71 133.367,9.477 136.081,7.865 C138.793,6.253 145.371,6.834 150.771,9.162 Z"></path>
        </g>
    </g>
</svg>