<?xml version="1.0" standalone="no"?><!DOCTYPE svg PUBLIC "-//W3C//DTD SVG 1.1//EN" "http://www.w3.org/Graphics/SVG/1.1/DTD/svg11.dtd"><svg t="1672372432805" class="icon" viewBox="0 0 1024 1024" version="1.1" xmlns="http://www.w3.org/2000/svg" p-id="2519" xmlns:xlink="http://www.w3.org/1999/xlink" width="200" height="200"><path d="M864.764587 237.851307c-59.941547-53.097813-155.685547-49.37728-213.85216 8.31488-58.170027 57.7024-56.73984 147.5072 3.177813 200.618666 59.948373 53.101227 155.706027 49.37728 213.855573-8.318293 58.176853-57.698987 56.746667-147.514027-3.181226-200.615253z" fill="#FFA300" p-id="2520"></path><path d="M755.387733 504.773973c-43.021653 0-83.821227-15.151787-114.879146-42.65984-32.79872-29.074773-51.524267-68.747947-52.72576-111.714986-1.23904-44.20608 16.05632-86.388053 48.708266-118.77376 33.170773-32.897707 79.45216-51.766613 126.98624-51.766614 43.021653 0 83.8144 15.151787 114.868907 42.663254 32.802133 29.064533 51.531093 68.734293 52.736 111.704746 1.242453 44.212907-16.059733 86.39488-48.715093 118.780587-33.15712 32.894293-79.445333 51.766613-126.979414 51.766613z m8.086187-283.9552c-36.8128 0-72.584533 14.537387-98.14016 39.888214-24.528213 24.326827-37.5296 55.773867-36.611413 88.54528 0.884053 31.532373 14.718293 60.726613 38.949546 82.20672 23.552 20.862293 54.705493 32.354987 87.712427 32.354986 36.8128 0 72.584533-14.537387 98.133333-39.888213 24.53504-24.33024 37.536427-55.77728 36.61824-88.552107-0.887467-31.52896-14.721707-60.7232-38.956373-82.19648-23.552-20.865707-54.70208-32.3584-87.7056-32.3584z" fill="#FF9022" p-id="2521"></path><path d="M649.7792 351.941973a20.821333 20.821333 0 0 1-3.734187-0.341333l-82.059946-15.121067a20.48 20.48 0 0 1 7.420586-40.280746l82.059947 15.121066a20.48 20.48 0 0 1-3.6864 40.62208z" fill="#D1783B" p-id="2522"></path><path d="M563.63008 612.549973c-16.203093 0-30.580053-11.584853-33.553067-28.091733-40.76544-226.44736 2.491733-503.077547 4.355414-514.740907 2.9696-18.612907 20.473173-31.290027 39.079253-28.32384 18.612907 2.9696 31.300267 20.462933 28.33408 39.079254-0.436907 2.74432-43.267413 277.026133-4.584107 491.895466 3.341653 18.55488-8.994133 36.3008-27.5456 39.63904-2.041173 0.361813-4.078933 0.54272-6.085973 0.54272z" fill="#B56224" p-id="2523"></path><path d="M457.386667 611.037867a20.48 20.48 0 0 1-15.77984-33.518934l81.79712-99.065173a20.483413 20.483413 0 0 1 31.586986 26.08128l-81.800533 99.065173a20.45952 20.45952 0 0 1-15.803733 7.437654z" fill="#D1783B" p-id="2524"></path><path d="M312.347483 955.517752a179.79392 198.611627 16.822 1 0 114.956155-380.225454 179.79392 198.611627 16.822 1 0-114.956155 380.225454Z" fill="#FFA300" p-id="2525"></path><path d="M359.929173 983.04c-18.1248 0-36.12672-2.665813-53.504-7.918933-105.70752-31.95904-163.263147-152.036693-128.303786-267.6736 28.422827-94.01344 111.32928-159.67232 201.611946-159.67232 18.1248 0 36.123307 2.6624 53.500587 7.91552 105.70752 31.962453 163.263147 152.04352 128.29696 267.677013C533.111467 917.38112 450.208427 983.04 359.929173 983.04z m19.80416-394.308267c-72.379733 0-139.165013 53.68832-162.4064 130.566827-28.422827 94.020267 16.861867 191.19104 100.949334 216.613547A143.889067 143.889067 0 0 0 359.929173 942.08c72.37632 0 139.158187-53.68832 162.39616-130.566827 28.42624-94.016853-16.85504-191.19104-100.94592-216.61696a143.824213 143.824213 0 0 0-41.64608-6.16448z" fill="#FF9022" p-id="2526"></path><path d="M313.77408 841.29792l16.541013 15.633067 22.616747-2.525867-9.755307 20.565333 9.383254 20.732587-22.572374-2.925227-16.81408 15.325867-4.1984-22.357333-19.776853-11.267414 19.981653-10.902186z" fill="#B56224" p-id="2527"></path><path d="M288.4096 746.386773a17.066667 17.066667 0 0 1-16.820907-20.053333c5.614933-31.6416 17.547947-59.426133 35.47136-82.582187a17.063253 17.063253 0 1 1 26.99264 20.886187c-14.506667 18.746027-24.214187 41.51296-28.85632 67.662507a17.076907 17.076907 0 0 1-16.786773 14.086826z" fill="#FFFFFF" p-id="2528"></path><path d="M278.838613 788.363947m-20.855466 0a20.855467 20.855467 0 1 0 41.710933 0 20.855467 20.855467 0 1 0-41.710933 0Z" fill="#FFFFFF" p-id="2529"></path><path d="M658.42176 519.980373a20.425387 20.425387 0 0 1-14.721707-6.23616l-89.347413-92.32384a20.48 20.48 0 1 1 29.433173-28.484266l89.347414 92.32384a20.473173 20.473173 0 0 1-0.474454 28.955306 20.394667 20.394667 0 0 1-14.237013 5.76512z" fill="#D1783B" p-id="2530"></path><path d="M609.31072 721.2032c60.37504 91.589973 176.523947 121.524907 259.4304 66.870613 82.909867-54.657707 101.184853-173.18912 40.820053-264.772266-60.378453-91.583147-176.52736-121.521493-259.433813-66.870614-82.91328 54.654293-101.184853 173.18912-40.81664 264.772267z" fill="#FFA300" p-id="2531"></path><path d="M776.553813 835.867307h-0.01024c-72.748373-0.003413-141.656747-38.652587-184.333653-103.389867-66.481493-100.864-45.55776-232.36608 46.6432-293.147307 30.460587-20.077227 66.235733-30.692693 103.46496-30.692693 72.748373 0 141.66016 38.652587 184.343893 103.389867 66.47808 100.860587 45.550933 232.36608-46.646613 293.143893-30.460587 20.08064-66.24256 30.696107-103.461547 30.696107z m-34.235733-386.269867c-29.190827 0-57.16992 8.27392-80.919893 23.93088-73.342293 48.349867-89.040213 154.39872-34.986667 236.404053 34.54976 52.40832 92.081493 84.97152 150.135467 84.974934h0.006826c29.184 0 57.163093-8.277333 80.913067-23.934294 73.345707-48.349867 89.043627-154.39872 34.993493-236.404053-34.553173-52.40832-92.08832-84.97152-150.142293-84.97152z" fill="#FF9022" p-id="2532"></path><path d="M852.855467 704.781653l-11.390294 19.698347-22.40512 4.048213 15.220054 16.923307-3.068587 22.54848 20.794027-9.24672 20.486826 9.895253-2.362026-22.637226 15.745706-16.428374-22.254933-4.75136z" fill="#B56224" p-id="2533"></path><path d="M876.680533 659.746133m-20.845226 0a20.845227 20.845227 0 1 0 41.690453 0 20.845227 20.845227 0 1 0-41.690453 0Z" fill="#FFFFFF" p-id="2534"></path><path d="M782.36672 301.882027m-20.845227 0a20.845227 20.845227 0 1 0 41.690454 0 20.845227 20.845227 0 1 0-41.690454 0Z" fill="#FFFFFF" p-id="2535"></path><path d="M415.941973 390.567253a20.48 20.48 0 0 1-10.94656-37.80608l108.663467-68.539733a20.48 20.48 0 1 1 21.85216 34.645333l-108.663467 68.539734a20.370773 20.370773 0 0 1-10.9056 3.160746z" fill="#D1783B" p-id="2536"></path><path d="M208.981333 276.596053c-102.01088 40.338773-155.10528 147.88608-118.603093 240.2304 36.51584 92.34432 148.800853 134.51264 250.804907 94.184107 102.01088-40.32512 155.108693-147.87584 118.59968-240.216747-36.512427-92.357973-148.79744-134.52288-250.801494-94.19776z" fill="#FFA300" p-id="2537"></path><path d="M261.850453 646.785707h-0.013653c-86.319787-0.006827-161.09568-48.063147-190.50496-122.42944-40.594773-102.693547 17.77664-222.38208 130.116267-266.806614 28.081493-11.10016 57.306453-16.728747 86.872746-16.728746 86.3232 0 161.102507 48.063147 190.508374 122.443093 19.8144 50.107733 16.960853 105.58464-8.034987 156.2112-24.654507 49.933653-68.007253 89.207467-122.08128 110.58176-28.07808 11.10016-57.30304 16.728747-86.862507 16.728747z m26.4704-365.0048c-24.388267 0-48.54784 4.662613-71.81312 13.861546-91.337387 36.119893-139.37664 131.966293-107.083093 213.6576 23.18336 58.630827 83.012267 96.525653 152.41216 96.529067h0.01024c24.38144 0 48.5376-4.662613 71.80288-13.86496 44.60544-17.629867 80.264533-49.8176 100.410027-90.620587 19.80416-40.116907 22.176427-83.807573 6.673066-123.019946-23.179947-58.647893-83.008853-96.54272-152.41216-96.54272z" fill="#FF9022" p-id="2538"></path><path d="M187.265707 535.729493l2.409813-22.616746 18.834773-12.796587-20.773546-9.28768-6.3488-21.848747-15.250774 16.882347-22.746453-0.7168 11.34592 19.72224-7.717547 21.405013 22.272-4.68992z" fill="#B56224" p-id="2539"></path><path d="M163.812693 397.175467m-20.845226 0a20.845227 20.845227 0 1 0 41.690453 0 20.845227 20.845227 0 1 0-41.690453 0Z" fill="#FFFFFF" p-id="2540"></path><path d="M204.936533 375.985493a17.066667 17.066667 0 0 1-10.970453-30.14656c24.4736-20.514133 58.047147-32.310613 94.539093-33.221973 9.304747-0.24576 17.250987 7.212373 17.486507 16.636587a17.066667 17.066667 0 0 1-16.636587 17.486506c-28.378453 0.70656-55.156053 9.91232-73.46176 25.258667a17.00864 17.00864 0 0 1-10.9568 3.986773zM862.696107 621.882027a17.066667 17.066667 0 0 1-16.749227-13.902507c-4.918613-26.043733-18.305707-51.162453-37.69344-70.731093a17.066667 17.066667 0 0 1 24.244907-24.02304c24.128853 24.35072 40.81664 55.753387 46.987946 88.418986a17.066667 17.066667 0 0 1-16.790186 20.237654z" fill="#FFFFFF" p-id="2541"></path></svg>