<?xml version="1.0" standalone="no"?><!DOCTYPE svg PUBLIC "-//W3C//DTD SVG 1.1//EN" "http://www.w3.org/Graphics/SVG/1.1/DTD/svg11.dtd"><svg t="1671195446966" class="icon" viewBox="0 0 1024 1024" version="1.1" xmlns="http://www.w3.org/2000/svg" p-id="5405" xmlns:xlink="http://www.w3.org/1999/xlink" width="200" height="200"><path d="M550.27 835.66C537 886.67 485.91 924.49 426.5 908c-57.67-16-83.5-63.67-60.5-124.5 15-39.56 79-87.83 112.67-87.83" fill="#8B66D3" p-id="5406"></path><path d="M454.4 921.86a114.27 114.27 0 0 1-30.57-4.22c-31.3-8.68-54.32-26.06-66.59-50.25-12.61-24.86-12.81-55.1-0.59-87.43 16-42.3 83.28-94.3 122-94.3v20c-28 0-89.35 44.43-103.31 81.37-10.18 26.93-10.28 51.59-0.28 71.31 9.66 19 28.36 32.88 54.1 40 24.07 6.68 47.67 3.95 68.23-7.9 21.14-12.18 36.88-33.08 43.19-57.32l19.36 5c-7.65 29.4-26.81 54.77-52.56 69.61a105.69 105.69 0 0 1-52.98 14.13z" fill="#786B59" p-id="5407"></path><path d="M644.64 323.19c41.89 9.16 69.06 47.64 60.68 86s-52.17 71-91 52.8c-42-19.61-93.67-57.35-73.1-103 16.11-35.75 66.97-43.77 103.42-35.8z" fill="#8B66D3" p-id="5408"></path><path d="M637.42 477.11a64.27 64.27 0 0 1-27.34-6.1c-15.36-7.18-44-22.46-63.25-44.16-20.47-23.07-25.56-48-14.74-72 8.62-19.11 26.07-32.88 50.48-39.81 19.84-5.64 43.25-6.24 64.21-1.66 22.71 5 42.32 17.77 55.22 36 13.1 18.62 17.75 40.62 13.09 61.91-5.35 24.46-23 46.74-46.08 58.15a71.18 71.18 0 0 1-31.59 7.67zM618 330.36c-28.83 0-57.63 10.51-67.66 32.75-20 44.37 47.16 79.94 68.22 89.78 16.5 7.71 31.73 3.51 41.6-1.38 17.49-8.65 31.39-26.12 35.41-44.5 3.45-15.76-0.07-32.1-9.89-46-10-14.19-25.34-24.15-43.16-28a115.57 115.57 0 0 0-24.52-2.65z" fill="#786B59" p-id="5409"></path><path d="M478.47 419.92c-39 16-79.2 18.81-98.59-10.25s-10-76.21 25.1-99.61c30.51-20.36 82.45-14.18 101.84 14.87s16.74 76.44-28.35 94.99z" fill="#8B66D3" p-id="5410"></path><path d="M426.44 441.8c-24.1 0-43.11-8.95-54.87-26.57-11-16.44-14.36-38.22-9.29-59.77a88.74 88.74 0 0 1 37.15-53.71c16.73-11.17 39.32-15.79 62-12.69 23.41 3.21 43 14.26 53.72 30.33 12.78 19.14 16.52 43.3 10 64.64-4.37 14.34-15.36 33.82-42.88 45.14-20.52 8.44-39.37 12.63-55.83 12.63z m21.36-133.67c-13.92 0-27.32 3.61-37.26 10.25A68.81 68.81 0 0 0 381.75 360c-3.81 16.17-1.45 32.24 6.45 44.08 19.91 29.83 67.1 14.52 86.47 6.55 16.05-6.61 26.9-17.84 31.36-32.48 4.7-15.43 1.82-33.71-7.52-47.7-7.55-11.31-22.05-19.19-39.79-21.61a80.53 80.53 0 0 0-10.92-0.71z" fill="#786B59" p-id="5411"></path><path d="M317.08 634.24c-80.91-3.33-107.83-91.19-41.08-153.54 32.18-30.07 115.55-58.73 158.92-30L475 514.14z" fill="#8B66D3" p-id="5412"></path><path d="M320.27 644.38l-3.6-0.15c-39.72-1.64-70.76-22.39-83-55.51-14-37.63-0.34-81.82 35.52-115.34 18-16.78 48.51-31.9 79.74-39.45 37.22-9 69.73-6 91.54 8.48l1.78 1.18 46.15 72.95z m68.66-195.5c-38.08 0-84 18.4-106.13 39.12-29.87 27.91-41.53 63.84-30.43 93.77 9 24.35 31.91 40 61.6 42.27l147.68-112.31-34-53.74c-10.55-6.37-24.06-9.1-38.72-9.1z" fill="#786B59" p-id="5413"></path><path d="M501.33 634.24c-14 50.42-40.75 68.22-85.79 81.1-34.46 9.85-86.07-6.07-97.31-64.42-9.78-50.78 44.48-129.35 92.31-136.79" fill="#8B66D3" p-id="5414"></path><path d="M395.5 728.1a88.87 88.87 0 0 1-46.21-13c-14.94-9.18-34.16-27.44-40.87-62.31-5.22-27.08 5.16-62.42 27.75-94.54 21.12-30 48.35-50.21 72.84-54l3.07 19.75c-19 2.95-41.77 20.49-59.56 45.77-19.24 27.35-28.61 57.71-24.47 79.25 4.23 21.94 15.19 38.9 31.71 49.05 15.63 9.6 35.95 12.53 53 7.65 41.08-11.75 65.82-27 78.9-74.17l19.34 5.37c-15.46 55.67-46.92 75-92.67 88a83 83 0 0 1-22.83 3.18z" fill="#786B59" p-id="5415"></path><path d="M608 471.67c52.06-15.64 127.5 58.42 137.29 109.2 11.24 58.35-19.77 102-73.14 112.29L550.27 616.1z" fill="#8B66D3" p-id="5416"></path><path d="M670.15 703.73L537.9 620.11l62.6-156.63 4.62-1.39c20.35-6.11 44.51-1.22 69.88 14.13C713.92 499.78 748.36 544 755.11 579c6 30.92 1.17 59.14-13.84 81.62-14.76 22.1-38 36.76-67.23 42.39z m-107.5-91.63l111.41 70.44c22-5.07 39.48-16.44 50.58-33.05 12-18 15.78-41.09 10.84-66.73-5.69-29.55-36.8-68.83-70.82-89.42-13.09-7.93-31.83-16.25-49.28-13.16z" fill="#786B59" p-id="5417"></path><path d="M678.9 712.67c11.24 58.35-22.92 114-76.29 124.27s-105.76-28.68-117-87C475.83 699.13 498 637 561.9 625.64c53.52-9.52 107.22 36.25 117 87.03z" fill="#8B66D3" p-id="5418"></path><path d="M585.28 848.61c-22.2 0-44-7.34-62.94-21.42-24.11-17.93-40.64-44.71-46.55-75.39-6.41-33.28 0.28-68.45 17.9-94.08 15.43-22.44 38.41-36.94 66.46-41.93 61-10.85 118.21 41.2 128.57 95 5.91 30.68 0.51 61.68-15.21 87.29-15.9 25.89-40.4 43.19-69 48.7a101.52 101.52 0 0 1-19.23 1.83z m-8.95-214.24a72.28 72.28 0 0 0-12.68 1.12c-23 4.09-41 15.38-53.48 33.57-14.65 21.31-20.16 50.83-14.74 79 5 25.76 18.76 48.18 38.85 63.12 19.82 14.74 43.41 20.42 66.44 16s42.82-18.47 55.75-39.52c13.1-21.34 17.58-47.28 12.62-73-7.71-40.05-48.34-80.29-92.75-80.29z" fill="#786B59" p-id="5419"></path><path d="M612.39 523.31c0 59.42-44.06 107.6-98.42 107.6s-98.42-48.17-98.42-107.6c0-51.71 45.62-107.59 100-107.59s96.84 55.88 96.84 107.59z" fill="#8B66D3" p-id="5420"></path><path d="M514 640.91c-59.78 0-108.42-52.75-108.42-117.6 0-27.81 11.71-56.91 32.14-79.84 21.37-24 49.74-37.75 77.84-37.75 28.44 0 55.58 13.46 76.43 37.91 19.34 22.69 30.44 51.73 30.44 79.67-0.04 64.85-48.68 117.61-108.43 117.61z m1.56-215.18c-49.84 0-90 53.39-90 97.59 0 53.81 39.67 97.6 88.42 97.6s88.42-43.78 88.42-97.6c-0.01-45.14-37.95-97.6-86.87-97.6z" fill="#786B59" p-id="5421"></path><path d="M523 422h-0.74a10 10 0 0 1-9.25-10.7c0.17-2.38 16.11-238.34-83-293.77a10 10 0 0 1 9.77-17.53c26.14 14.62 47.26 40.59 62.77 77.19 12.05 28.45 20.81 63.47 26 104.09A729.28 729.28 0 0 1 533 412.73a10 10 0 0 1-10 9.27z" fill="#786B59" p-id="5422"></path><path d="M559.89 286S509.6 141.59 721.32 118.64c0 0 4.41 191.29-161.43 167.36z" fill="#52D9B7" p-id="5423"></path><path d="M587.45 298.1a203.36 203.36 0 0 1-29-2.17 10 10 0 0 1-8-6.61c-0.78-2.24-18.71-55.33 12.55-104.75 26.5-41.91 79.41-67.43 157.25-75.87a10 10 0 0 1 11.08 9.71c0.09 4 1.58 97.74-55.72 148.55-23.38 20.72-52.95 31.14-88.16 31.14zM567.77 277c39.14 4.37 70.93-4 94.55-25C702 216.8 709.6 155.09 711 130c-65.07 8.81-109.1 30.68-131 65.08-20.67 32.52-15.41 68.17-12.23 81.92z" fill="#786B59" p-id="5424"></path><path d="M460.65 517a10 10 0 0 1-8.37-15.45l10.84-16.68a10 10 0 1 1 16.77 10.9L469 512.45a10 10 0 0 1-8.35 4.55zM426.21 390a10 10 0 0 1-9.29-13.69l5.42-13.65a10 10 0 0 1 18.59 7.34l-5.42 13.65a10 10 0 0 1-9.3 6.35zM590.21 396.8a10 10 0 0 1-9.29-13.69l5.42-13.65a10 10 0 1 1 18.59 7.38l-5.42 13.65a10 10 0 0 1-9.3 6.31zM645.46 589.92a10 10 0 0 1-9.29-13.69l5.42-13.65a10 10 0 1 1 18.59 7.42l-5.42 13.65a10 10 0 0 1-9.3 6.27zM290.57 542.91a10 10 0 0 1-8.37-15.45l10.8-16.69a10 10 0 1 1 16.77 10.9L299 538.36a10 10 0 0 1-8.43 4.55zM406.83 806.38a10 10 0 0 1-8.37-15.45l10.84-16.68a10 10 0 1 1 16.77 10.9l-10.84 16.68a10 10 0 0 1-8.4 4.55zM537.52 726.05a10 10 0 0 1-8.37-15.45L540 693.92a10 10 0 0 1 16.77 10.9l-10.85 16.68a10 10 0 0 1-8.4 4.55zM364.87 624.46a10 10 0 0 1-8.87-14.61l9.18-17.65a10 10 0 1 1 17.75 9.22l-9.18 17.65a10 10 0 0 1-8.88 5.39z" fill="#FFFFFF" p-id="5425"></path></svg>