<svg xmlns:xlink="http://www.w3.org/1999/xlink" xmlns="http://www.w3.org/2000/svg" version="1.1" viewBox="0 0 204 249" height="249px" width="204px">
    
    <title>鸡</title>
    <desc>Created with Sketch.</desc>
    <defs></defs>
    <g fill-rule="evenodd" fill="none" stroke-width="1" stroke="none" id="Page-1">
        <g id="鸡">
            <path stroke-linejoin="round" stroke-linecap="round" opacity="0.05" stroke-width="8" stroke="#000000" id="Shape" d="M47.376,244.574 L129.876,244.574"></path>
            <path fill-rule="nonzero" fill="#FF87CF" id="Shape" d="M96.216,25.704 C104.148,26.496 119.761,32.602 104.177,40.703 C97.6,44.121 99.799,55.823 98.917,58.448 C98.917,58.448 85.451,46.898 62.141,46.672 C44.502,46.498 33.836,36.894 37.363,26.4 C40.89,15.906 76.937,-11.563 75.241,5.403 C73.186,25.924 88.479,24.93 96.216,25.704 Z"></path>
            <path opacity="0.15" fill-rule="nonzero" fill="#6E6E96" id="Shape" d="M100.605,43.435 C102.399,39.165 112.147,37.519 108.317,33.69 C107.29,32.939 99.933,28.919 90.829,30.113 C87.648,31.484 108.317,33.69 91.742,42.871 C87.672,48.625 77.513,43.139 63.884,35.698 C26.875,32.358 61.357,4.094 61.375,4.074 C52.996,10.079 38.954,21.664 37.362,26.399 C33.835,36.893 44.502,46.497 62.14,46.67 C85.45,46.899 98.916,58.446 98.916,58.446 C97.532,54.872 98.355,48.784 100.605,43.435 Z"></path>
            <path fill-rule="nonzero" fill="#FFBF00" id="Shape" d="M65.953,207.536 C65.953,207.536 83.854,220.569 83.854,239.682 C83.854,246.819 83.854,239.682 83.854,239.682 L92.316,239.682 C92.316,239.682 98.234,212.148 103.321,212.203 C103.321,212.205 80.692,207.536 65.953,207.536 Z"></path>
            <path fill-rule="nonzero" fill="#FFBF00" id="Shape" d="M111.658,244.042 C111.658,250.781 101.644,247.601 89.294,247.601 C76.942,247.601 66.928,249.994 66.928,244.042 C66.928,241.196 76.942,238.893 89.294,238.893 C101.645,238.89 111.658,241.196 111.658,244.042 Z"></path>
            <path fill-rule="nonzero" fill="#FFD9DB" id="Shape" d="M149.845,148.69 C145.771,192.136 113.017,224.596 76.679,221.19 C40.346,217.786 1.882,176.802 18.263,136.357 C30.426,106.327 24.267,92.829 26.714,75.945 C29.879,54.105 39.1,41.793 59.614,43.48 C108.396,47.491 153.917,105.244 149.845,148.69 Z"></path>
            <path fill-rule="nonzero" fill="#BABADB" id="Shape" d="M115.071,181.264 C111.18,181.944 107.534,187.706 107.534,187.706 C107.534,187.706 152.629,211.474 194.675,164.893 C194.675,164.893 220.509,132.837 185.013,131.413 C152.29,130.1 160.882,173.261 115.071,181.264 Z"></path>
            <path fill-rule="nonzero" fill="#C5C5E8" id="Shape" d="M121.885,181.392 C118.741,182.413 116.398,187.621 116.398,187.621 C116.398,187.621 156.568,202.012 185.933,158.458 C185.933,158.458 203.57,128.854 173.984,131.852 C146.709,134.607 158.909,169.367 121.885,181.392 Z"></path>
            <path fill-rule="nonzero" fill="#EDB4B8" id="Shape" d="M30.386,61.227 C28.715,65.471 27.518,70.4 26.715,75.946 C25.121,86.947 27.176,96.514 25.44,110.15 C32.765,87.529 29.059,75.182 30.386,61.227 Z M80.679,203.69 C74.021,202.219 68.869,196.445 66.369,193.067 C31.042,145.349 86.404,220.224 32.594,176.296 C23.373,164.792 16.95,154.04 23.376,128.572 C23.313,128.728 18.327,136.197 18.263,136.355 C1.882,176.8 40.346,217.784 76.679,221.188 C112.071,224.502 144.054,193.792 149.458,152.045 C138.635,184.53 110.905,206.523 80.679,203.69 Z"></path>
            <path fill-rule="nonzero" fill="#BABADB" id="Shape" d="M141.263,166.139 C141.263,166.139 178.701,135.539 160.372,101.783 C142.048,68.022 216.893,88.292 186.726,133.148 C164.085,166.823 139.409,180.231 132.603,178.211 L141.263,166.139 Z"></path>
            <path opacity="0.4" fill-rule="nonzero" fill="#FFF5F5" id="Shape" d="M59.208,42.793 C38.694,41.105 29.473,53.418 26.308,75.258 C25.227,82.715 25.824,89.514 25.781,97.364 C25.848,96.775 25.922,96.183 26.01,95.586 C29.208,73.795 38.527,52.883 59.256,54.567 C71.481,55.56 86.92,81.917 97.777,87.701 C102.634,90.288 89.425,59.525 108.9,78.999 C129.388,97.895 144.833,124.743 149.343,148.836 C149.371,148.558 149.412,148.282 149.439,148.002 C153.511,104.556 107.989,46.803 59.208,42.793 Z"></path>
            <path fill-rule="nonzero" fill="#C5C5E8" id="Shape" d="M145.957,164.818 C145.957,164.818 174.634,132.533 158.228,100.448 C141.822,68.357 203.111,83.841 180.986,129.703 C164.382,164.137 145.148,178.774 139.568,177.197 L145.957,164.818 Z"></path>
            <path fill-rule="nonzero" fill="#EDB4B8" id="Shape" d="M21.229,153.339 C21.229,153.339 17.876,140.074 27.876,140.074 C37.876,140.074 48.158,114.619 37.23,91.928 C37.23,91.928 9.864,127.603 21.229,153.339 Z"></path>
            <path fill-rule="nonzero" fill="#FF87CF" id="Shape" d="M37.831,110.522 C37.831,121.268 34.895,129.979 28.92,129.979 C22.944,129.979 14.183,124.646 14.183,113.901 C14.183,103.155 25.809,91.067 31.786,91.067 C37.761,91.066 37.831,99.777 37.831,110.522 Z"></path>
            <path fill-rule="nonzero" fill="#C5C5E8" id="Shape" d="M146.453,146.49 C146.453,146.49 166.143,92.522 126.942,69.149 C87.741,45.774 176.501,21.083 172.891,85.205 C170.186,133.348 153.106,162.014 144.93,164.079 L146.453,146.49 Z"></path>
            <path fill-rule="nonzero" fill="#EDB4B8" id="Shape" d="M55.94,150.353 C55.94,150.353 62.945,192.429 98.934,205.13 L115.876,195.073 L55.94,150.353 Z"></path>
            <path fill-rule="nonzero" fill="#FFBF00" id="Shape" d="M39.488,77.004 C42.429,83.632 41.27,90.931 33.731,94.002 C26.191,97.077 2.719,94.953 0,91.11 C0,91.11 1.018,81.16 20.536,70.992 C27.769,67.225 36.548,70.375 39.488,77.004 Z"></path>
            <path fill-rule="nonzero" fill="#EDB4B8" id="Shape" d="M134.399,118.119 C156.781,137.765 170.082,176.182 155.971,192.257 C141.858,208.335 92.929,195.137 70.545,175.493 C48.162,155.847 53.073,126.674 68.32,111.664 C90.058,90.271 112.019,98.475 134.399,118.119 Z"></path>
            <path fill-rule="nonzero" fill="#FFD9DB" id="Shape" d="M124.309,112.647 C143.206,129.234 154.437,161.669 142.523,175.246 C131.771,178.048 119.923,161.01 115.865,159.788 C119.924,163.849 127.511,181.685 120.273,181.168 C103.459,179.967 86.629,174.806 70.398,158.574 C51.5,139.676 55.646,119.871 68.519,107.197 C86.87,89.133 105.412,96.06 124.309,112.647 Z"></path>
            <circle r="9.521" cy="70.694" cx="60.496" opacity="0.43" fill-rule="nonzero" fill="#EDB4B8" id="Oval"></circle>
            <path opacity="0.15" fill-rule="nonzero" fill="#6E6E96" id="Shape" d="M167.267,57.842 C175.084,70.361 176.64,111.757 159.273,144.902 C154.883,153.276 173.648,98.912 150.919,66.577 C142.51,54.614 123.765,55.92 131.26,50.159 C138.757,44.394 159.446,45.326 167.267,57.842 Z"></path>
            <circle r="4.333" cy="70.907" cx="60.709" fill-rule="nonzero" fill="#6E6E96" id="Oval"></circle>
            <path opacity="0.51" fill-rule="nonzero" fill="#FFF59F" id="Shape" d="M2.012,89.629 C2.012,89.629 37.202,85.775 37.202,78.02 C37.202,70.265 16.087,63.623 2.012,89.629 Z"></path>
            <path opacity="0.15" fill-rule="nonzero" fill="#6E6E96" id="Shape" d="M24.688,97.888 C24.688,97.888 17.626,110.824 23.376,116.574 C29.126,122.324 36.564,110.035 34.675,96.317 C34.675,96.317 42.208,131.005 27.445,131.005 C17.642,131.005 6.879,106.949 24.688,97.888 Z"></path>
        </g>
    </g>
</svg>