<?xml version="1.0" encoding="UTF-8"?>
<svg width="310px" height="246px" viewBox="0 0 310 246" version="1.1" xmlns="http://www.w3.org/2000/svg" xmlns:xlink="http://www.w3.org/1999/xlink">
    <!-- Generator: Sketch 61.2 (89653) - https://sketch.com -->
    <title>西瓜+蓝莓+樱桃</title>
    <desc>Created with Sketch.</desc>
    <defs>
        <linearGradient x1="50%" y1="0%" x2="50%" y2="100%" id="linearGradient-1">
            <stop stop-color="#F95555" offset="0%"></stop>
            <stop stop-color="#F95454" offset="2.00097081%"></stop>
            <stop stop-color="#F02A2A" offset="100%"></stop>
        </linearGradient>
        <path d="M116.123134,14.009636 C106.962906,14.0012367 98.1012247,17.2482717 91.1367701,23.1649643 C79.8094405,4.98029029 57.914319,-3.77841069 37.0779685,1.53983289 C16.241618,6.85807646 1.2959846,25.0199648 0.177372461,46.3813252 C-0.941239679,67.7426855 12.0265754,87.3498221 32.194758,94.7911185 C52.3629405,102.232415 75.0544924,95.782236 88.2199372,78.8657012 C100.351043,91.6146231 119.626172,94.5737711 135.059298,86.0565535 C150.492424,77.5393359 158.163572,59.7091056 153.700504,42.7283548 C149.237436,25.747604 133.773762,13.9294028 116.123134,14.009636 Z" id="path-2"></path>
        <linearGradient x1="50%" y1="0%" x2="50%" y2="100%" id="linearGradient-4">
            <stop stop-color="#64AE6B" offset="0%"></stop>
            <stop stop-color="#347639" offset="100%"></stop>
        </linearGradient>
        <radialGradient cx="69.2818807%" cy="35.2836106%" fx="69.2818807%" fy="35.2836106%" r="78.6541069%" gradientTransform="translate(0.692819,0.352836),scale(0.845374,1.000000),rotate(-180.000000),scale(1.000000,0.687940),translate(-0.692819,-0.352836)" id="radialGradient-5">
            <stop stop-color="#A8D878" offset="0%"></stop>
            <stop stop-color="#6FAF43" offset="100%"></stop>
        </radialGradient>
        <path d="M0.431156693,80.7023782 C0.431156693,125.275322 43.1676869,161.404756 95.8947045,161.404756 C148.621722,161.404756 191.358252,125.275322 191.358252,80.7023782 C191.358252,36.1294347 148.621722,4.54747351e-12 95.8947045,4.54747351e-12 C43.1676869,4.54747351e-12 0.431156693,36.1693567 0.431156693,80.7023782 Z" id="path-6"></path>
        <radialGradient cx="66.3006026%" cy="33.8775814%" fx="66.3006026%" fy="33.8775814%" r="117.512377%" gradientTransform="translate(0.663006,0.338776),scale(0.592468,1.000000),rotate(-180.000000),scale(1.000000,0.818459),translate(-0.663006,-0.338776)" id="radialGradient-8">
            <stop stop-color="#6FAF43" offset="0%"></stop>
            <stop stop-color="#347639" offset="100%"></stop>
        </radialGradient>
    </defs>
    <g id="蔬菜水果" stroke="none" stroke-width="1" fill="none" fill-rule="evenodd">
        <g id="西瓜" transform="translate(-1.000000, -2.000000)">
            <ellipse id="椭圆形" fill-opacity="0.1" fill="#000000" cx="159" cy="219" rx="107" ry="29"></ellipse>
            <g id="编组" stroke-width="1" transform="translate(242.150665, 138.272930) rotate(14.000000) translate(-242.150665, -138.272930) translate(164.150665, 59.772930)">
                <g id="路径-5" transform="translate(0.189469, 58.481510)">
                    <mask id="mask-3" fill="white">
                        <use xlink:href="#path-2"></use>
                    </mask>
                    <use id="蒙版" fill="url(#linearGradient-1)" fill-rule="nonzero" xlink:href="#path-2"></use>
                    <path d="M96.233267,27.8269913 C86.0696841,33.8563369 80.2484313,41.6280536 78.7695087,51.1421415 C77.2905862,60.6562294 79.2470266,71.0707378 84.6388301,82.3856665 C76.1382257,91.5518065 63.8450579,96.1348766 47.7593267,96.1348766 C31.6735955,96.1348766 26.7189255,94.7158242 32.8953167,91.8777196 L46.4077418,65.5914645 L59.0464239,27.8269913 C64.2594365,30.6393971 69.8280907,32.0456001 75.7523864,32.0456001 C84.6388301,32.0456001 93.0195087,23.506389 93.0195087,20.7251968 C93.0195087,17.9440046 97.8084127,21.1209951 97.8084127,22.2773835 C97.8084127,23.048309 97.2833642,24.8981783 96.233267,27.8269913 Z" fill-opacity="0.5" fill="#C1083D" mask="url(#mask-3)" transform="translate(64.066684, 57.874544) rotate(-9.000000) translate(-64.066684, -57.874544) "></path>
                    <path d="M84.2303113,76.238609 C92.0429626,82.5605338 102.925596,84.2851311 116.87821,81.4124006 C137.807132,77.103305 153.5909,39.285288 124.199463,13.9593802 C98.9835121,-5.97554641 139.472161,15.9675154 139.472161,16.1137946 C139.472161,16.2600738 161.15548,25.729382 161.15548,25.729382 C161.15548,25.729382 158.819894,57.2575158 158.819894,61.799242 C158.819894,64.8270595 157.340896,70.5831168 154.382901,79.0674139 L106.827566,97.7399525 L104.062233,96.5254126 L81.4320228,86.5861786 L84.2303113,76.238609 Z" id="路径-6" fill="#D91C37" mask="url(#mask-3)" transform="translate(121.293751, 51.668033) rotate(-8.000000) translate(-121.293751, -51.668033) "></path>
                </g>
                <path d="M56.4960218,68.9446172 C55.4767408,68.9446172 54.2114265,77.1172432 62.1196408,80.9449286 C70.0278552,84.772614 77.3737075,79.0483277 76.9870837,78.1862363 C76.6004599,77.3241449 71.5040551,78.4276219 65.3532218,75.2896094 C59.2023886,72.151597 57.5153028,68.7377152 56.4960218,68.9446172 L56.4960218,68.9446172 Z M119.199374,77.7724325 C118.496422,77.4620796 116.176679,80.8759614 110.834241,82.393242 C105.491803,83.9105226 102.609698,82.8760132 102.117631,83.5312027 C101.625565,84.1863922 105.38636,89.5313585 112.134703,87.4623391 C118.883046,85.3933197 119.902327,78.0827853 119.199374,77.7724325 L119.199374,77.7724325 Z" id="形状" fill="#C1083D" fill-rule="nonzero"></path>
                <path d="M91.4738462,43.7246945 L93.0876662,40.8975356 C99.8194615,29.0475803 105.602658,16.6885356 110.383606,3.93505144 C110.594105,2.81814913 102.977608,-1.04809749 100.175971,1.41023863 C97.3743342,3.86857475 100.789022,4.72313337 101.178417,7.28546651 C99.4242645,12.1370108 96.1398909,20.4093596 89.6846111,34.0565093 C74.0375738,67.5635771 60.3863772,77.908295 63.3606696,79.0056158 C63.7236614,79.6036067 65.9121502,79.6563935 66.2599681,79.4577786 C66.5824592,79.2736262 65.590267,77.0185327 65.9845446,76.742706 C70.2146078,73.78346 78.4814389,64.8215695 88.5619536,48.5064323 C93.5389347,54.7762137 98.008482,61.4286596 101.928593,68.4012538 C105.268213,74.2675427 108.805235,82.6656611 109.593802,86.2971439 C110.152839,87.1132817 112.062538,86.4339104 112.242383,85.8255712 C112.109694,85.373742 111.372879,85.1772463 110.829267,84.6665266 C108.642742,77.428794 105.641452,69.1002063 102.174174,62.5724201 C98.3501227,54.8937171 93.3332475,46.7263693 91.4738462,43.7246945 Z" id="路径" fill="#604D42" fill-rule="nonzero"></path>
                <path d="M89.3980102,37.9597745 C89.3980102,37.9597745 80.1965314,22.7264757 63.3037404,22.2293518 C46.4109494,21.7322279 32.3980102,36.4328937 32.3980102,36.4328937 C42.5372649,43.8449564 54.8839086,47.5172511 67.3776774,46.8369882 C83.1115037,45.9847757 89.3980102,37.9597744 89.3980102,37.9597745 L89.3980102,37.9597745 Z" id="路径" fill="#679933" fill-rule="nonzero"></path>
                <path d="M32.3980102,36.4328937 C42.5372649,43.8449564 54.8839086,47.5172511 67.3776774,46.8369882 C83.1115037,45.9847757 89.3980102,37.9597744 89.3980102,37.9597745 C89.3980102,37.9597745 32.3980102,36.4328937 32.3980102,36.4328937 Z" id="路径" fill="#95D13C" fill-rule="nonzero"></path>
                <path d="M16.9402034,83.7601077 C16.4152853,86.0037022 21.1045542,90.0351612 22.7842922,86.5295448 C28.3134301,75.4167406 33.2126662,73.9093255 31.8128845,72.8576406 C27.8934955,69.8778666 17.815067,79.2378625 16.9402034,83.7601077 L16.9402034,83.7601077 Z M37.4820005,66.3722502 C35.9318417,66.7696427 34.9532994,68.3013075 35.2423498,69.8778666 C35.6622844,71.4203378 37.2020442,71.665731 38.7418041,71.2100009 C40.281564,70.7542707 41.4713786,69.772698 41.051444,68.2302268 C40.5371213,66.7646669 38.9747775,65.9514313 37.4820005,66.3722502 L37.4820005,66.3722502 Z M82.4499893,106.86212 C82.4499893,108.614928 86.9642854,110.367737 87.3842198,107.458075 C88.6790179,98.0980789 92.0034996,95.8194282 90.8836742,95.3636981 C87.1042635,94.1367324 82.1350382,103.321447 82.4499893,106.86212 Z M96.4128121,90.0351612 C96.0733041,89.5374406 95.5481399,89.1975232 94.9556645,89.0920088 C94.363189,88.9864943 93.7532526,89.1242607 93.2633032,89.4742625 C92.1891073,90.1384696 91.8462379,91.5435872 92.4934233,92.6293172 C93.1583196,93.645946 94.3481341,93.4706652 95.4329649,92.6293172 C96.5177958,91.7879693 97.0777085,90.876509 96.4128121,90.0351612 L96.4128121,90.0351612 Z" id="形状" fill-opacity="0.5" fill="#FFFFFF" fill-rule="nonzero"></path>
            </g>
            <g id="编组" stroke-width="1" transform="translate(83.500000, 141.000000) scale(-1, 1) translate(-83.500000, -141.000000) translate(1.000000, 68.000000)">
                <path d="M86.7739237,77.2514656 C86.7739237,77.2514656 77.9467676,50.2161367 94.5279744,30.1732999 C111.109181,10.1304631 144.617758,0.576364909 144.617758,0.576364909 C145.658024,18.0597831 140.873819,35.3949187 131.013553,49.8699736 C114.67466,72.9590446 86.7739235,77.2514656 86.7739237,77.2514656 L86.7739237,77.2514656 Z" id="路径" fill="#679933" fill-rule="nonzero"></path>
                <path d="M94.5279744,30.1732999 C111.109181,10.1304631 144.617758,0.576364909 144.617758,0.576364909 C145.658024,18.0597831 140.873819,35.3949187 131.013553,49.8699736 C114.67466,72.9590446 86.7739235,77.2514656 86.7739237,77.2514656 C86.7739237,77.2514656 77.9467676,50.2161367 94.5279744,30.1732999 Z" id="路径" fill="#95D13C" fill-rule="nonzero"></path>
                <path d="M92.3125314,60.4971772 C92.3125314,60.4971772 72.442776,77.0091516 48.0036695,68.9781704 C23.564563,60.9471893 0.267794033,35.9888381 0.267794033,35.9888381 C0.267794033,35.9888381 29.033938,27.7155427 56.0000344,34.6734187 C82.9661309,41.6312948 92.3125314,60.4971772 92.3125314,60.4971772 Z" id="路径" fill="#679933" fill-rule="nonzero"></path>
                <path d="M163.968269,101.067479 C168.883783,121.248781 155.694974,138.868477 135.34059,143.853224 C114.986207,148.837971 95.1510679,139.21464 90.3394023,119.033338 C85.5277368,98.8520357 98.6126977,81.23234 118.967081,76.247593 C139.321464,71.262846 159.018138,80.6784792 163.968269,101.067479 Z" id="路径" fill="#5735B5" fill-rule="nonzero"></path>
                <path d="M133.263612,124.15655 L134.925195,125.610434 C135.57139,126.086676 136.385714,126.274597 137.175254,126.129679 L140.048407,125.714283 C142.298466,125.402737 143.510037,127.064319 142.298466,128.518203 L140.602267,130.387484 C140.090878,130.851735 139.937086,131.592731 140.221488,132.222147 L141.156128,134.022195 C141.88307,135.441463 139.875325,137.172278 137.694498,136.929964 L134.959811,136.618417 C134.082349,136.536821 133.20327,136.756591 132.467437,137.241511 L130.182762,138.764628 C128.382714,139.941582 125.821108,139.353105 125.821108,137.760755 L125.821108,135.718394 C125.784782,135.030122 125.309776,134.44335 124.644154,134.264509 L122.290246,133.399102 C120.455582,132.706776 120.870978,130.629798 123.017188,129.937472 L125.751876,128.968215 C126.520586,128.737004 127.159517,128.198297 127.517307,127.479715 L128.348098,125.437353 C128.803689,124.587591 129.593049,123.966349 130.526084,123.723234 C131.459118,123.48012 132.451272,123.637165 133.263612,124.15655 L133.263612,124.15655 Z" id="路径" fill="#AD9CFF" fill-rule="nonzero"></path>
                <path d="M129.692162,132.664274 C129.931797,133.648786 131.436156,134.128008 133.052242,133.734647 C134.668329,133.341285 135.784164,132.224297 135.54453,131.239784 C135.389513,130.602916 134.688545,130.150179 133.705673,130.052114 C132.7228,129.95405 131.607345,130.225556 130.779489,130.764359 C129.951633,131.303162 129.537146,132.027406 129.692162,132.664274 L129.692162,132.664274 Z" id="路径" fill="#5737CC" fill-rule="nonzero"></path>
                <path d="M87.7085637,39.1389212 C102.697421,24.84239 124.505689,27.4386124 138.940685,42.5313184 C153.375682,57.6240245 154.968031,79.3630599 140.01379,93.8326726 C125.059549,108.302285 103.216665,105.567598 88.8509016,90.4402754 C74.4851379,75.3129531 72.5812414,53.6085339 87.7085637,39.1389212 L87.7085637,39.1389212 Z" id="路径" fill="#7942EA" fill-rule="nonzero"></path>
                <path d="M123.813363,54.9239532 L124.194142,52.916208 C124.280122,52.1783372 124.054275,51.4380607 123.571049,50.8738463 L121.909466,48.7622521 C120.628663,47.1006698 121.320989,45.3006223 123.121037,45.6467852 L125.405713,46.1314135 C126.010607,46.3101523 126.662482,46.0882374 127.032679,45.5775528 L128.036551,43.985203 C128.832726,42.7390163 131.152018,43.5351911 131.948193,45.3698549 L132.986682,47.6891469 C133.307878,48.4399267 133.884152,49.0529845 134.613648,49.4199619 L136.898324,50.5622996 C138.698371,51.4623234 139.390697,53.7816154 138.109894,54.543174 L136.448312,55.477814 C135.911781,55.8292533 135.6607,56.4848541 135.825218,57.10478 L136.205998,59.3894557 C136.517544,61.1895032 134.648264,61.8125965 133.055914,60.462561 L131.013553,58.7317461 C130.466501,58.2110224 129.724223,57.9468215 128.971191,58.0048038 L126.92883,58.2471179 C126.06853,58.2389653 125.248998,57.8792964 124.660577,57.2516475 C124.072156,56.6239986 123.766053,55.7829899 123.813363,54.9239532 L123.813363,54.9239532 Z" id="路径" fill="#AD9CFF" fill-rule="nonzero"></path>
                <path d="M129.157166,52.990311 C130.214025,54.0958645 131.619719,54.4673311 132.29687,53.8200049 C132.974022,53.1726786 132.666208,51.7516888 131.609349,50.6461353 C130.55249,49.5405818 129.146796,49.1691151 128.469645,49.8164414 C127.792493,50.4637676 128.100307,51.8847575 129.157166,52.990311 L129.157166,52.990311 Z" id="路径" fill="#5737CC" fill-rule="nonzero"></path>
                <path d="M110.416855,112.075462 C106.159051,135.926091 83.9007708,148.595656 59.8424436,144.337852 C35.7841163,140.080047 19.0990604,120.556455 23.3222488,96.6712091 C27.5454372,72.7859633 49.8729496,60.1856307 73.931277,64.4088189 C97.9896044,68.6320072 114.67466,87.982518 110.416855,112.075462 L110.416855,112.075462 Z" id="路径" fill="#9450EA" fill-rule="nonzero"></path>
                <path d="M66.523389,122.010339 L67.6311107,124.364248 C68.1055141,125.181502 68.8933994,125.769289 69.8119374,125.991214 L73.0658694,126.891237 C75.6274754,127.61818 76.2505688,130.006704 74.173591,130.941344 L71.508136,132.118298 C70.7602129,132.382728 70.2606523,133.090439 70.2619493,133.88373 L70.2619493,136.272254 C70.2619493,138.141534 67.4234128,139.041558 65.2425861,137.760755 L62.4732822,136.168405 C61.5802455,135.665274 60.5422046,135.48209 59.5308969,135.649161 L56.3808137,136.203022 C53.9230565,136.653034 51.4306831,134.783754 52.1922416,133.087555 L53.161498,130.906728 C53.4497452,130.156971 53.2267726,129.306888 52.6076372,128.795134 L50.7729734,126.787389 C49.111391,125.195039 50.5306593,123.325759 53.1961142,123.325759 L56.657744,123.568073 C57.5906298,123.676938 58.5277083,123.402062 59.2539664,122.806514 L61.0886303,121.006467 C62.8752145,119.824192 65.2770492,120.267843 66.523389,122.010339 L66.523389,122.010339 Z" id="路径" fill="#AD9CFF" fill-rule="nonzero"></path>
                <path d="M61.8026861,132.143483 C63.7042745,132.478785 65.4126734,131.804307 65.6185019,130.636995 C65.8243305,129.469684 64.4496455,128.251575 62.5480572,127.916274 C60.6464688,127.580972 58.9380699,128.25545 58.7322414,129.422762 C58.5264128,130.590073 59.9010978,131.808182 61.8026861,132.143483 L61.8026861,132.143483 Z" id="路径" fill="#5737CC" fill-rule="nonzero"></path>
                <path d="M36.926454,80.9554095 C34.1726443,83.6232478 32.1877659,86.9831927 31.1801485,90.6825895 C29.7692957,94.530537 29.5284112,98.7098828 30.4878225,102.694445 C31.1109159,102.209817 31.4570789,96.2904298 33.3955916,91.2018338 C34.6688904,87.6232933 36.7542802,84.3885694 39.4880601,81.7515845 C41.9804335,79.0168969 39.4188275,78.7399666 36.926454,80.9554095 L36.926454,80.9554095 Z M98.9588606,37.9965834 C95.4906003,39.6281853 92.5253094,42.1630308 90.3740186,45.3352385 C87.7956389,48.5218345 86.2178249,52.4001254 85.8392835,56.4816866 C86.5662257,56.2047562 88.8162852,50.7353811 92.3125314,46.546809 C94.681848,43.5894176 97.702924,41.2199462 101.139687,39.6235494 C104.393619,37.8235019 102.074327,36.681164 98.9588606,37.9965834 L98.9588606,37.9965834 Z M146.849104,93.4002286 C150.147271,95.3469497 152.861318,98.1446899 154.707004,101.500442 C156.9733,104.91698 158.177758,108.927823 158.168685,113.02767 C157.441692,112.681507 155.745493,107.004434 152.664642,102.64278 C150.592441,99.4519041 147.807727,96.7856885 144.529812,94.854113 C141.448962,92.8463677 143.872102,91.9809603 146.849104,93.4002286 L146.849104,93.4002286 Z" id="形状" fill-opacity="0.5" fill="#FFFFFF" fill-rule="nonzero"></path>
            </g>
            <g id="编组" stroke-width="1" transform="translate(157.069799, 115.499391) rotate(-88.000000) translate(-157.069799, -115.499391) translate(45.069799, 33.999391)">
                <g id="形状" transform="translate(0.367518, 0.491462)">
                    <path d="M201.563432,93.2023809 C207.845894,89.5582722 211.236697,85.5188381 211.73584,81.0840785 C212.484554,74.4319391 205.950146,66.4591203 198.10854,70.010719 C190.266933,73.5623178 197.378973,85.3505617 207.459358,79.2821673 C217.539744,73.2137729 214.797477,56.6182403 204.445275,57.2182326" id="路径-2" stroke="url(#linearGradient-4)" stroke-width="4" stroke-linecap="round" transform="translate(204.264798, 75.202381) rotate(88.000000) translate(-204.264798, -75.202381) "></path>
                    <mask id="mask-7" fill="white">
                        <use xlink:href="#path-6"></use>
                    </mask>
                    <use id="蒙版" fill="url(#radialGradient-5)" fill-rule="nonzero" xlink:href="#path-6"></use>
                    <path d="M-0.392283253,88.7873937 C-2.5018663,91.5484208 -1.71077266,90.3318763 -4.40049104,88.1632535 C-7.09761996,85.9742242 -7.56537845,82.0289135 -5.45528257,79.2666106 C2.18140807,69.3332602 10.9256298,64.0122002 20.6929993,63.8429419 C23.9814345,63.7521984 27.2351262,64.5369657 30.1228355,66.1173512 C32.3067043,67.3796447 34.3112244,68.9310026 36.0824076,70.7296417 C36.282818,70.8989001 36.9262409,71.5124616 37.0633638,71.6605627 C40.7867778,75.1303592 42.6959505,76.188224 46.6303229,76.1035948 C48.5482063,76.1376031 50.4419619,75.670987 52.1257867,74.7495279 C53.8385318,73.7299304 55.4126678,72.4925533 56.8090611,71.0681584 C58.8709117,69.0463723 61.1820659,67.2972912 63.6863018,65.8634636 C67.09123,63.9935778 70.9112836,63.0148614 74.7932566,63.0178073 C78.522614,62.8959171 82.2236059,63.7066182 85.562678,65.3768458 C88.0478718,66.6815746 90.3497632,68.3107548 92.408275,70.2218666 C92.4926583,70.2747598 92.7985479,70.5603833 92.8618354,70.6132766 C94.2722578,71.9578073 95.8584279,73.1037467 97.5767535,74.0196012 C99.4754204,74.918327 101.566101,75.3325938 103.662901,75.2255671 C105.81593,75.2565609 107.944275,74.7628563 109.865075,73.7868709 C111.621732,72.7952634 113.245139,71.5830473 114.69602,70.179552 L115.20232,69.7352488 C117.250966,67.787944 119.541116,66.1133252 122.016273,64.7527056 C125.313189,63.0198838 128.979096,62.1125323 132.701311,62.1080436 C136.601426,62.0019839 140.467334,62.8631738 143.955937,64.6151832 C146.581532,65.9778206 149.023635,67.6698791 151.22345,69.6506196 L151.951257,70.2747598 C155.790698,73.4483542 157.531104,74.3792752 160.505616,74.326382 C163.480128,74.2734888 164.461084,73.5118261 166.676146,70.4440182 L167.541075,69.2380523 C168.755847,67.3789224 170.250249,65.7195856 171.9712,64.318981 C174.379178,62.4252993 177.349539,61.3938153 180.409532,61.3886956 C188.942795,61.2511731 196.484555,66.5933903 203.129741,76.5267408 C205.07989,79.4052044 204.355313,83.3217706 201.505362,85.3070186 C200.148543,86.250793 198.469838,86.6065922 196.848294,86.294078 C195.226751,85.9815638 193.799105,85.027089 192.887716,83.6461708 C188.373208,76.8969934 184.248973,73.966708 180.631038,74.0196012 C179.702822,74.0196012 179.312549,74.3581179 177.656526,76.6642632 C177.603786,76.7488924 176.960364,77.6480774 176.759953,77.901965 C175.252363,80.1810278 173.352215,82.1726834 171.148462,83.7836933 C168.090812,85.8750229 164.470246,86.9820701 160.769314,86.9572876 C157.289079,87.0443212 153.843003,86.2512333 150.748794,84.6511424 C148.368842,83.39427 146.154303,81.8449065 144.156347,80.0388519 C143.987581,79.9013295 143.481281,79.4781835 143.396897,79.4147117 C138.987869,75.7333422 136.920477,74.686056 132.954461,74.7495279 C129.220499,74.8024212 127.427354,75.8073927 123.355858,79.3406611 L122.849558,79.795543 C120.662988,81.8777035 118.208094,83.6566395 115.550401,85.084867 C111.954661,86.9177503 107.981181,87.8814095 103.947694,87.8987873 C99.9073455,88.0221291 95.8962886,87.1733266 92.2500563,85.4233837 C89.5928961,84.0629827 87.1364891,82.3399118 84.950899,80.3033181 C84.7966169,80.1805732 84.6487497,80.0499296 84.5078865,79.9119081 C80.5207746,76.4738475 78.7803685,75.6063984 75.0147628,75.6804489 C73.1551899,75.6530234 71.320171,76.1085594 69.6880656,77.0027799 C68.0102625,78.0292278 66.4564317,79.2468059 65.0575308,80.6312562 C62.9751839,82.6892928 60.6350574,84.4672813 58.0959068,85.9205801 C54.6501424,87.7955659 50.793183,88.7807928 46.8729249,88.7873937 C42.9585681,88.9082409 39.0780183,88.0272033 35.5972035,86.2273609 C33.0352226,84.8305132 30.6900122,83.0664806 28.6355795,80.9909302 C28.4984566,80.8534078 27.82339,80.2292675 27.6546234,80.0600092 C24.6273717,77.2143529 23.3088823,76.4844262 20.861766,76.5161621 C15.2819188,76.6325272 5.09263267,81.6362277 -0.371187423,88.7873937 L-0.392283253,88.7873937 Z M12.2367973,39.9186375 C10.4671292,42.7238893 11.0359511,45.2066983 8.79226465,43.0355839 C6.54857825,40.8644695 10.4776629,36.9199201 12.2367973,34.1146683 C18.6202431,24.0222109 21.6223588,18.5084402 29.807074,18.3579669 C32.6102743,18.2847381 35.367936,19.0913544 37.7073782,20.6688065 C39.5787703,21.9759235 41.2597232,23.5463431 42.7003705,25.333478 C42.8689103,25.5054474 43.3955973,26.1395848 43.5114684,26.27931 C46.6715901,29.82618 48.251651,30.8579968 51.5803125,30.7935082 C53.2128045,30.822867 54.815158,30.3428788 56.1730227,29.4177526 C57.6418277,28.3493971 58.9694917,27.0922534 60.1231748,25.6774169 C61.8062698,23.658623 63.7478389,21.8799907 65.8956638,20.3893561 C68.6451416,18.528236 71.8659617,17.5236552 75.1653541,17.4981196 C78.3445246,17.3937353 81.485888,18.2258413 84.2138359,19.8949439 C86.3419013,21.247499 88.2682326,22.9053497 89.9336562,24.8175696 L90.302337,25.215249 C91.4556581,26.5335574 92.7813004,27.6836443 94.2419554,28.6331419 C95.7897327,29.5354697 97.5605258,29.9610446 99.3402851,29.8584243 C101.168738,29.8826723 102.966225,29.3756952 104.522885,28.3966839 C106.025852,27.3692775 107.383352,26.1360468 108.557307,24.7315849 C108.609975,24.6456001 108.894386,24.3554017 108.978656,24.280165 C110.647168,22.362172 112.560302,20.6812274 114.666875,19.2823027 C117.347069,17.542566 120.454554,16.6110974 123.631087,16.5952799 C126.965569,16.4961397 130.257291,17.3805989 133.111452,19.1425775 C135.348423,20.5687903 137.391922,22.2888926 139.18942,24.2586689 L139.800377,24.8928062 C143.023701,28.1172335 144.477357,29.0630656 146.973853,29.0093251 C149.470349,28.9555846 150.281447,28.1817221 152.124851,25.0647757 C152.26179,24.8390658 152.767409,23.9899666 152.851679,23.8394933 C153.840465,21.9911505 155.097679,20.3061209 156.580623,18.841631 C158.472532,16.9766494 160.986974,15.9127669 163.61716,15.8644098 C170.759036,15.7246846 177.089813,21.1524706 182.641093,31.244928 C184.263289,34.189905 190.994348,37.9087445 188.613723,39.9078894 C186.233098,41.9070343 178.280125,41.5415993 176.647396,38.6181185 C172.865783,31.7393402 166.808883,28.6331419 163.754099,28.6331419 C162.964069,28.6331419 162.626989,28.9770808 161.257603,31.3201647 C161.204934,31.4061494 160.667714,32.3197371 160.499174,32.5776913 C159.288672,34.8293399 157.706467,36.8509779 155.822194,38.5536299 C153.373881,40.6287618 150.293602,41.7688925 147.110791,41.7780573 C144.136499,41.8646545 141.203849,41.0492456 138.6838,39.4349734 C136.643509,38.1230859 134.777673,36.548022 133.13252,34.7488057 L132.511029,34.1146683 C128.813687,30.3743327 127.07562,29.3102716 123.768026,29.3640121 C120.607904,29.4177526 119.112113,30.4388212 115.730783,34.0286836 C115.678114,34.1146683 115.393703,34.4048668 115.309433,34.4801034 C113.525903,36.5507344 111.469837,38.3592734 109.199865,39.854149 C106.263455,41.6938012 102.891237,42.6822066 99.4456225,42.7131412 C96.0104361,42.8273544 92.6127395,41.9559906 89.6387115,40.1980879 C87.3954256,38.7942774 85.3595269,37.0716157 83.5923453,35.0819965 C83.4624088,34.9564239 83.3393298,34.8236642 83.2236644,34.6843172 C79.8844692,31.2019357 78.4308132,30.3098441 75.3233602,30.3850808 C73.7390617,30.3623899 72.1853234,30.8308756 70.8675886,31.7285921 C69.4302539,32.7960375 68.1219687,34.033533 66.9701052,35.4151874 C65.2701228,37.4617743 63.3112777,39.2689224 61.1449475,40.7892329 C58.3576904,42.6533412 55.1024809,43.6572401 51.7699198,43.6804694 C48.4272975,43.7886557 45.1282408,42.8835248 42.2895547,41.0794313 C40.1012248,39.6089427 38.1382381,37.8160834 36.464397,35.7591263 C36.3274584,35.6194011 35.7902377,34.9852637 35.6532991,34.8132943 C33.1041343,31.9220578 32.0086254,31.1804395 29.96508,31.2126838 C25.2248975,31.2664242 16.8189738,32.6421799 12.2262636,39.9078894 L12.2367973,39.9186375 Z M24.3931625,138.457198 C22.7031684,141.206039 19.5872417,141.679978 17.4219367,139.510394 C15.2227873,137.066292 14.8800203,133.477632 16.5769396,130.663547 C22.671481,120.774036 29.6955191,115.47646 37.5011796,115.307949 C40.1966004,115.238347 42.8434392,116.031952 45.0533409,117.57232 C46.8523065,118.864617 48.4595388,120.403388 49.8275744,122.143191 L50.6091967,123.070004 C53.5878113,126.545551 55.129931,127.546087 58.3303574,127.493427 C59.9072195,127.515402 61.4513193,127.043934 62.7454671,126.145336 C64.1580499,125.110202 65.4292219,123.895809 66.526829,122.532874 C68.1176176,120.565336 69.9688613,118.822186 72.0298724,117.351149 C74.6242334,115.534253 77.7110166,114.54625 80.8812167,114.518052 C83.9263931,114.412996 86.931839,115.231966 89.5001869,116.866679 C91.5417822,118.210737 93.3866491,119.830524 94.9821054,121.679785 L95.3517916,122.069467 C96.4430294,123.366753 97.7083421,124.507916 99.1120285,125.460759 C100.584429,126.341172 102.288418,126.759517 104.002449,126.661402 C105.756032,126.682173 107.476371,126.183689 108.945682,125.229056 C110.390465,124.211018 111.693903,123.006961 112.822106,121.648189 C112.874918,121.563933 113.160105,121.27957 113.212917,121.195315 C114.793201,119.300669 116.627098,117.631538 118.663148,116.234761 C121.198461,114.539861 124.176987,113.624348 127.229306,113.601771 C130.418874,113.514762 133.561216,114.384298 136.24965,116.097846 C138.405341,117.502402 140.362706,119.188454 142.069567,121.111059 L142.661065,121.721913 C145.755867,124.881501 147.128987,125.808313 149.516104,125.755654 C151.903221,125.702994 152.684843,124.944693 154.459337,121.890424 C154.596649,121.669253 155.082522,120.837228 155.156459,120.689781 C156.086378,118.883694 157.290626,117.231746 158.726572,115.792419 C160.496299,113.980364 162.908324,112.932877 165.444299,112.875066 C172.26765,112.738151 178.309379,118.056791 183.622298,127.946301 C185.177335,130.829276 184.639618,134.389406 182.30199,136.687828 C180.031061,138.646773 176.936259,137.888472 175.394139,135.034311 C171.771214,128.31492 168.486288,125.397567 165.560486,125.450227 C164.831676,125.450227 164.504239,125.787249 163.173369,128.083217 C163.120557,128.167472 162.613558,129.062689 162.476246,129.315456 C161.333513,131.516104 159.810288,133.498421 157.976637,135.171226 C155.679605,137.191265 152.726704,138.313644 149.663978,138.330814 C146.822371,138.401044 144.027655,137.599608 141.657631,136.034847 C139.702795,134.741871 137.927135,133.197967 136.376399,131.442912 C136.260212,131.305997 135.837714,130.884718 135.784901,130.832058 C132.278164,127.166936 130.588169,126.124272 127.408868,126.176932 C124.430253,126.229592 122.972633,127.230128 119.708832,130.747803 C119.65602,130.832058 119.370833,131.116421 119.318021,131.200677 C117.629294,133.221391 115.662869,134.994218 113.476979,136.466657 C110.696101,138.260619 107.462262,139.231986 104.150324,139.268159 C100.855829,139.389292 97.598156,138.543351 94.7814186,136.835276 C92.5953306,135.429483 90.6274459,133.712113 88.9403763,131.737807 C88.8104289,131.614418 88.6870322,131.484346 88.5706901,131.348124 C85.4019511,127.925237 83.986581,127.061617 81.0185288,127.13534 C79.5084147,127.13366 78.0339941,127.593085 76.7935434,128.451835 C75.4161762,129.50253 74.1713269,130.715494 73.0861187,132.064298 C71.4758853,134.060593 69.60362,135.831806 67.5197005,137.330278 C64.8780112,139.158295 61.7464039,140.152672 58.5310442,140.184439 C55.3223303,140.285743 52.1606591,139.395527 49.4790131,137.635705 C47.3701635,136.188181 45.4933991,134.430466 43.9125949,132.422384 L43.1309726,131.495572 C40.6910435,128.662475 39.6453597,127.935769 37.6807415,127.967365 C33.1811321,128.051621 28.7977098,131.37972 24.4248499,138.499326 L24.3931625,138.457198 Z" fill="url(#radialGradient-8)" fill-rule="nonzero" mask="url(#mask-7)"></path>
                </g>
            </g>
            <g id="编组-3" stroke-width="1" transform="translate(154.000000, 105.220873) rotate(-2.000000) translate(-154.000000, -105.220873) translate(96.000000, 79.720873)">
                <path d="M45.0281359,38.0756725 C45.0281359,36.6799384 46.2161752,35.5484725 47.6816959,35.5484725 C49.1472166,35.5484725 50.3352559,36.6799384 50.3352559,38.0756725 C50.3352559,42.2628745 53.8993737,45.6572725 58.2959359,45.6572725 C62.6924981,45.6572725 66.2566159,42.2628745 66.2566159,38.0756725 C66.2566159,36.6799384 67.4446552,35.5484725 68.9101759,35.5484725 C70.3756966,35.5484725 71.5637359,36.6799384 71.5637359,38.0756725 C71.555901,45.0512494 65.6202917,50.7042107 58.2959359,50.7116725 C50.9715801,50.7042107 45.0359708,45.0512494 45.0281359,38.0756725 Z" id="路径" fill="#000000" fill-rule="nonzero"></path>
                <ellipse id="椭圆形备份-13" fill="#FF9FB5" cx="16.174687" cy="31.8259206" rx="16.0875" ry="8.04375"></ellipse>
                <ellipse id="椭圆形备份-14" fill="#FF9FB5" cx="99.3240038" cy="34.7295587" rx="16.0875" ry="8.04375"></ellipse>
                <ellipse id="椭圆形备份-15" fill="#FFFFFF" transform="translate(10.147990, 31.598167) rotate(43.000000) translate(-10.147990, -31.598167) " cx="10.1479897" cy="31.5981671" rx="1.62444297" ry="4.87790609"></ellipse>
                <ellipse id="椭圆形备份-17" fill="#FFFFFF" transform="translate(93.297306, 34.501805) rotate(43.000000) translate(-93.297306, -34.501805) " cx="93.2973065" cy="34.5018052" rx="1.62444297" ry="4.87790609"></ellipse>
                <ellipse id="椭圆形备份-16" fill="#FFFFFF" transform="translate(19.800490, 31.598167) rotate(43.000000) translate(-19.800490, -31.598167) " cx="19.8004897" cy="31.5981671" rx="1.62444297" ry="4.87790609"></ellipse>
                <ellipse id="椭圆形备份-18" fill="#FFFFFF" transform="translate(102.949806, 34.501805) rotate(43.000000) translate(-102.949806, -34.501805) " cx="102.949806" cy="34.5018052" rx="1.62444297" ry="4.87790609"></ellipse>
                <path d="M29.2602808,8.40493119 C29.3931401,12.5889886 32.8934992,15.8505468 37.0785517,15.6898253 C41.2636042,15.5291037 44.5485558,12.0069644 44.4156965,7.82290694 C44.2828372,3.63884948 40.7824781,0.377291309 36.5974256,0.538012865 C32.4123731,0.698734422 29.1274215,4.22087373 29.2602808,8.40493119 Z" id="路径" fill="#000000" fill-rule="nonzero" transform="translate(36.837989, 8.113919) rotate(2.000000) translate(-36.837989, -8.113919) "></path>
                <path d="M76.0325871,10.0118496 C76.1271166,12.7188275 77.65862,15.1697472 80.0501947,16.441371 C82.4417694,17.7129948 85.3300782,17.6121327 87.6271233,16.1767786 C89.9241683,14.7414245 91.2809736,12.1896427 91.1864438,9.48266484 C91.0403136,5.29803974 87.5295453,2.02419288 83.3449233,2.17032321 C79.1603013,2.31645354 75.8864568,5.82722448 76.0325871,10.0118496 L76.0325871,10.0118496 Z" id="路径" fill="#000000" fill-rule="nonzero" transform="translate(83.609479, 9.747216) rotate(2.000000) translate(-83.609479, -9.747216) "></path>
            </g>
        </g>
    </g>
</svg>