<?xml version="1.0" standalone="no"?><!DOCTYPE svg PUBLIC "-//W3C//DTD SVG 1.1//EN" "http://www.w3.org/Graphics/SVG/1.1/DTD/svg11.dtd"><svg t="1643787532598" class="icon" viewBox="0 0 1024 1024" version="1.1" xmlns="http://www.w3.org/2000/svg" p-id="3049" xmlns:xlink="http://www.w3.org/1999/xlink" width="200" height="200"><defs><style type="text/css"></style></defs><path d="M511.33 706.93C392 706.93 295 609.88 295 490.59V280.21c0-119.29 97-216.34 216.33-216.34s216.34 97 216.34 216.34v210.38c0 119.29-97.05 216.34-216.34 216.34z m0-588.61c-89.26 0-161.89 72.62-161.89 161.89v210.38c0 89.26 72.63 161.89 161.89 161.89s161.89-72.63 161.89-161.89V280.21c0-89.27-72.62-161.89-161.89-161.89z" fill="#C9A161" p-id="3050"></path><path d="M511.33 822.84c-183.6 0-333-149.37-333-333a27.23 27.23 0 1 1 54.45 0c0 153.58 124.94 278.52 278.52 278.52s278.56-124.91 278.56-278.49a27.23 27.23 0 1 1 54.45 0c0 183.6-149.37 332.97-332.98 332.97z" fill="#C9A161" p-id="3051"></path><path d="M511.33 950.58a27.23 27.23 0 0 1-27.22-27.23V806.57a27.23 27.23 0 0 1 54.45 0v116.78a27.23 27.23 0 0 1-27.23 27.23z" fill="#C9A161" p-id="3052"></path><path d="M700.45 961.53H322.22a27.23 27.23 0 0 1 0-54.45h378.23a27.23 27.23 0 0 1 0 54.45zM575.86 260.81H446.8a27.23 27.23 0 1 1 0-54.45h129.06a27.23 27.23 0 1 1 0 54.45zM554.34 372.59H473.1a27.23 27.23 0 0 1 0-54.45h81.24a27.23 27.23 0 1 1 0 54.45z" fill="#C9A161" p-id="3053"></path></svg>