<svg xmlns="http://www.w3.org/2000/svg" xmlns:xlink="http://www.w3.org/1999/xlink" viewBox="0 0 181.2 170.39"><defs><style>.cls-1{fill:url(#未命名的渐变_406);}.cls-2{fill:#724912;}.cls-3{fill:#d88c27;}</style><linearGradient id="未命名的渐变_406" x1="93.48" y1="-45.98" x2="91.22" y2="99.02" gradientUnits="userSpaceOnUse"><stop offset="0" stop-color="#ffbd3a"/><stop offset="1" stop-color="#f9c73d"/></linearGradient></defs><g id="图层_2" data-name="图层 2"><g id="图层_1-2" data-name="图层 1"><path class="cls-1" d="M180.31,71.8c-1.25-8.13-3-16.78-6.16-24.4-2.38-5.74-6-11.12-11.18-14.58-3-2-6.45-3.33-9.53-5.25-4.4-2.74-6.1-7.16-9.45-10.83q-1.11-1.93-2.19-3.88c3.38.26,6.67,1,10.36,1.08,3.46.09,6.31-4.26,4.18-7.29-7.66-10.86-23.5-6.12-33.7-1.89-11.68,4.84-25,14-38,9.23-6.67-2.42-9.36,8-2.9,10.55a30.16,30.16,0,0,0,13.94,1.79A85.91,85.91,0,0,1,95,38.77a172.62,172.62,0,0,1-6.79,24.65A82.4,82.4,0,0,1,69.79,89.67a85.33,85.33,0,0,1-28.64,17.94,74.5,74.5,0,0,1-15.45,4.12,30.89,30.89,0,0,1-11.26-.14c-2.94-.7-5.34-2.33-8.32-2.88a3.91,3.91,0,0,0-4.36,5.66c.23.42.47.81.73,1.19a3.31,3.31,0,0,0-.9,2.63,7.68,7.68,0,0,0,3.1,5,20,20,0,0,0,3.76,11.14c5.45,7.71,15.12,10.27,24.09,10.83.74.05,1.5.06,2.25.08a3.52,3.52,0,0,0-.27.72C30.27,163.6,58.18,161.26,68,159.47a5.67,5.67,0,0,0-.12.62C66.64,171.3,80.78,171.7,91,169l1.1-.07c13.59,2.74,28.93-4,40.64-10.31,16-8.67,30.12-21.72,38.88-37.79A77.52,77.52,0,0,0,180.31,71.8ZM124.74,56a77.25,77.25,0,0,1-2.93,15,37.3,37.3,0,0,0-.12-19.14c-.72-2.63-1.88-6.28-4.17-8-2.91-2.18-5.77-2.48-7.8-5.76-2.4-3.89-5-9.78-2-14,.94-1.35,9.72-5.68,10.55-4.52,2,2.77,4.58,7.4,5.1,10.79A114.45,114.45,0,0,1,124.74,56Zm22.47-2.29c.18-4.42-.07-9.06-2.31-12.88a27.63,27.63,0,0,0-5.28-5.95c-4.19-3.89-8.12-7.64-10.83-12.76-1-1.93-2-3.9-3-5.86A73.59,73.59,0,0,1,133,13.77a2.27,2.27,0,0,0,.06.25c1.44,4.22,4,7.53,6.41,11.28,2.57,4.05,6.25,8.82,7.16,13.56a38.13,38.13,0,0,1,0,16"/><path class="cls-2" d="M7,115.29c0-.43,0-.87,0-1.31a3.34,3.34,0,0,0-.42-1.7c0-.44.09-.87.14-1.3.19-1.54-1.45-2.87-2.86-2.87A2.94,2.94,0,0,0,.94,111c0,.27,0,.54-.08.81A3.21,3.21,0,0,0,0,114l0,2a14.89,14.89,0,0,0,.26,3.8c0,3.08,5.11,4.12,6.31.63A15.16,15.16,0,0,0,7,115.29Z"/><path class="cls-2" d="M39.59,149.13a37.59,37.59,0,0,0-.51-3.91c-.43-2.18-4-2.19-4.42,0A47.48,47.48,0,0,0,34,151.4a2.29,2.29,0,0,0,1.56,2.54,4,4,0,0,0,.57,1.28,2.21,2.21,0,0,0,4.09-1.1A18.7,18.7,0,0,0,39.59,149.13Z"/><path class="cls-2" d="M76.14,164.9c-.73-1-1.35-2.06-2-3.09a8.92,8.92,0,0,1-.48-.88c-.18-.83-.4-1.65-.64-2.45-.73-2.47-4.63-2.07-4.58.62,0,.28,0,.56,0,.83a2,2,0,0,0-.23.58,9.62,9.62,0,0,0,1,6.81,2.54,2.54,0,0,0,1.88,1.2l.12.17C73.44,171.41,78.27,167.75,76.14,164.9Z"/><path class="cls-3" d="M120.8,69.19c-4.18,17-16.21,30.72-30.28,40.59a132.21,132.21,0,0,1-12.44,7.66c-.66.37-.08,1.3.59,1a85.58,85.58,0,0,0,22.15-14.59A71.36,71.36,0,0,0,117,83.32a61.8,61.8,0,0,0,5-13.81c.17-.76-1-1.08-1.16-.32Z"/><path class="cls-3" d="M146.21,51.48c1.31,14.5,2.25,29.46-2,43.6a69.7,69.7,0,0,1-34.65,41.54c-.78.4-.09,1.56.69,1.17a68.84,68.84,0,0,0,26.9-23.68c7.4-11,11.08-23.81,11.7-37a130.37,130.37,0,0,0-1.7-25.72c-.08-.54-1-.42-1,.13Z"/><path class="cls-3" d="M35.61,143.29a46.09,46.09,0,0,0,23.56-9.12c.56-.43-.17-1.37-.76-1a57.13,57.13,0,0,1-22.92,9.19c-.51.08-.4,1,.12.91Z"/><path class="cls-3" d="M72.2,157.44a46.19,46.19,0,0,0,24.36-10.92c.68-.6-.3-1.53-1-1A52.54,52.54,0,0,1,72,156.24c-.67.11-.52,1.29.16,1.2Z"/></g></g></svg>