<svg xmlns="http://www.w3.org/2000/svg" xmlns:xlink="http://www.w3.org/1999/xlink" viewBox="0 0 196.89 178.56"><defs><style>.cls-1{fill:#93b659;}.cls-2{fill:#497816;}.cls-3{fill:url(#未命名的渐变_113);}.cls-4{fill:url(#未命名的渐变_304);}.cls-5{fill:#222430;}.cls-6{fill:#fff;}.cls-7{fill:url(#未命名的渐变_113-2);}</style><radialGradient id="未命名的渐变_113" cx="62.22" cy="77.41" r="57.57" gradientTransform="matrix(0.82, -0.57, 0.57, 0.82, -35.63, 76.74)" gradientUnits="userSpaceOnUse"><stop offset="0" stop-color="#4768a6"/><stop offset="0.55" stop-color="#688aca"/><stop offset="1" stop-color="#7fa2e3"/></radialGradient><radialGradient id="未命名的渐变_304" cx="62.22" cy="77.41" r="57.56" gradientTransform="matrix(0.82, -0.57, 0.57, 0.82, -35.63, 76.74)" gradientUnits="userSpaceOnUse"><stop offset="0" stop-color="#4768a6"/><stop offset="0.26" stop-color="#4d70b0"/><stop offset="1" stop-color="#5c83c9"/></radialGradient><radialGradient id="未命名的渐变_113-2" cx="116.93" cy="136.31" r="57.13" xlink:href="#未命名的渐变_113"/></defs><g id="图层_2" data-name="图层 2"><g id="图层_1-2" data-name="图层 1"><path class="cls-1" d="M70.82,51.77c7.52,10.56,18.89,16.89,29.79,22.08,2.52,1.2,5.14,2.4,7.67,2.43,3.81,0,6.77-2.66,8.2-6.16s1.54-7.72,1.35-11.9c-.69-15.65-2.11-19.4-10.1-34.31-7-13-27-20.5-37.53-23.64-3.65-1.09-6.73,1.2-6.78,5.05C63.24,17.32,63.8,41.91,70.82,51.77Z"/><path class="cls-2" d="M114.3,72.78A179.81,179.81,0,0,1,85.55,28.3Q82.46,21.51,80,14.44c-.62-1.74-3.41-1-2.79.77a180.56,180.56,0,0,0,25.35,47.6q4.61,6.21,9.71,12c1.23,1.4,3.26-.65,2-2Z"/><path class="cls-2" d="M100.79,54.23a57.1,57.1,0,0,0-3.07-25.12c-.21-.58-1.14-.33-.93.25a56.58,56.58,0,0,1,3,24.87c-.07.62.89.61,1,0Z"/><path class="cls-2" d="M94.6,48.49a36.32,36.32,0,0,1-19-9.84,42.25,42.25,0,0,1-4.4-4.87c-.37-.49-1.21,0-.83.48A41.13,41.13,0,0,0,88.47,47.9a31.46,31.46,0,0,0,5.87,1.52c.61.09.87-.84.26-.93Z"/><path class="cls-2" d="M86,29.69a41.23,41.23,0,0,0-.39-20.55c-.15-.6-1.08-.34-.93.26a40.25,40.25,0,0,1,.4,20,.48.48,0,0,0,.92.25Z"/><path class="cls-1" d="M134.31,39.42c-8.88,9.24-13.51,20.89-17.14,31.84-.84,2.54-1.66,5.16-1.43,7.41.35,3.41,3.11,5.39,6.46,5.81s7.22-.5,11-1.67C147.45,78.4,162,70.29,174.77,59.57c10.22-8.56,12-26.18,10.68-35a7,7,0,0,0-8.74-5.78C165.54,21.64,142.36,31,134.31,39.42Z"/><path class="cls-2" d="M119.44,83.46A217.28,217.28,0,0,1,139.5,62a276.53,276.53,0,0,1,23.68-20.1c4.18-3.15,8.46-6.16,12.88-9,1.44-.91.11-3.2-1.33-2.28A220.65,220.65,0,0,0,151.34,48a277,277,0,0,0-23.07,21.47c-3.72,3.9-7.32,7.92-10.7,12.12-1,1.32.81,3.2,1.87,1.87Z"/><path class="cls-2" d="M135.19,66.68a59.89,59.89,0,0,0,22.64-8.82c.48-.3,0-1.06-.44-.76A59.39,59.39,0,0,1,135,65.83c-.56.08-.33.93.23.85Z"/><path class="cls-2" d="M139.74,59.78c.29-6.92,3.19-13.61,7-19.27a48,48,0,0,1,4.05-5.15c.38-.42-.24-1-.62-.63a44.76,44.76,0,0,0-10.59,19.55,30.09,30.09,0,0,0-.76,5.5c0,.57.86.57.88,0Z"/><path class="cls-2" d="M156.11,47.55a41.76,41.76,0,0,0,18.73-5.32c.5-.27,0-1-.45-.76a40.71,40.71,0,0,1-18.28,5.2.44.44,0,0,0,0,.88Z"/><path class="cls-3" d="M29.64,154.26c14.09,8,31.31,10.37,47.25,4.66,29-10.39,52.33-42,39.44-73-5.3-12.73-15.87-22.63-27.51-30C52.16,32.62-3.57,65.52.18,109.49,1.86,129.16,13.77,145.26,29.64,154.26Z"/><path class="cls-4" d="M116.33,85.91a53.7,53.7,0,0,0-8.86-14.19h-.18c-4.26,0-8.46,4.17-11.43,7.25a67.9,67.9,0,0,0-9.42,12.38A79.35,79.35,0,0,0,75.56,126.3c-.12,1.57-.19,3.15-.24,4.73a104.29,104.29,0,0,0,3.5,23q.47,1.86,1,3.75C107.41,146.38,128.78,115.84,116.33,85.91Z"/><path class="cls-5" d="M40.27,103.72a8.22,8.22,0,0,1-1.72-11l5-1,3.95,4.71,11.22-7.15c2.72,3.81.85,10-3.52,11.65l4-1.71,4.1,6.41A7,7,0,0,1,54.89,111a7.69,7.69,0,0,1,1.3,10.79,10.89,10.89,0,0,1-8.35-6.52,13.59,13.59,0,0,1-7.34,6.47,5.11,5.11,0,0,1-1.59-6.7l-6.83-2.22a13.47,13.47,0,0,1,7.58-12.49"/><path class="cls-6" d="M101.75,97.64c3.49,4.42,1.83,12-3.11,14.73-2.08,1.17-.21,4.38,1.88,3.21,7.14-4,8.85-14.24,3.86-20.57a1.87,1.87,0,0,0-2.63,0,1.91,1.91,0,0,0,0,2.63Z"/><path class="cls-7" d="M106.12,170.16c23.52,14.9,57.51,9.17,76.29-10.9,38.43-41.08-6.12-105.79-57.94-92.69C80,77.8,66.24,144.9,106.12,170.16Z"/><path class="cls-5" d="M117.27,118.72a8.22,8.22,0,0,1-1.72-11l5-1,4,4.71,11.22-7.15c2.72,3.81.85,10-3.52,11.65l4-1.71,4.1,6.41a7,7,0,0,1-8.49,5.31,7.69,7.69,0,0,1,1.3,10.79,10.89,10.89,0,0,1-8.35-6.52,13.59,13.59,0,0,1-7.34,6.47,5.11,5.11,0,0,1-1.59-6.7l-6.83-2.22a13.47,13.47,0,0,1,7.58-12.49"/><path class="cls-6" d="M178.75,112.64c3.49,4.42,1.83,12-3.11,14.73-2.08,1.17-.21,4.38,1.88,3.21,7.14-4,8.85-14.24,3.86-20.57a1.87,1.87,0,0,0-2.63,0,1.91,1.91,0,0,0,0,2.63Z"/></g></g></svg>