<svg xmlns="http://www.w3.org/2000/svg" xmlns:xlink="http://www.w3.org/1999/xlink" viewBox="0 0 203.27 151.24"><defs><style>.cls-1{fill:#6b8a45;}.cls-2{fill:url(#未命名的渐变_260);}.cls-3{fill:#cf4630;}.cls-4{fill:url(#未命名的渐变_260-2);}.cls-5{fill:#a62f0d;}.cls-6{fill:#cc340a;}.cls-7{fill:#fff;}</style><linearGradient id="未命名的渐变_260" y1="101.71" x2="104.99" y2="101.71" gradientUnits="userSpaceOnUse"><stop offset="0" stop-color="#a82900"/><stop offset="0.67" stop-color="#e65132"/><stop offset="1" stop-color="#ff6247"/></linearGradient><linearGradient id="未命名的渐变_260-2" x1="97.73" y1="87.65" x2="203.27" y2="87.65" xlink:href="#未命名的渐变_260"/></defs><g id="图层_2" data-name="图层 2"><g id="图层_1-2" data-name="图层 1"><path class="cls-1" d="M65.55,11.56c8.23-.49,16.43-1.23,24.65-2C97,8.92,104,8.68,110.67,7.3l-3-.79,1.59-3,1.82,2.4-.06-.5a2.37,2.37,0,0,0-4.63-.63l-.19.47a2.51,2.51,0,0,0,1.14,2.8,3.75,3.75,0,0,0,5.83-2.21C113.87,2.2,110.08-.09,107,0,100.14.19,93,1.84,86.29,2.81,79.11,3.84,72,4.93,64.82,6.2c-3,.54-2.33,5.55.73,5.36Z"/><path class="cls-2" d="M25.8,55.8c-12.33,5.36-22,16.69-24.9,34-11.18,67.25,85.37,85.87,102.84,22.37C110.69,87,87.15,69,69.47,59.09,55.3,51.17,39,50.05,25.8,55.8Z"/><path class="cls-3" d="M92.11,85.88c-1.81,12.37.84,26.53,6.53,39.05a59,59,0,0,0,5.1-12.72c3.61-13.08-1-24.21-8.71-33.28a27.55,27.55,0,0,0-2.86,6.42C92.15,85.53,92.14,85.7,92.11,85.88Z"/><path class="cls-4" d="M148,38.57c.62-.16,1.23-.32,1.85-.46,24.18-5.67,48.31,10.71,52.68,36.09,6,35-26.7,69-60,63.54-26.1-4.26-53.46-28-42.29-57.56C107.71,60.55,128.36,43.89,148,38.57Z"/><path class="cls-1" d="M82,6.66c-1,22.41-7.2,43.82-14.52,64.87-.6,1.73,2.05,2.38,2.7.74,8.3-21,14-43,14.86-65.61.07-1.95-3-1.94-3,0Z"/><path class="cls-1" d="M85,8.08c5.07,24.83,21,52.6,47.49,58.82a1.52,1.52,0,0,0,.8-2.93c-24.53-8.8-40.41-31.8-46.55-56.37-.28-1.13-2-.65-1.74.48Z"/><path class="cls-5" d="M126.12,74.86a19.81,19.81,0,0,0,9.34-5.34,19.09,19.09,0,0,0,3.26-4.41,24.17,24.17,0,0,0,1.21-2.82c.14-.37.26-.74.37-1.12,0-.18.11-.38.15-.57.09-.35,0-.26-.16.27a4.06,4.06,0,0,0,.35-.87,3.09,3.09,0,0,0-3-3.89h-.12a3.18,3.18,0,0,0-2.74,1.56,17.44,17.44,0,0,0-.93,2.75c-.06.19-.13.37-.2.55s-.25.67-.06.17-.08.15-.12.25-.14.29-.22.44c-.35.7-.72,1.39-1.14,2.06-.19.3-.39.6-.59.89l-.35.48c-.16.22.43-.53,0,0A24.42,24.42,0,0,1,128,68.43c-.25.22.42-.3,0,0-.16.11-.31.23-.48.34-.32.22-.65.44-1,.64s-.67.39-1,.56c-.14.08-.29.15-.44.22s-.75.33-.23.11a2.37,2.37,0,0,0,1.26,4.56Z"/><path class="cls-6" d="M55.8,65A17.71,17.71,0,0,0,63,77.45a15.69,15.69,0,0,0,7.67,2.62c2.91.26,6.39-.3,8.66-2.23a3.76,3.76,0,0,0,.59-4.54,4,4,0,0,0-4.23-1.72c-1,.14-1.88.62-2.83.84a2.46,2.46,0,0,1-.75.16l.4,0-.46,0a12.72,12.72,0,0,1-1.38,0l-.77-.05c-.44,0,.62.15-.08,0-.5-.1-1-.21-1.49-.36l-.58-.2c-.88-.31.33.21-.14-.06s-.79-.41-1.17-.64-.66-.43-1-.66c.36.26.25.2,0,0l-.5-.44c-.29-.28-.57-.57-.84-.88l-.43-.51c.29.35.11.14-.06-.11a15.77,15.77,0,0,1-1.3-2.26c-.24-.51,0,.17-.06-.16s-.17-.44-.24-.66c-.14-.45-.26-.9-.37-1.36a2.94,2.94,0,0,0-3.23-2.11c-1.3.18-2.75,1.44-2.56,2.9Z"/><path class="cls-7" d="M185.76,96.58a24.8,24.8,0,0,1-2.62,8,2.12,2.12,0,0,0,3.31,2.55,16.26,16.26,0,0,0,5.07-9.78,2.92,2.92,0,1,0-5.76-.78Z"/><path class="cls-7" d="M61.29,140.64a14.5,14.5,0,0,0,10.59-4.08c1.32-1.21-.59-3-1.92-1.92a18.67,18.67,0,0,1-9,3.81c-1.28.17-.92,2.17.3,2.19Z"/><path class="cls-7" d="M190.58,89a1.75,1.75,0,0,0,0-3.5,1.75,1.75,0,0,0,0,3.5Z"/><path class="cls-7" d="M74.7,134.71a1.75,1.75,0,0,0,0-3.5,1.75,1.75,0,0,0,0,3.5Z"/></g></g></svg>